<?xml version="1.0" encoding="utf-8" ?><svg xmlns="http://www.w3.org/2000/svg" xmlns:xlink="http://www.w3.org/1999/xlink" width="1024" height="1820" viewBox="0 0 1024 1820"><path fill="#FAF0CA" d="M553.807 600.43C558.84 590.021 558.11 570.179 559.249 558.361C562.735 522.216 568.51 486.422 570.049 450.136C570.446 440.767 576.838 424.482 581.311 416.427C585.398 409.22 605.399 395.22 613.694 398.27C621.676 394.71 622.058 389.272 633.245 392.439C633.153 392.413 645.174 387.26 648.421 388.78C668.838 383.771 688.289 377.011 709.529 375.832C716.245 375.459 719.133 368.527 727.793 371.801L728.266 371.983C736.19 369.49 743.954 367.755 752.008 365.78L754.187 367.435C757.104 366.225 767.58 360.951 769.314 361.403C780.824 364.4 775.259 360.383 780.002 358.146C781.258 359.076 781.153 359.183 781.831 360.626C789.604 359.363 796.679 355.219 804.279 353.43C806.978 352.795 809.075 352.393 811.808 351.575C812.969 352.716 813.622 353.894 815.137 353.534C820.496 352.26 830.253 346.064 835.28 345.507C841.871 351.633 844.658 343.324 846.843 342.954C859.619 340.789 875.407 340.084 887.847 337.755C903.451 334.834 907.284 328.735 924.863 329.643C939.454 330.397 952.095 328.595 964.167 339.634C969.112 353.546 975.47 358.895 975.87 374.537C976.363 393.838 972.056 410.279 969.649 429.556L956.642 527.809C950.404 572.209 944.802 616.609 937.568 660.835C936.397 667.995 936.181 674.392 936.209 681.535C936.212 681.736 934.25 684.344 933.881 684.827C933.419 700.181 931.166 712.906 928.668 728.048C922.349 766.342 918.84 805.089 913.988 843.58C912.78 853.169 909.869 862.712 908.334 872.253C906.778 883.668 906.018 895.39 904.471 906.915L887.778 1032.38C887 1038.44 884.713 1044.09 883.755 1049.71C881.98 1060.12 881.516 1071.4 879.701 1081.82C877.117 1096.66 877.936 1111.94 876.318 1126.61C874.661 1141.64 862.95 1206.9 864.436 1217.81C864.055 1224.7 867.079 1223.75 865.976 1231.62L866.149 1232.62C867.168 1238.31 869.951 1243.16 870.346 1249.45C872.562 1284.77 882.062 1318.93 886.287 1354.05C887.21 1361.72 889.613 1369.72 890.03 1377.36L889.492 1378.23C892.133 1385.62 891.093 1388.08 891.873 1395.22L892.08 1395.93C895.866 1409.37 895.836 1426.78 898.345 1439.13C902.165 1440.7 906.447 1441.15 910.55 1441.77C912.058 1448.16 915.191 1461.4 912.254 1467.13C903.755 1473.63 840.717 1465.71 826.414 1464.84C823.041 1479 821.697 1498.18 819.041 1513.01C815.377 1533.46 810.477 1545.91 803.969 1564.97C798.616 1570.05 793.582 1573.76 786.276 1575.48C782.021 1576.48 776.813 1576.98 772.472 1576.45C768.696 1575.99 765.63 1573.43 762.068 1572.32C758.959 1571.35 743.437 1570.44 737.87 1569.28C732.975 1568.26 729.119 1565.35 724.45 1564.21C715.052 1561.93 704.052 1564.44 695.577 1559.2C692.105 1557.05 653.321 1549.44 646.827 1547.85C640.916 1546.41 635.072 1544.47 629.108 1543.3C622.791 1542.06 615.989 1541.62 609.834 1539.74C605.647 1538.46 601.823 1535.33 597.622 1534.48C591.418 1533.23 584.98 1533.11 578.783 1531.86C569.094 1529.91 559.463 1527.14 549.785 1525.03C545.08 1524 540.246 1523.6 535.588 1522.61C531.917 1521.83 528.949 1518.62 525.34 1517.7C523.048 1517.12 520.087 1517.78 517.698 1517.68C512.425 1517.45 506.995 1515.08 501.952 1513.62C486.224 1509.08 475.253 1507.49 463.538 1494.66C458.91 1472.21 462.09 1415.78 465.6 1391.7C470.064 1361.06 472.173 1328.94 475.863 1298.35C476.84 1296.59 477.141 1289.57 477.34 1287.11C477.453 1279.91 478.792 1270.21 479.281 1262.62C480.502 1243.7 481.975 1224.72 485.224 1206.01C485.503 1206.23 507.815 1209.05 510.354 1208.49C512.763 1206.99 514.437 1206.28 515.585 1203.65C512.906 1190.18 506.882 1102.82 505.97 1101.32C507.09 1097.2 507.449 1076.9 507.856 1070.76C509.934 1040.43 512.366 1010.13 515.153 979.858C515.935 971.085 516.828 961.296 517.058 952.388C517.081 951.508 518.409 949.685 519.046 948.982C515.081 940.332 505.773 923.977 502.579 915.459C499.719 907.834 486.796 871.379 487.626 865.091C486.16 861.93 484.076 862.279 483.784 857.87C478.359 853.816 471.816 842.16 471.194 835.455C471.151 834.99 471.717 829.382 471.749 828.173C484.224 810.658 491.196 805.585 511.529 799.517C521.491 800.706 526.651 810.036 530.393 818.661L532.2 817.673C532.519 811.644 533.993 807.468 534.677 801.859C542.007 741.77 547.666 681.419 553.834 621.185C554.533 614.353 555.268 607.154 553.807 600.43ZM858.464 1389.99C852.991 1387.76 844.198 1386.98 836.825 1384.63C836.452 1397.13 829.365 1424.86 829.9 1435.05C842.203 1433.07 851.413 1436.65 863.494 1437.74C865.777 1437.94 865.806 1437.48 867.046 1436.17C867.589 1432.22 859.804 1396.08 858.464 1389.99ZM840.644 1371.68C845.33 1372.17 852.68 1373.95 856.044 1372.52C851.79 1356.26 850.529 1332.15 846.639 1316.15C844.894 1320.87 838.6 1365.03 839.507 1370.24L840.644 1371.68Z"/><path fill="#F4D35E" d="M626.428 1002.73C630.798 1002.51 635.489 998.834 640.397 997.802C667.547 992.095 691.902 989.166 719.6 988.332C747.279 987.499 773.48 987.765 801.205 988.13C801.581 992.742 800.707 992.645 803.203 995.187C813.02 998.063 831.026 1000.93 841.082 998.336C839.446 1004.93 838.069 1010.58 836.926 1017.27C829.582 1058.18 821.394 1098.93 812.367 1139.5C811.601 1142.85 809.284 1154.19 807.588 1156.45L808.441 1159.65C810.982 1169.74 817.72 1180.64 826.169 1186.89C826.181 1187.45 824.852 1201.76 824.703 1202.36C820.337 1219.9 820.304 1237.18 817.901 1255.01C814.009 1278.38 809.224 1301.53 806.76 1325.18C806.083 1331.68 805.804 1338.22 804.911 1344.69C796.784 1376.51 793.669 1408.92 786.928 1441.01C785.381 1448.37 784.72 1457.62 782.425 1464.51C781.202 1470.55 780.534 1480.97 778.829 1486.13C779.326 1492.81 773.627 1513.1 771.14 1519.63C754.93 1532.87 744.609 1523.82 725.908 1520.6C721.556 1519.85 715.916 1518.12 711.583 1516.98C706.44 1515.62 697.416 1514.66 693.189 1512.37L691.583 1513.21C686.609 1510.99 677.949 1509.68 670.672 1506.68C664.879 1505.74 659.505 1504.48 653.779 1503.27C630.066 1498.29 606.347 1492.94 582.475 1488.85C581.623 1488.71 579.156 1487.35 578.32 1486.89C578.256 1480.6 581.931 1475.18 583.335 1469.29C582.846 1467.35 580.278 1461.8 580.353 1460.05C581.114 1442.45 580.229 1425.47 584.324 1408.18C584.96 1405.5 582.71 1400.01 583.7 1396.31C585.96 1387.86 585.382 1378.51 586.649 1370.08L587.395 1366.11C586.227 1360.19 589.057 1347.94 590.318 1342.19C590.637 1340.74 589.814 1335.35 590.042 1333.3C591.544 1319.75 592.742 1306.24 593.917 1292.68C594.436 1286.68 597.229 1279.99 597.832 1273.39C598.278 1268.52 597.103 1258.23 597.736 1254.33C600.897 1234.87 601.951 1215.17 605.464 1195.84C605.981 1192.99 604.71 1187.7 605.325 1184.02C606.492 1177.02 609.22 1168.44 610.354 1161.71C612.412 1149.48 615.218 1124.96 613.701 1113.07L613.637 1112.6L616.163 1110.83C616.381 1108.29 616.726 1103.74 616.648 1101.24C616.156 1085.42 626.972 1045.72 622.97 1032.35C623.009 1029.35 622.655 1030.48 624.226 1028.01C622.124 1017.45 627.368 1008.13 626.428 1002.73Z"/><path fill="#0D3B66" d="M690.847 1328.01C691.02 1323.95 690.836 1316.88 692.035 1313.25C699.78 1289.95 701.116 1262.48 707.799 1239.17C715.932 1210.81 721.697 1183.81 727.918 1155.08C729.882 1146.01 735.727 1128.26 745.514 1125.28C750.29 1126.01 778.332 1132.71 780.818 1135.69C775.898 1137.98 757.46 1135.38 752.142 1133.39C752.042 1140.52 750.688 1160.7 747.201 1166.4C742.934 1167.92 742.585 1165.12 740 1167.51C739.415 1172.35 740.446 1179.43 740.718 1184.45C742.224 1212.21 745.483 1240.01 743.881 1267.86C743.38 1276.56 739.563 1286.67 739.645 1295.58C739.674 1298.65 740.533 1301.8 740.333 1304.9C738.973 1315.84 743.369 1326.44 743.785 1337.03C744.627 1358.48 745.3 1380.08 745.571 1401.57C746.001 1421.85 745.34 1442.14 743.593 1462.35C743.059 1468.4 739.913 1476.54 740.057 1481.6C746.524 1485.05 770.437 1485.73 778.829 1486.13C779.326 1492.81 773.627 1513.1 771.14 1519.63C754.93 1532.87 744.609 1523.82 725.908 1520.6C721.556 1519.85 715.916 1518.12 711.583 1516.98C706.44 1515.62 697.416 1514.66 693.189 1512.37L691.583 1513.21C686.609 1510.99 677.949 1509.68 670.672 1506.68C669.81 1499.98 670.681 1488.82 667.358 1483.92C664.942 1482.72 663.531 1482.29 662.139 1479.93C661.156 1475.18 668.457 1460.65 669.526 1454.86C672.008 1441.42 674.636 1427.59 677.037 1414.15C678.533 1405.78 678.374 1395.91 681.442 1388.08L682.918 1380.12C686.464 1364.37 685.768 1342.9 690.847 1328.01Z"/><path fill="white" d="M682.918 1380.12C686.069 1380.96 688.789 1381.94 692.019 1381.78C693.088 1385.62 693.365 1386.28 692.407 1390.14C693.928 1395.66 694.155 1426.19 694.456 1434.19C695.065 1450.39 696.508 1464.44 698.045 1480.56C697.313 1481.42 693.041 1486.37 692.994 1487.07C692.52 1494.11 692.796 1501.49 692.635 1508.59C692.612 1509.6 692.916 1511.41 693.189 1512.37L691.583 1513.21C686.609 1510.99 677.949 1509.68 670.672 1506.68C669.81 1499.98 670.681 1488.82 667.358 1483.92C664.942 1482.72 663.531 1482.29 662.139 1479.93C661.156 1475.18 668.457 1460.65 669.526 1454.86C672.008 1441.42 674.636 1427.59 677.037 1414.15C678.533 1405.78 678.374 1395.91 681.442 1388.08L682.918 1380.12Z"/><path fill="#FFFFFE" d="M682.918 1380.12C686.069 1380.96 688.789 1381.94 692.019 1381.78C693.088 1385.62 693.365 1386.28 692.407 1390.14C688.081 1389.61 685.681 1389.14 681.442 1388.08L682.918 1380.12Z"/><path fill="white" d="M682.918 1380.12C686.464 1364.37 685.768 1342.9 690.847 1328.01C692.557 1332.41 692.969 1375.41 692.019 1381.78C688.789 1381.94 686.069 1380.96 682.918 1380.12Z"/><path fill="white" d="M793.758 1160C795.023 1159.37 806.022 1156.61 807.588 1156.45L808.441 1159.65C810.982 1169.74 817.72 1180.64 826.169 1186.89C826.181 1187.45 824.852 1201.76 824.703 1202.36C820.337 1219.9 820.304 1237.18 817.901 1255.01C814.009 1278.38 809.224 1301.53 806.76 1325.18C806.083 1331.68 805.804 1338.22 804.911 1344.69C796.784 1376.51 793.669 1408.92 786.928 1441.01C785.381 1448.37 784.72 1457.62 782.425 1464.51C779.381 1457.54 782.23 1395.12 783.011 1384.18C783.387 1378.91 784.977 1373.85 785.126 1368.51C785.302 1362.19 785.898 1310.84 784.896 1308.58C784.523 1307.73 783.187 1306.95 782.878 1306.11C782.066 1303.9 784.744 1295.33 784.632 1292.07C784.411 1285.64 782.959 1279 783.14 1272.61C783.354 1265.05 788.705 1240.44 785.544 1234.52C785.179 1233.84 793.109 1167.01 793.758 1160Z"/><path fill="#FCFFD0" d="M793.758 1160C792.238 1151.81 794.876 1141.85 795.394 1133.48C795.951 1124.48 799.956 1044.97 799.306 1043.61C797.785 1040.41 801.357 1022.98 801.561 1017.95C801.845 1010.95 800.105 1002.67 801.39 995.922L803.203 995.187C813.02 998.063 831.026 1000.93 841.082 998.336C839.446 1004.93 838.069 1010.58 836.926 1017.27C829.582 1058.18 821.394 1098.93 812.367 1139.5C811.601 1142.85 809.284 1154.19 807.588 1156.45C806.022 1156.61 795.023 1159.37 793.758 1160Z"/><path fill="#E2FFA7" d="M624.226 1028.01C629.683 1026.47 647.279 1019.74 650.887 1020.89L649.974 1023.15L650.809 1025.1C649.062 1024.79 648.58 1024.09 647.278 1022.88C645.062 1023.55 643.637 1025.21 642.12 1025.78C637.705 1027.43 627.203 1031.85 622.97 1032.35C623.009 1029.35 622.655 1030.48 624.226 1028.01Z"/><path fill="#E2FFA7" d="M642.13 1124.6C642.513 1120.56 651.559 1022.98 649.418 1028.68L650.958 1028.48C656.799 1035.39 645.759 1127.01 643.68 1140.41C643.277 1150.18 640.302 1162.53 640.082 1170.66C639.51 1191.76 642.348 1202.66 637.802 1223.76C634.473 1239.21 622.103 1273.93 624.222 1288.09L620.435 1288.24C620.754 1287.13 620.79 1287.05 620.778 1285.88C620.536 1260.88 633.14 1236.81 636.23 1211.65C637.915 1197.93 635.53 1185.46 636.081 1172.54C636.698 1158.09 639.833 1139.1 642.13 1124.6Z"/><path fill="#E2FFA7" d="M620.075 1338.63C621.747 1339.88 621.992 1340.19 623.956 1340.76C624.172 1354.52 616.183 1375.99 616.531 1390.07C616.989 1408.53 618.965 1425.17 615.408 1443.78C614.128 1450.48 616.085 1471.76 611.598 1475.51L610.151 1474.38C609.001 1448.02 615.92 1419.76 612.655 1392.02C611.763 1384.45 618.259 1348.03 620.075 1338.63Z"/><path fill="#E2FFA7" d="M620.435 1288.24L624.222 1288.09C625.619 1301.09 626.053 1327.92 623.956 1340.76C621.992 1340.19 621.747 1339.88 620.075 1338.63C621.675 1320.25 621.233 1306.35 620.435 1288.24Z"/><path fill="#E2FFA7" d="M713.443 1009.95C717.855 1009.27 725.189 1009.36 728.588 1012.48C722.472 1012.61 698.808 1014.38 693.706 1015.53C686.052 1015.55 680.125 1019.52 674.428 1017.15L675.47 1015.56C684.115 1010.4 702.98 1010.79 713.443 1009.95Z"/><path fill="#E2FFA7" d="M763.391 1009.75C773.962 1008.94 788.036 1009.89 797.161 1015.71L797.183 1016.93L794.835 1017.34C782.438 1013.43 775.685 1014.47 763.093 1013.64C760.716 1013.48 758.736 1013.46 757.365 1011.85C759.61 1009.89 760.173 1010.32 763.391 1009.75Z"/><path fill="#E2FFA7" d="M698.349 1099.14L700.593 1100.73C698.976 1108.65 677.054 1118.21 669.556 1119.99C668.386 1118.8 668.734 1119.52 668.702 1117.68C672.121 1114.34 676.966 1113.92 681.547 1113.33C680.498 1112.44 680.567 1112.46 679.899 1111.24C689.211 1109.08 692.174 1105.97 698.349 1099.14Z"/><path fill="#FAF4CC" d="M779.999 1339.44L780.894 1339.35L781.037 1341.46L779.822 1341.67L779.999 1339.44Z"/><path fill="#FFFFFE" d="M838.107 639.513C840.095 639.39 844.441 638.938 846.153 639.307C848.081 644.675 850.499 652.02 852.705 657.116C866.457 660.297 879.994 662.739 893.334 665.768C894.038 669.335 892.236 681.901 890.959 685.779C885.381 739.985 876.916 795.739 870.816 850.511L871.917 851.845C868.552 862.102 867.255 886.174 865.879 897.257L852.54 997.601C848.971 997.165 848.466 997.249 844.99 997.907L842.591 997.686L841.082 998.336C831.026 1000.93 813.02 998.063 803.203 995.187C800.707 992.645 801.581 992.742 801.205 988.13C773.48 987.765 747.279 987.499 719.6 988.332C691.902 989.166 667.547 992.095 640.397 997.802C635.489 998.834 630.798 1002.51 626.428 1002.73C624.049 998.454 628.418 938.949 628.159 938.386C611.49 956.761 603.771 975.103 573.943 978.352C564.286 979.404 552.518 976.967 544.327 972.459C544.184 972.434 544.042 972.409 543.899 972.384C535.595 968.868 526.296 955.951 519.765 949.668L519.046 948.982C515.081 940.332 505.773 923.977 502.579 915.459C499.719 907.834 486.796 871.379 487.626 865.091C486.16 861.93 484.076 862.279 483.784 857.87C478.359 853.816 471.816 842.16 471.194 835.455C471.151 834.99 471.717 829.382 471.749 828.173C484.224 810.658 491.196 805.585 511.529 799.517C521.491 800.706 526.651 810.036 530.393 818.661L532.2 817.673C532.659 821.077 531.844 823.316 534.937 824.989C545.128 830.5 552.634 841.921 562.335 847.129L562.559 848.779C564.47 849.942 566.267 851.038 568.131 852.287L571.478 854.539C575.059 850.284 579.765 830.311 580.969 824.776C583.047 823.494 583.608 823.336 584.936 821.378C582.708 812.449 592.968 797.456 595.528 788.679C602.595 764.533 611.957 736.717 628.03 716.946C636.13 706.983 660.048 697.836 672.367 694.778C675.719 693.946 681.84 694.695 684.101 692.682C689.105 688.227 682.595 681.327 683.772 675.011C685.72 671.934 684.626 672.937 688.007 671.295C696.469 667.126 706.859 664.492 716.13 662.983C719.046 662.508 721.823 662.667 724.328 661.042L725.004 659.324C733.122 662.103 741.971 660.831 750.254 661.128L751.445 660.259C753.915 662.273 755.656 662.782 758.517 664.066C769.705 669.086 768.017 677.566 769.005 687.588L769.201 690.475C771.732 693.2 773.623 693.86 776.973 695.451C778.174 691.468 783.407 681.745 785.593 677.735C793.499 663.329 805.2 648.605 821.354 643.308C823.918 642.468 835.438 639.682 838.107 639.513Z"/><path fill="#FFFFFE" d="M744.405 770.77C745.656 771.051 747.547 771.787 748.666 771.273C754.254 768.702 825.216 778.371 833.428 781.541C834.167 781.826 834.86 782.197 835.535 782.609C838.091 790.766 833.329 812.099 832.862 822.358C832.346 823.952 827.447 855.429 826.888 858.304C823.554 875.458 799.513 978.686 801.205 988.13C773.48 987.765 747.279 987.499 719.6 988.332C691.902 989.166 667.547 992.095 640.397 997.802C635.489 998.834 630.798 1002.51 626.428 1002.73C624.049 998.454 628.418 938.949 628.159 938.386C626.161 928.729 635.132 905.406 638.778 895.736C638.996 894.94 640.56 891.927 641.018 890.999C644.987 881.679 651.581 869.132 656.193 859.782C659.928 851.16 662.867 837.112 661.905 827.749C661.084 824.748 662.108 821.485 660.831 817.278C662.734 816.481 662.965 815.187 664.206 813.07C664.152 809.182 659.534 786.591 658.297 782.54C671.504 779.916 700.227 773.989 712.853 773.873C717.89 771.673 737.144 771.496 744.405 770.77Z"/><path fill="#E2FFA7" d="M638.778 895.736C641.665 896.387 641.171 896.65 643.398 899.131C636.382 908.464 635.796 930.658 628.159 938.386C626.161 928.729 635.132 905.406 638.778 895.736Z"/><path fill="#E2FFA7" d="M661.905 827.749C663.644 825.681 663.882 825.308 666.497 824.784C666.045 838.845 667.055 848.862 659.457 861.815L656.193 859.782C659.928 851.16 662.867 837.112 661.905 827.749Z"/><path fill="#FAF0CA" d="M641.018 890.999C644.987 881.679 651.581 869.132 656.193 859.782L659.457 861.815C659.071 865.267 648.523 885.264 646.072 892.124L641.018 890.999Z"/><path fill="#E2FFA7" d="M664.206 813.07C666.016 817.091 664.854 822.981 666.497 824.784C663.882 825.308 663.644 825.681 661.905 827.749C661.084 824.748 662.108 821.485 660.831 817.278C662.734 816.481 662.965 815.187 664.206 813.07Z"/><path fill="#E2FFA7" d="M641.018 890.999L646.072 892.124C645.156 894.387 644.097 896.811 643.398 899.131C641.171 896.65 641.665 896.387 638.778 895.736C638.996 894.94 640.56 891.927 641.018 890.999Z"/><path fill="#FCFFD0" d="M838.107 639.513C840.095 639.39 844.441 638.938 846.153 639.307C848.081 644.675 850.499 652.02 852.705 657.116C866.457 660.297 879.994 662.739 893.334 665.768C894.038 669.335 892.236 681.901 890.959 685.779C885.381 739.985 876.916 795.739 870.816 850.511C865.954 843.19 862.588 793.307 859.285 781.266C856.675 765.524 851.929 755.287 842.335 742.661C831.138 727.926 810.13 719.92 798.146 708.034L794.217 705.855C788.858 704.327 781.317 698.927 776.973 695.451C778.174 691.468 783.407 681.745 785.593 677.735C793.499 663.329 805.2 648.605 821.354 643.308C823.918 642.468 835.438 639.682 838.107 639.513Z"/><path fill="white" d="M852.705 657.116C866.457 660.297 879.994 662.739 893.334 665.768C894.038 669.335 892.236 681.901 890.959 685.779L888.669 684.218C881.114 690.412 883.985 699.66 870.984 701.073C869.983 700.419 853.356 660.654 852.705 657.116Z"/><path fill="#A5A5A5" d="M838.107 639.513C840.095 639.39 844.441 638.938 846.153 639.307C848.081 644.675 850.499 652.02 852.705 657.116C853.356 660.654 869.983 700.419 870.984 701.073C869.87 702.667 869.2 703.772 867.794 705.107C866.816 702.645 859.602 690.301 857.625 686.32C850.031 671.194 843.509 655.553 838.107 639.513Z"/><path fill="#EEE" d="M794.217 705.855C801.172 695.85 809.291 655.092 813.518 652.494C819.548 657.578 804.563 703.645 798.146 708.034L794.217 705.855Z"/><path fill="#A5A5A5" d="M870.984 701.073C875.782 702.327 876.065 701.626 879.172 704.643C879.821 707.53 879.946 706.333 878.561 709.143C875.228 711.274 873.26 711.348 869.805 709.404L867.794 705.107C869.2 703.772 869.87 702.667 870.984 701.073Z"/><path fill="#FFDDC9" d="M875.017 723.855L875.551 719.51L876.474 718.81C877.687 724.325 877.437 726.526 877.166 732.069C877.272 739.746 876.852 754.746 871.592 760.288L870.238 760.108C868.855 756.434 873.992 730.658 875.017 723.855Z"/><path fill="#A5A5A5" d="M875.017 723.855L875.551 719.51L876.474 718.81C877.687 724.325 877.437 726.526 877.166 732.069L876.652 731.25C876.763 727.926 877.095 726.54 875.017 723.855Z"/><path fill="#FFDDC9" d="M852.857 718.008C856.811 714.837 860.524 712.108 864.614 709.157C861.026 715.3 858.174 718.214 853.427 723.482L853.229 724.353C850.662 727.384 845.706 733.548 841.478 732.077C841.755 726.877 849.098 721.375 852.857 718.008Z"/><path fill="#FFDDC9" d="M865.179 719.652L865.984 720.146C862.387 732.493 859.811 745.07 857.23 757.655C856.55 757.379 856.388 756.969 855.818 756.298C855.178 747.351 860.14 726.847 865.179 719.652Z"/><path fill="#0D3B66" d="M832.862 822.358C835.645 819.35 837.458 797.488 839.08 790.689C839.943 794.59 839.457 797.087 839.036 801.046L840.026 802.252C838.488 823.308 834.395 846.271 831.145 867.181C829.643 876.84 825.419 888.015 825.05 898.039C824.917 901.673 827.279 904.599 829.409 907.279C827.202 908.946 826.459 909.456 824.712 911.579L823.368 911.728C822.69 914.358 821.492 918.726 821.945 921.368C826.122 945.749 832.614 969.806 837.96 993.962C838.257 995.303 841.389 996.991 842.591 997.686L841.082 998.336C831.026 1000.93 813.02 998.063 803.203 995.187C800.707 992.645 801.581 992.742 801.205 988.13C799.513 978.686 823.554 875.458 826.888 858.304C827.447 855.429 832.346 823.952 832.862 822.358Z"/><path fill="#E2FFA7" d="M645.46 754.357C641.786 740.499 635.458 725.857 632.807 711.714C641.141 726.429 647.198 740.122 651.601 756.519C653.3 763.099 655.46 771.895 658.277 777.924C662.711 777.785 669.002 775.465 673.302 774.705C682.375 773.101 706.183 768.412 713.979 769.357C716.22 767.507 738.77 766.175 742.689 765.882L739.41 769.451C740.819 770.448 742.651 770.517 744.405 770.77C737.144 771.496 717.89 771.673 712.853 773.873C700.227 773.989 671.504 779.916 658.297 782.54C659.534 786.591 664.152 809.182 664.206 813.07C662.965 815.187 662.734 816.481 660.831 817.278C656.561 796.105 651.433 775.114 645.46 754.357Z"/><path fill="#E2FFA7" d="M742.689 765.882L743.572 766.055C745.015 766.329 756.744 766.645 757.63 766.429C767.599 763.996 833.522 777.442 836.061 775.837C838.5 769.042 837.446 757.821 839.489 752.784L840.481 752.59C845.891 758.193 842.898 798.627 840.026 802.252L839.036 801.046C839.457 797.087 839.943 794.59 839.08 790.689C837.458 797.488 835.645 819.35 832.862 822.358C833.329 812.099 838.091 790.766 835.535 782.609C834.86 782.197 834.167 781.826 833.428 781.541C825.216 778.371 754.254 768.702 748.666 771.273C747.547 771.787 745.656 771.051 744.405 770.77C742.651 770.517 740.819 770.448 739.41 769.451L742.689 765.882Z"/><path fill="#E2FFA7" d="M483.784 857.87C483.65 837.355 517.087 807.556 529.738 821.743L529.157 822.888C503.869 827.264 496.088 841.319 488.836 864.727L487.626 865.091C486.16 861.93 484.076 862.279 483.784 857.87Z"/><path fill="#E2FFA7" d="M769.201 690.475C766.203 691.785 745.41 688.283 741.224 687.176C733.696 685.186 692.352 693.655 689.935 692.421L689.945 693.085L688.71 693.105C691.168 692.117 691.031 691.209 692.741 690.327C716.538 678.053 744.056 680.753 769.005 687.588L769.201 690.475Z"/><path fill="#E2FFA7" d="M568.131 852.287L571.478 854.539C571.987 855.332 572.522 856.338 572.998 857.173C570.725 865.822 560.734 869.061 556.415 877.017C554.934 879.743 551.35 884.876 548.696 886.452L547.668 885.662C547.07 875.879 559.052 857.029 568.131 852.287Z"/><path fill="#E2FFA7" d="M829.409 907.279C832.018 911.376 839.8 922.529 839.134 927.145C833.828 924.837 828.881 916.129 824.712 911.579C826.459 909.456 827.202 908.946 829.409 907.279Z"/><path fill="#E2FFA7" d="M592.607 853.203C601.907 860.048 608.266 872.071 610.767 883.195C608.901 886.524 608.6 887.287 605.525 889.646C601.74 874.406 599.068 867.944 592.607 853.203Z"/><path fill="#FAF0CA" d="M605.525 889.646C608.6 887.287 608.901 886.524 610.767 883.195C612.364 890.081 613.352 896.621 612.338 903.747L611.234 903.909C608.219 900.12 607.162 894.389 605.525 889.646Z"/><path fill="white" d="M848.63 387.424C853.968 387.433 855.391 381.591 869.317 382.907C870.33 383.003 871.341 383.107 872.352 383.218C872.303 382.106 872.407 381.463 872.818 380.428C875.323 380.102 876.36 380.834 878.679 381.85C884.312 379.791 885.173 377.956 892.028 377.444C904.268 376.528 919.399 369.691 926.574 384.105C933.516 398.054 928.2 418.831 925.881 433.938L917.444 487.609C916.772 492.101 914.197 516.586 913.048 519.499C911.062 531.253 909.38 553.025 908.928 565.552C908.931 565.49 905.585 569.568 905.591 569.636C905.895 573.423 907.932 574.464 907.296 578.121L905.071 578.67C903.857 581.792 906.761 585.943 906.054 586.967C901.685 593.298 904.943 611.26 900.303 615.499C900.785 615.058 900.586 632.817 900.454 631.801L899.707 632.791C900.309 637.225 895.363 651.893 895.759 657.62C895.943 660.271 893.392 662.199 893.334 665.768C879.994 662.739 866.457 660.297 852.705 657.116C850.499 652.02 848.081 644.675 846.153 639.307C844.441 638.938 840.095 639.39 838.107 639.513C835.438 639.682 823.918 642.468 821.354 643.308C805.2 648.605 793.499 663.329 785.593 677.735C783.407 681.745 778.174 691.468 776.973 695.451C773.623 693.86 771.732 693.2 769.201 690.475L769.005 687.588C768.017 677.566 769.705 669.086 758.517 664.066C755.656 662.782 753.915 662.273 751.445 660.259L750.254 661.128C741.971 660.831 733.122 662.103 725.004 659.324L724.328 661.042C721.823 662.667 719.046 662.508 716.13 662.983C706.859 664.492 696.469 667.126 688.007 671.295C684.626 672.937 685.72 671.934 683.772 675.011C682.595 681.327 689.105 688.227 684.101 692.682C681.84 694.695 675.719 693.946 672.367 694.778C660.048 697.836 636.13 706.983 628.03 716.946C611.957 736.717 602.595 764.533 595.528 788.679C592.968 797.456 582.708 812.449 584.936 821.378C583.608 823.336 583.047 823.494 580.969 824.776C579.765 830.311 575.059 850.284 571.478 854.539L568.131 852.287C566.267 851.038 564.47 849.942 562.559 848.779L562.335 847.129C561.326 840.48 564.252 837.056 564.96 831.009C565.213 828.845 562.697 824.375 563.648 821.397L565.974 821.09C566.963 818.511 564.409 813.055 564.623 812.541C567.837 804.842 567.113 797.283 568.341 789.576C571.791 767.912 574.45 745.93 575.145 723.985C575.233 721.209 577.059 721.097 577.258 718.215C572.899 711.77 577.681 714.298 577.792 712.946C578.561 703.579 579.111 694.785 581.212 685.561C581.424 682.537 580.631 679.43 580.951 676.412C583.37 653.625 588.73 630.921 587.881 607.952C587.807 605.962 590.542 600.567 590.754 598.025C591.32 591.236 591.236 584.419 591.931 577.641C594.711 559.107 596.524 540.193 599.029 521.63C599.964 514.697 599.746 489.61 601.354 485.918L603.516 485.937L603.589 483.583L601.637 484.079C601.015 480.376 604.25 471.824 604.385 467.392C604.505 463.481 603.881 459.97 604.509 456.211C604.878 453.012 607.009 449.511 607.821 446.596C609.049 442.181 613.036 439.746 613.929 435.939L615.596 435.135C620.078 432.978 625.97 428.685 630.149 426.078C630.521 425.845 633.92 428.14 637.182 427.245L637.135 425.402C639.334 421.132 645.398 424.121 649.885 423.736C651.405 422.509 652.661 421.495 653.654 420.693C680.01 419.107 714.398 409.203 740.946 404.812C745.742 404.019 748.342 402.113 752.292 404.74C757.064 402.113 773.462 399.686 778.651 399.531C785.816 396.878 830.445 389.632 838.272 389.532C842.319 385.565 845.191 387.747 848.63 387.424Z"/><path fill="#0D3B66" d="M717.255 516.352C724.324 516.808 729.395 519.436 734.044 524.673C734.916 525.651 735.737 526.673 736.504 527.734C737.514 530.284 743.258 543.794 743.964 545.087L745.664 545.601C750.682 542.53 750.847 541.52 756.551 542.88C772.06 546.577 778.103 550.116 777.733 567.222C778.512 567.637 782.112 569.61 782.732 569.961C792.31 575.394 790.105 587.045 788.046 595.838C786.666 601.732 777.942 609.398 777.337 613.886C777.559 616.873 777.029 617.788 775.955 620.49C772.161 624.414 766.995 623.251 762.07 622.718C763.27 624.783 765.987 628.963 766.188 631.044L765.097 632.48C768.348 636.518 763.713 644.99 760.459 647.938C759.921 647.841 757.498 647.324 757.186 647.441L757.712 649.323L756.839 650.243C755.653 652.669 755.134 653.509 754.756 656.237C753.391 657.473 751.842 658.536 751.445 660.259L750.254 661.128C741.971 660.831 733.122 662.103 725.004 659.324L724.328 661.042C721.823 662.667 719.046 662.508 716.13 662.983C706.859 664.492 696.469 667.126 688.007 671.295L685.174 663.012C674.832 660.715 665.675 660.267 658.73 652.835C658.547 644.135 658.98 638.186 661.401 629.641C661.673 628.681 659.237 627.203 658.565 626.905C643.91 620.408 657.097 612.124 662.814 605.524C666.762 590.514 659.651 577.28 667.279 561.886C666.462 558.055 664.98 556.925 664.45 551.468C663.538 542.073 665.853 534.486 672.134 527.269C672.692 526.628 673.701 528.284 675.45 528.58C674.714 525.604 674.651 526.834 675.705 523.934C680.066 519.358 700.448 519.554 706.607 518.28C712.428 517.076 710.495 516.561 717.255 516.352Z"/><path fill="#F4D35E" d="M667.279 561.886C672.939 573.476 678.029 576.169 687.277 584.455C692.2 589.046 698.131 598.332 704 601.139C708.733 603.404 719.958 590.462 726.168 592.897C731.805 595.108 734.482 604.529 732.269 609.883C729.768 615.802 723.879 619.12 718.297 621.517C715.268 622.818 709.876 623.819 709.014 627.055C706.549 636.304 709.318 653.326 719.2 657.392C720.956 659.54 721.883 659.8 724.328 661.042C721.823 662.667 719.046 662.508 716.13 662.983C706.859 664.492 696.469 667.126 688.007 671.295L685.174 663.012C674.832 660.715 665.675 660.267 658.73 652.835C658.547 644.135 658.98 638.186 661.401 629.641C661.673 628.681 659.237 627.203 658.565 626.905C643.91 620.408 657.097 612.124 662.814 605.524C666.762 590.514 659.651 577.28 667.279 561.886Z"/><path fill="#0D3B66" d="M687.34 624.518C688.406 624.896 688.42 625.15 689.348 626.003C688.84 630.253 682.303 633.756 678.696 635.124C677.197 635.693 673.033 635.057 671.307 634.807C669.429 633.288 669.899 634.213 669.447 632.202C680.264 629.789 679.108 631.906 687.34 624.518Z"/><path fill="#0D3B66" d="M673.095 597.751C679.764 597.726 677.031 605.722 675.583 609.909C672.226 609.205 670.175 607.148 670.048 603.531C669.921 599.908 670.657 600.114 673.095 597.751Z"/><path fill="#0D3B66" d="M668.051 581.286C673.039 580.781 679.912 580.215 683.057 584.998L681.602 585.217C676.317 583.707 671.27 587.152 667.258 583.49L668.051 581.286Z"/><path fill="#0D3B66" d="M717.255 516.352C724.324 516.808 729.395 519.436 734.044 524.673C734.916 525.651 735.737 526.673 736.504 527.734C732.921 528.069 731.876 530.824 727.513 530.558C722.014 526.999 725.679 523.72 723.131 519.086C720.732 519.072 720.464 519.092 718.181 518.446L717.255 516.352Z"/><path fill="#E2FFA7" d="M720.39 654.195L723.638 653.923C725.51 656.724 724.129 655.92 725.004 659.324L724.328 661.042C721.883 659.8 720.956 659.54 719.2 657.392C720.602 655.576 720.174 656.589 720.39 654.195Z"/><path fill="#E2FFA7" d="M754.756 656.237C751.628 654.418 750.736 651.382 752.25 648.138L754.391 647.897L756.839 650.243C755.653 652.669 755.134 653.509 754.756 656.237Z"/><path fill="#484848" d="M718.507 650.529C720.048 651.71 719.67 651.89 720.39 654.195L718.67 653.711L718.507 650.529Z"/><path fill="#C3BF9E" d="M685.426 526.918C686.879 527.912 688.032 529.03 689.334 530.206C690.849 533.585 689.676 536.779 688.602 540.265L687.798 539.992C687.82 534.938 688.39 533.345 685.043 529.311L685.426 526.918Z"/><path fill="#484848" d="M728.244 576.946C730.597 576.143 731.025 576.206 733.523 576.354L734.953 577.584L733.704 578.908C731.499 578.965 730.306 578.878 728.109 578.646L728.244 576.946Z"/><path fill="#484848" d="M734.9 591.374L738.229 592.694C739.842 595.214 740.197 596.751 741.068 599.544C737.939 597.453 736.789 594.679 734.9 591.374Z"/><path fill="#C3BF9E" d="M728.109 578.646L726.602 579.842C723.973 578.406 723.204 578.145 721.752 575.473C724.134 576.186 725.832 576.494 728.244 576.946L728.109 578.646Z"/><path fill="#484848" d="M743.995 631.006C744.675 631.716 744.718 632.172 745.143 633.16L743.68 635.949L742.329 635.858L743.995 631.006Z"/><path fill="#FFFFFE" d="M848.63 387.424C853.968 387.433 855.391 381.591 869.317 382.907C870.33 383.003 871.341 383.107 872.352 383.218C872.303 382.106 872.407 381.463 872.818 380.428C875.323 380.102 876.36 380.834 878.679 381.85C884.312 379.791 885.173 377.956 892.028 377.444C904.268 376.528 919.399 369.691 926.574 384.105C933.516 398.054 928.2 418.831 925.881 433.938L917.444 487.609C916.772 492.101 914.197 516.586 913.048 519.499L912.628 515.915C910.27 514.033 897.975 513.016 893.665 511.72C875.623 506.296 856.77 502.549 838.473 497.678C822.072 493.311 804.914 487.044 788.156 484.602C794.077 476.468 848.25 389.48 848.63 387.424Z"/><path fill="#FFFFFE" d="M838.272 389.532C838.045 389.717 837.816 389.899 837.591 390.086C831.266 395.346 798.769 454.17 792.51 465.466C790.164 469.701 786.457 479.323 782.722 482.2C782.551 482.332 781.07 482.303 780.876 482.292C779.432 482.209 737.847 470.438 737.493 470.228C739.744 463.371 762.994 428.381 767.834 418.882C770.469 413.712 777.172 406.17 778.651 399.531C785.816 396.878 830.445 389.632 838.272 389.532Z"/><path fill="#FFFFFE" d="M613.929 435.939L615.596 435.135C620.078 432.978 625.97 428.685 630.149 426.078C630.521 425.845 633.92 428.14 637.182 427.245L637.135 425.402C639.334 421.132 645.398 424.121 649.885 423.736C651.405 422.509 652.661 421.495 653.654 420.693C680.01 419.107 714.398 409.203 740.946 404.812C745.742 404.019 748.342 402.113 752.292 404.74C749.997 411.516 720.996 457.077 715.529 464.703C683.921 457.57 651.276 448.058 619.714 440.133C617.694 439.626 615.319 437.467 613.929 435.939Z"/><path fill="#0D3B66" d="M846.153 639.307C851.553 636.502 874.655 633.505 881.602 632.67C884.582 623.991 864.169 602.623 893.499 584.32C906.308 596.38 896.953 595.417 890.895 600.106C883.793 605.602 885.286 625.426 892.362 631.047C895.398 633.459 895.688 632.7 899.707 632.791C900.309 637.225 895.363 651.893 895.759 657.62C895.943 660.271 893.392 662.199 893.334 665.768C879.994 662.739 866.457 660.297 852.705 657.116C850.499 652.02 848.081 644.675 846.153 639.307Z"/><path fill="white" d="M628.159 938.386C628.418 938.949 624.049 998.454 626.428 1002.73C627.368 1008.13 622.124 1017.45 624.226 1028.01C622.655 1030.48 623.009 1029.35 622.97 1032.35C626.972 1045.72 616.156 1085.42 616.648 1101.24C616.726 1103.74 616.381 1108.29 616.163 1110.83L613.637 1112.6L613.701 1113.07C615.218 1124.96 612.412 1149.48 610.354 1161.71C609.22 1168.44 606.492 1177.02 605.325 1184.02C604.71 1187.7 605.981 1192.99 605.464 1195.84C601.951 1215.17 600.897 1234.87 597.736 1254.33C597.103 1258.23 598.278 1268.52 597.832 1273.39C597.229 1279.99 594.436 1286.68 593.917 1292.68C592.742 1306.24 591.544 1319.75 590.042 1333.3C589.814 1335.35 590.637 1340.74 590.318 1342.19C589.057 1347.94 586.227 1360.19 587.395 1366.11C586.84 1365.39 586.253 1364.7 585.675 1364C582.359 1359.96 513.122 1346.22 502.275 1343.2C506.396 1334.5 507.021 1308.6 507.979 1297.85C508.937 1287.09 507.727 1289.72 511.398 1279.12C512.615 1268.21 513.716 1256.88 514.82 1245.96C515.579 1238.45 521.772 1214.06 519.063 1208.2C521.848 1204.64 523.522 1176.9 523.623 1170.28C523.914 1151.07 528.781 1132.77 530.146 1113.89C529.384 1113.1 529.232 1113.03 528.275 1112.56L527.405 1112.14L527.905 1111.18C528.47 1110.08 531.372 1105.39 531.383 1104.67C531.624 1089.61 534.317 1074.86 535.231 1059.83L537.236 1058.06C538.047 1055.53 535.704 1047.06 535.565 1042.66L538.481 1040.21L536.061 1038.31C541.165 1029.25 540.509 995.557 543.232 983.805C544.083 980.135 545.017 975.72 543.899 972.384C544.042 972.409 544.184 972.434 544.327 972.459C552.518 976.967 564.286 979.404 573.943 978.352C603.771 975.103 611.49 956.761 628.159 938.386Z"/><path fill="white" d="M502.275 1343.2C513.122 1346.22 582.359 1359.96 585.675 1364C586.253 1364.7 586.84 1365.39 587.395 1366.11L586.649 1370.08C585.382 1378.51 585.96 1387.86 583.7 1396.31C582.71 1400.01 584.96 1405.5 584.324 1408.18C580.229 1425.47 581.114 1442.45 580.353 1460.05C580.278 1461.8 582.846 1467.35 583.335 1469.29C581.931 1475.18 578.256 1480.6 578.32 1486.89C577.556 1487.15 576.615 1487.47 575.496 1487.85C565.101 1485.15 555.049 1482.22 544.429 1480.96C536.868 1473.11 526.194 1480.32 518.208 1474.54C512.72 1470.57 504.244 1466.22 500.386 1460.57C487.086 1441.11 503.717 1361.42 501.191 1356.17C501.068 1355.91 500.916 1355.67 500.779 1355.43C502.832 1350.29 503.947 1349.04 502.275 1343.2Z"/><path fill="#FFFFFE" d="M502.275 1343.2C513.122 1346.22 582.359 1359.96 585.675 1364C586.253 1364.7 586.84 1365.39 587.395 1366.11L586.649 1370.08C576.789 1367.99 508.043 1352.14 504.031 1352.98L502.546 1355.38L500.779 1355.43C502.832 1350.29 503.947 1349.04 502.275 1343.2Z"/><path fill="#0D3B66" d="M859.98 1233.53C861.057 1231.19 861.026 1230.16 862.94 1229.1L865.976 1231.62L866.149 1232.62C867.168 1238.31 869.951 1243.16 870.346 1249.45C872.562 1284.77 882.062 1318.93 886.287 1354.05C887.21 1361.72 889.613 1369.72 890.03 1377.36L889.492 1378.23C892.133 1385.62 891.093 1388.08 891.873 1395.22L892.08 1395.93C895.866 1409.37 895.836 1426.78 898.345 1439.13C902.165 1440.7 906.447 1441.15 910.55 1441.77C912.058 1448.16 915.191 1461.4 912.254 1467.13C903.755 1473.63 840.717 1465.71 826.414 1464.84C827.724 1455.05 828.617 1444.96 829.9 1435.05C842.203 1433.07 851.413 1436.65 863.494 1437.74C865.777 1437.94 865.806 1437.48 867.046 1436.17C867.589 1432.22 859.804 1396.08 858.464 1389.99C852.991 1387.76 844.198 1386.98 836.825 1384.63C836.866 1382.88 839.328 1372.93 840.644 1371.68C845.33 1372.17 852.68 1373.95 856.044 1372.52C851.79 1356.26 850.529 1332.15 846.639 1316.15C845.466 1307.25 856.621 1246.05 859.98 1233.53Z"/><path fill="#FFFFFE" d="M840.644 1371.68C845.33 1372.17 852.68 1373.95 856.044 1372.52C854.519 1377.07 858.978 1382.96 858.464 1389.99C852.991 1387.76 844.198 1386.98 836.825 1384.63C836.866 1382.88 839.328 1372.93 840.644 1371.68Z"/><path fill="#FCFFD0" d="M844.99 997.907C848.466 997.249 848.971 997.165 852.54 997.601C852.018 1004.71 850.398 1011.7 849.355 1018.74C841.984 1068.51 833.852 1117.99 828.841 1168.09C828.233 1174.17 827.671 1181.04 826.169 1186.89C817.72 1180.64 810.982 1169.74 808.441 1159.65L807.588 1156.45C809.284 1154.19 811.601 1142.85 812.367 1139.5C821.394 1098.93 829.582 1058.18 836.926 1017.27C838.069 1010.58 839.446 1004.93 841.082 998.336L842.591 997.686L844.99 997.907Z"/><path fill="#A5A5A5" d="M836.926 1017.27L840.429 1018.67C838.804 1031.51 835.792 1044.17 833.659 1056.86C828.734 1086.18 822.201 1113.87 815.498 1142.76C814.021 1149.01 813.363 1156.07 808.441 1159.65L807.588 1156.45C809.284 1154.19 811.601 1142.85 812.367 1139.5C821.394 1098.93 829.582 1058.18 836.926 1017.27Z"/><path fill="#A5A5A5" d="M842.591 997.686L844.99 997.907C843.523 1004.84 842.003 1011.76 840.429 1018.67L836.926 1017.27C838.069 1010.58 839.446 1004.93 841.082 998.336L842.591 997.686Z"/><path fill="#E2FFA7" d="M864.436 1217.81C864.055 1224.7 867.079 1223.75 865.976 1231.62L862.94 1229.1C861.026 1230.16 861.057 1231.19 859.98 1233.53C860.492 1227.82 860.142 1221.4 864.436 1217.81Z"/><path fill="#FCFFD0" d="M112.682 708.905C102.04 700.788 104.446 672.51 114.85 664.924L115.475 664.473C133.153 651.556 117.561 650.473 118.288 636.88C118.587 631.291 119.996 616.632 123.183 612.946C129.159 606.034 134.368 596.232 144.501 595.175C145.088 595.081 149.682 593.142 149.731 593.005C153.232 583.069 153.38 557.111 158.195 549.345C165.459 537.627 177.555 522.543 190.828 519.318C196.782 518.115 207.857 515.479 213.341 518.439C217.461 521.378 218.263 519.878 222.795 519.646C236.256 518.957 232.977 531.944 247.775 528.688C262.615 525.422 263.907 544.439 270.633 549.714C278.851 551.687 277.732 556.919 278.669 564.401C271.111 580.642 268.6 577.689 269.043 597.022C271.084 599.83 272.879 601.057 275.376 603.208C291.644 617.22 297.122 624.318 291.634 645.983C290.521 650.376 289.649 660.568 289.25 665.444C291.982 666.99 299.513 670.445 301.285 671.662C303.101 668.193 304.697 661.296 306.169 657.209C311.333 642.874 316.041 623.314 328.153 613.181C329.372 612.161 336.648 608.335 338.392 607.365C343.523 603.272 349.207 602.847 355.611 601.635L357.383 601.27C362.653 601.873 366.706 596.696 372.495 599.936C382.007 603.533 405.607 597.843 412.378 589.668C414.11 581.953 418.343 577.483 425.419 574.369C427.551 573.367 429.815 571.982 431.877 570.798L433.619 571.126C442.933 575.755 443.916 574.309 451.897 581.302C452.456 592.86 461.569 601.8 459.095 610.723C462.038 622.495 484.775 631.281 487.882 645.688C493.712 672.718 494.58 702.253 497.716 729.829C498.494 736.674 499.339 751.507 501.567 757.196C509.226 772.757 506.657 785.548 511.529 799.517C491.196 805.585 484.224 810.658 471.749 828.173C471.717 829.382 471.151 834.99 471.194 835.455C471.816 842.16 478.359 853.816 483.784 857.87C484.076 862.279 486.16 861.93 487.626 865.091C486.796 871.379 499.719 907.834 502.579 915.459C505.773 923.977 515.081 940.332 519.046 948.982C518.409 949.685 517.081 951.508 517.058 952.388C516.828 961.296 515.935 971.085 515.153 979.858C512.366 1010.13 509.934 1040.43 507.856 1070.76C507.449 1076.9 507.09 1097.2 505.97 1101.32C506.882 1102.82 512.906 1190.18 515.585 1203.65C514.437 1206.28 512.763 1206.99 510.354 1208.49C507.815 1209.05 485.503 1206.23 485.224 1206.01C481.42 1202.16 475.441 1205.72 473.477 1208.52C456.774 1232.29 448.678 1206.69 431.567 1204.67C422.358 1203.58 412.247 1222.28 400.209 1219.57L398.611 1219.66C372.486 1209.57 377.171 1186.34 351.798 1208.21C351.13 1212.4 351.475 1219.75 351.832 1224.1C353.553 1245.03 346.712 1269.76 347.832 1289.72C347.042 1292.83 347.072 1298.06 346.969 1301.44C346.501 1311.53 347.596 1328.17 347.77 1338.49C347.978 1350.81 342.816 1399.43 346.534 1407.37C349.162 1407.57 350.049 1407.35 351.914 1408.97C351.912 1411.32 352.293 1410.3 350.608 1412.07C349.227 1415.54 352.315 1430.28 351.966 1439.37C348.663 1440.57 344.805 1441.86 341.68 1443.35C325.754 1443.53 295.28 1449.33 282.579 1448.14L271.034 1446.43C269.378 1436.81 268.98 1429.32 267.73 1419.95C267.688 1417.95 267.383 1418.81 268.664 1417.28C269.295 1416.55 271.09 1414.25 271.03 1413.43C269.539 1393.65 264.736 1373.01 263.727 1353.3C262.932 1337.77 263.75 1320 263.774 1304.31C256.278 1303.74 242.288 1304.61 234.391 1304.9C231.116 1307.23 223.286 1375.32 221.64 1384.68C219.982 1394.11 214.787 1419.83 216.392 1428.54L220.097 1428.83L221.289 1430.23C220.972 1431.82 220.87 1432.85 220.095 1434.3C220.94 1450.69 224.236 1456.91 206.086 1459.36C190.262 1462.19 163.753 1456.26 147.757 1452.16C146.145 1451.49 140.903 1450.26 138.944 1449.75C137.46 1442.46 137.899 1433.15 137.617 1425.38C138.546 1421.48 139.234 1421.95 142.823 1421.89C145.056 1406.85 141.852 1321.01 144.186 1315.54C147.323 1312.9 145.625 1302.12 145.547 1297.32C145.553 1287.17 142.467 1273.07 143.804 1263.15C157.603 1160.77 133.981 1054.32 163.146 953.896C166.996 940.638 172.499 927.742 175.791 914.395C176.121 908.745 176.54 903.1 177.048 897.463C172.837 893.1 169.462 887.302 166.33 882.129C146.136 848.777 103.422 746.351 112.682 708.905ZM264.042 1292.06C268.858 1262.55 259.18 1221.36 256.646 1191.13C255.765 1180.61 254.227 1148.36 252.025 1140.09C249.326 1150.11 248.027 1170.35 246.943 1181.1C245.357 1196.84 241.971 1213.83 240.797 1229.38C239.214 1250.35 238.767 1271.38 234.838 1292.23C244.573 1292.33 254.309 1292.27 264.042 1292.06Z"/><path fill="#FFFFFE" d="M317.398 881.379C317.118 884.839 315.732 898.078 316.267 900.541C315.506 904.767 316.603 907.679 315.977 910.547C314.954 920.675 312.37 960.795 310.083 967.118C310.114 970.688 310.389 976.335 309.616 979.643C305.756 1006.29 305.87 1040.56 302.227 1069.61L302.032 1072.4L302.072 1073.35C302.372 1081.78 300.423 1098.36 299.681 1107.72L295.621 1163.74C295.018 1171.62 291.514 1194.67 296.825 1199.97C304.55 1202.97 310.68 1191.55 319.4 1194.78C328.581 1198.18 326.699 1219.47 338.945 1216.31C342.491 1215.12 346.677 1210.09 351.798 1208.21C351.13 1212.4 351.475 1219.75 351.832 1224.1C353.553 1245.03 346.712 1269.76 347.832 1289.72C347.042 1292.83 347.072 1298.06 346.969 1301.44C346.501 1311.53 347.596 1328.17 347.77 1338.49C347.978 1350.81 342.816 1399.43 346.534 1407.37C349.162 1407.57 350.049 1407.35 351.914 1408.97C351.912 1411.32 352.293 1410.3 350.608 1412.07C349.227 1415.54 352.315 1430.28 351.966 1439.37C348.663 1440.57 344.805 1441.86 341.68 1443.35C325.754 1443.53 295.28 1449.33 282.579 1448.14L271.034 1446.43C269.378 1436.81 268.98 1429.32 267.73 1419.95C267.688 1417.95 267.383 1418.81 268.664 1417.28C269.295 1416.55 271.09 1414.25 271.03 1413.43C269.539 1393.65 264.736 1373.01 263.727 1353.3C262.932 1337.77 263.75 1320 263.774 1304.31C256.278 1303.74 242.288 1304.61 234.391 1304.9C231.116 1307.23 223.286 1375.32 221.64 1384.68C219.982 1394.11 214.787 1419.83 216.392 1428.54L220.097 1428.83L221.289 1430.23C220.972 1431.82 220.87 1432.85 220.095 1434.3C220.94 1450.69 224.236 1456.91 206.086 1459.36C190.262 1462.19 163.753 1456.26 147.757 1452.16C146.145 1451.49 140.903 1450.26 138.944 1449.75C137.46 1442.46 137.899 1433.15 137.617 1425.38C138.546 1421.48 139.234 1421.95 142.823 1421.89C145.056 1406.85 141.852 1321.01 144.186 1315.54C147.323 1312.9 145.625 1302.12 145.547 1297.32C145.553 1287.17 142.467 1273.07 143.804 1263.15C157.603 1160.77 133.981 1054.32 163.146 953.896C166.996 940.638 172.499 927.742 175.791 914.395C176.121 908.745 176.54 903.1 177.048 897.463C195.057 907.441 200.927 906.523 219.188 896.77C220.289 895.667 225.144 893.05 226.798 892.109C230.053 889.408 231.238 888.651 234.934 886.57C236.648 887.406 252.938 887.428 255.653 885.993L256.786 885.519C263.262 882.851 270.919 880.328 277.765 883.197L278.359 882.983C278.804 882.621 279.348 882.176 279.994 881.65C291.836 882.006 305.714 881.615 317.398 881.379ZM264.042 1292.06C268.858 1262.55 259.18 1221.36 256.646 1191.13C255.765 1180.61 254.227 1148.36 252.025 1140.09C249.326 1150.11 248.027 1170.35 246.943 1181.1C245.357 1196.84 241.971 1213.83 240.797 1229.38C239.214 1250.35 238.767 1271.38 234.838 1292.23C244.573 1292.33 254.309 1292.27 264.042 1292.06Z"/><path fill="#E2FFA7" d="M164.514 1050.14L169.047 1051.97C166.655 1069.58 168.467 1085.83 168.456 1103.41C168.424 1150.78 167.907 1197.45 161.001 1244.4C159.325 1255.8 161.771 1269.24 160.798 1280.23C162.301 1293.61 167.177 1306.07 167.695 1319.83C168.268 1335.05 164.429 1418.08 169.057 1427.19C175.468 1432.29 209.321 1432.43 216.392 1428.54L220.097 1428.83L221.289 1430.23C220.972 1431.82 220.87 1432.85 220.095 1434.3C220.94 1450.69 224.236 1456.91 206.086 1459.36C190.262 1462.19 163.753 1456.26 147.757 1452.16C146.145 1451.49 140.903 1450.26 138.944 1449.75C137.46 1442.46 137.899 1433.15 137.617 1425.38C138.546 1421.48 139.234 1421.95 142.823 1421.89C149.533 1423.81 156.566 1425.55 163.343 1427.31L163.205 1426.65C160.88 1415.12 162.093 1410.64 161.684 1399C160.705 1371.12 161.898 1343.46 162.285 1315.62C162.365 1309.83 157.899 1303.72 158.599 1296C148.849 1281.59 161.492 1205.93 162.158 1186.2C162.951 1161.29 163.386 1136.36 163.464 1111.44C163.337 1091.62 161.22 1069.78 164.514 1050.14Z"/><path fill="#FFFFFE" d="M137.617 1425.38C165.109 1432.18 190.908 1440.15 220.095 1434.3C220.94 1450.69 224.236 1456.91 206.086 1459.36C190.262 1462.19 163.753 1456.26 147.757 1452.16C146.145 1451.49 140.903 1450.26 138.944 1449.75C137.46 1442.46 137.899 1433.15 137.617 1425.38Z"/><path fill="#FFFFFE" d="M346.534 1407.37C349.162 1407.57 350.049 1407.35 351.914 1408.97C351.912 1411.32 352.293 1410.3 350.608 1412.07C349.227 1415.54 352.315 1430.28 351.966 1439.37C348.663 1440.57 344.805 1441.86 341.68 1443.35C325.754 1443.53 295.28 1449.33 282.579 1448.14L271.034 1446.43C269.378 1436.81 268.98 1429.32 267.73 1419.95C267.688 1417.95 267.383 1418.81 268.664 1417.28C269.15 1417.11 269.737 1416.87 270.239 1416.77C286.077 1413.61 334.483 1417.19 346.534 1407.37Z"/><path fill="#E2FFA7" d="M346.534 1407.37C349.162 1407.57 350.049 1407.35 351.914 1408.97C351.912 1411.32 352.293 1410.3 350.608 1412.07C331.142 1421.22 289.435 1421.37 267.73 1419.95C267.688 1417.95 267.383 1418.81 268.664 1417.28C269.15 1417.11 269.737 1416.87 270.239 1416.77C286.077 1413.61 334.483 1417.19 346.534 1407.37Z"/><path fill="#0D3B66" d="M317.398 881.379C317.118 884.839 315.732 898.078 316.267 900.541C315.506 904.767 316.603 907.679 315.977 910.547C307.991 913.182 286.659 917.128 278.862 914.53L278.403 914.602C274.004 915.334 269.474 917.994 265.494 915.507C260.962 915.855 260.689 916.106 256.886 913.807C254.665 903.419 258.151 894.244 255.653 885.993L256.786 885.519C263.262 882.851 270.919 880.328 277.765 883.197L278.359 882.983C278.804 882.621 279.348 882.176 279.994 881.65C291.836 882.006 305.714 881.615 317.398 881.379Z"/><path fill="#0D3B66" d="M255.653 885.993L256.786 885.519C263.262 882.851 270.919 880.328 277.765 883.197L278.359 882.983C280.643 886.594 279.394 901.81 278.971 906.63L278.862 914.53L278.403 914.602C274.004 915.334 269.474 917.994 265.494 915.507C260.962 915.855 260.689 916.106 256.886 913.807C254.665 903.419 258.151 894.244 255.653 885.993Z"/><path fill="#FFFFFE" d="M255.653 885.993L256.786 885.519C263.262 882.851 270.919 880.328 277.765 883.197C277.152 884.524 276.555 886.213 275.514 887.146C271.772 887.217 264.803 887.157 261.794 889.077C260.158 893.602 260.735 906.542 262.141 911.236L263.143 911.957L265.494 915.507C260.962 915.855 260.689 916.106 256.886 913.807C254.665 903.419 258.151 894.244 255.653 885.993Z"/><path fill="#FCFFD0" d="M277.765 883.197L278.359 882.983C280.643 886.594 279.394 901.81 278.971 906.63L278.862 914.53L278.403 914.602C274.004 915.334 269.474 917.994 265.494 915.507L263.143 911.957C265.915 911.383 270.068 911.804 273.68 911.454C276.129 910.154 276.234 909.365 277.465 906.783C274.922 901.467 278.535 894.066 275.514 887.146C276.555 886.213 277.152 884.524 277.765 883.197Z"/><path fill="#0D3B66" d="M234.934 886.57C236.648 887.406 252.938 887.428 255.653 885.993C258.151 894.244 254.665 903.419 256.886 913.807C254.246 914.557 231.301 915.145 226.452 915.506C226.498 907.706 226.613 899.907 226.798 892.109C230.053 889.408 231.238 888.651 234.934 886.57Z"/><path fill="#E2FFA7" d="M219.107 968.628C221.428 965.242 229.417 945.242 229.522 942.028L233.553 943.724C231.555 949.743 225.278 969.205 221.739 973.497C216.092 979.073 212.096 984.909 204.091 988.377C199.884 990.199 194.788 991.144 190.349 992.311C188.976 992.673 176.704 995.076 176.557 996.034C173.71 1014.62 171.772 1033.28 169.047 1051.97L164.514 1050.14C164.413 1047.11 164.827 1044.25 165.334 1041.27C169.029 1019.58 170.277 997.715 172.74 975.892L174.871 974.433L176.866 976.132C177.046 980.516 176.393 983.597 176.755 988.659L179.014 989.962C189.919 991.33 214.247 978.511 219.107 968.628Z"/><path fill="#0D3B66" d="M177.048 897.463C195.057 907.441 200.927 906.523 219.188 896.77C218.89 901.69 218.038 910.234 216.456 914.896C200.693 912.151 191.007 913.246 175.791 914.395C176.121 908.745 176.54 903.1 177.048 897.463Z"/><path fill="#FFFFFE" d="M234.391 1304.9L233.507 1304.32C233.364 1300.08 234.136 1296.39 234.838 1292.23C244.573 1292.33 254.309 1292.27 264.042 1292.06C264.213 1296.31 264.53 1300.09 263.774 1304.31C256.278 1303.74 242.288 1304.61 234.391 1304.9Z"/><path fill="#FAF0CA" d="M183.482 933.691C184.903 929.209 186.779 921.529 189.795 918.393L190.759 919.129C190.949 926.163 188.736 932.777 186.15 939.356C182.025 952.068 180.173 966.425 176.866 976.132L174.871 974.433L172.74 975.892C176.037 959.905 178.719 949.085 183.482 933.691Z"/><path fill="#E2FFA7" d="M309.616 979.643C308.639 978.841 306.693 977.092 306.477 976C304.824 967.624 300.197 933.573 302.557 927.193L303.53 927.519C308.095 938.171 308.285 955.061 310.083 967.118C310.114 970.688 310.389 976.335 309.616 979.643Z"/><path fill="#FAF0CA" d="M295.53 1068.41C291.235 1062.56 276.282 1044.66 277.549 1038.64L276.865 1039.83L276.614 1038.6L277.647 1038.43C284.361 1043.92 294.166 1058.45 299.618 1066.01L295.53 1068.41Z"/><path fill="#E2FFA7" d="M229.522 942.028C230.968 937.944 232.226 933.197 235.169 930.129L236.617 929.926C237.479 933.711 235.17 940.26 233.553 943.724L229.522 942.028Z"/><path fill="#E2FFA7" d="M299.618 1066.01C300.168 1066.75 301.856 1068.94 302.227 1069.61L302.032 1072.4C298.557 1071.74 297.947 1070.84 295.53 1068.41L299.618 1066.01Z"/><path fill="#E2FFA7" d="M297.207 1249.45L301.914 1248.93C314.333 1270.63 316.844 1306.55 321.445 1331.52L318.45 1329.23C316.986 1330.52 317.183 1332.94 316.85 1335.38C314.063 1313.95 308.27 1290.17 304.613 1268.74C303.635 1263.02 298.679 1256 297.207 1249.45Z"/><path fill="#E2FFA7" d="M269.344 990.498C269.759 979.543 269.721 937.781 272.856 930.223L274.118 930.807C275.979 943.565 273.657 965.99 273.979 979.462C274.088 984.069 273.102 991.392 274.248 995.575C275.201 994.301 276.227 984.594 276.496 982.29L279.983 983.935L279.843 984.466C278.214 990.85 277.291 1003.32 272.112 1008.28L270.777 1007.96C269.676 1005.21 268.928 1002.98 270.161 1000.03C268.857 995.633 268.8 995.055 269.344 990.498Z"/><path fill="#E2FFA7" d="M297.207 1249.45C291.421 1243.5 279.225 1204.68 274.706 1194.97C273.895 1193.23 274.143 1187.97 274.936 1185.97L276.433 1185.46C274.92 1183.8 301.101 1246.42 301.914 1248.93L297.207 1249.45Z"/><path fill="#E2FFA7" d="M321.445 1331.52C322.722 1336.99 326.517 1348.96 324.069 1353.1C317.328 1352.68 295.673 1316.99 294.653 1310.37L295.153 1309.15C302.593 1312.6 310.637 1333.57 316.85 1335.38C317.183 1332.94 316.986 1330.52 318.45 1329.23L321.445 1331.52Z"/><path fill="#E2FFA7" d="M271.148 1011.87C271.897 1012.55 271.935 1012.97 272.43 1013.97C271.412 1028.79 266.231 1093.55 261.242 1104.28C259.954 1103.43 260.051 1103.31 259.303 1101.93C259.241 1092.85 268.429 1019.22 271.148 1011.87Z"/><path fill="#E2FFA7" d="M197.948 1210.39C200.904 1217.23 209.465 1236.53 208.563 1243.08L207.467 1244.11C202.543 1240.95 195.858 1219.07 194.607 1213.45C194.455 1212.77 194.317 1212.09 194.194 1211.4L197.948 1210.39Z"/><path fill="#FAF0CA" d="M276.496 982.29C276.804 973.761 276.507 946.13 279.194 940.708C282.359 944.129 280.908 978.096 279.983 983.935L276.496 982.29Z"/><path fill="#E2FFA7" d="M209.089 958.916C208.099 955.203 214.855 943.936 216.467 939.758C218.215 935.227 218.979 928.69 223.747 926.923L224.704 927.785C223.725 935.842 215.533 953.338 211.332 960.717L209.089 958.916Z"/><path fill="#E2FFA7" d="M279.068 1054.67C280.685 1056.06 292.485 1080.91 293.057 1083.37C291.626 1083.36 290.906 1083.2 289.512 1082.98C284.991 1078.19 277.094 1061.07 279.068 1054.67Z"/><path fill="#E2FFA7" d="M204.007 969.648C200.084 971.92 191.418 975.083 187.448 971.809C189.446 969.382 199.012 966.038 202.706 964.507L204.007 969.648Z"/><path fill="#FAF0CA" d="M209.089 958.916L211.332 960.717C209.418 963.892 206.392 966.766 204.007 969.648L202.706 964.507C206.431 961.873 204.825 959.865 209.089 958.916Z"/><path fill="#E2FFA7" d="M194.194 1211.4C192.996 1208.69 192.241 1207.66 192.537 1204.72L193.504 1204.04C196.497 1206.08 196.092 1206.69 197.948 1210.39L194.194 1211.4Z"/><path fill="#F4D35E" d="M112.682 708.905C102.04 700.788 104.446 672.51 114.85 664.924L115.475 664.473C133.153 651.556 117.561 650.473 118.288 636.88C118.587 631.291 119.996 616.632 123.183 612.946C129.159 606.034 134.368 596.232 144.501 595.175C145.088 595.081 149.682 593.142 149.731 593.005C153.232 583.069 153.38 557.111 158.195 549.345C165.459 537.627 177.555 522.543 190.828 519.318C196.782 518.115 207.857 515.479 213.341 518.439C217.461 521.378 218.263 519.878 222.795 519.646C236.256 518.957 232.977 531.944 247.775 528.688C262.615 525.422 263.907 544.439 270.633 549.714C278.851 551.687 277.732 556.919 278.669 564.401C271.111 580.642 268.6 577.689 269.043 597.022C271.084 599.83 272.879 601.057 275.376 603.208C291.644 617.22 297.122 624.318 291.634 645.983C290.521 650.376 289.649 660.568 289.25 665.444C291.982 666.99 299.513 670.445 301.285 671.662C299.177 679.046 293.28 707.439 291.595 711.036C290.395 722.745 279.412 750.797 280.469 759.957C290.186 745.195 294.699 740.414 308.375 728.88C319.284 720.921 325.05 722.629 333.183 717.612L336.367 716.868C343.357 716.519 355.583 715.211 361.443 718.441C363.067 720.671 362.663 719.633 362.961 722.393L361.973 722.711C360.705 723.841 359.901 724.733 358.321 725.382L357.089 724.934L355.231 725.831C355.641 732.343 364.015 733.907 361.765 740.215C357.808 742.04 357.146 741.804 352.797 740.936C353.595 749.032 366.765 748.176 351.759 760.502C357.217 762.639 364.14 765.335 363.8 772.498C361.714 776.153 360.461 776.78 356.051 777.107C355.737 781.549 356.474 780.691 353.969 783.488C345.067 786.557 336.735 787.06 328.061 790.106C325.49 791.591 321.348 793.825 319.072 795.48C317.461 822.54 316.542 849.55 315.726 876.646C315.679 878.181 316.598 880.113 317.398 881.379C305.714 881.615 291.836 882.006 279.994 881.65C279.348 882.176 278.804 882.621 278.359 882.983L277.765 883.197C270.919 880.328 263.262 882.851 256.786 885.519L255.653 885.993C252.938 887.428 236.648 887.406 234.934 886.57C231.238 888.651 230.053 889.408 226.798 892.109C225.144 893.05 220.289 895.667 219.188 896.77C200.927 906.523 195.057 907.441 177.048 897.463C172.837 893.1 169.462 887.302 166.33 882.129C146.136 848.777 103.422 746.351 112.682 708.905Z"/><path fill="#0D3B66" d="M112.682 708.905C102.04 700.788 104.446 672.51 114.85 664.924L115.475 664.473C133.153 651.556 117.561 650.473 118.288 636.88C118.587 631.291 119.996 616.632 123.183 612.946C129.159 606.034 134.368 596.232 144.501 595.175C145.088 595.081 149.682 593.142 149.731 593.005C153.232 583.069 153.38 557.111 158.195 549.345C165.459 537.627 177.555 522.543 190.828 519.318C196.782 518.115 207.857 515.479 213.341 518.439C217.461 521.378 218.263 519.878 222.795 519.646C236.256 518.957 232.977 531.944 247.775 528.688C262.615 525.422 263.907 544.439 270.633 549.714C278.851 551.687 277.732 556.919 278.669 564.401C271.111 580.642 268.6 577.689 269.043 597.022C271.084 599.83 272.879 601.057 275.376 603.208C291.644 617.22 297.122 624.318 291.634 645.983C290.521 650.376 289.649 660.568 289.25 665.444C284.077 673.797 278.293 668.174 270.294 669.375C265.931 667.306 262.133 664.925 257.411 664.959C253.962 664.208 252.598 663.295 249.66 664.283C249.446 665.539 249.16 666.327 249.649 667.489C255.228 670.999 256.469 676.72 257.988 683.173C258.899 698.458 259.54 706.468 245.69 715.179C210.381 719.137 180.359 710.541 170.05 672.438C166.201 672.911 165.118 672.883 161.723 674.829C139.502 684.67 122.566 685.209 112.682 708.905Z"/><path fill="#F4D35E" d="M246.543 549.942C247.198 550.426 247.839 550.927 248.467 551.446C255.049 556.86 270.637 570.281 262.684 578.892C259.927 576.934 257.83 575.233 254.468 576.099L254.007 577.355C256.955 579.529 259.731 581.387 262.793 583.401C259.259 598.812 263.745 612.546 256.862 626.528C246.375 647.832 228.038 645.029 212.594 630.233C218.152 643.033 227.786 658.464 236.91 669.016C241.557 668.674 245.047 668.475 249.649 667.489C255.228 670.999 256.469 676.72 257.988 683.173C258.899 698.458 259.54 706.468 245.69 715.179C210.381 719.137 180.359 710.541 170.05 672.438C176.601 670.364 183.069 671.059 189.971 671.286C196.553 667.113 185.319 610.067 194.252 599.973C195.071 599.048 194.257 596.036 193.512 594.664C175.732 595.097 175.333 587.716 177.289 572.03C187.432 562.034 197.053 561.551 202.234 576.099C224.653 572.064 231.273 566.262 246.543 549.942Z"/><path fill="#0D3B66" d="M231.453 607.284C234.222 607.795 247.905 612.758 249.349 614.918L247.988 618.171C238.518 621.68 231.205 617.649 231.453 607.284Z"/><path fill="#0D3B66" d="M235.835 574.144C236.627 573.987 237.719 574.133 238.569 574.187L238.6 575.112C235.803 577.345 232.081 578.68 228.742 580.078C227.772 580.194 227.356 579.934 226.31 579.661L226.9 578.312C230.301 575.723 231.723 575.434 235.835 574.144Z"/><path fill="#E2FFA7" d="M252.563 590.438C253.878 591.187 254.069 591.642 254.995 592.836C256.001 596.893 255.696 598.052 255.07 602.219C253.529 601.684 253.491 601.439 252.414 600.245C251.172 597.095 252.05 593.855 252.563 590.438Z"/><path fill="#0D3B66" d="M187.317 576.503C190.157 576.507 191.642 576.228 193.878 578.051C194.897 581.173 194.559 580.376 193.769 583.932C191.963 581.14 191.339 580.866 188.317 579.606L187.506 579.275L187.317 576.503Z"/><path fill="#B1DDB7" d="M238.112 688.112L238.316 689.394L237.063 690.863C232.522 692.425 227.284 691.662 222.806 690.241L223.71 689.358C230.017 689.978 232.253 690.445 238.112 688.112Z"/><path fill="#FFFFFE" d="M249.649 667.489C249.16 666.327 249.446 665.539 249.66 664.283C252.598 663.295 253.962 664.208 257.411 664.959C262.133 664.925 265.931 667.306 270.294 669.375C278.293 668.174 284.077 673.797 289.25 665.444C291.982 666.99 299.513 670.445 301.285 671.662C299.177 679.046 293.28 707.439 291.595 711.036C290.395 722.745 279.412 750.797 280.469 759.957C264.078 784.854 253.46 792.798 229.39 810.773C221.935 816.34 212.454 821.159 205.111 826.933L203.727 825.134C205.022 821.22 201.688 810.254 200.275 806.02C190.9 777.933 188.131 748.2 180.693 719.924C177.373 707.306 167.819 686.714 161.723 674.829C165.118 672.883 166.201 672.911 170.05 672.438C180.359 710.541 210.381 719.137 245.69 715.179C259.54 706.468 258.899 698.458 257.988 683.173C256.469 676.72 255.228 670.999 249.649 667.489Z"/><path fill="#F4D35E" d="M289.25 665.444C291.982 666.99 299.513 670.445 301.285 671.662C299.177 679.046 293.28 707.439 291.595 711.036C289.331 713.581 288.242 715.127 285.152 716.581C282.718 714.553 279.474 693.861 277.92 688.919C275.655 681.715 273.345 676.357 270.294 669.375C278.293 668.174 284.077 673.797 289.25 665.444Z"/><path fill="#FAF0CA" d="M245.69 715.179L248.172 715.543L248.037 716.689C242.917 719.324 236.549 720.386 230.861 721.002L229.949 719.502C232.394 718.29 241.435 716.84 245.69 715.179Z"/><path fill="#E2FFA7" d="M257.405 665.955C263.762 674.893 269.192 693.772 265.904 704.341L264.841 704.895C261.761 698.766 262.662 689.585 259.739 682.361C261.982 677.795 256.297 671.574 257.405 665.955Z"/><path fill="#E2FFA7" d="M196.477 731.329C197.933 737.693 199.367 747.806 196.893 753.907C194.669 755.973 195.757 755.558 192.852 755.546L191.306 754.46C191.819 750.343 194.075 750.884 194.009 749.977C193.782 746.858 192.793 739.938 192.261 737.098L196.477 731.329Z"/><path fill="#E2FFA7" d="M192.261 737.098C191.436 730.428 190.032 726.502 191.197 720.087L192.209 719.61C195.504 723.937 195.518 725.971 196.477 731.329L192.261 737.098Z"/><path fill="#F8FFE3" d="M210.686 717.449C214.385 716.552 220.017 718.336 223.499 719.822C219.445 719.916 213.596 720.502 210.686 717.449Z"/><path fill="#FFFFFE" d="M319.072 795.48C317.461 822.54 316.542 849.55 315.726 876.646C315.679 878.181 316.598 880.113 317.398 881.379C305.714 881.615 291.836 882.006 279.994 881.65C279.348 882.176 278.804 882.621 278.359 882.983L277.765 883.197C270.919 880.328 263.262 882.851 256.786 885.519L255.653 885.993C252.938 887.428 236.648 887.406 234.934 886.57C246.909 874.494 258.106 862.787 269.557 850.25C284.043 834.392 302.173 806.959 319.072 795.48Z"/><path fill="#E2FFA7" d="M203.727 825.134L205.111 826.933C202.668 830.394 197.02 836.102 193.873 840.23C190.876 844.16 184.589 855.501 181.908 856.83C180.31 855.374 180.818 855.858 180.522 853.044C183.867 842.867 194.347 830.606 203.727 825.134Z"/><path fill="#EEE" d="M308.675 732.095C324.572 722.776 343.821 718.633 361.973 722.711C360.705 723.841 359.901 724.733 358.321 725.382L357.089 724.934C336.881 717.72 313.344 734.347 307.996 733.286C308.185 732.9 308.4 732.267 308.675 732.095Z"/><path fill="#EEE" d="M352.797 740.936C347.568 738.628 332.558 741.741 326.734 742.79L325.971 742.168C333.003 736.938 355.502 733.882 361.765 740.215C357.808 742.04 357.146 741.804 352.797 740.936Z"/><path fill="#EEE" d="M331.641 773.554C336.684 771.759 359.166 764.492 356.051 777.107C346.831 766.441 336.022 777.6 331.857 774.47L331.641 773.554Z"/><path fill="#EEE" d="M336.564 753.718C340.243 752.999 350.607 753.288 354.173 754.78L353.662 756.13C349.738 757.597 346.346 754.963 342.912 756.178C331.47 756.135 332.162 758.66 324.307 759.013C327.371 756.354 332.552 755.103 336.564 753.718Z"/><path fill="white" d="M463.176 813.803C472.491 820.847 467.209 822.493 471.749 828.173C471.717 829.382 471.151 834.99 471.194 835.455C471.816 842.16 478.359 853.816 483.784 857.87C484.076 862.279 486.16 861.93 487.626 865.091C486.796 871.379 499.719 907.834 502.579 915.459C505.773 923.977 515.081 940.332 519.046 948.982C518.409 949.685 517.081 951.508 517.058 952.388C516.828 961.296 515.935 971.085 515.153 979.858C512.366 1010.13 509.934 1040.43 507.856 1070.76C507.449 1076.9 507.09 1097.2 505.97 1101.32C504.511 1096.29 500.233 1063.53 499.381 1057.06C492.992 1008.53 487.688 960.352 480.704 911.807C476.265 880.95 464.12 843.392 463.176 813.803Z"/><path fill="#F4D35E" d="M460.159 733.509L460.996 732.865C464.058 734.115 464.471 734.287 467.723 733.811C483.086 738.021 493.225 753.136 501.567 757.196C509.226 772.757 506.657 785.548 511.529 799.517C491.196 805.585 484.224 810.658 471.749 828.173C467.209 822.493 472.491 820.847 463.176 813.803L462.01 813.718C454.453 808.03 443.172 798.496 437.503 790.953C432.471 784.257 443.254 778.337 444.195 773.094C441.097 765.155 443.284 766.883 447.472 760.316C445.893 757.952 445.56 757.407 444.598 754.741C445.083 745.399 452.415 748.754 456.574 744.648L455.781 740.69L455.625 739.91C457.363 739.715 457.667 739.387 459.105 738.463C460.583 735.569 460.275 736.859 460.159 733.509Z"/><path fill="#FFDDC9" d="M455.781 740.69C466.945 748.574 477.205 753.534 485.901 764.88C484.465 764.183 457.489 745.567 456.574 744.648L455.781 740.69Z"/><path fill="#FFDDC9" d="M438.726 781.795C442.032 782.43 464.36 796.458 465.926 799.904C458.579 800.536 441.305 788.143 438.726 781.795Z"/><path fill="#FFDDC9" d="M445.613 772.186C453.045 772.631 462.571 778.598 468.273 783.364C471.539 786.093 471.098 786.393 471.383 790.076C467.711 788.359 449.726 775.097 445.613 772.186Z"/><path fill="#FFDDC9" d="M454.975 758.838C460.978 759.534 477.668 769.962 479.736 775.919C476.34 775.415 457.809 761.765 454.975 758.838Z"/><path fill="#0D3B66" d="M433.619 571.126C442.933 575.755 443.916 574.309 451.897 581.302C452.456 592.86 461.569 601.8 459.095 610.723C458.047 612.541 456.513 615.726 454.907 616.792C454.299 623.021 451.205 631.389 446.054 635.246C441.095 636.958 428.901 634.043 423.045 633.063C405.879 629.343 393.745 626.776 377.732 619.698C377.383 619.369 377.034 619.041 376.685 618.713L376.221 618.239C372.003 614.005 372.704 606.048 372.495 599.936C382.007 603.533 405.607 597.843 412.378 589.668C414.11 581.953 418.343 577.483 425.419 574.369C427.551 573.367 429.815 571.982 431.877 570.798L433.619 571.126Z"/><path fill="#F4D35E" d="M433.619 571.126C442.933 575.755 443.916 574.309 451.897 581.302C452.456 592.86 461.569 601.8 459.095 610.723C458.047 612.541 456.513 615.726 454.907 616.792C447.042 612.882 443.16 619.622 435.895 610.467C435.015 609.358 420.892 612.287 415.001 607.875C410.953 600.37 417.071 596.202 423.001 592.944C421.468 592.247 419.814 591.995 418.147 591.628L412.378 589.668C414.11 581.953 418.343 577.483 425.419 574.369C427.551 573.367 429.815 571.982 431.877 570.798L433.619 571.126Z"/><path fill="#EEE" d="M418.147 591.628C424.236 590.874 437.509 582.224 444.592 579.489L445.081 579.839C441.837 582.035 425.358 592.722 423.001 592.944C421.468 592.247 419.814 591.995 418.147 591.628Z"/><path fill="#EEE" d="M450.034 590.056L450.724 590.174L450.759 591.401C445.434 595.687 429.246 605.137 422.642 605.97C424.298 603.142 445.913 592.252 450.034 590.056Z"/><path fill="#EEE" d="M450.909 599.787L452.017 600.426C451.056 602.291 442.758 606.26 440.336 607.557L439.448 607.576L439.204 606.316C441.617 604.143 447.751 601.37 450.909 599.787Z"/><path fill="white" d="M377.732 619.698C393.745 626.776 405.879 629.343 423.045 633.063C419.143 635.532 400.403 659.058 397.118 663.871C389.567 647.013 382.792 640.18 377.732 619.698Z"/><path fill="#FFFFFE" d="M423.045 633.063C428.901 634.043 441.095 636.958 446.054 635.246C429.851 653.735 421.715 657.835 405.089 673.531L404.193 673.71C400.912 671.613 398.975 667.309 397.118 663.871C400.403 659.058 419.143 635.532 423.045 633.063Z"/><path fill="white" d="M328.061 790.106C328.808 794.582 317.815 898.369 316.657 901.202L316.267 900.541C315.732 898.078 317.118 884.839 317.398 881.379C316.598 880.113 315.679 878.181 315.726 876.646C316.542 849.55 317.461 822.54 319.072 795.48C321.348 793.825 325.49 791.591 328.061 790.106Z"/><path fill="white" d="M398.611 1219.66C393.068 1184.7 398.034 1141.21 396.521 1105.5C396.161 1097 394.073 1054.64 397.434 1051.38C399.905 1055.86 398.906 1088.05 399.036 1095.26C399.786 1136.72 398.732 1178.1 400.209 1219.57L398.611 1219.66Z"/><path fill="#E2FFA7" d="M331.596 681.084C332.369 672.394 333.966 659.109 334.396 651.216C335.845 654.345 336.661 654.706 339.433 656.541C339.41 666.806 338.357 677.383 338.471 687.381C337.209 692.879 338.869 696.807 337.327 703.971C338.316 710.784 335.476 710.218 336.367 716.868L333.183 717.612C332.319 714.914 331.832 708.762 331.494 705.694C332.626 703.327 331.662 685.108 331.596 681.084Z"/><path fill="#FFDDC9" d="M421.917 694.678C426.176 703.485 427.514 714.401 434.853 721.71C441.693 728.524 451.329 730.555 460.159 733.509C460.275 736.859 460.583 735.569 459.105 738.463C457.667 739.387 457.363 739.715 455.625 739.91C449.607 737.035 442.154 738.401 432.852 730.216C424.241 722.638 422.701 705.677 421.917 694.678Z"/><path fill="#E2FFA7" d="M474.425 670.595L477.028 672.324C477.489 685.325 477.655 696.344 474.202 709.073C471.951 717.37 468.383 725.295 467.723 733.811C464.471 734.287 464.058 734.115 460.996 732.865C468.912 721.516 473.463 684.733 474.425 670.595Z"/><path fill="#FFDDC9" d="M355.611 601.635L357.383 601.27C358.721 603.866 359.261 605.827 360.165 608.549C364.91 622.834 369.845 636.693 377.38 649.782C375.689 649.619 373.153 649.114 371.755 649.829C363.802 639.809 355.637 615.224 355.611 601.635Z"/><path fill="#FFDDC9" d="M381.86 703.003L386.265 705.156C381.139 717.12 380.238 720.435 368.999 727.013C364.983 726.582 362.243 726.279 358.321 725.382C359.901 724.733 360.705 723.841 361.973 722.711L362.961 722.393C368.883 722.194 378.283 707.886 381.86 703.003Z"/><path fill="#FFDDC9" d="M377.38 649.782L381.048 656.094C385.173 663.133 394.408 678.971 397.397 686.094C387.537 677.756 381.608 667.786 375.321 656.572L371.755 649.829C373.153 649.114 375.689 649.619 377.38 649.782Z"/><path fill="#E2FFA7" d="M338.008 610.268C342.308 615.903 340.345 648.984 339.433 656.541C336.661 654.706 335.845 654.345 334.396 651.216C335.848 638.14 337.509 623.488 338.008 610.268Z"/><path fill="#FFDDC9" d="M404.193 673.71L405.089 673.531C405.08 674.365 402.839 689.625 402.564 690.273C399.852 696.651 400.585 726.039 399.031 728.847L397.793 728.164C395.756 720.815 399.405 678.967 404.193 673.71Z"/><path fill="white" d="M396.889 1024.23C398.842 1027.36 398.737 1044.33 398.908 1049.5C398.556 1049.98 397.891 1050.99 397.434 1051.38C395 1046.63 395.592 1029.54 396.889 1024.23Z"/><path fill="#8DEB7F" d="M476.349 660.288C475.138 655.672 474.586 642.767 477.929 639.156C480.125 642.592 478.415 656.277 477.449 660.33L476.349 660.288Z"/><path fill="#FFDDC9" d="M381.86 703.003C383.33 699.701 388.352 694.48 391.032 691.782C389.439 696.179 387.714 700.724 386.265 705.156L381.86 703.003Z"/><path fill="#B1DDB7" d="M476.349 660.288L477.449 660.33C477.739 664.594 477.708 668.067 477.028 672.324L474.425 670.595C474.684 665.843 474.697 664.691 476.349 660.288Z"/><path fill="white" d="M425.213 1068.87C426.702 1070.65 430.378 1096.42 430.769 1100.66C434.239 1138.29 442.76 1173.74 450.256 1210.64L449.986 1211.43L448.979 1211.89C438.488 1189.3 424.48 1095.59 425.213 1068.87Z"/><path fill="white" d="M350.509 1076.72L351.666 1078.05C352.228 1087.83 347.577 1121.93 346.462 1132.51C344.113 1154.8 342.533 1190.64 337.276 1212.29C336.458 1210.83 335.903 1209.23 336.089 1207.52C340.374 1167.96 341.379 1128.3 348.135 1089C348.904 1084.52 350.117 1081.43 350.509 1076.72Z"/><path fill="#FFDDC9" d="M467.993 627.005C469.069 627.788 469.462 628.848 470.097 630.044C471.635 647.598 434.848 674.963 420.118 681.556L419.451 681.395L419.014 680.226C440.412 658.793 451.642 656.044 467.993 627.005Z"/><path fill="white" d="M439.792 1049.93C442.105 1052.48 442.694 1058.13 443.36 1061.61C450.162 1097.21 462.37 1131.64 471.309 1166.74C472.729 1172.32 475.415 1179.18 475.424 1184.81C473.594 1181.23 467.814 1163.35 466.784 1159.26C461.221 1137.21 435.235 1069.74 439.792 1049.93Z"/><path fill="#FFDDC9" d="M367.536 864.64L370.851 863.571C373.293 877.258 376.301 889.457 379.681 902.956C381.219 909.099 384.358 920.84 384.865 926.693L383.682 927.527C377.132 921.963 377.323 912.151 375.671 904.43C372.821 891.103 369.215 878.182 367.536 864.64Z"/><path fill="#FFDDC9" d="M354.858 902.728C354.402 884.211 353.423 852.846 357.937 835.759L358.795 835C359.299 837.717 359.724 898.705 359.042 903.022L357.119 899.978L354.858 902.728Z"/><path fill="#FFDDC9" d="M354.858 902.728L357.119 899.978L359.042 903.022C362.502 908.962 359.519 939.017 361.91 947.579C362.435 949.462 361.443 950.875 360.167 952.156L358.649 951.747C356.269 947.401 354.932 909.642 354.858 902.728Z"/><path fill="#FFDDC9" d="M414.776 685.829C417.337 688.556 414.941 722.111 414.811 728.437C413.98 728.774 413.948 728.614 412.919 728.542C410.396 723.319 412.89 693.473 414.776 685.829Z"/><path fill="#FFDDC9" d="M367.536 864.64C366.993 861.205 364.636 850.277 367.028 848C366.175 849.246 366.17 849.137 366.165 850.637L368.108 850.197C369.02 852.803 370.274 860.506 370.851 863.571L367.536 864.64Z"/><path fill="#FFFFFE" d="M432.817 0L441.083 0C440.928 13.6253 441.553 27.345 442.418 40.9472C443.783 62.4027 443.524 83.763 443.507 105.25C443.759 111.919 442.965 116.635 442.07 123.225C448.668 124.029 456.537 124.759 462.815 126.091C512.816 136.695 542.899 185.477 533.334 234.214C524.138 281.075 464.191 312.145 421.849 305.135C371.457 296.793 332.294 254.091 342.135 201.898C346.298 179.694 362.093 152.206 381.853 140.137C394.244 132.499 420.962 120.613 435.852 123.769L435.723 105.247C435.751 81.0264 435.123 58.4055 433.902 34.1944C433.29 22.0657 435.193 12.4191 432.817 0Z"/><path fill="#F4D35E" d="M147.757 1452.16C163.753 1456.26 190.262 1462.19 206.086 1459.36C206.249 1468.09 206.873 1496.25 210.576 1502.56C230.695 1515.82 250.192 1530.13 271.238 1542.22C273.39 1543.46 304.907 1555.21 295.16 1560.7C281.869 1568.18 258.487 1561.57 243.418 1564.96C241.002 1565.5 240.009 1563.66 238.463 1562.08C237.089 1562.58 235.904 1563.24 234.607 1563.91C217.391 1563.36 183.153 1554.18 167.306 1545.86C167.664 1549.97 168.635 1554.04 169.495 1558.08C164.852 1558.78 158.973 1558.91 154.196 1559.15C147.67 1549.04 142.411 1524.9 144.364 1513.11C147.941 1491.51 148.237 1474.22 147.757 1452.16Z"/><path fill="#F4D35E" d="M282.579 1448.14C295.28 1449.33 325.754 1443.53 341.68 1443.35C344.246 1468.19 345.332 1480.26 366.397 1496.09C376.413 1503.61 385.661 1510.92 396.51 1517.63C402.205 1521.14 419.974 1530.32 422.577 1535.63C421.98 1538.58 421.871 1538.94 420.125 1541.38C412.602 1544.03 382.701 1541.89 372.146 1541.87C371.362 1540.99 370.707 1540.24 369.865 1539.42C362.904 1540.05 355.982 1540.74 349.001 1541.07C345.77 1541.23 345.624 1540.51 343.826 1537.84L342.888 1538.23C323.087 1546.45 316.184 1521.66 301.879 1525.9C301.218 1529.18 302.816 1536.53 303.364 1540.24C298.24 1541.28 293.605 1542.16 288.414 1542.95C286.669 1529.01 286.271 1521.05 280.504 1509.32C278.797 1505.85 283.39 1479.46 283.332 1474.02C283.684 1466.88 282.596 1456.14 282.579 1448.14Z"/><path fill="#FFFFFE" d="M237.414 0L247.226 0C247.197 7.92763 247.082 16.0754 247.385 23.9794C250.138 95.6481 249.365 167.997 252.038 239.599L255.64 336.342C255.909 345.922 257.043 354.795 256.923 364.51L253.337 362.408C249.653 362.581 248.592 362.808 245.163 361.377C242.815 303.071 241.316 244.735 240.666 186.386L239.838 130.538C239.647 122.215 239.969 108.994 238.174 101.279L238.261 89.6721L238.691 73.2907C238.096 72.7099 237.76 71.9136 237.759 71.0818C237.758 70.2501 238.093 69.4533 238.688 68.8714L237.414 0Z"/><path fill="white" d="M238.261 89.6721C241.083 90.778 241.402 90.9733 243.537 93.1219C244.11 98.3199 241.235 98.1708 238.174 101.279L238.261 89.6721Z"/><path fill="white" d="M238.688 68.8714C239.901 67.6843 241.844 67.6975 243.041 68.9011C244.238 70.1047 244.24 72.048 243.045 73.2537C241.85 74.4593 239.906 74.4758 238.691 73.2907C238.096 72.7099 237.76 71.9136 237.759 71.0818C237.758 70.2501 238.093 69.4533 238.688 68.8714Z"/><path fill="#FFFFFE" d="M891.873 1395.22C891.093 1388.08 892.133 1385.62 889.492 1378.23L890.03 1377.36C891.819 1379.2 894.227 1379.83 896.732 1380.18C939.274 1386.16 981.805 1396.43 1024 1403.26L1024 1417.83C1005.78 1413.56 985.659 1411.25 967.096 1407.82L917.752 1398.86C910.205 1397.56 899.193 1395.14 891.873 1395.22Z"/><path fill="#FFFFFE" d="M245.163 361.377C248.592 362.808 249.653 362.581 253.337 362.408L256.923 364.51C256.988 367.698 257.323 374.883 256.904 377.731L257.271 386.303C257.657 399.02 259.89 491.296 256.539 496.71C255.202 498.869 254.41 499.186 252.109 499.737L250.402 498.544C249.245 496.315 245.911 397.713 245.962 386.214C246.134 381.904 245.237 376.234 245.293 371.021C244.768 367.283 244.967 365.124 245.163 361.377Z"/><path fill="white" d="M245.163 361.377C248.592 362.808 249.653 362.581 253.337 362.408L256.923 364.51C256.988 367.698 257.323 374.883 256.904 377.731L256.105 377.714C255.058 376.103 255.555 372.683 255.65 370.561C254.413 369.637 254.127 369.687 252.657 369.18C252.206 367.021 252.227 365.824 250.752 364.337C247.719 366.733 248.556 368.416 245.293 371.021C244.768 367.283 244.967 365.124 245.163 361.377Z"/><path fill="#FFFFFE" d="M145.547 1297.32C145.625 1302.12 147.323 1312.9 144.186 1315.54C144.029 1312.19 144.548 1311.19 142.898 1308.75C135.741 1308.86 128.178 1310.27 120.83 1310.48C96.4757 1311.17 72.1158 1311.94 47.7685 1312.82C41.9689 1313.03 33.1433 1312.6 29.5291 1307.62L30.1732 1305.71C34.4512 1301.73 40.1876 1301.48 45.7443 1301.1C78.4456 1298.87 113.126 1300.17 145.547 1297.32Z"/><path fill="#FFFFFE" d="M347.832 1289.72C351.328 1291.2 382.356 1290.4 387.691 1290.14C417.66 1288.68 447.274 1286.16 477.34 1287.11C477.141 1289.57 476.84 1296.59 475.863 1298.35C468.773 1296.99 352.458 1299.31 346.969 1301.44C347.072 1298.06 347.042 1292.83 347.832 1289.72Z"/><path fill="#0D3B66" d="M425.593 565.755L425.224 564.976C423.759 561.937 423.427 561.389 420.761 559.205C411.255 556.909 408.967 570.131 400.101 571.132C394.153 562.7 421.576 536.776 431.313 556.994C434.03 562.634 433.94 564.992 433.619 571.126L431.877 570.798C429.815 571.982 427.551 573.367 425.419 574.369C425.746 571.488 425.626 568.656 425.593 565.755Z"/><path fill="#E2FFA7" d="M425.593 565.755C428.43 564.26 427.393 564.271 429.99 564.84C431.371 567.364 431.412 567.938 431.877 570.798C429.815 571.982 427.551 573.367 425.419 574.369C425.746 571.488 425.626 568.656 425.593 565.755Z"/></svg>