<?xml version="1.0" encoding="utf-8" ?><svg xmlns="http://www.w3.org/2000/svg" xmlns:xlink="http://www.w3.org/1999/xlink" width="1024" height="1820" viewBox="0 0 1024 1820"><path fill="#D7CDC2" d="M122.143 731.75C127.041 714.273 129.732 695.31 134.175 677.617C151.822 607.344 167.296 522.64 199.585 457.91C274.006 308.719 475.454 284.866 621.283 319.801C641.977 324.759 668.857 330.446 687.863 340.036L693.178 341.491C807.816 374.467 851.297 445.126 881.492 554.861C884.996 567.597 886.244 585.113 890.164 596.505C890.907 601.179 890.15 616.268 889.979 621.555L888.327 670.71C887.164 713.818 886.793 756.944 887.213 800.066C905.29 816.74 912.202 826.207 923.409 848.004L923.546 848.967C924.859 857.789 929.628 871.087 930.503 878.24C933.268 900.828 936.977 937.137 934.506 959.115C932.143 980.125 925.555 988.222 924.31 1012.07C920.963 1019.11 918.109 1037.29 915.757 1046.01C912.861 1056.74 909.852 1065.06 905.395 1075.32C901.494 1078.87 898.707 1081.29 897.39 1086.55C897.829 1094.43 895.204 1101.16 892.085 1108.37L895.526 1110.31L894.91 1123.17C892.169 1129.54 885.644 1160.62 885.852 1166.83C883.535 1177.65 880.867 1191.82 878.021 1202.25L876.226 1211.63C875.014 1249.28 873.797 1292.26 873.75 1329.85C864.495 1340.98 837.87 1371.7 825.338 1376.84C825.162 1384.21 825.066 1393.98 823.91 1401.08C820.139 1424.22 811.857 1445.82 807.542 1469.04C809.443 1474.28 812.164 1480.99 813.347 1486.21C816.517 1500.21 810.893 1515.27 812.654 1529.58C813.674 1537.87 817.993 1544.2 819.232 1552.99C820.317 1560.69 816.596 1574.17 817.294 1580.28C819.409 1598.8 822.652 1615.17 824.219 1634.02C821.202 1634.82 820.149 1635.29 817.047 1634.47C815.701 1616.65 813.086 1603.13 810.836 1585.7C809.869 1578.2 812.611 1563.45 811.517 1554.3C810.387 1544.84 806.15 1539.39 805.074 1532.06C803.403 1520.69 808.252 1506.02 807.177 1494.02C806.254 1483.72 799.837 1475.33 801.015 1465.3C802.138 1455.74 805.473 1444.65 808.196 1435.35C813.859 1415.99 817.215 1401.81 817.725 1381.66C781.967 1411.3 740.653 1438.17 697.78 1456.45C697.522 1468.93 696.642 1481.38 695.146 1493.76C693.991 1504.14 692.033 1514.94 692.64 1525.38C693.254 1535.96 701.064 1544.64 703.655 1554.66C706.243 1564.66 706.357 1616.58 703.87 1626.43C702.191 1633.09 699.715 1637.43 694.763 1642.19C694.477 1642.46 694.184 1642.73 693.892 1643C696.279 1644.95 700.137 1646.56 703.014 1647.91C677.041 1649.01 642.562 1648.98 617.497 1642.89C602.723 1640.97 588.391 1645.69 574.751 1645.02C528.76 1642.58 482.89 1646.27 436.895 1644.4C428.814 1644.07 411.783 1648.17 408.256 1638.88L409.387 1637.08C412.565 1634.98 417.779 1633.51 421.556 1633.49C459.509 1634.39 497.515 1632.89 535.402 1632.92C560.963 1632.94 582.751 1633.42 608.623 1631.8C603.054 1603.37 595.315 1577.7 592.971 1547.99C591.392 1527.97 591.76 1513.2 591.99 1493.18C563.758 1497.39 542.144 1499.44 513.244 1499.85C495.968 1500.1 475.426 1499.72 458.552 1500.81C447.746 1500.79 434.554 1503.85 423.206 1504.01C418.641 1504.07 402.097 1504.09 398.809 1505.34L397.567 1507.99C401.368 1524.87 405.609 1537.23 413.194 1552.77C414.128 1554.68 413.653 1555.14 412.964 1556.91C410.141 1558.63 410.672 1558.18 406.625 1557.66C400.253 1556.84 390.459 1562.94 383.84 1565.4C368.813 1581.68 348.807 1591.9 326.462 1592.91C319.964 1593.21 308.525 1592.4 302.886 1589.54C288.174 1586.13 269.796 1587.08 254.977 1584.48C194.113 1573.79 130.212 1577.49 70.1704 1563.46C68.9347 1541.96 76.2151 1510.86 79.5296 1488.21L103.149 1327.34C106.123 1306.04 105.451 1284.42 109.666 1263.02C113.374 1244.19 124.251 1257.07 134.39 1250.74C135.921 1247.54 131.552 1240.2 132.76 1233.99C139.145 1225.41 153.913 1238.12 156.815 1223.84C162.426 1196.23 165.781 1166.13 176.059 1139.8C137.419 1134.36 100.36 1126.05 77.9308 1090.29C68.4568 1075.19 70.3874 1051.81 69.8407 1034.74C68.2952 986.475 75.3116 939.882 83.6299 892.501C89.8751 855.658 97.2694 819.02 105.802 782.639C107.11 792.085 105.849 820.823 105.696 831.635C105.21 865.974 103.924 899.623 106.116 934.02C107.714 923.423 117.62 894.127 121.421 883.578C120.269 879.358 119.243 868.888 122.321 865.455C122.039 864.803 122.106 863.755 122.082 862.979C119.266 858.369 119.558 735.461 122.143 731.75ZM177.475 745.489C182.634 748.072 184.663 749.008 192.967 750.59C206.994 753.261 224.853 752.793 239.247 755.154C239.5 755.773 239.753 756.392 240.005 757.01C236.596 772.238 203.247 773.127 191.117 776.716C155.862 787.146 138.59 833.295 122.082 862.979C122.106 863.755 122.039 864.803 122.321 865.455C119.243 868.888 120.269 879.358 121.421 883.578C117.62 894.127 107.714 923.423 106.116 934.02C103.924 899.623 105.21 865.974 105.696 831.635C105.849 820.823 107.11 792.085 105.802 782.639C97.2694 819.02 89.8751 855.658 83.6299 892.501C75.3116 939.882 68.2952 986.475 69.8407 1034.74C70.3874 1051.81 68.4568 1075.19 77.9308 1090.29C100.36 1126.05 137.419 1134.36 176.059 1139.8C165.781 1166.13 162.426 1196.23 156.815 1223.84C153.913 1238.12 139.145 1225.41 132.76 1233.99C131.552 1240.2 135.921 1247.54 134.39 1250.74C124.251 1257.07 113.374 1244.19 109.666 1263.02C105.451 1284.42 106.123 1306.04 103.149 1327.34L79.5296 1488.21C76.2151 1510.86 68.9347 1541.96 70.1704 1563.46C130.212 1577.49 194.113 1573.79 254.977 1584.48C269.796 1587.08 288.174 1586.13 302.886 1589.54C308.525 1592.4 319.964 1593.21 326.462 1592.91C348.807 1591.9 368.813 1581.68 383.84 1565.4C390.459 1562.94 400.253 1556.84 406.625 1557.66C410.672 1558.18 410.141 1558.63 412.964 1556.91C413.653 1555.14 414.128 1554.68 413.194 1552.77C405.609 1537.23 401.368 1524.87 397.567 1507.99L398.809 1505.34C402.097 1504.09 418.641 1504.07 423.206 1504.01C434.554 1503.85 447.746 1500.79 458.552 1500.81C461.552 1498.36 466.368 1497.06 470.002 1495.78C484.123 1490.8 500.436 1486.57 511.41 1475.77C521.826 1465.52 520.932 1453.95 525.088 1440.97C527.223 1434.3 530.587 1427.87 533.276 1421.4C537.845 1410.4 538.803 1398.72 538.89 1386.93C539.105 1357.66 525.243 1280.95 512.186 1255.2C507.322 1245.61 500.139 1237.85 492.651 1230.26C491.507 1216.69 488.94 1203.28 484.994 1190.25C482.587 1184.49 477.713 1174.28 476.579 1168.6C471.259 1141.91 474.304 1110.02 471.369 1083.24C470.384 1069.64 469.89 1051.86 467.599 1038.73C459.8 994.032 454.636 949.551 449.294 904.495C466.036 891.933 451.498 885.464 446.949 872.687C442.104 859.078 438.035 844.089 433.93 830.149C431.393 825.065 428.611 815.631 425.301 809.236C413.683 786.788 406.563 782.889 383.974 775.146C384.155 756.53 383.567 740.399 384.118 721.167C383.937 719.282 384.095 713.906 383.708 712.624C382.049 707.128 380.41 711.966 377.317 705.595C379.35 702.528 378.696 695.473 378.594 691.627L376.87 691.49C374.76 687.371 374.229 684.493 373.168 680.056C369.017 671.484 366.91 679.222 365.804 666.542C361.843 647.988 355.114 646.194 354.733 621.852C350.113 614.846 345.635 607.774 340.103 601.461L334.765 594.657C327.917 592.703 320.741 593.362 313.736 593.848C310.014 593.775 309.536 593.692 306.067 592.352C306.41 586.495 299.741 576.697 294.414 573.67C282.375 566.828 270.63 569.08 257.99 572.117C222.451 588.751 232.868 602.685 216.391 630.885C204.188 651.768 194.076 658.541 186.051 683.904C177.7 710.297 169.683 714.897 177.475 745.489ZM599.361 1491.44C600.224 1496.27 599.41 1507 599.258 1512.52C598.964 1521.38 599.139 1530.26 599.781 1539.11C602.476 1572.58 609.605 1599.82 616.535 1632.16C624.566 1632.4 686.788 1633.63 690.306 1629.85C697.705 1621.9 696.169 1571.2 693.27 1559.34C690.281 1547.11 683.224 1536.47 682.829 1523.53C682.192 1502.66 688.989 1482.43 687.219 1461.4C651.615 1476.28 636.755 1481.75 599.361 1491.44Z"/><path fill="#272425" d="M257.99 572.117C270.63 569.08 282.375 566.828 294.414 573.67C299.741 576.697 306.41 586.495 306.067 592.352C309.536 593.692 310.014 593.775 313.736 593.848C320.741 593.362 327.917 592.703 334.765 594.657L340.103 601.461C345.635 607.774 350.113 614.846 354.733 621.852C355.114 646.194 361.843 647.988 365.804 666.542C366.91 679.222 369.017 671.484 373.168 680.056C374.229 684.493 374.76 687.371 376.87 691.49L378.594 691.627C378.696 695.473 379.35 702.528 377.317 705.595C380.41 711.966 382.049 707.128 383.708 712.624C384.095 713.906 383.937 719.282 384.118 721.167C383.567 740.399 384.155 756.53 383.974 775.146C406.563 782.889 413.683 786.788 425.301 809.236C428.611 815.631 431.393 825.065 433.93 830.149C438.035 844.089 442.104 859.078 446.949 872.687C451.498 885.464 466.036 891.933 449.294 904.495C454.636 949.551 459.8 994.032 467.599 1038.73C469.89 1051.86 470.384 1069.64 471.369 1083.24C474.304 1110.02 471.259 1141.91 476.579 1168.6C477.713 1174.28 482.587 1184.49 484.994 1190.25C488.94 1203.28 491.507 1216.69 492.651 1230.26C500.139 1237.85 507.322 1245.61 512.186 1255.2C525.243 1280.95 539.105 1357.66 538.89 1386.93C538.803 1398.72 537.845 1410.4 533.276 1421.4C530.587 1427.87 527.223 1434.3 525.088 1440.97C520.932 1453.95 521.826 1465.52 511.41 1475.77C500.436 1486.57 484.123 1490.8 470.002 1495.78C466.368 1497.06 461.552 1498.36 458.552 1500.81C447.746 1500.79 434.554 1503.85 423.206 1504.01C418.641 1504.07 402.097 1504.09 398.809 1505.34L397.567 1507.99C401.368 1524.87 405.609 1537.23 413.194 1552.77C414.128 1554.68 413.653 1555.14 412.964 1556.91C410.141 1558.63 410.672 1558.18 406.625 1557.66C400.253 1556.84 390.459 1562.94 383.84 1565.4C368.813 1581.68 348.807 1591.9 326.462 1592.91C319.964 1593.21 308.525 1592.4 302.886 1589.54C288.174 1586.13 269.796 1587.08 254.977 1584.48C194.113 1573.79 130.212 1577.49 70.1704 1563.46C68.9347 1541.96 76.2151 1510.86 79.5296 1488.21L103.149 1327.34C106.123 1306.04 105.451 1284.42 109.666 1263.02C113.374 1244.19 124.251 1257.07 134.39 1250.74C135.921 1247.54 131.552 1240.2 132.76 1233.99C139.145 1225.41 153.913 1238.12 156.815 1223.84C162.426 1196.23 165.781 1166.13 176.059 1139.8C137.419 1134.36 100.36 1126.05 77.9308 1090.29C68.4568 1075.19 70.3874 1051.81 69.8407 1034.74C68.2952 986.475 75.3116 939.882 83.6299 892.501C89.8751 855.658 97.2694 819.02 105.802 782.639C107.11 792.085 105.849 820.823 105.696 831.635C105.21 865.974 103.924 899.623 106.116 934.02C107.714 923.423 117.62 894.127 121.421 883.578C120.269 879.358 119.243 868.888 122.321 865.455C122.039 864.803 122.106 863.755 122.082 862.979C138.59 833.295 155.862 787.146 191.117 776.716C203.247 773.127 236.596 772.238 240.005 757.01C239.753 756.392 239.5 755.773 239.247 755.154C224.853 752.793 206.994 753.261 192.967 750.59C184.663 749.008 182.634 748.072 177.475 745.489C169.683 714.897 177.7 710.297 186.051 683.904C194.076 658.541 204.188 651.768 216.391 630.885C232.868 602.685 222.451 588.751 257.99 572.117ZM240.266 1554.89C231.057 1550.84 220.526 1548.94 210.835 1546.2C179.539 1537.35 145.582 1525.25 128.054 1495.82C97.7091 1444.89 120.819 1316.72 135.149 1260.36C128.751 1261.15 125.032 1260.98 118.655 1260.77C116.247 1293.82 113.335 1325.16 108.448 1357.93C98.8256 1422.47 91.5328 1487.45 79.3814 1551.63C96.0239 1550.62 112.088 1551.91 128.585 1551.9C162.871 1551.86 196.768 1551.91 230.955 1554.81C233.689 1555.05 237.591 1555.15 240.266 1554.89ZM190.683 1228.6C193.421 1229.13 201.601 1230.91 202.579 1229.32C213.549 1211.53 217.909 1162.66 223.678 1144.15C218.688 1144.34 209.965 1143.76 204.724 1143.56L195.564 1196.67C193.989 1205.75 191.094 1219.87 190.683 1228.6ZM275.047 1578.18C277.077 1577.56 277.1 1577.69 278.482 1576.17C275.393 1571.63 264.119 1570.45 257.63 1567.09L256.958 1566.73C216.11 1565.05 176.07 1559.68 134.909 1561.73C122.032 1562.37 108.112 1559.87 95.0339 1561.14C130.491 1567.83 176.296 1567.63 213.152 1571.78C229.622 1573.63 260.43 1578.49 275.047 1578.18ZM153.239 1251.2C153.908 1247.4 154.686 1243.59 155.171 1239.76L143.324 1239.62C143.535 1243.03 143.252 1247.68 145.336 1250.49C148.11 1252.07 150.112 1251.83 153.239 1251.2Z"/><path fill="#E7B68A" d="M226.646 777.246C239.567 791.185 257.192 804.685 276.691 806.581C300.238 808.871 348.667 804.295 351.625 774.158L370.596 780.309C379.615 806.684 380.406 830.574 387.707 856.667C392.711 874.549 404.923 888.148 406.798 908.534C408.554 927.623 406.221 939.88 402.423 958.365C396.093 989.182 404.165 1019 415.963 1047.54C388.649 1056.76 363.528 1073.37 333.496 1077.15C322.643 1078.52 310.293 1077.3 300.34 1081.54C298.827 1082.18 299.044 1084.37 298.918 1085.81L298.41 1086.79C281.073 1053.91 257.901 1036.93 219.565 1050.15C205.057 1042.36 190.027 1032.52 176.235 1023.56C180.064 1011.84 183.301 990.86 185.691 977.864C204.457 959.868 218.727 939.418 226.057 914.257C240.364 865.14 227.467 825.445 204.031 782.408C211.585 780.756 219.123 779.035 226.646 777.246Z"/><path fill="#D28142" d="M463.483 1084.41C465.436 1087.74 463.396 1090.31 465.649 1091.99C468.317 1090.77 468.649 1090.57 470.704 1088.48L471.369 1083.24C474.304 1110.02 471.259 1141.91 476.579 1168.6C477.713 1174.28 482.587 1184.49 484.994 1190.25C488.94 1203.28 491.507 1216.69 492.651 1230.26C500.139 1237.85 507.322 1245.61 512.186 1255.2C525.243 1280.95 539.105 1357.66 538.89 1386.93C538.803 1398.72 537.845 1410.4 533.276 1421.4C530.587 1427.87 527.223 1434.3 525.088 1440.97C520.932 1453.95 521.826 1465.52 511.41 1475.77C500.436 1486.57 484.123 1490.8 470.002 1495.78C466.368 1497.06 461.552 1498.36 458.552 1500.81C447.746 1500.79 434.554 1503.85 423.206 1504.01C418.641 1504.07 402.097 1504.09 398.809 1505.34C397.257 1490.78 405.088 1466.31 403.057 1449.08C403.453 1435.81 405.821 1422.63 406.246 1409.85C405.914 1385.56 408.451 1358.44 409.2 1333.69C411.227 1328.98 408.736 1321.97 410.599 1317.41C414.259 1318.55 413.322 1318.83 416.593 1317.91C424.771 1310.71 431.423 1285.17 436.185 1273.37C437.65 1287.14 429.404 1309.34 421.838 1320.94C418.608 1322.75 418.337 1323.39 416.655 1326.59C417.177 1327.06 418.495 1327.84 419.147 1328.26C432.35 1330.08 488.607 1314.05 494.8 1302.14C495.847 1295.66 492.195 1290.91 488.996 1285.12C488.252 1284.65 478.183 1271 475.676 1268.3C471.849 1265.32 466.312 1260.15 462.524 1256.83L466.606 1254.25C473.754 1252.15 473.627 1249.46 474.491 1242.81C475.329 1248.3 475.693 1252.89 482.132 1252.74L483.165 1252.08C485.054 1236.86 483.825 1212.09 478.546 1197.66C474.37 1186.76 469.387 1176.19 467.49 1164.57C464.245 1144.69 466.671 1124.38 464.673 1104.39C464.008 1097.75 463.355 1091.1 463.483 1084.41Z"/><path fill="#3C3333" d="M463.483 1084.41C465.436 1087.74 463.396 1090.31 465.649 1091.99C468.317 1090.77 468.649 1090.57 470.704 1088.48L471.369 1083.24C474.304 1110.02 471.259 1141.91 476.579 1168.6C477.713 1174.28 482.587 1184.49 484.994 1190.25C488.94 1203.28 491.507 1216.69 492.651 1230.26L492.377 1241.22C498.73 1249.87 503.373 1258.77 506.949 1268.9C515.953 1294.39 536.158 1392.21 532.305 1416.79C530.525 1428.14 522.485 1436.69 515.264 1445.07L517.679 1456.73C490.381 1489.18 458.741 1498.18 417.566 1502.72C412.906 1503.23 405.112 1503.36 401.952 1499.3C403.553 1494.87 425.035 1492.73 430.322 1491.9C458.993 1487.39 488.149 1479.04 507.342 1455.83C508.234 1428.57 508.177 1408.01 506.444 1380.72C505.646 1368.16 502.464 1331.38 503.873 1320.65L506.226 1319.54L504.032 1319.63L504.091 1319.32L506.002 1318.83C515.441 1336.07 515.346 1409.48 516.393 1430.48C529.336 1410.4 525.323 1393.73 521.709 1371.68C518.159 1350.02 513.309 1330.27 506.981 1309.3C501.85 1292.29 502.184 1269.8 491.714 1254.79C490.759 1253.37 486.897 1255.39 485.76 1255.97C483.539 1254.16 484.273 1255.07 483.165 1252.08C485.054 1236.86 483.825 1212.09 478.546 1197.66C474.37 1186.76 469.387 1176.19 467.49 1164.57C464.245 1144.69 466.671 1124.38 464.673 1104.39C464.008 1097.75 463.355 1091.1 463.483 1084.41Z"/><defs><linearGradient id="gradient_0" gradientUnits="userSpaceOnUse" x1="408.57263" y1="1325.8998" x2="425.78232" y2="1331.6888"><stop offset="0" stop-color="#FFE6D1"/><stop offset="1" stop-color="#FFFCFC"/></linearGradient></defs><path fill="url(#gradient_0)" d="M436.185 1273.37C437.65 1287.14 429.404 1309.34 421.838 1320.94C418.608 1322.75 418.337 1323.39 416.655 1326.59C416.759 1327.4 406.99 1407.74 406.246 1409.85C405.914 1385.56 408.451 1358.44 409.2 1333.69C411.227 1328.98 408.736 1321.97 410.599 1317.41C414.259 1318.55 413.322 1318.83 416.593 1317.91C424.771 1310.71 431.423 1285.17 436.185 1273.37Z"/><path fill="#D7CDC2" d="M475.676 1268.3C483.261 1267.74 493.018 1277.35 496.209 1283.73L496.257 1285.98C493.679 1288.22 491.785 1286.54 488.996 1285.12C488.252 1284.65 478.183 1271 475.676 1268.3Z"/><path fill="#E7B68A" d="M415.947 911.731C426.614 911.629 431.885 910.162 442.157 907.096C449.962 950.7 450.416 995.562 460.406 1039.15C462.985 1050.4 463.109 1072.48 463.483 1084.41C463.355 1091.1 464.008 1097.75 464.673 1104.39C466.671 1124.38 464.245 1144.69 467.49 1164.57C469.387 1176.19 474.37 1186.76 478.546 1197.66C483.825 1212.09 485.054 1236.86 483.165 1252.08L482.132 1252.74C475.693 1252.89 475.329 1248.3 474.491 1242.81C473.627 1249.46 473.754 1252.15 466.606 1254.25L462.524 1256.83C466.312 1260.15 471.849 1265.32 475.676 1268.3C478.183 1271 488.252 1284.65 488.996 1285.12C492.195 1290.91 495.847 1295.66 494.8 1302.14C488.607 1314.05 432.35 1330.08 419.147 1328.26C418.495 1327.84 417.177 1327.06 416.655 1326.59C418.337 1323.39 418.608 1322.75 421.838 1320.94C429.404 1309.34 437.65 1287.14 436.185 1273.37C431.423 1285.17 424.771 1310.71 416.593 1317.91C413.322 1318.83 414.259 1318.55 410.599 1317.41C408.736 1321.97 411.227 1328.98 409.2 1333.69C409.284 1320.68 409.233 1292.72 409.168 1280.59C408.986 1246.85 417.184 1095.77 398.54 1071.98C397.915 1071.11 396.175 1067.69 395.562 1066.55C406.481 1061.61 413.896 1058.9 423.153 1050.91C419.477 1029.75 410.796 1010.37 408.327 989.256C406.21 971.15 411.463 955.352 414.434 937.935C415.591 931.154 415.616 919.127 415.947 911.731Z"/><path fill="#3C3333" d="M432.024 1263.36C403.22 1244.44 424.801 1211.59 424.112 1183.91C423.854 1173.52 413.208 1116.12 417.349 1112.51L418.813 1113.29C426.353 1124.71 434.021 1182.36 432.484 1197.65C430.107 1212.99 424.697 1228.59 426.713 1244.25C427.528 1250.58 432.755 1255.88 439.521 1254.22C444.394 1247.98 435.662 1234.66 439.701 1224.41C441.83 1222.3 440.95 1222.55 443.391 1222.31C445.819 1224.36 445.899 1224.87 446.754 1227.96C445.7 1241.72 449.782 1250.85 462.524 1256.83C466.312 1260.15 471.849 1265.32 475.676 1268.3C478.183 1271 488.252 1284.65 488.996 1285.12C492.195 1290.91 495.847 1295.66 494.8 1302.14C488.607 1314.05 432.35 1330.08 419.147 1328.26C418.495 1327.84 417.177 1327.06 416.655 1326.59C418.337 1323.39 418.608 1322.75 421.838 1320.94C429.404 1309.34 437.65 1287.14 436.185 1273.37C431.423 1285.17 424.771 1310.71 416.593 1317.91C413.322 1318.83 414.259 1318.55 410.599 1317.41C415.842 1299.03 424.002 1280.71 432.024 1263.36Z"/><path fill="#D28142" d="M440 1262.18L447.567 1256.31C447.414 1268.51 446.154 1297.49 449.943 1308.34L451.147 1309.24C460.267 1304.5 456.386 1271.67 455.692 1261.97C473.132 1274.64 476.992 1281.79 488.556 1300.22C473.101 1306.78 437.635 1319.74 421.838 1320.94C429.404 1309.34 437.65 1287.14 436.185 1273.37C437.6 1269.7 439.134 1266.02 440 1262.18Z"/><path fill="#D7CDC2" d="M448.118 1222.75C454.153 1227.46 459.576 1232.02 465.388 1237C466.521 1244.27 466.825 1246.88 466.606 1254.25L462.524 1256.83C449.782 1250.85 445.7 1241.72 446.754 1227.96L448.118 1222.75Z"/><path fill="#3C3333" d="M448.118 1222.75C448.579 1219.86 448.033 1220.84 450.056 1218.95C460.53 1218.79 472.574 1232.32 474.491 1242.81C473.627 1249.46 473.754 1252.15 466.606 1254.25C466.825 1246.88 466.521 1244.27 465.388 1237C459.576 1232.02 454.153 1227.46 448.118 1222.75Z"/><path fill="#D2A2C0" d="M395.562 1066.55C396.175 1067.69 397.915 1071.11 398.54 1071.98C397.212 1073.85 395.382 1075.68 395.564 1077.71C396.287 1085.76 397.759 1095.06 398.746 1102.99C400.11 1114.75 401.049 1126.55 401.562 1138.37C402.54 1163.41 400.348 1448.37 393.095 1458.18C391.713 1455.58 391.545 1435.45 391.034 1430.87C383.97 1367.61 383.048 1302.56 370.626 1240.15C368.991 1231.94 334.673 1232.74 327.731 1232.52C324.281 1193.14 312.302 1123.74 298.41 1086.79L298.918 1085.81C329.325 1093.31 367.8 1077.98 395.562 1066.55Z"/><path fill="#D2A2C0" d="M105.802 782.639C107.11 792.085 105.849 820.823 105.696 831.635C105.21 865.974 103.924 899.623 106.116 934.02C101.351 958.706 92.1233 980.513 85.4337 1005.18C81.1521 1020.96 74.6179 1057.29 82.0611 1073.63C83.0608 1075.82 89.3298 1078.43 91.5556 1079.21C100.057 1081.81 106.526 1086.17 114.304 1090.12C136.647 1101.48 162.703 1101.04 187.072 1099.18C185.086 1106.96 178.682 1134.92 176.059 1139.8C137.419 1134.36 100.36 1126.05 77.9308 1090.29C68.4568 1075.19 70.3874 1051.81 69.8407 1034.74C68.2952 986.475 75.3116 939.882 83.6299 892.501C89.8751 855.658 97.2694 819.02 105.802 782.639Z"/><path fill="#3C3333" d="M257.99 572.117C270.63 569.08 282.375 566.828 294.414 573.67C299.741 576.697 306.41 586.495 306.067 592.352C303.553 592.853 304.469 592.455 302.511 594.588C285.205 596.097 293.544 582.875 289.742 578.604L288.468 578.839L288.155 581.456C285.381 582.668 282.558 579.671 280.439 579.522C276.51 579.245 274.395 582.465 270.132 583.812C264.976 583.049 262.175 576.75 258.454 572.624L257.99 572.117Z"/><path fill="#D2A2C0" d="M302.886 1589.54C306.465 1589.05 309.956 1588.87 313.506 1588.45C338.163 1585.52 360.878 1574.36 383.84 1565.4C368.813 1581.68 348.807 1591.9 326.462 1592.91C319.964 1593.21 308.525 1592.4 302.886 1589.54Z"/><path fill="#D7CDC2" d="M403.057 1449.08C405.088 1466.31 397.257 1490.78 398.809 1505.34L397.567 1507.99C392.854 1495.39 401.029 1464.01 403.057 1449.08Z"/><path fill="#E9C4C2" d="M121.421 883.578C120.269 879.358 119.243 868.888 122.321 865.455C127.421 872.457 124.403 876.145 121.421 883.578Z"/><path fill="#787576" d="M376.87 691.49L378.594 691.627C378.696 695.473 379.35 702.528 377.317 705.595C375.849 701.318 376.582 696.094 376.87 691.49Z"/><path fill="#D2A2C0" d="M135.149 1260.36L153.294 1260.12C152.141 1268.2 147.935 1293.24 153.353 1299.85C159.715 1297.02 160.019 1268.32 160.468 1260.81C202.977 1262.57 246.098 1263.58 288.466 1266.53C288.646 1274.74 288.101 1294.15 291.179 1300.96L292.589 1301.79C300.459 1295.96 297.364 1274.86 296.048 1266.07C305.672 1267.86 321.105 1268.52 331.234 1269.17L341.965 1261.65C343.593 1296.6 349.601 1331.99 352.756 1366.87C355.008 1391.77 354.83 1416.76 356.371 1441.78C357.462 1459.5 362.909 1488.56 360.182 1505.28C357.911 1519.22 342.244 1551.4 334.467 1564.2C333.117 1538.27 334.095 1517.16 334.752 1491.44C335.007 1481.42 333.269 1463.35 332.825 1452.65C332.019 1431.83 331.653 1410.99 331.725 1390.14C331.781 1370.33 334.871 1284 325.8 1272.68L324.58 1272.57C320.373 1278.87 323.082 1297.75 323.278 1305.92C324.299 1348.33 321.676 1390.74 322.512 1433.17C323.253 1465.52 325.46 1497.06 324.331 1529.46C324.349 1533.89 325.477 1561.08 324.846 1563.43C321.982 1564.53 319.977 1563.99 316.9 1563.62C301.596 1559.82 281.731 1558.11 265.935 1556.7C258.573 1556.04 246.899 1556.4 240.266 1554.89C231.057 1550.84 220.526 1548.94 210.835 1546.2C179.539 1537.35 145.582 1525.25 128.054 1495.82C97.7091 1444.89 120.819 1316.72 135.149 1260.36Z"/><path fill="#D7CDC2" d="M324.331 1529.46C324.349 1533.89 325.477 1561.08 324.846 1563.43C321.982 1564.53 319.977 1563.99 316.9 1563.62C318.585 1554.66 319.667 1536.22 324.331 1529.46Z"/><path fill="#E7B68A" d="M296.143 612.822C299.522 611.276 303.057 609.476 306.42 607.841C311.451 609.526 318.679 612.95 323.74 615.194C330.162 625.983 340.127 646.455 340.992 658.687C341.222 660.425 341.639 663.031 342.399 664.589C343.147 667.042 343.614 674.135 343.842 677.029C345.561 698.831 344.901 715.056 338.07 735.697C326.01 745.132 311.217 754.659 295.229 749.033C287.22 746.215 276.054 737.213 267.982 737.53L267.248 738.709C273.112 756.019 303.499 756.977 318.556 756.452C325.541 763.629 335.013 767.515 343.945 772.565C351.134 794.423 307.932 799.379 294.241 801.013C266.697 804.3 249.696 793.149 229.757 776.34C235.395 773.438 239.487 770.751 244.143 766.45C250.444 747.989 251.722 720.018 251.619 700.583C240.807 695.8 240.008 693.932 235.634 683.275C242.239 661.258 247.913 675.568 257.144 667.804C258.978 664.519 258.62 660.39 258.645 656.564C267.32 649.161 283.649 640.229 294.189 632.652C297.77 624.509 297.702 621.413 296.143 612.822Z"/><path fill="#3C3333" d="M340.992 658.687C341.222 660.425 341.639 663.031 342.399 664.589C338.311 664.593 329.348 664.546 327.23 660.763C331.576 655.466 335.287 660.697 340.992 658.687Z"/><path fill="#3C3333" d="M299.383 712.759C306.322 712.528 322.053 710.419 324.365 718.319C323.635 721.662 322.206 722.655 319.735 725.042C309.857 729.479 290.488 725.056 299.383 712.759Z"/><path fill="#E9C4C2" d="M303.218 719.381C308.073 718.587 311.181 718.267 315.871 719.744C310.565 721.409 308.415 721.222 303.218 719.381Z"/><path fill="#3C3333" d="M320.27 672.911C321.109 673.25 322.956 673.837 323.216 674.772C326.551 686.724 331.326 699.289 327.843 711.513L325.674 711.382C321.369 706.511 318.359 680.551 320.27 672.911Z"/><path fill="#3C3333" d="M288.796 659.569C292.058 659.272 297.472 657.962 298.446 661.767C295.7 665.461 291.677 665.355 287.427 665.776C284.255 666.856 279.926 669.268 278.24 665.627C280.742 661.166 284.182 660.737 288.796 659.569Z"/><path fill="#3C3333" d="M338.289 672.253C340.529 673.773 341.053 673.996 341.959 676.5C341.714 679.47 339.797 680.831 337.649 682.89C335.601 680.989 334.014 679.947 333.623 677.157C335.012 673.917 335.064 674.601 338.289 672.253Z"/><path fill="#3C3333" d="M286.201 676.703C287.436 675.752 289.11 675.6 290.496 676.312C291.883 677.025 292.732 678.475 292.677 680.032C292.621 681.59 291.67 682.975 290.236 683.587C288.374 684.382 286.21 683.669 285.186 681.922C284.162 680.175 284.597 677.939 286.201 676.703Z"/><path fill="#D2A2C0" d="M132.925 875.933C135.077 877.914 140.776 885.239 142.849 887.775C156.29 904.213 167.753 922.148 181.402 938.443C179.823 946.818 178.951 961.743 177.822 970.98C175.669 988.587 172.896 1003.51 169.282 1020.88C151.571 1018.26 132.062 1025.01 118.574 1036.63C115.878 1038.95 115.141 1039.86 114.97 1043.27C115.702 1043.9 116.944 1045.2 117.963 1044.77C141.356 1034.83 143.598 1027.34 171.486 1029.77C184.722 1039.53 196.736 1046.07 211.206 1053.99C211.238 1058.21 203.976 1062.35 201.292 1066.86C196.375 1075.12 193.636 1082.42 190.348 1091.38C156.734 1090.68 138.462 1092.97 107.677 1076.57C102.022 1073.55 95.0202 1071.39 88.3837 1067.68C85.2027 1051.13 91.2512 1013.31 96.42 996.396C100.367 983.48 106.488 968.922 110.304 955.11C116.927 931.138 121.664 897.539 132.925 875.933Z"/><path fill="#E7B68A" d="M198.197 783.067C209.327 787.349 222.7 851.987 223.563 863.832C226.506 904.247 211.621 938.485 185.934 968.777C188.687 956.411 191.216 945.283 188.079 932.725C195.309 928.972 198.512 927.764 204.585 922.161C206.303 919.777 206.949 918.731 206.963 916.139L204.975 915.352C197.872 916.326 191.38 924.691 185.158 928.499L184.426 928.94C165.609 910.629 153.32 883.039 130.435 863.272C154.406 832.663 155.433 794.375 198.197 783.067Z"/><path fill="#D2A2C0" d="M241.138 1078.1C241.603 1078.06 241.938 1078 242.392 1078.01C248.59 1078.15 255.304 1082.07 259.604 1086.31C285.641 1111.99 286.052 1196.71 286.397 1232.64L212.836 1231.49C217.781 1220.28 220.622 1208.32 222.846 1196.32C226.17 1175.44 231.303 1154.84 235.15 1134.04C240.962 1139.65 246.523 1144.43 255.132 1144.18C260.829 1144.02 266.504 1141.22 270.359 1137.07C272.778 1134.46 275.089 1130.54 274.685 1126.84C274.446 1124.66 273.848 1123.64 272.298 1122.19C265.342 1124.56 262.437 1135.97 254.018 1136.48C250.641 1136.68 247.351 1133.81 244.93 1131.71C243.191 1130.2 241.436 1128.9 241.289 1126.57C243.364 1126.09 244.756 1125.92 246.145 1124.22C246.385 1121.95 245.903 1120 244.753 1118.02C239.043 1108.17 222.671 1103.83 212.371 1100.96C213.666 1098.33 214.99 1095.71 216.545 1093.23C222.65 1083.49 230.443 1080.52 241.138 1078.1Z"/><path fill="#D2A2C0" d="M362.826 1249.34C363.653 1249.48 364.377 1249.97 365.113 1250.36C370.005 1263.91 369.188 1286.47 370.674 1301.23L383.105 1438.24C384.572 1456.06 384.452 1474 386.147 1491.79C387.498 1505.97 390.431 1519.81 393.409 1533.71C390.651 1531.11 387.741 1528.66 384.904 1526.15C378.896 1520.91 373.49 1515.15 368.025 1509.37C371.783 1482.46 366.878 1455.8 365.197 1428.95C363.771 1406.19 363.355 1383.37 361.544 1360.62C360.183 1343.52 357.639 1326.48 355.615 1309.44C353.59 1292.4 352.272 1275.65 347.682 1259.04C352.54 1255.58 357.776 1252.52 362.826 1249.34Z"/><path fill="#E7B68A" d="M376.826 781.921C424.065 791.809 422.915 829.827 436.085 867.488C438.847 875.385 448.443 886.667 448.019 894.751C446.518 897.292 443.583 898.422 440.914 899.799C432.603 902.622 424.487 904.245 415.94 906.108C410.854 884.546 402.604 874.321 394.734 854.564C391.287 845.911 389.133 829.762 386.866 820.117C383.818 807.144 380.376 794.796 376.826 781.921Z"/><path fill="#D2A2C0" d="M289.108 1149.04C284.986 1117.35 279.482 1065.65 234.485 1069.19C226.392 1069.82 217.498 1076.23 212.728 1082.76C192.177 1116.81 185.256 1163.15 175.389 1201.54C173.361 1209.44 172.888 1217.45 171.174 1225.34C170.706 1227.5 170.253 1228.05 168.806 1228.81C160.282 1219.3 194.924 1104.91 200.243 1087.5C209.65 1056.72 246.628 1042.14 270.722 1066.17C283.84 1079.26 291.139 1129.58 290.625 1149.11L289.108 1149.04Z"/><path fill="#D2A2C0" d="M166.135 1236.71C187.978 1239.05 210.57 1239.55 232.522 1240.25C250.645 1240.82 269.003 1241.81 287.121 1241.06C287.213 1246.37 288.723 1252.56 287.545 1257.72L286.026 1258.08C246.446 1252.9 202.763 1252.51 162.885 1252.77C164.225 1247.46 165.175 1242.1 166.135 1236.71Z"/><path fill="#D2A2C0" d="M339.087 1572.97C341.489 1566.25 346.754 1556.09 349.889 1549.11C353.821 1540.35 358.672 1526.5 363.263 1518.68C373.911 1529.95 380.382 1534.42 392.986 1543.11C395.464 1545.99 395.342 1545.02 395.78 1548.35C393.657 1553.36 384.557 1555.5 379.544 1556.61C366.842 1561.01 351.983 1567.84 339.087 1572.97Z"/><path fill="#D7CDC2" d="M392.986 1543.11C395.464 1545.99 395.342 1545.02 395.78 1548.35C393.657 1553.36 384.557 1555.5 379.544 1556.61C382.261 1551.17 388.461 1547.79 392.986 1543.11Z"/><path fill="#D2A2C0" d="M295.667 1110.31C304.543 1121.51 314.843 1210.38 320.648 1232.64L302.094 1232.53C302.775 1191.49 299.55 1151.13 295.667 1110.31Z"/><path fill="#D2A2C0" d="M375.005 735.983C377.356 738.834 376.648 768.006 376.616 773.989C365.255 770.493 353.159 765.741 342.159 761.287C334.91 759.445 331.923 757.774 325.779 753.512C337.513 745.937 361.086 739.963 375.005 735.983Z"/><path fill="#D2A2C0" d="M301.443 1241.52C320.807 1241.11 341.558 1239.89 360.302 1245.37C356.14 1246.49 351.721 1247.38 348.006 1249.63C341.477 1253.85 334.461 1257.09 327.459 1260.44C318.755 1259.12 309.961 1258.6 301.173 1258.29L301.443 1241.52Z"/><path fill="#D2A2C0" d="M210.909 1108.02C217.397 1110.51 226.699 1113.02 230.64 1118.44C232.388 1123.53 225.595 1135.27 223.678 1144.15C218.688 1144.34 209.965 1143.76 204.724 1143.56C206.775 1133.1 208.435 1117.3 210.909 1108.02Z"/><path fill="#D2A2C0" d="M256.958 1566.73C274.704 1567.5 314.91 1571.51 332.141 1575.49C308.423 1581.12 299.285 1581.13 275.047 1578.18C277.077 1577.56 277.1 1577.69 278.482 1576.17C275.393 1571.63 264.119 1570.45 257.63 1567.09L256.958 1566.73Z"/><path fill="#AC9492" d="M189.905 1175.8C191.27 1189.69 183.757 1215.01 180.648 1229.35C176.543 1219.81 186.734 1186.57 189.905 1175.8Z"/><path fill="#6A656B" d="M289.108 1149.04L290.625 1149.11C292.986 1158.63 293.802 1177.43 292.733 1187.28C291.171 1174.57 289.962 1161.82 289.108 1149.04Z"/><path fill="#3C3333" d="M231.504 628.264C233.788 630.04 234.749 630.495 235.95 633.141C235.102 635.824 235.628 634.892 232.344 636.624C229.105 636.514 227.011 637.091 225.756 633.787C226.891 631.07 229.016 630.02 231.504 628.264Z"/><path fill="#272425" d="M718.281 769.246C723.598 768.696 729.29 768.214 734.544 767.405C736.843 778.419 737.164 801.046 743.615 807.965C746.882 808.813 747.56 808.29 749.054 804.903C756.608 801.218 766.976 796.912 774.911 794.056C787.325 791.312 793.062 786.415 804.113 782.738C819.419 777.645 839.015 778.037 855.324 776.72C866.528 785.244 876.26 790.747 887.213 800.066C905.29 816.74 912.202 826.207 923.409 848.004L923.546 848.967C924.859 857.789 929.628 871.087 930.503 878.24C933.268 900.828 936.977 937.137 934.506 959.115C932.143 980.125 925.555 988.222 924.31 1012.07C920.963 1019.11 918.109 1037.29 915.757 1046.01C912.861 1056.74 909.852 1065.06 905.395 1075.32C901.494 1078.87 898.707 1081.29 897.39 1086.55C897.829 1094.43 895.204 1101.16 892.085 1108.37L895.526 1110.31L894.91 1123.17C892.169 1129.54 885.644 1160.62 885.852 1166.83C883.535 1177.65 880.867 1191.82 878.021 1202.25L876.226 1211.63C875.014 1249.28 873.797 1292.26 873.75 1329.85C864.495 1340.98 837.87 1371.7 825.338 1376.84C825.162 1384.21 825.066 1393.98 823.91 1401.08C820.139 1424.22 811.857 1445.82 807.542 1469.04C809.443 1474.28 812.164 1480.99 813.347 1486.21C816.517 1500.21 810.893 1515.27 812.654 1529.58C813.674 1537.87 817.993 1544.2 819.232 1552.99C820.317 1560.69 816.596 1574.17 817.294 1580.28C819.409 1598.8 822.652 1615.17 824.219 1634.02C821.202 1634.82 820.149 1635.29 817.047 1634.47C815.701 1616.65 813.086 1603.13 810.836 1585.7C809.869 1578.2 812.611 1563.45 811.517 1554.3C810.387 1544.84 806.15 1539.39 805.074 1532.06C803.403 1520.69 808.252 1506.02 807.177 1494.02C806.254 1483.72 799.837 1475.33 801.015 1465.3C802.138 1455.74 805.473 1444.65 808.196 1435.35C813.859 1415.99 817.215 1401.81 817.725 1381.66C781.967 1411.3 740.653 1438.17 697.78 1456.45C697.522 1468.93 696.642 1481.38 695.146 1493.76C693.991 1504.14 692.033 1514.94 692.64 1525.38C693.254 1535.96 701.064 1544.64 703.655 1554.66C706.243 1564.66 706.357 1616.58 703.87 1626.43C702.191 1633.09 699.715 1637.43 694.763 1642.19C694.477 1642.46 694.184 1642.73 693.892 1643C696.279 1644.95 700.137 1646.56 703.014 1647.91C677.041 1649.01 642.562 1648.98 617.497 1642.89C602.723 1640.97 588.391 1645.69 574.751 1645.02C528.76 1642.58 482.89 1646.27 436.895 1644.4C428.814 1644.07 411.783 1648.17 408.256 1638.88L409.387 1637.08C412.565 1634.98 417.779 1633.51 421.556 1633.49C459.509 1634.39 497.515 1632.89 535.402 1632.92C560.963 1632.94 582.751 1633.42 608.623 1631.8C603.054 1603.37 595.315 1577.7 592.971 1547.99C591.392 1527.97 591.76 1513.2 591.99 1493.18C588.634 1466.07 591.856 1434.82 591.255 1407.57C590.956 1393.97 588.245 1379.55 587.305 1365.93C586.151 1349.23 585.909 1332.3 585.679 1315.56C566.002 1287.2 558.431 1248.99 568.251 1215.66C566.653 1213.06 565.089 1210.45 563.561 1207.81C560.353 1202.21 558.29 1196.02 557.493 1189.61C556.388 1180.18 560.262 1144.19 562.771 1133.63C564.616 1125.87 571.329 1108.17 573.944 1098.4C558.244 1093.12 541.034 1081.08 531.677 1067.28C531.657 1055.51 526.453 1050.53 523.746 1039.97C521.276 1030.33 525.104 1020.85 521.467 1011.03C514.68 992.715 493.467 954.662 492.136 938.769C491.86 935.472 492.082 932.314 494.382 929.734C498.412 925.216 550.956 925.398 559.418 925.016C578.157 942.455 578.888 972.449 594.011 996.117C603.084 991.191 603.254 991.617 610.653 999.536C612.219 990.507 611.319 976.094 612.389 966.127C615.533 934.315 625.871 904.28 634.56 873.818C643.079 843.949 646.209 825.704 669.429 803.268C679.193 794.018 689.998 785.934 701.627 779.177C706.246 776.432 714.57 772.599 718.281 769.246ZM616.535 1632.16C624.566 1632.4 686.788 1633.63 690.306 1629.85C697.705 1621.9 696.169 1571.2 693.27 1559.34C690.281 1547.11 683.224 1536.47 682.829 1523.53C682.192 1502.66 688.989 1482.43 687.219 1461.4C651.615 1476.28 636.755 1481.75 599.361 1491.44C600.224 1496.27 599.41 1507 599.258 1512.52C598.964 1521.38 599.139 1530.26 599.781 1539.11C602.476 1572.58 609.605 1599.82 616.535 1632.16Z"/><path fill="#D28142" d="M718.281 769.246C723.598 768.696 729.29 768.214 734.544 767.405C736.843 778.419 737.164 801.046 743.615 807.965C746.882 808.813 747.56 808.29 749.054 804.903C756.608 801.218 766.976 796.912 774.911 794.056C787.325 791.312 793.062 786.415 804.113 782.738C819.419 777.645 839.015 778.037 855.324 776.72C866.528 785.244 876.26 790.747 887.213 800.066C905.29 816.74 912.202 826.207 923.409 848.004L923.546 848.967C924.859 857.789 929.628 871.087 930.503 878.24C933.268 900.828 936.977 937.137 934.506 959.115C932.143 980.125 925.555 988.222 924.31 1012.07C920.963 1019.11 918.109 1037.29 915.757 1046.01C912.861 1056.74 909.852 1065.06 905.395 1075.32C901.494 1078.87 898.707 1081.29 897.39 1086.55C886.064 1090.88 887.925 1105.74 881.208 1114.22C869.276 1129.29 854.068 1136.38 847.004 1155.54C840.094 1174.29 816.403 1165.3 805.362 1169.91C781.833 1179.72 770.811 1181.34 745.503 1175.29C742.78 1174.68 723.486 1174.59 718.99 1174.78C694.385 1175.82 677.917 1166.3 657.018 1154.58C661.358 1147.35 664.66 1139.54 666.826 1131.39C671.506 1114.21 673.406 1088.4 663.836 1072.37C661.557 1068.55 653.14 1062.27 650.882 1058.03C645.669 1048.22 641.889 1038.99 636.29 1029.23C640.411 1010.5 640.625 990.22 644.458 971.171C649.93 943.98 658.437 917.615 664.455 890.616C665.057 887.916 665.148 884.164 663.799 881.669L662.103 881.258C655.942 885.699 653.595 900.907 651.609 907.989C641.149 945.307 633.429 982.859 629.979 1021.47C623.445 1014.44 616.976 1006.8 610.653 999.536C612.219 990.507 611.319 976.094 612.389 966.127C615.533 934.315 625.871 904.28 634.56 873.818C643.079 843.949 646.209 825.704 669.429 803.268C679.193 794.018 689.998 785.934 701.627 779.177C706.246 776.432 714.57 772.599 718.281 769.246Z"/><path fill="#3C3333" d="M879.872 836.877C882.951 837.307 883.394 837.608 885.031 839.401C884.096 845.114 866.794 855.914 862.159 861.636C838.078 891.365 823.37 928.73 814.285 965.569C812.046 974.65 810.148 984.307 809.134 993.579C808.28 998.612 812.987 1020.27 810.549 1023.59C802.532 1034.51 782.724 1028.53 798.623 1052.26C791.315 1056.61 782.501 1061.73 774.142 1063.28C763.849 1066.1 748.322 1060.62 738.645 1061.85C710.973 1065.36 700.772 1070.02 671.878 1063.99C668.072 1063.42 662.786 1062.9 660.313 1059.85L660.567 1058.37C666.493 1052.45 687.866 1060.65 696.323 1060.5C707.733 1060.98 721.437 1053.73 732.374 1053.83C755.57 1054.03 764.941 1059.94 787.735 1050.65C787.309 1048.54 786.949 1046.42 786.653 1044.29C785.396 1034.65 787.721 1030.97 793.439 1023.6L803.626 1020.36C792.882 969.174 829.549 875.33 871.908 842.47C874.244 840.658 877.376 838.59 879.872 836.877Z"/><path fill="#3C3333" d="M719.956 777.979C722.243 778.278 722.311 778.307 724.221 779.552C725.684 786.019 721.431 793.639 722.215 798.612C729.928 847.499 803.249 776.409 817.487 788.768C816.93 791.404 816.497 790.993 813.853 792.944C796.78 803.004 780.642 808.954 763.494 817.355C729.582 833.969 703.483 815.17 719.956 777.979Z"/><path fill="#D7CDC2" d="M674.088 834.475C674.615 838.926 660.486 865.104 657.438 870.238C655.724 864.108 670.382 840.2 674.088 834.475Z"/><path fill="#D7CDC2" d="M716.414 1090.13C716.824 1090.3 717.039 1090.38 717.448 1090.62C723.738 1094.28 727.981 1116.25 730.034 1123.51C722.155 1117.36 720.884 1099.45 716.414 1090.13Z"/><path fill="#D7CDC2" d="M790.803 948.267C790.306 952.486 777.922 965.708 774.338 969.835L774.088 969.139C774.489 962.522 785.949 952.772 790.803 948.267Z"/><path fill="#D7CDC2" d="M750.825 865.439L751.226 865.872C752.229 869.814 745.286 882.106 743.265 886.152L742.853 886.094L742.187 884.71C742.983 878.74 747.76 870.727 750.825 865.439Z"/><path fill="#D7CDC2" d="M766.684 1022.82C766.706 1023.06 766.763 1023.3 766.751 1023.55C766.517 1028.23 754.342 1035.76 750.429 1038.91C750.363 1038.12 750.312 1038.06 750.443 1037.25C751.118 1033.09 762.966 1025.75 766.684 1022.82Z"/><path fill="#D7CDC2" d="M898.374 859.121C899.334 864.859 891.972 873.651 888.477 878.201C887.247 873.496 895.484 863.045 898.374 859.121Z"/><path fill="#D7CDC2" d="M716.448 976.277C718.905 982.522 712.887 992.11 709.64 997.281C708.772 993.078 714.536 980.867 716.448 976.277Z"/><path fill="#D7CDC2" d="M627.927 948.854C629.078 953.963 628.011 966.964 626.18 972.061C623.545 966.037 626.213 955.065 627.927 948.854Z"/><path fill="#D7CDC2" d="M830.162 815.72L830.541 816.139C830.733 819.484 821.348 829.272 818.751 832.268C818.524 832.133 818.176 831.265 818.022 830.951C820.803 825.462 825.71 819.915 830.162 815.72Z"/><path fill="#D7CDC2" d="M706.328 860.042C707.047 864.942 699.907 875.396 696.545 878.984C695.965 874.813 703.757 863.802 706.328 860.042Z"/><path fill="#D7CDC2" d="M903.594 991.468C905.133 996.308 899.806 1005.34 897.802 1009.89C896.017 1003.38 900.274 996.823 903.594 991.468Z"/><path fill="#D7CDC2" d="M878.752 916.926C879.521 921.447 872.064 930.974 869.294 935.005L868.951 933.853C870.248 928.016 875.162 921.752 878.752 916.926Z"/><path fill="#D7CDC2" d="M796.127 870.666C797.188 876.137 791.14 884.737 787.904 888.884C787.16 885.166 794.013 874.351 796.127 870.666Z"/><path fill="#D7CDC2" d="M880.141 1042.02L881.49 1043.85C881.727 1049.07 878.568 1052.46 875.562 1056.36L875.046 1056.09C874.258 1053.47 878.854 1045.03 880.141 1042.02Z"/><path fill="#D7CDC2" d="M835.121 983.539C835.433 983.857 835.756 984.689 835.975 985.152C834.581 989.542 831.166 993.785 828.452 997.608C827.823 997.326 828.004 997.203 827.553 996.252C829.179 991.639 832.321 987.584 835.121 983.539Z"/><path fill="#D7CDC2" d="M877.4 976.42C878.283 979.802 873.166 989.229 871.459 992.966C869.339 988.075 874.861 980.31 877.4 976.42Z"/><path fill="#D7CDC2" d="M813.675 1105.02C815.437 1105.67 816.026 1106.65 817.066 1108.16C817.996 1111.39 816.994 1114.68 816.35 1117.89L815.722 1118.27C813.785 1114.92 814.025 1108.9 813.675 1105.02Z"/><path fill="#D7CDC2" d="M759.471 922.231C762.399 925.225 756.927 935.207 755.346 938.638L754.669 938.256C754.661 935.275 758.291 925.663 759.471 922.231Z"/><path fill="#D7CDC2" d="M854.912 843.178L855.693 844.556C853.609 847.889 849.575 850.668 846.414 853.16C845.692 852.45 846.011 852.847 845.983 851.335C848.579 847.81 851.478 845.832 854.912 843.178Z"/><path fill="#D7CDC2" d="M766.817 1139.1C767.094 1143.95 761.2 1150.63 758.473 1154.57C758.297 1149.09 763.61 1143.37 766.817 1139.1Z"/><path fill="#E7B68A" d="M688.584 913.321C689.725 917.001 684.077 925.298 681.949 928.361C681.345 923.897 686.087 917.37 688.584 913.321Z"/><path fill="#D7CDC2" d="M868.053 1077.89C868.08 1078.07 868.13 1078.25 868.132 1078.44C868.156 1081.87 863.792 1086.28 861.674 1088.84L861.589 1086.13C863.137 1082.68 865.365 1080.5 868.053 1077.89Z"/><path fill="#D7CDC2" d="M824.604 1059.01C826.36 1059.48 828.081 1060.19 829.431 1061.45C831.38 1063.28 831.446 1066.08 831.648 1068.56C829.168 1067.03 826.406 1061.53 824.604 1059.01Z"/><path fill="#D7CDC2" d="M611.961 1195.55C616.264 1197.14 633.972 1209.77 638.957 1212.91C654.875 1222.96 696.744 1236.95 714.75 1237.13C760.507 1244.14 806.458 1245.14 850.194 1227.84C860.123 1223.91 867.645 1220.87 872.795 1211.08C873.183 1208.28 876.315 1204.42 878.021 1202.25L876.226 1211.63C875.014 1249.28 873.797 1292.26 873.75 1329.85C864.495 1340.98 837.87 1371.7 825.338 1376.84C825.162 1384.21 825.066 1393.98 823.91 1401.08C820.139 1424.22 811.857 1445.82 807.542 1469.04C809.443 1474.28 812.164 1480.99 813.347 1486.21C816.517 1500.21 810.893 1515.27 812.654 1529.58C813.674 1537.87 817.993 1544.2 819.232 1552.99C820.317 1560.69 816.596 1574.17 817.294 1580.28C819.409 1598.8 822.652 1615.17 824.219 1634.02C821.202 1634.82 820.149 1635.29 817.047 1634.47C815.701 1616.65 813.086 1603.13 810.836 1585.7C809.869 1578.2 812.611 1563.45 811.517 1554.3C810.387 1544.84 806.15 1539.39 805.074 1532.06C803.403 1520.69 808.252 1506.02 807.177 1494.02C806.254 1483.72 799.837 1475.33 801.015 1465.3C802.138 1455.74 805.473 1444.65 808.196 1435.35C813.859 1415.99 817.215 1401.81 817.725 1381.66C781.967 1411.3 740.653 1438.17 697.78 1456.45C695.816 1441.21 698.301 1430.26 697.593 1416.54C696.184 1389.22 693.236 1362.62 694.238 1335.08C694.762 1320.66 697.481 1306.45 697.124 1292.14C696.863 1281.64 691.447 1273.96 689.504 1264.31C688.437 1259 690.203 1250.61 685.951 1247.12C674.787 1248.54 688.132 1283.72 687.974 1291.25C687.453 1316 685.384 1340.73 685.286 1365.54C687.599 1398.24 686.819 1428.89 687.219 1461.4C651.615 1476.28 636.755 1481.75 599.361 1491.44C597.723 1479.01 596.875 1466.55 597.617 1454.02C598.166 1444.75 600.172 1434.34 599.823 1425.23C598.469 1389.92 592.715 1355.29 593.561 1319.83C594.053 1299.19 598.253 1280.37 600.339 1259.95C600.921 1254.25 596.543 1246.14 597.38 1241.77C600.489 1225.54 608.043 1211.96 611.961 1195.55Z"/><path fill="#272425" d="M817.725 1381.66C822.859 1339.1 843.826 1301.13 846.847 1258.02C847.183 1253.22 849.257 1238.87 853.798 1237.2C854.408 1237.78 854.961 1238.3 855.381 1239.04C863.784 1253.83 829.953 1354.3 825.338 1376.84C825.162 1384.21 825.066 1393.98 823.91 1401.08C820.139 1424.22 811.857 1445.82 807.542 1469.04C809.443 1474.28 812.164 1480.99 813.347 1486.21C816.517 1500.21 810.893 1515.27 812.654 1529.58C813.674 1537.87 817.993 1544.2 819.232 1552.99C820.317 1560.69 816.596 1574.17 817.294 1580.28C819.409 1598.8 822.652 1615.17 824.219 1634.02C821.202 1634.82 820.149 1635.29 817.047 1634.47C815.701 1616.65 813.086 1603.13 810.836 1585.7C809.869 1578.2 812.611 1563.45 811.517 1554.3C810.387 1544.84 806.15 1539.39 805.074 1532.06C803.403 1520.69 808.252 1506.02 807.177 1494.02C806.254 1483.72 799.837 1475.33 801.015 1465.3C802.138 1455.74 805.473 1444.65 808.196 1435.35C813.859 1415.99 817.215 1401.81 817.725 1381.66Z"/><path fill="#D28142" d="M892.085 1108.37L895.526 1110.31L894.91 1123.17C892.169 1129.54 885.644 1160.62 885.852 1166.83C883.535 1177.65 880.867 1191.82 878.021 1202.25C876.315 1204.42 873.183 1208.28 872.795 1211.08C867.645 1220.87 860.123 1223.91 850.194 1227.84C806.458 1245.14 760.507 1244.14 714.75 1237.13C696.744 1236.95 654.875 1222.96 638.957 1212.91C633.972 1209.77 616.264 1197.14 611.961 1195.55C612.612 1189.1 602.996 1181.4 599.777 1175.14C598.02 1171.73 597.415 1170.24 596.07 1166.55C600.609 1149.65 606.636 1134.27 610.184 1116.85C619.532 1120.91 630.866 1124.86 640.551 1128.44C641.263 1135.43 641.985 1143.35 644.455 1150.04C647.742 1158.94 659.526 1163.58 667.128 1168.29C671.473 1170.97 676.271 1173.24 680.849 1175.3C700.892 1184.3 723.135 1180.45 744.291 1182.17C754.796 1183.03 765.11 1187.27 775.803 1186.41C788.139 1185.45 799.829 1179.01 812.045 1176.36C821.854 1174.22 831.228 1176.1 840.835 1172.12C852.106 1167.45 856.73 1148.39 863.541 1141.37C878.395 1126.07 883.345 1129.86 892.085 1108.37Z"/><path fill="#3C3333" d="M698.126 1230.4C739.345 1236.49 781.288 1235.73 822.258 1228.14C831.123 1226.51 839.369 1222.9 847.792 1220.18C854.243 1218.09 867.352 1209.54 872.795 1211.08C867.645 1220.87 860.123 1223.91 850.194 1227.84C806.458 1245.14 760.507 1244.14 714.75 1237.13L698.126 1230.4Z"/><path fill="#D7CDC2" d="M723.051 1195.8L724.269 1197.49C723.482 1202.45 720.144 1205.36 716.703 1208.71L716.061 1207.41C718.468 1203.59 720.799 1199.71 723.051 1195.8Z"/><path fill="#D7CDC2" d="M767.359 1205.74C769.193 1207.97 769.482 1208.43 769.902 1211.27C768.972 1214.56 766.944 1216.43 764.611 1218.8L764.004 1218.29C766.31 1214 767.934 1210.7 767.359 1205.74Z"/><path fill="#D7CDC2" d="M818.293 1190.59C820.013 1191.12 821.752 1192.23 823.018 1193.52C824.817 1195.35 824.685 1197.91 824.643 1200.28C821.762 1198.53 819.944 1193.62 818.293 1190.59Z"/><path fill="#D7CDC2" d="M634.229 1173.69C634.33 1174.07 634.39 1174.27 634.454 1174.69C635.054 1178.6 632.277 1182.01 630.165 1185.01L629.726 1183.44C630.169 1179.81 632.378 1176.75 634.229 1173.69Z"/><path fill="#D28142" d="M573.944 1098.4C584.255 1103.62 594.754 1108.76 604.697 1114.64C595.197 1147.01 579.304 1163.56 604.286 1193.14C601.28 1204.73 598.04 1213.56 593.585 1224.67C584.143 1224.62 582.382 1223.88 574.257 1219.48L568.251 1215.66C566.653 1213.06 565.089 1210.45 563.561 1207.81C560.353 1202.21 558.29 1196.02 557.493 1189.61C556.388 1180.18 560.262 1144.19 562.771 1133.63C564.616 1125.87 571.329 1108.17 573.944 1098.4Z"/><path fill="#D7CDC2" d="M573.765 1115.93C574.969 1121.82 572.541 1129.72 570.249 1135.1C568.415 1129.33 571.712 1121.39 573.765 1115.93Z"/><path fill="#D7CDC2" d="M574.257 1219.48C582.382 1223.88 584.143 1224.62 593.585 1224.67C589.563 1236.11 591.88 1251.67 590.907 1264.57C589.932 1277.49 588.755 1288.62 587.174 1301.51C568.686 1272.55 572.507 1252.62 574.257 1219.48Z"/><path fill="#787576" d="M617.497 1642.89C627.89 1641.81 685.197 1640.99 693.892 1643C696.279 1644.95 700.137 1646.56 703.014 1647.91C677.041 1649.01 642.562 1648.98 617.497 1642.89Z"/><path fill="#D7CDC2" d="M522.483 976.999C529.589 979.296 541.701 997.894 547.72 1004.08C559.442 1016.51 576.472 1021.23 591.532 1028.26C595.944 1030.31 603.494 1038.06 607.489 1033.73C609.284 1025.53 600.083 1004.54 596.78 995.959C606.7 1004.48 623.204 1022.03 629.46 1033.31C642.063 1056.03 642.135 1061.28 661.025 1080.04C664.058 1097.01 663.254 1108.39 660.232 1125.14C628.208 1120.77 585.101 1098.06 556.56 1081.56C547.428 1075.92 543.661 1072.85 536.433 1064.95C542.678 1069.35 561.652 1084.28 569.315 1080.47L569.029 1078.83C550.587 1057.05 535.326 1071.95 526.782 1029.31C535.185 1038.51 539.07 1054.9 556.657 1060.38C559.55 1061.29 561.118 1062.03 563.767 1060.78C561.52 1055.76 552.578 1051.07 547.97 1046.31C535.999 1033.94 528.437 1020.85 523.706 1004.58C531.852 1011.3 558.732 1051.34 573.07 1041.4L573.322 1039.85C570.639 1035.27 560.91 1032.4 556.428 1029.1C541.957 1018.45 522.298 995.688 522.483 976.999Z"/><path fill="#D28142" d="M647.557 1129.9C649.488 1129.96 651.6 1129.92 653.495 1130.29C655.905 1130.76 656.536 1131.91 657.689 1133.84C658.14 1137.72 656.175 1141.73 654.845 1145.33L653.668 1146.74L652.118 1146.47C648.736 1141.99 648.191 1135.32 647.557 1129.9Z"/><path fill="#272425" d="M687.863 340.036L693.178 341.491C807.816 374.467 851.297 445.126 881.492 554.861C884.996 567.597 886.244 585.113 890.164 596.505C890.907 601.179 890.15 616.268 889.979 621.555L888.327 670.71C887.164 713.818 886.793 756.944 887.213 800.066C876.26 790.747 866.528 785.244 855.324 776.72C839.015 778.037 819.419 777.645 804.113 782.738C793.062 786.415 787.325 791.312 774.911 794.056C766.976 796.912 756.608 801.218 749.054 804.903C747.56 808.29 746.882 808.813 743.615 807.965C737.164 801.046 736.843 778.419 734.544 767.405C729.29 768.214 723.598 768.696 718.281 769.246C717.107 769.099 715.946 768.865 714.807 768.545C701.519 764.909 697.236 754.888 690.861 743.558C672.647 752.652 647.972 758.429 642.356 732.17C640.432 723.172 640.688 714.84 637.908 705.821C637.769 708.77 637.545 711.715 637.237 714.652C635.883 727.062 626.227 769.634 615.675 777.488C609.348 782.258 601.656 781.191 594.45 780.406C576.911 778.495 576.866 771.508 576.799 755.704C576.083 735.429 582.141 711.778 582.089 691.914C581.955 640.07 577.66 593.045 594.214 542.577C597.286 533.212 598.22 513.427 600.726 502.605C605.086 483.782 611.982 471.274 624.134 455.945C640.12 433.319 656.986 419.444 680.361 404.086C680.647 398.955 681.119 395.543 682.503 390.538C685.946 378.086 703.332 354.809 685.948 346.334C676.091 341.529 672.797 364.93 668.195 366.611L665.986 365.285C662.777 359.216 668.946 349.701 673.227 345.433C678.316 340.362 680.961 340.057 687.863 340.036Z"/><path fill="#D7CDC2" d="M693.178 341.491C807.816 374.467 851.297 445.126 881.492 554.861C884.996 567.597 886.244 585.113 890.164 596.505C890.907 601.179 890.15 616.268 889.979 621.555L888.327 670.71C887.164 713.818 886.793 756.944 887.213 800.066C876.26 790.747 866.528 785.244 855.324 776.72C857.867 775.429 860.487 773.889 862.747 772.151C868.404 767.803 871.901 762.296 872.777 755.162C874.031 744.938 870.391 734.933 870.192 724.758C869.91 710.304 875.2 696.348 871.204 681.834C866.546 664.911 851.698 657.824 842.553 644.395C838.725 638.774 836.739 631.35 834.421 624.99C830.846 615.182 827.104 605.403 824.613 595.25C817.881 567.809 802.527 474.349 788.37 456.525C784.944 452.212 779.622 448.98 774.933 446.159C760.621 437.55 745.047 431.063 730.241 423.357C718.798 417.401 707.89 410.006 695.925 405.115C692.556 403.738 689.092 403.266 685.495 402.881C689.237 377.393 710.622 365.094 693.178 341.491Z"/><path fill="#D7CDC2" d="M729.934 695.256C745.046 693.841 750.552 692.414 759.632 678.793C773.128 658.548 782.662 678.35 780.996 693.237C780.332 699.168 773.389 694.972 769.022 697.106C766.577 701.847 774.174 737.347 774.425 747.713C774.771 762.054 773.325 780.916 774.911 794.056C766.976 796.912 756.608 801.218 749.054 804.903C745.751 793.248 742.744 776.465 740.242 764.278C746.979 759.277 769.428 749.944 763.547 739.496C756.267 739.76 751.195 750.448 744.357 754.576C733.458 761.155 710.522 764.769 703.065 751.019C708.031 746.519 720.192 749.155 723.897 740.034C725.434 736.248 732.993 726.959 727.021 723.78C723.872 723.846 721.47 726.392 718.962 728.451C706.876 729.256 702.457 725.741 691.848 731.233C688.46 725.037 685.2 716.57 682.43 709.9C686.981 705.502 688.226 703.744 691.785 698.658C696.726 712.162 707.98 726.7 725.005 714.857C730.457 711.065 729.98 701.546 729.934 695.256Z"/><path fill="#D7CDC2" d="M614.418 484.909C627.237 497.301 619.159 539.499 620.486 556.18C621.629 570.541 625.549 583.649 627.3 597.825C629.071 612.168 627.929 627.392 628.444 641.848C629.157 676.006 632.156 710.675 622.58 743.992C620.182 752.334 618.405 763.645 611.46 769.532C608.155 772.334 601.968 771.317 598.064 770.87C596.456 770.406 587.536 770.304 585.311 770.24C582.52 741.292 588.247 722.213 589.577 693.981C590.782 668.388 588.287 642.273 589.213 616.133C590.273 586.212 596.56 566.244 602.428 537.819C606.654 517.345 606.48 505.73 614.418 484.909Z"/><path fill="#D7CDC2" d="M631.946 458.193C637.562 461.198 637.268 486.755 649.651 489.268C657.781 487.259 663.284 477.999 667.703 471.306C669.292 486.111 668.84 503.746 669.046 518.723C669.44 547.273 668.616 576.481 669.749 604.979C654.162 622.759 651.281 642.053 661.271 663.477C669.76 681.683 665.647 679.182 652.376 689.17C647.985 702.246 647.378 713.505 661.013 720.783C675.43 724.779 673.265 729.496 673.982 743.069C643.185 743.518 652.888 733.583 646.839 711.644C636.003 672.348 635.323 636.818 634.381 596.584C634.16 587.134 628.102 573.765 627.885 564.472C627.052 528.871 633.47 509.59 618.289 476.242C623.595 470.393 627.427 464.665 631.946 458.193Z"/><path fill="#D7CDC2" d="M740.982 438.984C749.467 442.922 756.945 446.467 765.216 450.928C752.668 487.612 754.904 532.104 760.533 569.74C735.916 567.522 731.391 570.792 711.239 584.033C706.217 587.546 702.629 592.459 698.793 597.211C697.989 573.501 698.497 550.361 699.028 526.65C699.41 509.608 699.189 492.623 700.662 475.633C706.376 478.487 708.013 479.214 714.318 480.918C729.197 471.891 733.861 454.615 740.982 438.984Z"/><path fill="#D7CDC2" d="M684.601 409.501C693.529 409.913 700.762 415.699 707.47 421.098C704.516 431.724 691.497 459.684 691.978 468.227C692.02 468.962 692.956 470.843 693.283 471.656C695.372 476.855 691.436 540.823 691.21 552.363C690.927 566.867 692.705 581.901 691.287 596.296C689.032 599.098 688.74 598.467 684.676 599.786L676.433 602.708C675.506 558.466 678.128 513.191 673.66 469.034C673.244 464.924 667.877 460.907 666.675 456.475C664.112 447.018 662.404 437.3 660.518 427.677C668.984 420.64 675.463 415.592 684.601 409.501Z"/><path fill="#D7CDC2" d="M770.333 454.312C772.648 455.23 780.208 459.09 781.486 461.163C797.018 486.339 796.593 522.743 804.575 551.104C806.099 556.52 813.327 585.501 813.254 587.073C811.453 587.195 810.219 585.99 808.391 584.886C791.767 576.241 785.331 575.806 768.409 569.239C758.225 532.425 763.821 491.105 770.333 454.312Z"/><path fill="#D7CDC2" d="M684.215 622.698C686.189 624.429 687.377 631.829 689.047 634.936C703.058 661.007 723.561 673.903 752.366 678.542C745.77 684.563 737.169 690.84 727.833 689.242C714.451 671.242 703.985 672.933 691.607 690.402C685.336 682.69 683.979 682.308 675.072 678.578C671.689 661.437 667.591 633.896 684.215 622.698Z"/><path fill="#D7CDC2" d="M713.548 423.437C720.866 427.491 727.84 432.138 734.4 437.331C730.817 449.046 723.046 460.597 716.128 470.536C711.358 475.674 703.178 469.811 697.988 467.167C707.052 449.462 709.213 442.922 713.548 423.437Z"/><path fill="#D7CDC2" d="M653.94 432.824C656.472 436.052 658.214 451.803 659.896 456.665C661.337 460.833 662.701 463.09 664.903 466.895C660.301 470.688 656.098 477.006 650.709 481.894C643.069 471.648 640.226 462.025 638.241 449.728C641.959 443.686 648.721 437.705 653.94 432.824Z"/><path fill="#D7CDC2" d="M709.07 682.627C724.014 684.288 734.577 705.774 713.901 712.581C695.108 708.223 688.294 685.871 709.07 682.627Z"/><path fill="#D7CDC2" d="M660.89 689.51C662.946 689.461 664.114 689.661 666.161 689.938C670.832 693.977 674.311 709.232 670.781 715.21C670.149 716.279 668.053 716.215 666.674 716.426C657.734 711.746 656.796 709.169 653.011 700.265C655.824 695.338 656.709 693.572 660.89 689.51Z"/><path fill="#D7CDC2" d="M692.808 734.063C697.964 734.104 713.035 733.189 715.949 737.005L714.296 739.32C703.876 745.243 699.017 744.779 692.808 734.063Z"/><path fill="#3C3333" d="M714.023 609.906C715.433 609.832 716.844 609.803 718.256 609.819C721.855 609.892 724.578 611.969 724.458 615.689C721.991 617.302 722.227 616.774 718.914 616.632C714.619 615.947 710.133 615.512 706.27 613.575L705.922 612.46C708.429 610.546 710.858 610.459 714.023 609.906Z"/><path fill="#E9C4C2" d="M679.999 723.01C684.168 725.742 686.047 734.192 687.446 738.997C678.692 737.579 680.281 730.64 679.999 723.01Z"/><path fill="#D7CDC2" d="M677.445 686.646C685.186 690.504 684.62 692.905 683.169 700.852C682.065 701.201 682.377 700.998 680.928 700.653C679.207 697.403 678.192 690.507 677.445 686.646Z"/><path fill="#3C3333" d="M755.1 604.542C759.097 603.45 761.288 604.495 764.666 606.45L764.87 608.315C761.152 608.841 756.616 608.303 755.1 604.542Z"/><path fill="#3C3333" d="M855.011 701.202L856.63 703.567L856.131 705.036C853.228 706.032 851.193 706.931 848.412 708.182C846.933 707.368 847.349 707.975 846.846 706.571C849.653 704.532 852.057 703.02 855.011 701.202Z"/><path fill="#D2A2C0" d="M457.002 380.276C477.232 378.473 496.616 379.987 512.864 393.72C521.696 401.258 530.195 412.588 534.505 423.409C545.25 450.384 549.613 480.769 553.769 509.397C565.444 589.822 565.112 671.054 565.402 752.117C565.525 786.52 569.255 822.124 563.3 856.209C562.029 863.763 558.785 870.848 553.896 876.746C524.061 912.233 486.688 872.62 455.067 866.745C450.456 855.501 443.99 836.684 433.93 830.149C431.393 825.065 428.611 815.631 425.301 809.236C413.683 786.788 406.563 782.889 383.974 775.146C384.155 756.53 383.567 740.399 384.118 721.167C383.937 719.282 384.095 713.906 383.708 712.624C382.049 707.128 380.41 711.966 377.317 705.595C379.35 702.528 378.696 695.473 378.594 691.627L376.87 691.49C374.76 687.371 374.229 684.493 373.168 680.056C369.017 671.484 366.91 679.222 365.804 666.542C361.843 647.988 355.114 646.194 354.733 621.852C350.113 614.846 345.635 607.774 340.103 601.461L334.765 594.657C341.313 578.062 346.225 526.88 355.153 513.553C378.133 479.251 433.705 454.217 457.388 418.376C462.759 410.247 459.789 399.287 457.398 390.333L464.019 389.828C462.052 386.034 459.728 383.515 457.002 380.276Z"/><path fill="#3C3333" d="M464.019 389.828C467.674 405.203 468.038 411.613 461.848 426.641C476.267 444.231 527.157 494.785 530.912 510.072C545.769 570.557 544.395 671.782 546.962 731.712L550.415 808.613C550.97 822.498 552.454 837.292 551.002 851.097C550.357 857.237 547.993 863.6 542.957 867.461C539.93 869.78 535.893 870.858 532.115 870.26C528.237 869.646 525.024 867.364 522.777 864.202C509.544 845.574 509.041 711.523 505.002 678.905C501.774 703.54 506.592 812.517 492.313 823.832C484.369 830.128 455.193 831.852 445.207 830.037C443.161 829.665 442.032 828.967 440.783 827.343L441.158 825.878C457.235 817.782 490.401 837.227 493.067 802.581C498.012 738.305 495.637 674.273 503.503 610.142C507.886 572.139 504.465 541.433 518.249 503.617C508.877 491.529 499.187 479.691 489.187 468.116C482.022 489.188 478.741 499.755 457.068 508.433C453.034 531.545 452.276 556.826 450.358 580.162C446.271 629.886 445.675 679.164 443.964 728.854C443.125 753.24 442.172 800.099 436.773 822.324C432.751 801.911 434.797 777.399 435.912 756.538C440.28 674.755 437.678 588.275 450.203 507.333C430.187 497.236 425.134 486.914 416.812 466.664C402.253 478.543 387.567 490.267 372.758 501.833C383.124 537.052 382.716 566.279 383.735 602.521C384.816 640.973 389.207 682.891 384.118 721.167C383.937 719.282 384.095 713.906 383.708 712.624C382.049 707.128 380.41 711.966 377.317 705.595C379.35 702.528 378.696 695.473 378.594 691.627L376.87 691.49C374.76 687.371 374.229 684.493 373.168 680.056C369.017 671.484 366.91 679.222 365.804 666.542C361.843 647.988 355.114 646.194 354.733 621.852C350.113 614.846 345.635 607.774 340.103 601.461L334.765 594.657C341.313 578.062 346.225 526.88 355.153 513.553C378.133 479.251 433.705 454.217 457.388 418.376C462.759 410.247 459.789 399.287 457.398 390.333L464.019 389.828Z"/><path fill="#D2A2C0" d="M340.103 601.461C342.618 585.724 356.439 518.208 366.187 508.328C374.612 511.315 374.769 553.977 375.618 565.25C377.485 590.041 375.151 616.641 368.705 640.936C366.995 647.379 368.846 661.471 365.804 666.542C361.843 647.988 355.114 646.194 354.733 621.852C350.113 614.846 345.635 607.774 340.103 601.461Z"/><path fill="#E9C4C2" d="M376.942 635.057C379.441 656.408 379.761 670.035 378.594 691.627L376.87 691.49C374.76 687.371 374.229 684.493 373.168 680.056C374.056 665.973 374.72 648.818 376.942 635.057Z"/><path fill="#D2A2C0" d="M522.992 510.662C524.043 511.508 524.415 512.2 524.831 513.495C529.644 528.483 533.306 568.224 534.608 585.652C537.516 624.603 537.169 663.751 538.633 702.767C539.433 724.088 548.766 845.621 542.5 857.574C540.069 862.212 535.918 863.511 531.262 865.027C530.195 864.003 529.144 862.924 528.363 861.658C517.42 843.936 515.617 718.368 512.864 686.272C511.841 674.347 507.267 662.953 507.416 650.943C507.591 636.82 509.638 622.448 510.693 608.344C513.132 575.754 514.334 542.361 522.992 510.662Z"/><path fill="#D2A2C0" d="M455.781 432.525C462.997 438.586 474.563 454.183 484.513 463.218C478.182 477.743 472.145 499.68 454.085 500.296L453.517 500.065C434.554 492.313 430.674 480.241 423.16 462.259C434.399 452.635 445.447 443.122 455.781 432.525Z"/><path fill="#D2A2C0" d="M433.727 385.522C440.682 375.45 446.676 375.573 457.002 380.276C459.728 383.515 462.052 386.034 464.019 389.828L457.398 390.333C459.789 399.287 462.759 410.247 457.388 418.376C433.705 454.217 378.133 479.251 355.153 513.553C346.225 526.88 341.313 578.062 334.765 594.657C327.917 592.703 320.741 593.362 313.736 593.848C318.347 577.269 321.128 560.222 325.235 543.49C330.115 524.236 336.577 505.417 344.556 487.227C361.241 449.076 393.529 401.244 433.727 385.522Z"/><path fill="#3C3333" d="M433.727 385.522C440.682 375.45 446.676 375.573 457.002 380.276C459.728 383.515 462.052 386.034 464.019 389.828L457.398 390.333C454.843 385.741 452.008 382.37 446.608 382.675C439.973 386.453 439.901 395.077 435.283 401.473L433.958 401.384C430.922 395.475 432.431 392.023 433.727 385.522Z"/><path fill="#E7B68A" d="M433.93 830.149C443.99 836.684 450.456 855.501 455.067 866.745C466.436 906.71 466.251 940.665 470.63 981.362C478.169 1051.41 488.908 1119.43 484.994 1190.25C482.587 1184.49 477.713 1174.28 476.579 1168.6C471.259 1141.91 474.304 1110.02 471.369 1083.24C470.384 1069.64 469.89 1051.86 467.599 1038.73C459.8 994.032 454.636 949.551 449.294 904.495C466.036 891.933 451.498 885.464 446.949 872.687C442.104 859.078 438.035 844.089 433.93 830.149Z"/><path fill="#6A656B" d="M110.233 510.33C108.646 463.726 112.607 412.242 112.695 365.301C112.766 327.055 113.234 288.277 114.574 250.075C115.13 234.202 115.531 214.5 119.243 199.274C124.656 177.066 136.889 158.112 152.179 141.544C175.136 116.666 204.443 113.177 236.547 111.184C249.835 110.359 264.7 108.735 278.007 108.635C322.137 108.301 366.619 108.042 410.752 108.183C433.05 108.255 457.793 106.035 479.13 106.647C514.593 107.664 547.879 108.536 583.452 108.3C635.35 107.585 687.253 107.308 739.155 107.468C773.123 107.588 805.999 106.736 839.71 111.927C901.865 121.498 930.296 184.219 930.415 241.54C930.535 299.108 928.605 356.776 927.379 414.43L924.223 642.637C923.609 677.056 921.925 711.444 922.599 745.933C922.828 757.647 921.75 779.244 923.812 789.882C922.536 807.52 924.302 829.229 923.409 848.004C912.202 826.207 905.29 816.74 887.213 800.066C886.793 756.944 887.164 713.818 888.327 670.71L889.979 621.555C890.15 616.268 890.907 601.179 890.164 596.505C892.112 579.666 891.417 547.791 891.495 530.084L892.029 407.758C892.176 390.142 893.109 372.034 893.478 354.313L894.67 277.554C895.611 238.347 904.884 202.814 873.27 172.548C842.639 143.222 808.407 148.991 769.881 148.027C708.49 146.491 764.05 224.07 705.727 224.164C691.167 224.349 676.525 224.15 661.839 223.891C638.671 223.475 615.5 223.253 592.328 223.224L345.314 222.929C262.243 222.945 343.266 144.29 270.981 143.612C228.776 143.216 180.561 137.61 149.164 171.26C125.471 196.653 126.136 217.801 127.074 250.005C128.555 280.385 126.206 318.907 126.026 350.71C125.879 428.064 124.828 505.413 122.872 582.743C121.758 619.082 121.314 655.439 121.538 691.796C121.531 697.788 121.14 726.838 122.143 731.75C119.558 735.461 119.266 858.369 122.082 862.979C122.106 863.755 122.039 864.803 122.321 865.455C119.243 868.888 120.269 879.358 121.421 883.578C117.62 894.127 107.714 923.423 106.116 934.02C103.924 899.623 105.21 865.974 105.696 831.635C105.849 820.823 107.11 792.085 105.802 782.639C108.565 756.956 107.512 726.063 107.546 699.992C107.593 663.565 108.226 627.458 109.34 591.047C110.105 566.078 108.068 534.865 110.233 510.33ZM564.693 183.299C597.312 179.149 589.195 164.351 562.13 162.938C516.719 160.567 471.011 162.251 425.529 161.974C422.316 161.955 418.818 161.939 415.624 162.083C408.531 162.696 392.389 163.602 393.118 173.867C393.687 181.893 407.709 182.27 413.771 182.49C445.151 183.628 476.659 182.892 508.063 183.28C521.463 183.292 552.944 184.734 564.693 183.299ZM625.814 187.21C639.683 175.456 636.075 162.478 617.706 161.533C606.309 172.889 606.99 189.205 625.814 187.21ZM671.636 187.602C685.981 178.726 681.815 163.275 665.848 162.517C651.517 171.997 655.085 187.954 671.636 187.602Z"/><path fill="#787576" d="M110.233 510.33C114.301 516.256 107.985 636.12 109.812 656.477C114.73 651.893 113.103 652.829 118.95 651.269C121.567 639.051 120.739 614.199 120.432 600.862C120.059 584.595 123.893 558.916 122.273 543.716C118.763 544.388 118.331 545.149 115.819 543.729C113.242 535.621 120.95 534.872 112.384 528.699L112.46 527.446C115.185 528.008 115.475 528.207 117.652 529.955C119.174 533.301 117.364 537.208 117.504 541.877L119.017 543.168L120.581 542.848C124.768 536.507 122.849 440.935 123.367 426.214C125.113 376.555 123.571 325.31 125.927 275.468C126.215 269.373 125.016 254.666 127.074 250.005C128.555 280.385 126.206 318.907 126.026 350.71C125.879 428.064 124.828 505.413 122.872 582.743C121.758 619.082 121.314 655.439 121.538 691.796C121.531 697.788 121.14 726.838 122.143 731.75C119.558 735.461 119.266 858.369 122.082 862.979C122.106 863.755 122.039 864.803 122.321 865.455C119.243 868.888 120.269 879.358 121.421 883.578C117.62 894.127 107.714 923.423 106.116 934.02C103.924 899.623 105.21 865.974 105.696 831.635C105.849 820.823 107.11 792.085 105.802 782.639C108.565 756.956 107.512 726.063 107.546 699.992C107.593 663.565 108.226 627.458 109.34 591.047C110.105 566.078 108.068 534.865 110.233 510.33Z"/><path fill="#787576" d="M114.684 497.025C117.704 497.192 119.871 496.86 122.071 498.791C122.996 501.431 122.412 502.294 121.527 504.989C119.023 506.593 117.835 507.284 115.186 505.91C113.681 503.059 114.342 500.273 114.684 497.025Z"/><path fill="#6A656B" d="M923.812 789.882C933.566 813.902 938.544 840.414 943.126 865.054C961.859 965.797 981.123 1067.93 953.218 1168.99C946.654 1192.77 943.304 1218.91 932.124 1241.78C928.936 1249.09 924.994 1257.77 920.866 1264.59L915.511 1442.86C914.303 1496.49 924.242 1556.9 883.093 1598.86L882.789 1599.5C873.448 1619.21 872.783 1633.49 846.682 1642.88C840.535 1645.06 834.123 1646.4 827.618 1646.86C815.786 1647.81 710.279 1649.28 706.885 1647.44C705.472 1646.68 703.495 1643.74 703.24 1642.21C703.017 1640.87 703.668 1640.04 704.208 1638.84C709.624 1634.25 719.274 1633.42 726.056 1634.02C754.807 1636.59 787.903 1631.9 816.233 1634.39L817.047 1634.47C820.149 1635.29 821.202 1634.82 824.219 1634.02C836.163 1632.04 843.337 1629.27 852.525 1620.32C860.425 1612.6 865.857 1602.72 868.133 1591.91C870.857 1579.14 870.974 1562.6 871.32 1549.3C871.887 1527.24 872.148 1505.17 872.103 1483.1L873.75 1329.85C873.797 1292.26 875.014 1249.28 876.226 1211.63L878.021 1202.25C880.867 1191.82 883.535 1177.65 885.852 1166.83C885.644 1160.62 892.169 1129.54 894.91 1123.17L895.526 1110.31L892.085 1108.37C895.204 1101.16 897.829 1094.43 897.39 1086.55C898.707 1081.29 901.494 1078.87 905.395 1075.32C909.852 1065.06 912.861 1056.74 915.757 1046.01C918.109 1037.29 920.963 1019.11 924.31 1012.07C925.555 988.222 932.143 980.125 934.506 959.115C936.977 937.137 933.268 900.828 930.503 878.24C929.628 871.087 924.859 857.789 923.546 848.967L923.409 848.004C924.302 829.229 922.536 807.52 923.812 789.882Z"/><path fill="#D7CDC2" d="M923.812 789.882C933.566 813.902 938.544 840.414 943.126 865.054C961.859 965.797 981.123 1067.93 953.218 1168.99C946.654 1192.77 943.304 1218.91 932.124 1241.78C928.936 1249.09 924.994 1257.77 920.866 1264.59C920.374 1247.07 921.302 1228.43 921.488 1210.79C921.645 1176.52 922.144 1142.25 922.982 1107.99C923.67 1076.77 924.809 1043.12 924.31 1012.07C925.555 988.222 932.143 980.125 934.506 959.115C936.977 937.137 933.268 900.828 930.503 878.24C929.628 871.087 924.859 857.789 923.546 848.967L923.409 848.004C924.302 829.229 922.536 807.52 923.812 789.882Z"/><path fill="#787576" d="M876.226 1211.63C879.547 1211.78 882.472 1211.49 884.959 1213.59C890.374 1220.81 884.448 1246.15 884.857 1256.38C888.217 1340.4 883.723 1425.69 883.908 1509.82C883.939 1523.56 880.575 1592.37 883.093 1598.86L882.789 1599.5C873.448 1619.21 872.783 1633.49 846.682 1642.88C840.535 1645.06 834.123 1646.4 827.618 1646.86C815.786 1647.81 710.279 1649.28 706.885 1647.44C705.472 1646.68 703.495 1643.74 703.24 1642.21C703.017 1640.87 703.668 1640.04 704.208 1638.84C709.624 1634.25 719.274 1633.42 726.056 1634.02C754.807 1636.59 787.903 1631.9 816.233 1634.39L817.047 1634.47C820.149 1635.29 821.202 1634.82 824.219 1634.02C836.163 1632.04 843.337 1629.27 852.525 1620.32C860.425 1612.6 865.857 1602.72 868.133 1591.91C870.857 1579.14 870.974 1562.6 871.32 1549.3C871.887 1527.24 872.148 1505.17 872.103 1483.1L873.75 1329.85C873.797 1292.26 875.014 1249.28 876.226 1211.63Z"/><path fill="#D7CDC2" d="M885.852 1166.83C885.644 1160.62 892.169 1129.54 894.91 1123.17C894.917 1141.11 892.457 1150.06 885.852 1166.83Z"/><path fill="#E7B68A" d="M905.395 1075.32C901.234 1087.44 897.819 1097.57 895.526 1110.31L892.085 1108.37C895.204 1101.16 897.829 1094.43 897.39 1086.55C898.707 1081.29 901.494 1078.87 905.395 1075.32Z"/><path fill="#3C3333" d="M948.892 359.719C953.213 365.584 947.361 454.41 946.913 468.016L944.81 531.877C944.585 537.831 945.007 563.758 940.18 566.428L938.469 564.993C927.342 528.84 932.345 438.472 937.972 399.085C939.737 386.732 944.075 371.354 948.892 359.719Z"/><path fill="#3C3333" d="M938.241 624.953C943.225 626.191 944.201 628.184 947.609 632.217C947.766 639.484 947.205 646.811 947.121 654.087C946.687 691.609 944.656 729.209 944.902 766.723C924.689 727.047 933.458 668.339 938.241 624.953Z"/><path fill="#272425" d="M938.241 624.953C939.166 617.551 939.37 611.852 943.129 605.328L944.858 604.212C951.219 607.615 948.611 625.788 947.609 632.217C944.201 628.184 943.225 626.191 938.241 624.953Z"/></svg>