<?xml version="1.0" encoding="utf-8" ?><svg xmlns="http://www.w3.org/2000/svg" xmlns:xlink="http://www.w3.org/1999/xlink" width="1024" height="1820" viewBox="0 0 1024 1820"><path fill="#4B5051" d="M619.515 319.688C620.29 285.975 631.354 254.842 656.118 231.17C677.87 210.389 707.094 199.271 737.161 200.336C802.993 202.138 847.798 250.723 847.015 316.647C846.484 361.332 820.346 391.357 782.873 412.65C784.512 435.075 779.861 461.982 800.644 476.953C837.529 503.523 873.917 537.518 878.028 585.65C881.177 624.913 863.379 651.733 829.483 668.739C812.266 677.377 789.242 687.238 790.132 708.272C787.774 760.379 795.032 812.378 800.105 864.153C804.109 906.203 807.716 947.105 817.578 988.232C844.935 1100.84 910.592 1219.57 865.848 1336.64C851.419 1374.39 832.778 1402.59 801.799 1428.28C801.499 1442.84 800.86 1458.79 801.051 1473.25C773.649 1475.87 746.19 1477.88 718.697 1479.26C723.562 1484.53 725.676 1486.9 728.624 1493.7L741.485 1494.18C742.896 1491.44 744.641 1487.78 746.15 1485.2C778.798 1470.57 836.244 1485.72 868.595 1497.94C872.385 1499.35 876.066 1501.05 879.606 1503L878.831 1514.77C854.694 1538.96 874.57 1567.87 816.644 1566.47C779.101 1565.56 760.767 1548.84 746.779 1515.93C737.684 1515.15 731.242 1514.74 722.266 1512.9C713.006 1535.24 694.733 1554.3 667.567 1544.81C658.722 1541.72 653.269 1531.43 650.165 1523.01C649.301 1520.72 648.552 1518.39 647.921 1516.02C624.04 1516.4 601.364 1517.16 577.345 1516.87C564.595 1516.72 534.682 1515.55 523.357 1516.82C521.956 1518.95 522.153 1520.96 521.999 1523.58C520.261 1620.21 403.309 1669.73 321.502 1673.64C263.51 1676.42 202.883 1667.07 157.454 1628.5C97.4493 1577.54 88.1105 1454 166.456 1415.42C184.213 1406.72 199.821 1404.36 219.541 1403.15C220.176 1374.73 219.477 1345.33 219.129 1316.85C218.771 1287.49 218.881 1256.35 216.96 1227.11C190.715 1201.87 171.606 1177.06 150.258 1147.77C111.441 1094.52 74.3257 1034.39 66.9165 967.558C58.5516 892.1 87.0986 808.897 127.346 745.506C133.52 735.783 141.363 723.185 148.479 714.279C162.912 694.227 179.404 675.124 194.908 655.816C196.805 648.91 195.235 614.173 195.065 604.868C194.551 559.663 193.542 514.465 192.038 469.282C191.619 456.792 190.814 444.319 189.626 431.879C186.046 393.349 172.46 340.57 226.795 334.967C288.733 328.579 350.382 328.919 412.448 325.972C481.34 322.7 550.543 320.801 619.515 319.688ZM234.71 723.137C235.992 739.004 236.001 754.962 236.908 770.851C246.118 932.082 244.19 1094.41 255.025 1255.52C255.996 1273.14 257.959 1365.17 262.908 1375.44C274.384 1377.88 308.375 1375.58 321.879 1375.08C352.613 1373.92 383.355 1372.98 414.103 1372.26C533.48 1370.17 649.947 1372.86 769.45 1367.57C768.31 1348.95 768.243 1327.32 767.56 1308.41C765.174 1254.09 763.707 1199.73 763.16 1145.36C762.546 1109.88 761.203 1064.7 760.09 1029.64C759.335 1005.91 761.656 864.943 754.437 856.002L755.444 853.745L755.607 853.987L756.279 853.865C756.895 847.19 754.454 822.836 753.606 814.93C750.736 788.166 748.063 763.59 746.673 736.746C744.077 686.609 746.827 637.371 746.75 587.412C746.709 560.623 744.215 530.173 743.242 503C742.276 476.644 742.243 450.262 743.144 423.904C710.714 424.365 692.591 421.374 665.831 402.803C629.578 401.718 587.346 403.571 550.697 404.018L222.798 410.702C223.544 455.485 226.75 503.246 228.615 548.375L230.381 594.806C230.616 600.924 230.925 615.04 231.91 620.675C231.953 652.645 233.805 690.481 234.71 723.137ZM227.5 624.444C226.216 581.157 224.621 537.881 222.716 494.617C221.453 469.674 217.931 430.956 219.686 407.102C242.891 406.499 266.229 404.482 289.455 403.711C348.414 402.174 407.381 400.985 466.354 400.144L589.712 399.078C613.002 398.902 635.854 399.198 659.139 398.071C640.673 379.699 633.266 369.391 624.233 344.592C531.336 347.136 437.685 346.529 345.172 349.644C331.373 350.216 317.57 350.668 303.764 350.999C222.359 352.407 201.615 352.417 206.504 443.728C209.306 496.039 212.011 550.62 216.141 603.185C216.887 612.688 216.8 622.719 217.749 632.078L227.5 624.444ZM199.681 649.21C202.413 645.81 210.355 639.201 214.011 636.014C211.595 614.239 210.943 585.264 209.279 562.347C207.058 531.434 205.167 500.498 203.605 469.544C202.356 446.35 200.497 422.167 202.494 399.007C205.368 370.932 215.124 355.601 243.901 350.422C270.948 345.555 296.056 347.304 323.019 346.344C423.082 342.781 523.159 342.826 623.246 340.373C621.797 334.45 620.808 329.744 619.793 323.728C603.182 325.538 584.013 325.196 567.163 325.282C546.783 325.455 526.405 325.806 506.031 326.334C455.514 327.775 405.116 331.332 354.657 333.053C319.95 333.713 284.723 333.402 250.204 337.235C234.34 339.565 210.155 337.764 199.358 351.854C184.152 371.7 191.528 403.108 193.31 426.107C199.07 500.43 198.226 574.73 199.681 649.21ZM806.661 1514.27C790.854 1515.11 775.054 1516.05 759.261 1517.1C767.236 1532.21 775.356 1547.02 792.851 1552.47C796.031 1553.46 799.429 1554.3 802.701 1554.9C814.812 1556.18 836.307 1559.08 846.472 1550.95C854.71 1544.35 859.756 1530.67 860.612 1520.45C860.943 1516.49 860.567 1511.89 857.921 1508.72C850.83 1500.25 831.221 1499.93 821.108 1496.67C816.489 1502.58 812.013 1509.02 806.661 1514.27ZM764.553 1487.72C760.64 1489.59 756.956 1491.31 755.385 1495.72C753.886 1499.93 754.956 1505.01 755.869 1509.24C770.463 1507.74 785.26 1506.9 799.919 1506.22C805.246 1503.88 808.225 1498.61 811.299 1493.93C795.409 1489.6 781.146 1486.69 764.553 1487.72ZM792.234 835.559C792.129 840.82 791.945 846.311 791.935 851.553C791.6 929.776 795.992 1008.77 796.822 1087.12C797.278 1130.13 793.991 1174.98 795.689 1217.34C798.453 1286.27 802.125 1352.14 801.954 1421.29C827.806 1402.01 847.923 1367.56 859.718 1338.17C868.871 1315.97 874.442 1292.46 876.223 1268.52C882.298 1181.56 835.276 1075.59 813.715 991.399C800.314 939.075 800.704 900.947 794.579 849.789C793.831 845.122 793.127 840.175 792.234 835.559ZM237.816 1404.51C265.582 1407.42 287.866 1418.11 311.947 1421.27C370.089 1428.91 411.55 1414.27 468.123 1443.78C464.285 1426.71 471.733 1409.09 486.651 1399.94C501.57 1390.8 520.655 1392.15 534.134 1403.31C547.612 1414.47 552.499 1432.96 546.29 1449.32C540.081 1465.68 524.153 1476.28 506.663 1475.69C510.179 1483.8 516.237 1493.52 519.064 1500.97C562.329 1500.98 602.121 1502.2 645.271 1503.22C643.07 1497.71 636.347 1481.03 636.379 1476.06C636.467 1462.07 678.109 1467.04 686.723 1468.37C695.33 1469.71 703.704 1474 711.76 1473.83C739.824 1473.23 768.577 1471.14 796.484 1469.38C796.512 1461.87 797.217 1438 796.154 1432.34C793.707 1429.17 793.42 1431.74 788.392 1429.49C782.079 1422.65 781.66 1413.07 781.193 1404.07C780.292 1386.67 780.487 1369.08 780.159 1351.64C779.37 1309.24 779.114 1266.84 779.393 1224.44C779.539 1203.17 780.387 1178.83 779.702 1157.82C778.222 1112.41 772.849 1067.92 772.742 1022.22C772.567 948.292 772.979 873.776 771.359 799.875C769.873 761.245 764.093 721.684 764.45 683.048C765.033 620.099 770.259 558.514 766.477 495.434C765.041 471.473 766.396 443.158 766.577 418.859C760.695 420.606 753.266 422.123 747.165 423.517C744.84 471.282 749.265 527.753 750.309 575.969C751.33 623.158 749.306 668.357 750.388 715.465C751.651 770.462 759.483 823.629 762.283 878.388C765.001 931.538 762.886 984.362 764.51 1037.72L769.188 1229.39C770.626 1277.19 773.533 1324.18 773.343 1372.04C761.967 1371.9 747.56 1372.96 735.938 1373.42C712.86 1374.4 689.771 1375.11 666.677 1375.56C617.733 1375.97 568.786 1376 519.841 1375.64C462.26 1375.93 404.685 1377 347.133 1378.84C332.067 1379.33 269.268 1384.23 259.503 1379.01C253.231 1371.8 251.05 1268.71 250.581 1252.89L236.529 1243.47C237.372 1275.77 237.827 1308.08 237.896 1340.4C237.846 1350.13 236.522 1398.09 237.816 1404.51ZM656.051 1508.67C659.315 1508.05 662.355 1507.22 665.608 1508.28L667.553 1509.92C667.657 1511.72 667.715 1512.02 666.458 1513.35C664.204 1515.76 660.029 1515.55 656.987 1515.69C659.589 1523.27 662.313 1532.07 670.173 1535.8C677.349 1539.2 685.499 1536.99 692.544 1534.4C703.151 1528.54 710.48 1518.71 713.738 1507.04C715.087 1502.21 715.366 1496.9 712.788 1492.41C708.819 1485.5 699.772 1482.63 692.51 1480.83C680.924 1477.96 669.072 1477.31 657.188 1477.98C654.636 1479.23 653.027 1480.35 652.094 1483.15C649.612 1490.58 653.968 1501.34 656.051 1508.67ZM507.813 1398.29C494.657 1398.43 482.601 1405.66 476.271 1417.19C469.941 1428.72 470.32 1442.77 477.263 1453.94C484.206 1465.11 496.634 1471.68 509.779 1471.11C529.659 1470.26 545.178 1453.62 544.641 1433.73C544.104 1413.85 527.71 1398.07 507.813 1398.29ZM233.347 1403.81C232.231 1395.51 233.014 1360.47 233.012 1350.04C233.226 1313.14 232.891 1276.23 232.008 1239.33L222.243 1230.86C220.765 1285.4 223.929 1347.42 224.054 1403.03L233.347 1403.81ZM792.968 1426.31L795.844 1425.01C798.499 1415.73 796.976 1379 796.87 1367.82C796.384 1316.4 791.935 1264.48 791.13 1213.06L786.641 679.972C786.233 652.667 782.564 625.416 781.838 598.079C780.682 581.403 784.44 563.603 784.216 547.234C783.943 527.294 782.184 505.726 780.787 485.829C779.646 469.584 783.004 429.581 777.354 416.562C776.737 416.203 775.822 415.614 775.188 415.385C773.076 416.919 771.352 417.656 771.249 420.638C769.797 462.705 770.949 505.024 771.623 547.081C772.372 593.758 768.112 640.212 768.899 686.878C769.644 729.351 775.578 771.84 775.73 814.323C775.863 851.699 776.896 889.212 776.834 926.551C776.504 980 775.596 1033.33 779.466 1086.71C781.075 1108.91 783.913 1131.7 783.965 1153.95C784.161 1238.41 783.122 1322.91 786.056 1407.34C786.312 1414.7 787.848 1420.85 792.968 1426.31ZM743.566 1508.97C743.332 1506.18 743.392 1505.16 741.659 1502.84C737.023 1500.26 731.371 1501 726.217 1501.08C725.857 1503.74 725.466 1504.66 726.806 1507.09C731.302 1510.08 738.34 1509.05 743.566 1508.97ZM786.696 509.719C786.714 517.263 786.501 563.818 788.385 565.828L789.181 565.664C790.149 558.471 791.293 516.259 789.061 511.276L786.696 509.719ZM522.553 1505.52L520.249 1508.83L520.699 1510.87C525.992 1513.94 634.199 1511.47 646.229 1510.05C629.388 1506.17 601.877 1506.23 584.228 1506.1C563.669 1506.01 543.11 1505.82 522.553 1505.52ZM784.806 466.994C784.421 476.7 783.874 496.202 786.782 505.082C788.616 506.864 789.953 506.922 792.457 507.528C795.421 510.571 794.816 522.643 794.442 529.232C793.871 539.297 795.453 561.137 791.761 569.67C791.073 571.261 785.865 571.372 785.728 578.462C785.022 614.963 791.491 652.583 791.017 688.831C806.147 674.701 820.021 670.772 836.437 660.445C886.944 622.869 882.718 575.099 848.54 527.09C829.195 499.915 805.255 490.38 784.806 466.994ZM727.013 203.924C667.036 207.59 621.443 259.262 625.286 319.213C629.129 379.164 680.945 424.594 740.9 420.577C800.606 416.576 845.819 365.032 841.992 305.329C838.166 245.625 786.742 200.273 727.013 203.924Z"/><path fill="#A7ACA1" d="M219.541 1403.15C219.679 1423.41 219.713 1444.06 220.455 1464.26C222.116 1509.48 230.765 1528.65 279.613 1526.86C337.132 1524.75 394.477 1521.58 451.899 1518.83C468.975 1517.94 486.062 1517.3 503.156 1516.91C508.988 1516.73 516.584 1514.29 521.491 1517.57C522.257 1519.93 522.064 1521.15 521.999 1523.58C520.261 1620.21 403.309 1669.73 321.502 1673.64C263.51 1676.42 202.883 1667.07 157.454 1628.5C97.4493 1577.54 88.1105 1454 166.456 1415.42C184.213 1406.72 199.821 1404.36 219.541 1403.15Z"/><path fill="#E2B370" d="M216.96 1227.11C190.715 1201.87 171.606 1177.06 150.258 1147.77C111.441 1094.52 74.3257 1034.39 66.9165 967.558C58.5516 892.1 87.0986 808.897 127.346 745.506C133.52 735.783 141.363 723.185 148.479 714.279C152.546 716.178 193.674 716.835 196.939 715.563C198.124 726.097 198.11 744.407 198.434 755.661L200.647 831.637L208.216 1081.01C209.211 1111.74 211.828 1140.75 214.269 1171.26C215.322 1184.42 217.97 1214.31 216.96 1227.11Z"/><path fill="#DFB29A" d="M194.908 655.816C195.824 674.708 194.987 697.365 196.939 715.563C193.674 716.835 152.546 716.178 148.479 714.279C162.912 694.227 179.404 675.124 194.908 655.816Z"/><path fill="#4B5051" d="M368.319 464.767C374.371 464.768 379.616 464.907 385.476 466.661C413.739 475.122 431.469 490.411 419.182 520.736C426.852 544.648 410.4 549.132 408.331 568.798C417.058 568.666 425.626 570.263 434.2 571.681C483.653 579.857 521.223 606.475 547.405 648.837C542.534 659.393 536.223 675.415 535.03 687.728C530.797 731.43 527.323 778.386 527.546 822.275C527.647 842.108 535.441 862.762 534.452 883.021C534.618 897.501 528.784 911.76 528.5 925.853C528.229 939.304 541.44 953.699 551.529 961.466C555.954 983.193 554.611 997.602 555.881 1019.03C556.694 1032.75 561.349 1047.38 560.826 1062.31C560.425 1073.77 556.192 1085.89 556.423 1096.18C556.755 1110.94 559.703 1126.88 560.593 1141.84C543.071 1185.42 530.792 1211.91 496.299 1245.39C510.451 1260.18 543.296 1292.42 495.414 1293.53C478.983 1293.91 472.674 1280.7 463.064 1270.29C431.107 1284.73 404.734 1293.59 369.227 1294.88C360.277 1310.24 351.226 1311.9 334.549 1311.65C324.477 1304.68 323.747 1299.78 323.285 1288.13C295.766 1277.12 280.946 1269.92 255.025 1255.52C244.19 1094.41 246.118 932.082 236.908 770.851C236.001 754.962 235.992 739.004 234.71 723.137C233.805 690.481 231.953 652.645 231.91 620.675C270.743 593.231 310.56 573.708 357.911 566.808C357.109 563.134 356.216 558.38 355.076 554.886C341.599 546.802 336.947 538.677 344.518 523.841C335.194 490.554 339.262 483.373 368.319 464.767ZM402.02 570.597C406.729 562.567 411.321 544.835 416.955 535.857C417.774 534.553 417.934 532.014 417.556 530.454C415.801 530.601 414.741 531.399 413.195 532.269C410.822 529.667 414.474 509.563 402.904 500.983C388.946 490.634 381.073 497.668 365.586 497.294C353.785 497.008 353.478 518.685 354.812 526.173C357.102 541.882 356.789 558.627 370.351 569.46C380.683 569.783 391.78 569.864 402.02 570.597ZM343.141 493.902C343.661 507.589 345.281 514.761 350.313 527.533C350.32 518.046 349.242 504.904 356.436 497.667C357.957 496.165 359.582 494.773 361.3 493.501C369.854 493.76 373.581 493.188 382.097 491.523C402.239 490.249 410.405 498.403 416.091 517.057C418.159 511.569 420.033 506.942 419.325 500.914C416.936 480.563 389.081 468.748 370.864 469.354C358.881 473.303 348.669 482.584 343.141 493.902ZM469.941 1273.13C473.285 1277.05 476.446 1281.23 480.688 1284.08L481.218 1284.44C481.55 1284.65 481.882 1284.86 482.214 1285.06C491.33 1289.31 505.682 1292.38 513.611 1284.31C516.739 1281.13 518.291 1275.78 514.016 1272.84C509.749 1272.92 507.213 1276.31 503.219 1278.14C494.889 1281.96 484.434 1278.53 476.339 1275.95L469.941 1273.13ZM346.702 527.2C342.148 537.868 344.019 541.734 352.427 549.47C355.138 545.659 352.666 529.295 346.702 527.2ZM363.678 1296.33C347.858 1296.55 342.588 1296.95 327.997 1290.76C327.485 1293.08 328.321 1300.38 329.723 1302.01C339.406 1313.25 356.503 1305.49 363.678 1296.33ZM493.057 1248.65C484.939 1256.54 477.025 1261.18 469.484 1267.95C476.78 1273.18 498.912 1278.71 506.899 1273.02C512.243 1264.21 499.048 1254.4 493.057 1248.65Z"/><path fill="#E2B370" d="M234.71 723.137C243.273 721.332 251.976 724.268 260.623 725.485C260.439 737.313 272.19 734.879 281.295 737.024C285.014 754.847 284.676 764.28 283.154 782.482C280.461 814.707 292.959 849.305 298.938 881.169C286.705 890.277 280.062 896.884 299.948 902.843C301.941 924.366 296.721 928.741 314.672 943.694C314.448 953.615 313.858 963.911 316.194 973.592C319.563 987.549 326.153 999.646 326.882 1014.31C327.801 1032.79 331.195 1053.97 328.494 1072.3C327.237 1080.83 319.841 1089.73 319.988 1099.43C320.195 1113.02 327.65 1123.67 330.425 1136.26C335.635 1159.89 327.049 1195.17 345.446 1214.1C346.689 1215.37 347.969 1216.59 349.286 1217.78C340.566 1244.29 324.447 1259.99 323.285 1288.13C295.766 1277.12 280.946 1269.92 255.025 1255.52C244.19 1094.41 246.118 932.082 236.908 770.851C236.001 754.962 235.992 739.004 234.71 723.137Z"/><path fill="#E2B370" d="M408.331 568.798C417.058 568.666 425.626 570.263 434.2 571.681C483.653 579.857 521.223 606.475 547.405 648.837C542.534 659.393 536.223 675.415 535.03 687.728C530.797 731.43 527.323 778.386 527.546 822.275C527.647 842.108 535.441 862.762 534.452 883.021C534.618 897.501 528.784 911.76 528.5 925.853C528.229 939.304 541.44 953.699 551.529 961.466C555.954 983.193 554.611 997.602 555.881 1019.03C556.694 1032.75 561.349 1047.38 560.826 1062.31C560.425 1073.77 556.192 1085.89 556.423 1096.18C556.755 1110.94 559.703 1126.88 560.593 1141.84C543.071 1185.42 530.792 1211.91 496.299 1245.39C482.071 1229.98 475.634 1223.89 466.897 1205.14C482.468 1180.2 474.474 1138.97 476.312 1110.28C476.897 1101.14 480.752 1087.3 479.895 1080.27C477.814 1063.23 470.121 1049.69 471.88 1031.43C473.494 1014.67 477.438 998.016 478.571 981.263C479.406 968.925 478.764 955.417 479.405 943.005C480.105 929.474 482.266 915.548 483.535 901.995C484.473 891.983 484.389 880.929 485.953 871.128C490.502 842.626 505.064 811.909 507.519 783.28C508.64 770.198 504.742 748.271 503.831 734.046C510.607 731.077 515.257 728.976 520.69 723.958C519.887 718.404 518.725 712.908 517.212 707.504C510.996 684.756 495.88 638.209 482.251 618.939C477.349 612.674 469.719 608.37 462.698 605.137C434.325 592.071 417.29 604.689 408.331 568.798Z"/><path fill="#E2B370" d="M379.426 1219.54C385.172 1215.29 390.536 1208.14 390.226 1200.88C389.326 1179.81 387.27 1156.76 385.271 1135.76C382.684 1117.35 378.099 1097.41 380.916 1078.69C386.705 1040.21 391.297 1001.81 396.983 963.226C405.852 986.922 407.752 1007.56 412.093 1031.97C413.884 1043.81 420.603 1059.78 420.365 1071.6C419.576 1110.7 419.066 1150.02 419.234 1189.08C419.248 1192.24 427.291 1206.47 429.148 1211.14C422.613 1242.52 412.386 1233.87 445.985 1250.77C452.045 1253.82 460.106 1263.65 463.064 1270.29C431.107 1284.73 404.734 1293.59 369.227 1294.88C371.208 1287.88 372.844 1279.57 374.671 1272.28C379.925 1251.32 383.839 1241.06 379.426 1219.54Z"/><path fill="#DFB29A" d="M357.911 566.808C364.536 615.341 306.692 595.161 288.608 629.654C273.532 658.41 271.489 695.81 260.623 725.485C251.976 724.268 243.273 721.332 234.71 723.137C233.805 690.481 231.953 652.645 231.91 620.675C270.743 593.231 310.56 573.708 357.911 566.808Z"/><path fill="#E2B370" d="M430.8 599.641C448.052 602.778 463.524 609.12 477.656 619.458C475.415 623.664 473.138 627.984 471.259 632.362C463.906 649.486 469.569 668.605 467.042 686.512C465.234 699.326 459.077 711.105 459.354 724.308C459.555 733.893 463.198 742.608 466.657 751.385C464.518 758.738 460.6 765.564 458.874 773.047C456.529 783.215 461.068 789.876 466.255 798.074C463.617 802.461 460.196 807.013 460.269 812.33C460.401 821.886 467.361 824.084 472.956 830.167C474.687 832.048 474.454 833.486 474.303 835.831C470.435 839.205 458.584 836.658 453.25 836.525C450.374 836.453 448.366 836.568 446.249 838.613C447.42 844.414 468.334 839.008 473.336 843.7C472.991 845.12 472.917 845.834 471.936 846.969C468.531 850.908 462.504 852.775 458.552 856.543C427.41 886.233 418.831 888.5 376.481 892.094C361.828 892.324 347.816 892.234 333.26 890.126C312.854 857.587 319.911 823.169 320.634 787.075C320.9 773.802 318.807 760.383 320.045 747.138C321.508 731.499 326.129 716.713 324.794 700.781C322.473 673.103 301.93 652.223 296.736 625.07C310.185 615.029 325.123 609.339 340.706 603.53C354.887 613.461 369.511 621.865 387.471 621.572C405.291 621.28 418.883 611.889 430.8 599.641Z"/><path fill="#E2B370" d="M466.542 854.71C472.302 859.847 478.093 870.437 480.044 877.751C484.088 892.913 476.627 921.489 475.619 937.877C474.509 955.906 475.298 974.11 473.345 992.081C471.913 1005.26 468.251 1018.24 467.566 1031.5C466.705 1048.16 474.249 1062.66 475.529 1078.86C476.413 1090.04 472.638 1100.48 472.111 1111.51C471.077 1133.11 477.386 1180.15 466.974 1197.3C464.167 1201.92 459.8 1204.51 454.595 1205.67C447.188 1207.32 437.553 1206.82 431.09 1202.47C418.746 1194.16 423.38 1169.26 423.842 1156.61C424.443 1140.15 422.947 1123.6 423.164 1107.12C423.323 1095.01 425.405 1082.73 424.435 1070.65C423.229 1055.62 417.679 1041.3 414.842 1026.57C412.575 1014.8 412.553 1002.69 409.975 990.957C406 972.857 398.889 955.869 395.359 937.451C393.834 948.149 393.497 958.988 392.043 969.699C389.643 987.391 386.1 1004.87 384.21 1022.65C382.945 1045.53 375.629 1068.25 376.106 1091.11C376.42 1106.17 379.502 1121.07 381.167 1136.01C382.617 1149.03 382.869 1162.18 384.112 1175.22C384.79 1182.34 386.456 1189.51 386.533 1196.66C386.591 1202.11 385.897 1207.97 381.789 1211.94C377.062 1216.51 368.996 1218.2 362.627 1217.93C356.617 1217.67 351.212 1215.27 347.233 1210.71C331.065 1192.18 339.04 1158.42 334.663 1135.87C332.254 1123.45 324.367 1112.44 324.392 1099.43C324.411 1090.02 330.641 1082.22 332.582 1073.22C336.175 1056.57 333.224 1035.97 331.743 1019.15C329.332 991.769 316.821 976.421 318.671 946.099C324.259 947.028 330.695 947.983 336.173 946.145C339.746 944.946 342.446 942.906 344.13 939.443C349.517 928.363 339.22 905.575 335.206 894.462C345.289 895.683 355.329 896.57 365.498 896.584C390.451 896.617 419.57 894.348 440.382 879.04C449.938 872.011 458.165 863.07 466.542 854.71Z"/><path fill="#DFB29A" d="M292.188 630.697C292.617 631.053 292.806 631.165 293.136 631.699C296.343 636.88 297.797 644.308 300.713 649.957C319.077 685.529 325.548 701.16 316.057 741.393C310.295 739.34 304.163 737.894 298.272 736.216C286.844 734.184 275.442 731.42 264.08 729.014C272.28 695.947 278.869 662.192 292.188 630.697Z"/><path fill="#E2B370" d="M480.502 623.435C490.618 629.617 513.446 708.514 517.064 723.045C508.895 727.327 500.523 731.242 492.222 735.258C484.544 738.805 476.832 742.277 469.087 745.673C467.791 742.391 466.631 739.058 465.611 735.68C464.114 730.714 463.154 725.797 463.425 720.577C464.004 709.395 468.929 699.192 470.634 688.238C472.479 676.383 470.597 664.356 471.041 652.436C471.167 649.05 471.494 645.546 472.193 642.228C473.608 635.52 477.29 629.418 480.502 623.435Z"/><path fill="#E2B370" d="M285.856 737.803C295.871 739.775 305.747 742.629 315.615 745.231C315.435 759.322 316.743 773.395 316.42 787.476C316.021 804.821 313.913 822.159 314.17 839.519C314.309 848.89 318.111 859.092 317.643 868.135C317.549 869.942 316.531 870.253 315.226 871.299C310.921 873.611 306.77 876.338 302.587 878.869C298.108 854.773 289.477 830.867 287.347 806.448C285.337 783.399 289.183 761.019 285.856 737.803Z"/><path fill="#E2B370" d="M497.974 736.738C498.592 737.099 499.064 737.547 499.448 738.155C501.729 741.764 501.068 749.893 501.449 754.216C502.37 764.683 503.934 775.244 503.139 785.764C502.032 800.429 496.717 814.981 492.712 829.068C488.834 843.032 485.071 857.028 481.423 871.054L476.861 862.542C470.145 851.948 477.311 848.51 478.335 838.328C479.025 831.478 474.824 826.888 470.778 821.96C476.474 796.847 474.597 774.371 470.647 749.221L497.974 736.738Z"/><path fill="#E2B370" d="M361.774 566.716C369.214 572.199 374.178 579.793 384.316 581.061C392.758 582.117 399.365 577.401 405.667 572.51C406.389 576.482 407.191 580.771 408.64 584.535C411.763 592.647 418.606 595.79 425.955 599.206C421.717 603.871 417.268 607.315 411.852 610.5C385.054 623.273 368.348 618.754 345.649 601.963C363.548 592.773 363.591 585.469 361.774 566.716Z"/><path fill="#E2B370" d="M349.286 1231.88C352.831 1231.72 357.254 1231.3 360.716 1232.15C365.142 1233.22 369.329 1236.09 371.642 1240.03C375.055 1245.86 374.62 1253.27 372.992 1259.58C369.945 1271.4 362.954 1278.54 352.736 1284.45C347.769 1286.17 340.458 1288.33 335.462 1285.57C333.333 1284.39 332.12 1282.25 331.479 1279.98C327.452 1265.71 342.402 1243.89 349.286 1231.88Z"/><path fill="#E2B370" d="M322.749 879.779C323.627 880.338 324.15 881.158 324.711 882.011C329.804 889.76 343.809 927.991 341.657 935.971C341.241 937.512 340.559 937.608 339.255 938.296C330.782 935.34 328.83 918.968 324.639 911.75C322.778 914.62 324.538 921.864 325.197 925.078C327.633 933.164 331.21 937.329 338.005 942.271C334.362 942.787 330.48 943.504 326.8 943.182C316.651 942.293 310.892 935.25 304.863 927.936C304.969 915.776 304.324 903.576 303.922 891.422C310.125 887.425 316.402 883.543 322.749 879.779Z"/><path fill="#E2B370" d="M472.574 1224.54C479.504 1232.34 486.323 1240.64 493.057 1248.65C484.939 1256.54 477.025 1261.18 469.484 1267.95C466.893 1267.5 454.388 1250.26 451.195 1246.47L449.835 1236.92C458.736 1230.29 462.024 1228.23 472.574 1224.54Z"/><path fill="#E2B370" d="M462.262 1208C462.399 1208.05 462.545 1208.07 462.674 1208.14C465.687 1209.72 468.131 1217.51 469.445 1220.66C461.205 1224.36 453.678 1227.68 446.924 1233.87C446.714 1236.96 446.575 1239.97 445.701 1242.97L444.149 1243.77L441.705 1242.33C439.309 1234.35 435.87 1227.05 431.997 1219.7C432.433 1216.07 432.642 1212.38 432.948 1208.73C443.177 1210.6 452.186 1210.14 462.262 1208Z"/><path fill="#E2B370" d="M368.9 1277.39C367.82 1283.86 367.013 1290.59 363.678 1296.33C347.858 1296.55 342.588 1296.95 327.997 1290.76C326.66 1288.69 327.081 1286.04 327.128 1283.41C329.457 1283.51 333.298 1286.28 335.02 1287.83C345.528 1297.27 360.172 1285.28 368.9 1277.39Z"/><path fill="#E2B370" d="M352.501 1219.5C360.778 1221.83 367.257 1221.75 375.64 1220.73C377.264 1227.6 377.967 1234.66 377.728 1241.71C368.775 1222.86 360.967 1233.4 352.513 1226.15C351.518 1223.46 351.973 1222.24 352.501 1219.5Z"/><path fill="#E2B370" d="M467.965 760.478C469.748 762.301 469.833 766.911 470.138 769.484C470.8 775.05 473.167 791.266 469.705 795.67L468.584 794.135C466.33 790.249 463.543 786.615 460.954 782.946C462.72 775.202 464.896 767.809 467.965 760.478Z"/><path fill="#DFB29A" d="M370.351 569.46C380.683 569.783 391.78 569.864 402.02 570.597C391.564 581.807 381.06 577.867 370.351 569.46Z"/><path fill="#E2B370" d="M429.189 1224.79C430.007 1225.42 430.716 1226.05 431.404 1226.82C434.901 1230.74 436.195 1236.99 435.934 1242.09C433.233 1240.98 430.012 1239.82 428.4 1237.22C426.036 1233.42 428.045 1228.67 429.189 1224.79Z"/><path fill="#E2B370" d="M320.978 872.73L321.837 874.433C319.3 879.855 309.398 883.762 304.318 886.509C303.657 885.735 303.586 885.237 303.332 884.271C306.286 878.763 315.617 875.41 320.978 872.73Z"/><path fill="#E2B370" d="M469.788 797.791C470.647 802.666 470.237 811.081 468.244 815.696C467.505 817.409 467.062 817.267 465.395 817.913C464.786 816.893 464.153 815.827 463.762 814.701C462.076 809.851 467.689 801.983 469.788 797.791Z"/><path fill="#DED8D2" fill-opacity="0.043137256" d="M469.941 1273.13L476.339 1275.95L477.075 1276.65C480.114 1279.52 480.767 1279.93 484.648 1281.34L485.567 1282.82L484.936 1284.35L482.214 1285.06C481.882 1284.86 481.55 1284.65 481.218 1284.44L480.688 1284.08C476.446 1281.23 473.285 1277.05 469.941 1273.13Z"/><path fill="#4B5051" d="M581.647 549.729C582.483 535.165 582.866 517.242 594.485 506.71C601.092 500.652 609.891 497.563 618.835 498.161C630.579 498.991 642.133 505.859 649.396 515.058C656.422 523.958 667.848 538.714 669.802 550.015C670.796 555.759 669.667 564.768 672.527 569.997C674.086 572.847 678.807 577.12 680.953 579.987C680.695 594.098 679.174 598.488 682.547 612.619C696.757 617.688 707.702 624.499 714.368 638.708C726.695 664.984 741.42 750.753 731.61 777.954C728.619 786.25 722.812 793.455 717.382 800.297C734.278 810.734 733.082 818.331 742.074 835.102C745.728 841.918 750.344 847.911 755.444 853.745L754.437 856.002C752.139 859.514 749.264 873.451 748.131 878.24C753.257 884.084 754.367 885.363 758.439 892.011C753.47 900.754 739.697 917.233 731.595 923.533C728.999 925.551 722.562 928.369 719.42 929.732C721.732 940.322 723.288 945.607 727.666 955.577C720.853 964.285 713.012 967.232 703.131 971.715C702.721 1003.76 698.385 1041.18 696.233 1073.66C693.741 1111.24 687.749 1127.39 695.638 1165.65C689.78 1172.13 686.725 1174.17 678.932 1178.38C672.614 1200.72 671.09 1203.83 672.208 1227.21C682.923 1242.37 685.826 1251.83 688.887 1269.94C689.722 1274.88 694.205 1280.67 692.699 1286.35C688.692 1303.9 659.174 1304.96 649.617 1291.56C643.741 1283.33 647.746 1270.09 645.307 1262.99C638.848 1244.2 634.294 1238.05 639.775 1217.17C642.887 1205.32 645.88 1189.82 647.761 1177.29C645.119 1175.95 637.246 1172.13 637.047 1169.38C635.78 1151.86 639.286 1130.7 639.329 1112.56C639.41 1078.6 626.883 1029.93 630.14 998.765C634.58 1010.05 634.29 1024.2 635.99 1036.48C642.249 1081.68 646.881 1121.46 639.729 1167.31C662.751 1181.28 669.217 1181.29 691.382 1165.21C682.779 1125.11 690.623 1098.11 693.141 1057.69C694.931 1028.94 696.393 996.546 699.737 968.067C685.018 971.904 668.223 976.131 652.99 975.696C650.359 964.07 644.113 867.853 648.117 861.129C648.691 860.165 649.234 860.139 650.212 859.693C651.316 861.418 651.199 863.595 651.262 865.74C652.31 901.093 651.603 936.887 655.993 972.077C677.683 969.12 702.907 964.769 722.94 955.722C714.559 930.042 715.277 918.35 711.091 892.611C707.148 868.247 700.95 844.301 692.578 821.082C676.963 829.971 672.709 828.855 656.479 816.348C655.291 815.432 656.285 811.187 654.526 809.01C652.16 812.544 652.473 815.709 651.423 819.456C636.442 872.941 641.267 928.143 636.428 982.674C636.295 984.175 630.382 986.089 629.063 986.566C627.724 996.545 627.832 1011.43 625.897 1020.18C614.703 1070.83 612.485 1119.4 614.098 1171.05C614.416 1181.25 601.068 1181.43 600.08 1190.25C598.381 1202.07 602.699 1213.39 604.18 1224.97C606.106 1244.58 601.927 1263.49 597.401 1282.4C595.567 1290.07 596.006 1295.44 592.095 1302.79C587.426 1306.06 584.055 1308.37 578.92 1310.49C571.004 1313.75 558.461 1313.44 553.415 1305.31C541.394 1285.92 562.158 1254.25 574.083 1240.11C575.914 1218.09 576.32 1212.05 570.897 1190.51C552.363 1177.61 561.213 1162.1 560.593 1141.84C559.703 1126.88 556.755 1110.94 556.423 1096.18C556.192 1085.89 560.425 1073.77 560.826 1062.31C561.349 1047.38 556.694 1032.75 555.881 1019.03C554.611 997.602 555.954 983.193 551.529 961.466C541.44 953.699 528.229 939.304 528.5 925.853C528.784 911.76 534.618 897.501 534.452 883.021C535.441 862.762 527.647 842.108 527.546 822.275C527.323 778.386 530.797 731.43 535.03 687.728C536.223 675.415 542.534 659.393 547.405 648.837C553.739 639.777 556.943 636.509 566.658 630.342C565.221 619.419 563.859 607.821 568.085 597.381C573.316 584.456 572.771 577.921 572.084 564.288C575.275 558.365 578.241 555.061 581.647 549.729ZM550.018 652.902C553.025 659.782 557.075 668.431 559.459 675.376C560.716 678.163 562.436 682.337 563.787 684.939C600.664 758.177 598.409 825.573 594.245 905.286C593.229 924.722 591.831 954.86 589.2 973.439C603.991 976.001 618.764 979.171 633.759 981.737C634.027 943.421 635.091 900.659 639.29 862.725C641.468 843.06 647.729 820.097 651.63 800.191C648.1 797.35 645.935 795.691 647.001 790.829C649.274 787.963 649.684 788.493 653.588 786.93C653.697 786.788 654.961 785.152 654.961 785.151C657.577 758.26 660.976 709.285 664.029 685.152C667.398 658.526 670.723 641.527 675.134 619.731C668.735 619.245 665.33 618.348 659.359 616.549C653.378 628.254 640.079 648.94 628.853 655.641C610.969 666.316 596.581 635.424 590.363 623.771C573.892 630.869 559.474 636.58 550.018 652.902ZM564.156 1132.34C565.256 1148.73 555.264 1188.6 579.912 1187.03C592.569 1186.22 601.03 1182.71 609.636 1173.48C611.592 1145.07 608.291 1113.48 611.491 1083.47C613.767 1062.12 617.17 1046.87 620.396 1026.3C622.476 1012.37 623.736 998.324 624.168 984.242C612.895 982.838 600.522 979.826 589.453 977.084C588.803 982.812 588.063 988.588 587.508 994.318C583.035 1040.44 575.169 1087.26 564.156 1132.34ZM684.639 776.623C683.622 768.825 677.879 728.74 684.51 724.563C691.464 727.69 699.548 764.034 701.769 772.773C716.78 764.025 720.405 773.956 723.238 786.722C735.922 765.103 729.917 734.458 726.335 711.06C720.96 675.956 721.806 643.323 691.109 620.138C688.37 660.402 677.323 703.535 674.383 744.156C674.195 746.754 673.819 749.92 673.088 752.43C672.628 750.621 672.295 737.255 671.948 733.83C675.194 697.804 681.989 661.671 687.032 625.856C687.387 623.332 687.546 621.146 686.645 618.736L685.129 617.316C682.821 617.519 681.898 617.657 680.254 619.525C673.447 627.257 657.872 761.017 660.282 774.787C660.447 775.731 660.686 776.585 661.039 777.472C664.576 777.837 666.939 777.447 669.386 779.32C666.282 779.701 662.885 779.877 660.095 781.192L659.676 783.703L659.658 781.365L659.517 783.862C663.973 784.233 673.803 784.702 677.212 786.532C677.756 793.785 656.682 790.727 651.871 793.32C655.626 797.238 668.596 794.131 675.564 796.071L675.921 796.912C670.086 799.544 660.666 799.407 656.305 801.496C659.286 805.959 673.363 805.808 675.849 807.967C670.718 808.466 665.429 808.818 660.439 810.057L659.048 811.935C661.087 817.904 674.222 814.171 678.597 817.09C674.059 820.105 673.206 817.331 669.409 820.678C671.027 824.97 678.815 823.381 682.164 822.029C720.707 806.472 706.11 779.353 669.98 779.294L670.754 775.871C676.282 775.818 679.069 775.791 684.639 776.623ZM570.369 629.029C590.462 620.277 603.335 618.563 604.434 593.478C595.908 583.811 593.575 579.829 591.091 566.671C590.641 564.285 590.55 560.456 588.941 559.67L585.87 561.964L585.159 560.992C585.578 558.623 604.75 525.907 606.949 523.652C604.363 534.11 602.531 539.289 597.648 548.938C601.086 547.975 604.76 546.868 608.195 546C612.691 547.677 614.35 548.263 618.348 550.816C621.25 548.597 625.89 544.807 628.806 542.932C613.986 536.997 608.981 532.913 608.07 516.248C614.034 522.944 613.677 526.625 618.575 532.479C624.652 539.741 636.281 537.729 643.262 542.3C648.832 545.948 648.517 551.273 653.644 554.578C652.977 558.539 650.879 556.889 650.553 559.489C648.907 572.609 650.254 573.93 644.452 586.38C648.769 597.677 651.989 609.069 664 614.308C667.718 615.931 673.452 616.708 677.097 614.731C678.427 610.965 676.004 609.427 675.888 603.89C675.775 598.462 677.086 590.731 676.76 585.858C676.648 584.125 676.205 582.43 675.454 580.865C673.71 577.167 668.759 573.503 667.037 568.837C665.111 563.621 666.25 551.147 665.044 547.318C662.534 539.351 646.126 516.913 640.109 511.608C636.643 508.509 632.575 506.157 628.159 504.701C621.814 502.669 615.623 502.7 609.023 503.13C600.561 506.694 594.763 509.708 590.94 518.801C586.959 528.267 587.752 539.722 585.316 549.448C583.735 555.762 578.185 562.418 575.574 568.705C579.553 591.853 571.186 593.309 569.11 613.152L569.033 613.854C568.568 618.307 569.683 624.484 570.369 629.029ZM591.839 1239.44C595.082 1242.48 597.704 1245.66 600.328 1249.24C600.273 1231.91 598.253 1219.02 595.778 1202.02C595.168 1197.84 595.42 1193.38 594.541 1189.28L593.016 1189.2C587.178 1190.62 581.751 1191.56 575.756 1192.06C579.747 1207.44 580.922 1222.1 578.381 1237.88C583.634 1237.13 586.987 1237.31 591.839 1239.44ZM650.016 1274.03C650.494 1281.11 651.02 1285.16 655.155 1291.15C662.104 1295.48 667.843 1296.97 675.975 1295.06C680.397 1294.03 685.679 1291.58 688.183 1287.6C689.417 1285.64 689.802 1283.39 689.119 1281.16C688.417 1278.87 685.904 1274.63 683.971 1273.24C677.988 1278.07 672.22 1281.39 664.279 1280.43C658.954 1279.79 654.317 1277.07 650.016 1274.03ZM625.02 597.823C640.987 590.854 644.717 579.591 646.723 563.224C632.296 569.094 629.328 567.475 618.857 556.03C613.468 569.236 608.363 572.455 594.669 567.506C600.269 584.08 606.279 594.923 625.02 597.823ZM599.499 1256.2C595.745 1249.91 591.865 1243.87 584.355 1241.92C583.673 1241.75 582.991 1241.57 582.3 1241.44C572.899 1244.37 566.819 1255.67 562.46 1263.96C560.123 1268.41 555.14 1277.12 556.874 1282.1C558.418 1286.54 563.885 1289.08 567.91 1290.71C569.848 1291.49 571.833 1292.01 573.868 1292.47C580.276 1291.51 584.946 1289.81 588.939 1284.47C594.557 1276.94 596.786 1265.17 599.499 1256.2ZM745.515 873.416C747.398 864.58 750.056 854.967 744.8 846.721C740.299 839.659 731.87 837.251 724.419 834.639C728.009 844.09 735.934 870.129 744.108 874.824L745.28 874.311L745.515 873.416ZM589.075 1299.02C590.009 1296.67 591.206 1294.46 590.736 1291.89C588.589 1291.01 587.069 1291.63 584.948 1292.5C580.968 1294.15 577.599 1296.07 573.369 1297.15C565.739 1295.13 559.735 1292.68 553.732 1287.32C553.628 1293.44 553.674 1298.52 558.11 1303.18C561.088 1306.31 565.036 1307.81 569.321 1307.9C577.173 1308.05 583.488 1304.12 589.075 1299.02ZM710.664 799.246C712.698 799.041 714.071 797.526 715.403 795.996C718.289 792.683 719.231 787.627 718.83 783.358C718.55 780.377 717.23 777.305 714.896 775.367C713.166 773.93 711.142 773.959 709.008 773.902C704.872 776.381 700.901 778.835 697.12 781.851C703.196 787.267 707.304 791.653 710.664 799.246ZM698.143 777.267C699.413 769.631 688.519 740.953 685.496 731.998C684.641 740.353 685.38 771.586 690.31 777.295C691.383 778.538 692.555 779.156 694.19 779.051C695.597 778.961 696.962 777.981 698.143 777.267ZM723.74 827.591L723.126 828.914C725.415 830.794 728.322 831.281 731.132 832.031C730.996 829.976 731.017 829.538 729.81 827.773C727.585 827.094 726.016 827.213 723.74 827.591ZM650.236 1267.47C655.801 1272.29 661.384 1275.93 668.916 1276.59C673.209 1276.07 676.947 1275.54 679.786 1271.84C682.873 1267.83 682.991 1262.25 682.143 1257.47C680.433 1247.85 675.587 1236.37 667.284 1230.62C663.213 1227.8 659.928 1227.95 655.18 1228.21C649.797 1232.18 646.237 1236.9 642.384 1242.29C646.016 1250.73 648.283 1258.51 650.236 1267.47ZM737.702 873.338C740.937 880.101 747.114 886.114 753.122 890.575C750.88 884.528 743.468 876.479 737.702 873.338ZM728.786 920.733C731.174 916.73 733.432 912.492 736.195 908.74L736.82 908.151C740.815 904.42 749.562 900.193 750.644 894.676C746.404 887.418 738.144 883.605 734.465 875.782C730.07 866.437 727.872 856.12 725.302 846.161C717.412 842.734 709.778 838.718 701.896 835.314C709.889 865.378 715.452 894.59 718.913 925.501L728.786 920.733ZM712.815 805.293C709.065 807.172 709.746 806.197 707.738 809.45C709.703 820.992 718.696 812.659 723.57 813.875C726.401 815.982 727.004 816.532 729.346 819.17L729.791 818.062C728.125 815.013 726.977 813.684 724.281 811.459C721.616 810.864 717.293 811.234 714.422 811.352L712.651 809.43L713.135 811.304L712.208 810.205L712.815 805.293ZM715.488 829.576L715.876 828.595C712.49 823.287 706.985 817.727 704.835 811.898C703.946 813.135 702.81 814.025 703.036 815.604C703.705 820.26 709.158 825.502 712.887 828.043C713.722 828.613 714.594 829.106 715.488 829.576ZM697.662 816.615C696.838 820.168 696.703 823.651 698.571 826.946C702.853 834.499 715.686 838.408 723.341 841.2C722.436 838.533 721.887 835.809 719.526 834.075C717.782 833.838 716.043 833.572 714.308 833.278C707.448 832.071 703.566 820.593 697.662 816.615ZM650.956 1178.36C649.821 1198.24 641.438 1217.15 641.23 1236.88C644.151 1230.75 646.13 1227.84 652.606 1225.42C657.679 1224.53 662.471 1224.33 667.599 1224.3C667.711 1208.55 668.719 1195.99 673.899 1180.88C664.074 1183.49 659.881 1183.44 650.956 1178.36ZM641.348 590.824C635.968 596.139 630.854 601.644 622.694 601.582C617.646 601.544 612.491 599.084 608.208 596.583C606.793 606.217 605.644 614.579 597.289 620.756C596.208 621.551 595.114 622.327 594.007 623.084C599.201 631.377 604.325 639.77 610.479 647.4C613.11 650.304 615.556 653.384 619.782 653.641C624.877 653.952 629.885 650.168 633.322 646.818C642.044 638.317 650.599 626.302 655.429 615.108C649.078 607.519 645.289 599.841 641.348 590.824Z"/><path fill="#E2B370" d="M531.909 928.316C532.894 913.906 538.617 898.873 538.484 883.724C538.3 862.875 533.234 842.626 531.738 822.001C530.237 799.537 532.709 777.123 534.155 754.725C536.394 720.064 534.916 685.051 550.018 652.902C553.025 659.782 557.075 668.431 559.459 675.376C560.716 678.163 562.436 682.337 563.787 684.939C600.664 758.177 598.409 825.573 594.245 905.286C593.229 924.722 591.831 954.86 589.2 973.439C559.052 966.509 545.368 956.587 531.909 928.316Z"/><path fill="#4B5051" d="M559.459 675.376C560.716 678.163 562.436 682.337 563.787 684.939C563.602 687.591 566.256 704.654 566.745 708.441C568.582 721.79 569.301 735.269 568.896 748.738C567.192 792.301 553.817 834.549 553.366 877.8C553.217 892.107 572.863 936.578 565.82 948.185L564.234 948.55C558.345 945.928 554.392 936.233 549.923 930.265L549.327 930.82C548.455 935.395 549.652 938.419 550.901 942.867C554.204 945.02 556.566 945.971 557.96 949.296L556.958 950.278C545.205 949.092 541.479 929.009 548.078 922.102L550.008 922.085C554.568 925.161 559.46 938.804 562.911 945.151C563.229 924.361 557.054 912.529 552.092 893.158C543.573 859.898 557.029 821.332 560.627 787.64C562.677 768.442 566.155 749.658 565.231 730.055C564.979 712.99 560.246 696.48 557.814 679.761C557.659 678.7 558.936 676.295 559.459 675.376Z"/><path fill="#E2B370" d="M556.973 965.126C567.655 970.946 577.776 974.052 589.453 977.084C588.803 982.812 588.063 988.588 587.508 994.318C583.035 1040.44 575.169 1087.26 564.156 1132.34C562.426 1123.62 559.702 1097.5 561.308 1089.99C567.268 1062.1 563.484 1045.01 560.051 1017.59C558.096 1001.98 558.655 982.206 556.973 965.126Z"/><defs><linearGradient id="gradient_0" gradientUnits="userSpaceOnUse" x1="667.52429" y1="759.67859" x2="671.54889" y2="759.88129"><stop offset="0" stop-color="#475154" stop-opacity="0.96078432"/><stop offset="1" stop-color="#454E51"/></linearGradient></defs><path fill="url(#gradient_0)" d="M671.948 733.83C672.295 737.255 672.628 750.621 673.088 752.43C672.766 760.282 671.987 768.11 670.754 775.871L669.98 779.294L669.386 779.32C666.939 777.447 664.576 777.837 661.039 777.472C668.171 776.527 667.523 776.019 668.285 768.598C669.479 756.976 669.956 745.367 671.948 733.83Z"/><path fill="#A7ACA1" fill-opacity="0.14509805" d="M712.815 805.293L712.208 810.205L713.135 811.304L712.651 809.43L714.422 811.352C717.293 811.234 721.616 810.864 724.281 811.459C726.977 813.684 728.125 815.013 729.791 818.062L729.346 819.17C727.004 816.532 726.401 815.982 723.57 813.875C718.696 812.659 709.703 820.992 707.738 809.45C709.746 806.197 709.065 807.172 712.815 805.293Z"/><path fill="#DED8D2" fill-opacity="0.0078431377" d="M704.835 811.898C706.985 817.727 712.49 823.287 715.876 828.595L715.488 829.576C714.594 829.106 713.722 828.613 712.887 828.043C709.158 825.502 703.705 820.26 703.036 815.604C702.81 814.025 703.946 813.135 704.835 811.898Z"/><path fill="#DED8D2" fill-opacity="0.039215688" d="M737.702 873.338C743.468 876.479 750.88 884.528 753.122 890.575C747.114 886.114 740.937 880.101 737.702 873.338Z"/><path fill="#4B5051" d="M735.237 276.513C739.26 276.254 744.077 275.811 748.037 275.895C756.117 279.426 750.805 282.483 753.084 284.221C764.801 292.736 772.716 292.775 778.692 307.594C791.094 338.346 756.415 368.267 727.696 353.412C719.052 348.927 712.513 341.228 709.488 331.973C706.568 322.52 707.496 312.298 712.071 303.525C720.885 286.896 735.363 286.423 751.779 281.19C747.017 280.948 735.583 282.935 733.253 279.079L735.237 276.513ZM751.013 352.366C768.407 348.594 779.461 331.451 775.715 314.055C771.969 296.659 754.839 285.582 737.433 289.3C719.989 293.026 708.879 310.197 712.633 327.632C716.387 345.066 733.58 356.146 751.013 352.366Z"/><path fill="#4B5051" d="M741.516 294.587C755.931 293.093 768.84 303.536 770.385 317.942C771.93 332.349 761.53 345.291 747.125 346.886C732.649 348.49 719.625 338.028 718.073 323.55C716.52 309.072 727.029 296.088 741.516 294.587ZM748.002 342.388C760.051 340.36 768.141 328.906 766.021 316.875C763.902 304.844 752.385 296.843 740.367 299.053C728.477 301.239 720.578 312.605 722.675 324.508C724.772 336.411 736.08 344.394 748.002 342.388Z"/><path fill="#4B5051" d="M684.788 266.727C688.428 266.496 696.083 265.965 698.828 267.797C722.902 283.87 681.173 285.097 675.055 285.975C672.459 304.297 675.726 342.514 676.731 362.503C695.929 362.643 715.183 361.576 734.391 361.099L803.434 360.033C802.932 334.146 804.358 307.699 803.838 281.618L775.779 281.863C772.861 281.311 773.755 281.915 772.104 279.866L772.559 278.351C776.476 275.661 800.322 276.591 805.332 279.574C810.711 285.935 807.294 351.699 806.401 362.936C794.104 365.084 683.659 368.541 675.216 364.811C668.812 354.25 670.1 299.217 670.349 284.454C672.977 283.061 677.39 281.456 680.29 280.305C680.723 273.234 680.013 271.353 684.788 266.727ZM698.975 279.62C699.503 275.233 700.062 276.022 698.376 272.579C694.831 270.017 689.578 270.871 685.183 271.146C685.197 274.242 684.816 277.098 686.839 279.407C689.923 281.576 695.228 280.222 698.975 279.62Z"/><path fill="#4B5051" d="M734.572 274.489C728.306 274.749 705.985 277.35 711.945 263.823C719.495 257.079 739.856 259.186 749.763 258.209C756.489 257.547 771.119 257.2 772.646 265.77C769.636 274.469 754.716 273.671 747.318 273.666C743.067 273.896 738.818 274.17 734.572 274.489ZM759.332 268.347C764.525 267.776 766.426 267.015 771.416 265.255C752.193 261.638 744.5 264.016 726.042 263.237C722.227 263.801 719.718 263.867 716.568 266.082L715.632 267.542C721.248 272.645 750.617 268.657 759.332 268.347Z"/><path fill="#DED8D2" fill-opacity="0.023529412" d="M734.572 274.489C738.818 274.17 743.067 273.896 747.318 273.666L748.037 275.895C744.077 275.811 739.26 276.254 735.237 276.513L734.572 274.489Z"/><path fill="#4B5051" d="M453.653 361.171C461.876 360.24 493.179 359.404 497.633 364.214C512.615 380.393 481.376 381.374 475.306 381.929C464.657 382.097 430.149 386.505 426.827 374.856C427.499 362.332 444.359 362.059 453.653 361.171ZM454.889 377.815C465.481 377.626 486.888 378.352 495.499 373.31L496.755 371.378C493.357 363.175 478.619 365.432 471.21 365.685C459.971 365.876 442.583 365.399 432.912 370.53L431.664 372.274C434.169 378.898 448.663 377.934 454.889 377.815Z"/><path fill="#4B5051" d="M528.573 362.254C531.585 360.837 535.131 361.183 537.813 363.156C540.494 365.128 541.88 368.41 541.423 371.706C540.966 375.003 538.741 377.785 535.624 378.955C531.066 380.665 525.97 378.474 524.076 373.99C522.183 369.505 524.167 364.326 528.573 362.254Z"/><path fill="#4B5051" d="M389.454 363.137C394.085 362.582 398.341 365.748 399.14 370.343C399.938 374.937 397 379.353 392.453 380.393C389.29 381.116 385.987 380.034 383.864 377.581C381.742 375.129 381.147 371.705 382.317 368.68C383.488 365.655 386.233 363.523 389.454 363.137ZM393.342 375.04C394.949 373.53 395.123 371.039 393.743 369.319C392.363 367.6 389.893 367.231 388.07 368.472C386.757 369.366 386.057 370.92 386.258 372.496C386.458 374.071 387.525 375.401 389.02 375.938C390.515 376.474 392.185 376.128 393.342 375.04Z"/><path fill="#A7ACA1" d="M237.816 1404.51C265.582 1407.42 287.866 1418.11 311.947 1421.27C370.089 1428.91 411.55 1414.27 468.123 1443.78C472.208 1461.95 488.049 1475.06 506.663 1475.69C510.179 1483.8 516.237 1493.52 519.064 1500.97L360.349 1505.54C330.787 1506.37 301.237 1508.32 271.71 1506.47C242.924 1504.66 241.286 1483.13 239.037 1459.55C237.32 1441.54 238.31 1422.74 237.816 1404.51Z"/><path fill="#E2B370" d="M216.964 717.993C221.186 794.18 219.938 868.285 221.856 944.429C223.089 993.371 227.835 1043.48 230.015 1092.55C231.86 1141.45 232.525 1190.4 232.008 1239.33L222.243 1230.86C219.961 1213.37 220.988 1193.86 219.14 1175.88C207.769 1064.97 212.807 953.408 204.858 842.206C201.97 801.794 204.199 759.241 201.054 718.537C206.912 716.678 210.931 717.464 216.964 717.993Z"/><path fill="#E2B370" d="M217.749 632.078L227.5 624.444C229.971 664.844 230.516 706.152 231.716 746.654L236.795 885.198L245.844 1124.72C247.447 1167.04 249.642 1210.63 250.581 1252.89L236.529 1243.47C237.024 1189.68 236.187 1135.88 234.019 1082.14C231.893 1037.92 227.549 994.3 226.278 949.846C223.305 845.863 225.167 735.646 217.749 632.078Z"/><path fill="#4B5051" d="M468.123 1443.78C464.285 1426.71 471.733 1409.09 486.651 1399.94C501.57 1390.8 520.655 1392.15 534.134 1403.31C547.612 1414.47 552.499 1432.96 546.29 1449.32C540.081 1465.68 524.153 1476.28 506.663 1475.69C488.049 1475.06 472.208 1461.95 468.123 1443.78ZM509.779 1471.11C529.659 1470.26 545.178 1453.62 544.641 1433.73C544.104 1413.85 527.71 1398.07 507.813 1398.29C494.657 1398.43 482.601 1405.66 476.271 1417.19C469.941 1428.72 470.32 1442.77 477.263 1453.94C484.206 1465.11 496.634 1471.68 509.779 1471.11Z"/><path fill="#A7ACA1" d="M224.054 1403.03L233.347 1403.81C235.28 1433.28 229.648 1465.33 241.512 1493.46C246.454 1505.18 258.079 1509.74 270.07 1510.87C300.949 1513.79 332.214 1510.87 363.113 1509.37C405.437 1507.16 447.804 1505.87 490.185 1505.51C495.197 1505.49 519.588 1504.84 522.553 1505.52L520.249 1508.83L519.476 1511.25C513.074 1513.57 460.574 1513.84 449.91 1514.43C394.714 1517.48 339.266 1520.44 284.014 1522.28C233.753 1523.96 227.235 1509.63 224.403 1461.9C223.271 1442.54 223.963 1422.5 224.054 1403.03Z"/><path fill="#DFB29A" d="M214.011 636.014C215.432 662.282 216.946 691.64 216.964 717.993C210.931 717.464 206.912 716.678 201.054 718.537C199.914 699.923 198.694 667.751 199.681 649.21C202.413 645.81 210.355 639.201 214.011 636.014Z"/><path fill="#A7ACA1" fill-opacity="0.027450981" d="M791.935 851.553C791.945 846.311 792.129 840.82 792.234 835.559C793.127 840.175 793.831 845.122 794.579 849.789L791.935 851.553Z"/></svg>