<?xml version="1.0" encoding="utf-8" ?><svg xmlns="http://www.w3.org/2000/svg" xmlns:xlink="http://www.w3.org/1999/xlink" width="1024" height="1820" viewBox="0 0 1024 1820"><path fill="#575A4E" d="M676.64 0L720.692 0C735.274 4.89754 748.398 7.37927 763.703 13.1044C809.344 30.1767 848.454 57.516 870.349 102.12C889.961 142.073 890.618 181.994 886.875 225.039C916.652 231.726 942.293 243.396 958.987 270.519C991.843 326.518 976.947 399.775 964.268 459.822C957.064 493.94 946.359 526.32 938.11 560.02C931.359 587.598 924.331 614.47 916.973 641.832C915.365 647.813 915.123 650.549 918.852 655.291L919.287 655.853L918.318 656.719L915.875 653.921C912.812 654.473 912.184 658.983 911.5 661.76C887.113 760.763 863.689 858.198 851.687 959.761C848.997 983.192 846.899 1006.69 845.397 1030.22C844.64 1042.24 844.533 1055.62 843.362 1067.38C843.344 1084.09 847.07 1112.56 848.955 1130.22C853.66 1171.51 858.151 1212.83 862.428 1254.16C866.675 1297.82 873.972 1347.51 839.215 1381.64C833.137 1387.61 814.709 1402.27 806.53 1402.82C785.545 1441.53 730.607 1476.5 689.197 1487.85C630.974 1503.81 578.462 1498.3 525.95 1469.79C521.593 1467.39 517.289 1464.9 513.041 1462.31C511.237 1462.78 509.428 1463.24 507.616 1463.68C502.814 1464.84 497.794 1466.01 492.877 1466.87C434.315 1477.16 379.982 1502.46 324.256 1467.78C275.197 1437.25 274.782 1396.03 268.783 1344.7C268.355 1341.04 266.385 1340.15 263.716 1338.62L264.051 1337.82L267.314 1338.84C268.035 1333.39 264.075 1306.83 263.123 1299.84C256.871 1305.39 250.222 1310.48 243.229 1315.07C227.63 1325.19 208.606 1328.58 190.468 1324.49C138.395 1312.84 105.538 1233.41 83.8127 1189.82C30.5929 1083.02 12.776 967.041 38.3972 849.852C57.0832 764.383 103.403 716.486 174.747 671.343L179.995 650.356C181.047 645.035 183.584 637.209 183.287 631.981C181.735 604.673 177.277 576.172 173.954 548.949L153.67 381.411C148.847 342.274 138.446 302.36 160.59 267.24C186.606 225.98 222.548 222.66 266.414 215.913L346.1 203.469C358.082 201.595 377.268 199.252 388.382 196.581L389.215 196.376C402.971 173.317 421.388 152.321 438.971 132.525C494.523 69.9818 566.668 27.6077 647.604 7.13623C657.151 4.72163 667.06 2.54756 676.64 0ZM180.829 651.675C179.495 657.731 177.918 664.305 176.804 670.352C180.514 668.383 184.413 666.075 188.094 663.993C187.099 655.916 186.178 646.493 184.282 638.698C183.044 642.783 181.925 647.499 180.829 651.675ZM234.399 649.8C226.726 593.567 221.49 534.488 214.866 477.911L206.912 411.017C199.73 349.24 193.256 317.415 266.216 303.529C287.921 299.398 309.816 296.342 331.759 293.365C343.919 271.353 361.328 249.019 374.112 226.927L308.475 237.405C286.084 240.869 255.247 243.975 235.215 252.926C223.602 258.07 213.557 266.195 206.1 276.475C198.063 287.732 193.258 300.973 192.206 314.763C190.972 332.652 197.49 370.993 199.702 390.971L220.643 569.189L227.115 623.612C228.019 631.213 230.01 644.578 230.279 651.607L234.399 649.8ZM314.2 1216.49C315.38 1233.73 326.742 1356.58 331.23 1363.91L331.157 1364.95C329.611 1371.39 333.565 1385.64 337.141 1391.42C342.256 1399.7 350.028 1403.92 359.166 1406.3C373.241 1409.96 406.026 1405.28 419.171 1400.35C416.556 1398.41 413.664 1394.62 410.95 1392.15C397.8 1380.17 393.244 1374.29 385.248 1358.54C357.631 1344.54 361.157 1324.29 364.965 1297.5C366.84 1295.33 370.507 1292.02 372.7 1289.92C370.057 1275.4 367.215 1260.91 364.174 1246.47L363.679 1246.06C356.18 1239.73 353.835 1236.84 352.351 1226.82C350.891 1216.96 350.083 1207.04 349.077 1197.13C346.317 1170.81 343.932 1144.46 341.924 1118.08C337.962 1132.84 335.371 1148.4 331.606 1163.4C326.876 1182.24 321.005 1198.43 314.2 1216.49ZM437.646 1409.94C407.848 1411.89 364.826 1432.32 335.786 1407.88C321.156 1395.57 318.723 1377.12 316.768 1359.44L307.877 1355.86C311.557 1375.73 310.454 1395.71 315.755 1415.58C327.477 1459.52 365.047 1481.54 409.211 1471.62C428.141 1467.36 448.417 1463.84 467.463 1459.51C474.865 1457.89 493.752 1454.78 499.426 1452.81C484.242 1440.07 454.78 1421.37 437.646 1409.94ZM295.005 1350.18C291.915 1323.97 290.262 1297.56 286.97 1271.36L274.281 1288.3C276.318 1300.76 278.415 1335.05 281.944 1344.95L295.005 1350.18ZM185.71 439.689C190.368 469.867 193.466 501.151 196.755 531.552C197.653 539.853 200.586 563.82 199.701 570.796C197.75 573.305 196.53 573.709 193.011 574.164C192.268 574.257 191.523 574.338 190.777 574.406C191.601 584.292 192.583 594.164 193.722 604.018C196.117 602.19 197.086 601.129 200.158 601.017C207.982 604.116 207.955 614.216 208.767 621.577C209.933 632.149 209.962 642.912 211.586 653.448L217.001 651.59C213.214 632.521 211.722 607.415 209.451 587.734L195.467 467.899L185.556 380.858C181.007 341.649 170.947 304.001 195.963 269.775C204.333 258.124 215.564 248.826 228.574 242.778C250.724 232.448 283.355 229.274 308.147 225.436L382.312 213.83L383.969 209.506C351.477 215.044 318.822 219.698 286.305 225.044C246.137 231.648 200.255 231.476 174.377 268.279C152.524 299.36 160.64 335.866 165.092 370.913C167.671 392.283 170.589 413.611 173.845 434.888C178.581 435.801 182.375 436.059 185.71 439.689ZM282.003 1348.05C284.5 1379.46 286.664 1415.39 309.648 1439.12C307.493 1430.87 303.8 1421.72 302.285 1413.69C298.541 1393.87 298.395 1373.17 294.801 1353.36C294.434 1351.34 284.249 1348.43 282.003 1348.05ZM200.229 656.276L208.776 654.099C207.239 644.952 204.92 610.018 201.617 604.888C198.559 604.01 198.649 604.53 195.17 605.341C194.124 613.638 199.068 645.875 200.229 656.276ZM303.811 1240.46L298.132 1250.5C296.815 1256.24 306.807 1341.36 307.824 1354.38L316.707 1357.65C316.089 1347 313.758 1331.46 312.58 1320.28C309.971 1293.64 307.047 1267.03 303.811 1240.46ZM191.954 571.374C194.03 571.155 194.145 571.06 196.049 570.136C200.3 559.812 183.725 467.659 183.976 443.668C181.603 440.775 181.253 440.47 177.905 438.813L175.924 438.821C172.83 444.702 190.099 555.546 191.954 571.374ZM834.994 1127.85C834.566 1135.81 833.899 1155.52 832.662 1162.43C831.378 1170.18 833.7 1184.46 834.536 1192.67C838.007 1226.73 849.147 1272.38 835.804 1305.01C835.789 1335.81 826.426 1354.32 819.253 1382C851.31 1359.19 855.364 1324.42 852.562 1288.19C850.095 1256.3 846.415 1223.51 842.226 1191.82C840.896 1181.76 837.898 1132.96 834.994 1127.85ZM220.392 420.357C252.878 390.905 295.231 342.911 320.636 307.544C294.169 308.573 243.584 314.556 224.138 335.195C207.104 353.274 216.963 396.235 220.392 420.357Z"/><path fill="#F7F6F4" fill-opacity="0.015686275" d="M184.282 638.698C186.178 646.493 187.099 655.916 188.094 663.993C184.413 666.075 180.514 668.383 176.804 670.352C177.918 664.305 179.495 657.731 180.829 651.675C181.925 647.499 183.044 642.783 184.282 638.698Z"/><path fill="#FEE5A7" d="M179.995 650.356L180.829 651.675C179.495 657.731 177.918 664.305 176.804 670.352C180.514 668.383 184.413 666.075 188.094 663.993C203.857 790.551 218.928 917.193 233.307 1043.92C242.372 1129.32 252.311 1214.64 263.123 1299.84C256.871 1305.39 250.222 1310.48 243.229 1315.07C227.63 1325.19 208.606 1328.58 190.468 1324.49C138.395 1312.84 105.538 1233.41 83.8127 1189.82C30.5929 1083.02 12.776 967.041 38.3972 849.852C57.0832 764.383 103.403 716.486 174.747 671.343L179.995 650.356Z"/><path fill="#7C755A" d="M179.995 650.356L180.829 651.675C179.495 657.731 177.918 664.305 176.804 670.352C154.191 770.29 132.784 870.076 120.995 971.939C115.044 1023.36 109.308 1074 114.683 1125.63C121.783 1193.83 150.37 1258.34 203.676 1302.66C206.328 1304.87 223.673 1316.41 223.909 1317.68C215.486 1317.02 181.1 1283.36 174.352 1275.4C113.883 1204.09 105.826 1117.81 113.423 1028.72C120.631 944.187 133.936 864.976 150.945 782.189C155.995 757.701 161.201 733.246 166.564 708.824C168.851 698.396 173.188 681.446 174.747 671.343L179.995 650.356Z"/><path fill="#9EAF83" d="M886.875 225.039C916.652 231.726 942.293 243.396 958.987 270.519C991.843 326.518 976.947 399.775 964.268 459.822C957.064 493.94 946.359 526.32 938.11 560.02C931.359 587.598 924.331 614.47 916.973 641.832C915.365 647.813 915.123 650.549 918.852 655.291L919.287 655.853L918.318 656.719L915.875 653.921C912.812 654.473 912.184 658.983 911.5 661.76C887.113 760.763 863.689 858.198 851.687 959.761C848.997 983.192 846.899 1006.69 845.397 1030.22C844.64 1042.24 844.533 1055.62 843.362 1067.38C841.431 1064.09 835.317 998.334 834.379 989.587L816.834 826.662L796.388 635.662C792.225 596.663 787.31 555.907 784.328 516.912C784.953 515.324 786.722 512.472 787.641 510.884C782.472 474.183 780.65 437.033 776.086 400.49C774.134 397.992 771.177 394.807 769.029 392.348C766.904 383.053 764.957 360.497 763.798 350.267C761.06 325.098 757.933 299.973 754.419 274.901C762.234 269.034 770.3 261.347 778.35 256.04C816.236 231.066 842.479 221.667 886.875 225.039Z"/><path fill="#B6D4DA" d="M676.64 0L720.692 0C735.274 4.89754 748.398 7.37927 763.703 13.1044C809.344 30.1767 848.454 57.516 870.349 102.12C889.961 142.073 890.618 181.994 886.875 225.039C842.479 221.667 816.236 231.066 778.35 256.04C770.3 261.347 762.234 269.034 754.419 274.901C750.628 243.552 748.642 209.814 723.258 187.482C708.197 174.232 671.967 158.964 652.537 157.508C636.381 156.297 602.151 163.268 584.774 166.06L456.057 186.279C439.287 188.922 404.943 195.445 390.045 196.331L389.215 196.376C402.971 173.317 421.388 152.321 438.971 132.525C494.523 69.9818 566.668 27.6077 647.604 7.13623C657.151 4.72163 667.06 2.54756 676.64 0Z"/><path fill="#B6D4DA" d="M513.041 1462.31L702.389 1424.76C720.251 1421.33 738.133 1418.01 756.035 1414.79C772.104 1411.85 791.574 1408.82 806.53 1402.82C785.545 1441.53 730.607 1476.5 689.197 1487.85C630.974 1503.81 578.462 1498.3 525.95 1469.79C521.593 1467.39 517.289 1464.9 513.041 1462.31Z"/><path fill="#3B3A39" d="M320.636 307.544C323.822 306.219 347.158 303.17 351.757 302.503L422.729 292.084L592.291 267.375C616.94 263.869 641.413 259.002 666.24 256.787C700.577 253.725 726.6 276.728 729.157 310.789L756.639 552.152L765.039 629.811C766.219 640.942 768.437 657.249 768.982 668.181C769.689 672.347 770.755 680.621 770.842 684.913L800.998 988.722L820.7 1179.73L826.201 1230.18C831.437 1276.9 836.707 1312.48 781.719 1329.34C761.019 1335.69 742.225 1337.92 721.152 1341.75L634.539 1358.04C589.177 1366.66 543.859 1375.51 498.586 1384.58C472.15 1389.89 445.732 1395.98 419.171 1400.35C416.556 1398.41 413.664 1394.62 410.95 1392.15C397.8 1380.17 393.244 1374.29 385.248 1358.54C400.541 1359.46 423.238 1358.05 434.606 1346.82C444.861 1336.7 422.914 1322.57 418.675 1315.25C410.542 1301.21 416.267 1287.6 402.993 1275.85C399.345 1272.62 396.758 1247.43 396.335 1241.92C402.515 1233.29 403.079 1232.11 402.897 1221.1C402.387 1190.07 404.603 1158.83 402.997 1127.84C402.298 1114.35 397.328 1100.2 398.291 1086.41C399.623 1068.49 401.603 1050.53 403.338 1032.63C406.105 1003.93 408.616 975.205 410.87 946.46C417.888 956.999 425.253 967.705 433.053 977.499C454.346 1004.24 474.886 1027.03 481.349 1061.76C483.257 1072.02 483.111 1082.1 484.353 1092.52C484.968 1086.82 482.836 1083.46 487.316 1079.41C476.287 1008.2 448.378 996.752 411.428 940.378C411.712 924.078 413.556 903.83 414.775 887.4C415.093 883.104 420.392 872.857 420.977 863.924L420.271 863.242C409.582 873.306 409.462 911.068 408.396 926.05L403.397 991.324C401.78 1010.96 399.957 1030.57 397.927 1050.17C396.703 1062.58 395.084 1076.82 394.808 1089.22C394.533 1105.85 400.089 1122.45 399.875 1139.06C399.72 1163.08 398.881 1187.63 399.257 1211.62C399.673 1238.18 396.824 1244.13 368.568 1243.2C349.813 1232.51 354.471 1206.23 351.932 1187.53C345.52 1140.3 345.036 1095.21 346.118 1047.69C346.18 1027.36 340.676 1005.21 337.615 984.85C335.539 971.049 332.93 956.366 330.276 942.559C328.325 933.976 323.034 921.75 321.365 913.568C318.663 900.326 309.354 832.683 318.466 825.151C326.262 827.704 327.959 847.111 336.747 851.839L337.62 850.98C337.808 847.792 336.135 845.84 334.398 843.174C344.592 830.661 349.139 819.751 351.59 803.975C368.706 815.465 374.211 821.735 387.341 837.227C388.748 833.981 388.373 835.028 387.661 831.128C382.535 824.69 375.448 816.599 368.708 811.842C349.036 797.96 338.074 792.033 325.254 770.71C353.074 759.17 381.135 771.508 409.656 776.563C421.434 778.119 423.263 777.787 433.098 771.13C433.612 790.314 433.608 820.841 438.16 838.567C440.168 819.488 437.14 800.066 437.252 780.989C447.955 799.264 453.387 818.284 468.533 833.092C467.644 838.547 466.716 845.454 466.617 850.874C466.487 858.077 472.487 881.914 476.388 886.841C477.994 884.947 477.106 885.465 479.663 885.05C470.092 872.746 470.046 846.786 472.132 832.198C470.275 828.901 468.458 825.582 466.681 822.241L466.255 822.375L465.708 821.131C468.12 813.139 476.666 813.693 483.254 815.05C474.78 797.924 462.693 765.465 458.942 747.75C450.814 709.367 449.312 669.663 436.374 632.034C432.914 621.97 432.14 608.819 424.421 600.735C411.16 591.226 392.495 588.149 377.134 581.688C375.152 577.802 371.205 570.818 373.292 566.909C377.441 566.127 378.202 568.71 381.345 568.241C385.016 566.601 385.055 564.723 389.578 563.998C394.388 563.226 400.186 562.938 402.78 558.487C403.866 553.49 401.198 548.841 398.982 544.452C403.66 531.079 409.268 519.987 414.586 507.103C418.279 498.158 419.936 485.552 415.67 476.57C412.63 470.168 407.803 466.657 403.599 461.152C401.357 458.155 399.459 452.988 396.558 450.556C382.944 439.148 355.835 439.704 340.875 447.422C320.583 457.892 317.103 486.057 308.251 504.848C304.157 513.541 296.147 520.95 293.454 530.432C288.754 544.82 300.242 546.461 311.153 549.634L314.651 557.032L322.884 561.187C310.15 568.379 292.156 574.589 280.613 582.247C265.889 592.015 258.089 631.835 255.603 649.416C252.033 648.293 250.956 648.255 247.277 647.96C245.478 638.167 244.281 624.637 243.091 614.532L235.938 553.92C230.835 510.854 224.029 463.19 220.392 420.357C252.878 390.905 295.231 342.911 320.636 307.544Z"/><path fill="#B6D4DA" d="M320.636 307.544C323.822 306.219 347.158 303.17 351.757 302.503L422.729 292.084L592.291 267.375C616.94 263.869 641.413 259.002 666.24 256.787C700.577 253.725 726.6 276.728 729.157 310.789L756.639 552.152L765.039 629.811C766.219 640.942 768.437 657.249 768.982 668.181L767.283 668.188C764.448 655.52 761.123 641.667 759.644 628.846C758.556 619.418 760.277 609.21 758.128 599.685C754.198 582.259 745.372 566.123 736.959 550.542C726.57 531.3 717.847 520.516 696.262 514.195C680.263 511.293 665.517 512.463 649.075 508.553C628.892 469.842 658.388 436.003 648.767 417.75C645.215 411.013 637.874 406.644 631.676 402.628C623.125 397.088 613.244 390.531 603.418 387.505C596.772 385.459 589.405 387.239 583.499 390.55C570.309 397.945 560.765 413.355 556.931 427.776C554.727 436.063 553.763 446.154 558.232 453.896C560.288 457.457 562.604 458.642 566.329 459.948C572.747 473.659 591.725 506.854 574.809 519.424C556.135 533.3 516.641 548.371 507.096 570.895C500.225 587.106 500.544 610.63 497.117 627.885C494.207 647.196 487.161 659.021 501.403 675.743C500.718 696.632 498.166 719.678 499.619 740.187C501.544 767.342 511.387 794.851 516.541 821.72C519.361 836.422 518.316 854.26 522.233 867.69C524.462 875.303 528.491 882.268 533.981 887.995C541.785 896.208 547.479 897.935 557.906 898.616C559.788 907.753 561.089 917.065 562.43 926.237C570.034 978.225 580.659 1029.78 581.298 1082.51C581.384 1089.57 581.988 1096.93 582.486 1103.98C584.056 1120.48 587.755 1136.69 589.267 1153.2C591.675 1182.11 589.554 1216.61 600.463 1243.84C594.56 1251.83 591.068 1255.05 581.964 1259.79C575.938 1256.66 573.099 1255.27 566.661 1253.05C559.697 1242.26 557.486 1235.8 554.914 1223.29C557.734 1221.39 561.302 1219.13 563.837 1216.98C560.205 1173.61 553.719 1130.03 550.196 1086.39C549.145 1072.61 548.444 1058.8 548.092 1044.97C547.851 1036.33 548.527 1014.58 545.691 1007.64C531.381 972.659 511.971 937.131 495.824 903.041C513.064 878.412 495.735 855.187 487.973 830.591C486.008 824.366 488.783 820.305 483.254 815.05C474.78 797.924 462.693 765.465 458.942 747.75C450.814 709.367 449.312 669.663 436.374 632.034C432.914 621.97 432.14 608.819 424.421 600.735C411.16 591.226 392.495 588.149 377.134 581.688C375.152 577.802 371.205 570.818 373.292 566.909C377.441 566.127 378.202 568.71 381.345 568.241C385.016 566.601 385.055 564.723 389.578 563.998C394.388 563.226 400.186 562.938 402.78 558.487C403.866 553.49 401.198 548.841 398.982 544.452C403.66 531.079 409.268 519.987 414.586 507.103C418.279 498.158 419.936 485.552 415.67 476.57C412.63 470.168 407.803 466.657 403.599 461.152C401.357 458.155 399.459 452.988 396.558 450.556C382.944 439.148 355.835 439.704 340.875 447.422C320.583 457.892 317.103 486.057 308.251 504.848C304.157 513.541 296.147 520.95 293.454 530.432C288.754 544.82 300.242 546.461 311.153 549.634L314.651 557.032L322.884 561.187C310.15 568.379 292.156 574.589 280.613 582.247C265.889 592.015 258.089 631.835 255.603 649.416C252.033 648.293 250.956 648.255 247.277 647.96C245.478 638.167 244.281 624.637 243.091 614.532L235.938 553.92C230.835 510.854 224.029 463.19 220.392 420.357C252.878 390.905 295.231 342.911 320.636 307.544Z"/><path fill="#9EAF83" d="M729.157 310.789L756.639 552.152L765.039 629.811C766.219 640.942 768.437 657.249 768.982 668.181L767.283 668.188C764.448 655.52 761.123 641.667 759.644 628.846C758.556 619.418 760.277 609.21 758.128 599.685C754.198 582.259 745.372 566.123 736.959 550.542C726.57 531.3 717.847 520.516 696.262 514.195C699.853 506.546 699.766 472.026 696.313 464.792L696.412 463.547C698.447 451.48 697.629 431.727 698.741 418.176C702.165 376.45 712.777 348.066 729.157 310.789Z"/><path fill="#9FA1A0" d="M696.313 464.792C693.638 463.486 689.209 461.264 687.809 458.71C690.652 459.027 693.918 461.787 696.412 463.547L696.313 464.792Z"/><path fill="#9FA1A0" d="M663.727 442.324C668.536 443.638 669.906 445.045 674.019 448.081C669.509 447.231 667.279 445.101 663.727 442.324Z"/><path fill="#B6D4DA" d="M667.63 1245.48C668.783 1224.66 659.603 1188.32 658.547 1165.28C656.94 1130.18 651.775 1094.35 650.241 1059.02C648.274 1004.08 650.322 949.08 656.368 894.445C665.85 914.989 673.528 940.317 680.229 961.759C697.207 1016.09 709.889 1070.81 719.4 1126.86C722.757 1146.65 727.424 1166.51 731.583 1186.17C734.473 1199.83 734.754 1212.49 740.146 1225.44C742.668 1226.53 745.779 1227.61 748.395 1228.59C748.62 1231.48 749.024 1237.63 749.941 1240.05C758.36 1262.61 805.713 1266.54 816.794 1244.97C822.012 1234.81 805.737 1226.58 801.526 1215.02C811.016 1208.46 816.769 1205.6 813.907 1192.42C812.092 1184.07 809.02 1176.55 806.292 1168.51C802.594 1157.71 799.499 1146.72 797.02 1135.59C790.416 1105 787.234 1072.63 781.925 1041.68C776.941 1012.63 769.451 983.224 764.917 954.251C769.243 955.135 796.624 983.73 800.998 988.722L820.7 1179.73L826.201 1230.18C831.437 1276.9 836.707 1312.48 781.719 1329.34C761.019 1335.69 742.225 1337.92 721.152 1341.75L634.539 1358.04C589.177 1366.66 543.859 1375.51 498.586 1384.58C472.15 1389.89 445.732 1395.98 419.171 1400.35C416.556 1398.41 413.664 1394.62 410.95 1392.15C397.8 1380.17 393.244 1374.29 385.248 1358.54C400.541 1359.46 423.238 1358.05 434.606 1346.82C444.861 1336.7 422.914 1322.57 418.675 1315.25C410.542 1301.21 416.267 1287.6 402.993 1275.85C399.345 1272.62 396.758 1247.43 396.335 1241.92C402.515 1233.29 403.079 1232.11 402.897 1221.1C402.387 1190.07 404.603 1158.83 402.997 1127.84C402.298 1114.35 397.328 1100.2 398.291 1086.41C399.623 1068.49 401.603 1050.53 403.338 1032.63C406.105 1003.93 408.616 975.205 410.87 946.46C417.888 956.999 425.253 967.705 433.053 977.499C454.346 1004.24 474.886 1027.03 481.349 1061.76C483.257 1072.02 483.111 1082.1 484.353 1092.52C484.066 1119.32 495.363 1199.85 504.593 1224.56L513.035 1228.35C516.043 1237.36 518.085 1247.16 519.788 1256.49C515.006 1267.45 507.836 1295.34 517.473 1304.53C528.39 1307.87 541.321 1306.6 552.708 1306.37C573.515 1306.35 593.725 1307.28 614.526 1306.21C638.317 1304.99 663.467 1283.62 627.613 1274.39C642.44 1264.38 657.944 1261.44 667.63 1245.48Z"/><path fill="#B6D4DA" d="M325.254 770.71C353.074 759.17 381.135 771.508 409.656 776.563C421.434 778.119 423.263 777.787 433.098 771.13C433.612 790.314 433.608 820.841 438.16 838.567C440.168 819.488 437.14 800.066 437.252 780.989C447.955 799.264 453.387 818.284 468.533 833.092C467.644 838.547 466.716 845.454 466.617 850.874C466.487 858.077 472.487 881.914 476.388 886.841C477.917 888.651 477.966 888.889 480.163 889.37C486.202 886.06 483.145 874.144 486.067 871.999C487.873 874.119 488.18 875.241 489.166 877.763C488.043 880.278 486.794 882.758 485.804 885.333C483.764 890.641 479.673 896.483 481.652 902.37C483.494 907.854 489.846 907.596 494.364 908.673C508.996 935.934 530.786 981.858 542.465 1010.38C545.038 1016.67 544.813 1064.56 545.787 1076.21C548.327 1105.46 551.211 1134.68 554.439 1163.86C556.325 1180.49 559.211 1199.1 560.22 1215.57C544.529 1223.99 527.478 1228.19 509.819 1222.83C508.939 1222.56 508.062 1222.28 507.19 1221.99C501.009 1195.43 485.044 1112.1 487.778 1086.04C494.418 1080.88 507.227 1069.87 507.77 1061.05C499.279 1061.95 493.033 1074.09 487.316 1079.41C476.287 1008.2 448.378 996.752 411.428 940.378C411.712 924.078 413.556 903.83 414.775 887.4C415.093 883.104 420.392 872.857 420.977 863.924L420.271 863.242C409.582 873.306 409.462 911.068 408.396 926.05L403.397 991.324C401.78 1010.96 399.957 1030.57 397.927 1050.17C396.703 1062.58 395.084 1076.82 394.808 1089.22C394.533 1105.85 400.089 1122.45 399.875 1139.06C399.72 1163.08 398.881 1187.63 399.257 1211.62C399.673 1238.18 396.824 1244.13 368.568 1243.2C349.813 1232.51 354.471 1206.23 351.932 1187.53C345.52 1140.3 345.036 1095.21 346.118 1047.69C346.18 1027.36 340.676 1005.21 337.615 984.85C335.539 971.049 332.93 956.366 330.276 942.559C328.325 933.976 323.034 921.75 321.365 913.568C318.663 900.326 309.354 832.683 318.466 825.151C326.262 827.704 327.959 847.111 336.747 851.839L337.62 850.98C337.808 847.792 336.135 845.84 334.398 843.174C344.592 830.661 349.139 819.751 351.59 803.975C368.706 815.465 374.211 821.735 387.341 837.227C388.748 833.981 388.373 835.028 387.661 831.128C382.535 824.69 375.448 816.599 368.708 811.842C349.036 797.96 338.074 792.033 325.254 770.71Z"/><path fill="#FEE5A7" d="M351.59 803.975C368.706 815.465 374.211 821.735 387.341 837.227C371.65 856.732 352.844 976.637 350.068 1005.69C349.442 1012.23 347.727 1044.25 346.118 1047.69C346.18 1027.36 340.676 1005.21 337.615 984.85C335.539 971.049 332.93 956.366 330.276 942.559C328.325 933.976 323.034 921.75 321.365 913.568C318.663 900.326 309.354 832.683 318.466 825.151C326.262 827.704 327.959 847.111 336.747 851.839L337.62 850.98C337.808 847.792 336.135 845.84 334.398 843.174C344.592 830.661 349.139 819.751 351.59 803.975Z"/><path fill="#FEE5A7" d="M325.254 770.71C353.074 759.17 381.135 771.508 409.656 776.563C404.107 792.515 396.99 812.052 389.478 827.076L388.584 830.578L387.661 831.128C382.535 824.69 375.448 816.599 368.708 811.842C349.036 797.96 338.074 792.033 325.254 770.71Z"/><path fill="#3B3A39" d="M389.478 827.076C393.969 831.258 396.987 834.714 393.378 841.092L392.317 841.606C386.068 838.606 393.838 836.538 388.584 830.578L389.478 827.076Z"/><path fill="#3B3A39" d="M377.469 1052.03C378.409 1052.28 378.64 1052.57 379.503 1053.12C380.776 1059.93 366.056 1071.85 360.86 1075.79L358.911 1073.11C356.982 1064.35 371.333 1056.15 377.469 1052.03Z"/><path fill="#3B3A39" d="M500.072 1028.88C506.38 1036.36 494.13 1052.96 488.605 1058.11C483.024 1049.99 494.604 1035.15 500.072 1028.88Z"/><path fill="#3B3A39" d="M372.06 1013.76C378.698 1020.14 365.474 1035.2 361.091 1040C354.051 1033.62 367.368 1018.79 372.06 1013.76Z"/><path fill="#3B3A39" d="M530.083 1017.25C531.4 1017.67 531.281 1017.84 532.381 1018.93C532.43 1023.76 526.696 1029.16 523.412 1032.91C520.694 1032.23 520.571 1030.98 520.199 1028.71C521.496 1023.66 526.114 1020.24 530.083 1017.25Z"/><path fill="#9EAF83" d="M770.842 684.913L800.998 988.722C796.624 983.73 769.243 955.135 764.917 954.251C761.968 944.41 758.427 924.691 756.167 913.715C749.471 881.288 743.386 848.738 737.915 816.082C749.916 788.258 766.684 721.21 768.935 691.659L770.842 684.913Z"/><path fill="#B6D4DA" d="M466.681 822.241C469.101 819.854 476.428 814.363 478.622 819.264C486.196 836.186 498.98 863.816 499.322 881.969L498.876 882.841L496.688 882.221C494.814 883.831 494.246 886.22 493.355 888.522C490.678 895.436 486.323 900.817 481.136 906.067C485.086 897.01 489.715 886.983 493.163 877.817C490.528 871.75 489.138 867.333 483.812 863.229L482.155 863.419C478.309 869.698 483.213 877.187 479.663 885.05C470.092 872.746 470.046 846.786 472.132 832.198C470.275 828.901 468.458 825.582 466.681 822.241Z"/><path fill="#859272" d="M767.283 668.188L768.982 668.181C769.689 672.347 770.755 680.621 770.842 684.913L768.935 691.659C769.046 682.115 768.606 677.593 767.283 668.188Z"/><path fill="#B6D4DA" d="M690.272 806.473C688.75 810.778 687.206 814.332 688.453 818.832C690.52 821.364 689.405 820.716 692.63 821.259C698.524 819.676 700.681 816.103 704.368 811.404L705.675 809.547C707.824 809.898 731.284 827.839 736.578 831.018C740.457 853.683 744.777 876.269 749.536 898.766C752.38 912.37 756.935 930.646 758.675 943.887C769.083 984.111 775.176 1026.35 782.673 1067.26C788.388 1098.45 789.621 1130.37 800.189 1160.7C804.771 1173.85 809.745 1187.82 812.227 1201.5C809.764 1204.03 806.116 1207.44 802.229 1210.2C793.426 1218.35 746.913 1234.27 741.964 1218.66C738.153 1206.63 733.597 1176.1 730.301 1162.37C722.626 1130.4 718.105 1097.35 711.155 1065.28C701.56 1021.66 689.675 978.578 675.548 936.21C670.687 921.761 662.952 897.817 654.707 885.726C650.317 903.195 649.567 927.614 648.282 945.963C641.752 1039.21 651.309 1133.83 662.546 1226.55C644.496 1236.93 622.219 1240.43 601.678 1237.77C593.38 1209.87 594.899 1180.78 592.77 1152.05C592.254 1139.61 587.008 1124.89 586.666 1112.76C583.933 1015.77 565.017 920.132 550.676 824.297C569.64 834.712 578.848 832.105 598.846 832.969C635.753 834.564 659.63 826.41 690.272 806.473Z"/><path fill="#9EAF83" d="M704.368 811.404L705.675 809.547C707.824 809.898 731.284 827.839 736.578 831.018C740.457 853.683 744.777 876.269 749.536 898.766C752.38 912.37 756.935 930.646 758.675 943.887C754.456 939.817 747.62 929.435 744.267 924.325C719.865 887.126 712.519 853.539 704.368 811.404Z"/><path fill="#3B3A39" d="M640.092 832.484C645.606 836.445 647.158 852.797 647.712 859.616C641.558 856.347 639.707 839.106 640.092 832.484Z"/><path fill="#B6D4DA" d="M654.828 513.641C668.502 516.092 682.363 515.377 696.297 518.023C700.917 519.681 710.007 522.679 713.497 525.66C727.912 537.974 737.85 558.826 745.85 575.663C754.638 594.157 766.172 625.183 740.063 634.951C730.179 638.648 720.874 642.125 710.818 645.046C705.113 633.642 705.705 631.346 704.351 619.75C702.769 606.21 713.498 560.376 701.646 552.795L699.953 553.202C698.142 556.346 698.047 564.057 697.861 567.869C696.926 585.202 697.867 602.585 700.666 619.716C703.223 634.697 707.218 650.085 708.154 665.179C709.333 684.211 704.435 703.386 709.673 722.204C713.221 734.951 719.24 747.165 722.884 759.891C717.395 775.956 710.538 778.207 700.802 790.296C688.131 806.507 666.272 819.131 646.43 824.496C625.587 830.131 574.512 832.822 555.99 823.057C537.487 810.456 551.302 767.687 555.001 752.022C561.901 722.799 554.522 702.433 550.248 673.993C548.087 659.606 551.767 644.732 546.95 630.467C545.113 625.028 536.791 605.564 530.468 607.354C525.896 616.636 546.11 651.876 545.999 664.81C545.96 669.374 547.178 679.074 548.003 683.608C532.546 682.836 494.108 677.18 496.915 656.366C499.79 635.05 501.897 611.998 505.831 590.748C507.419 584.24 511.321 568.892 515.725 563.97C526.677 551.731 547.678 539.919 561.396 531.124C589.589 560.906 633.626 541.84 654.828 513.641Z"/><path fill="#9EAF83" d="M696.297 518.023C700.917 519.681 710.007 522.679 713.497 525.66C727.912 537.974 737.85 558.826 745.85 575.663C754.638 594.157 766.172 625.183 740.063 634.951C730.179 638.648 720.874 642.125 710.818 645.046C705.113 633.642 705.705 631.346 704.351 619.75C702.769 606.21 713.498 560.376 701.646 552.795L699.953 553.202C698.142 556.346 698.047 564.057 697.861 567.869C696.926 585.202 697.867 602.585 700.666 619.716C703.223 634.697 707.218 650.085 708.154 665.179C709.333 684.211 704.435 703.386 709.673 722.204C713.221 734.951 719.24 747.165 722.884 759.891C717.395 775.956 710.538 778.207 700.802 790.296C676.107 725.141 669.284 654.569 681.042 585.891C684.759 565.03 694.901 536.658 696.297 518.023Z"/><path fill="#B6D4DA" d="M504.99 676.584C520.294 683.117 527.113 685.492 543.891 687.172C540.313 701.459 539.24 713.443 538.201 728.027C533.761 719.488 531.943 716.125 525.361 709.394C526.422 712.984 527.638 717.341 529.33 720.637C531.531 724.929 538.591 732.532 539.369 736.892C542.762 755.892 538.841 776.926 539.837 796.253C540.359 806.369 545.201 814.841 546.778 823.7C549.115 836.84 550.976 850.989 552.878 864.233C553.664 869.847 557.266 890.068 555.158 894.079C554.21 894.732 553.545 895.488 552.377 895.369C544.029 894.521 527.695 876.905 525.93 869.433C522.365 854.333 523.155 837.893 520.59 822.562C515.989 795.057 505.826 768.744 503.363 740.898C501.839 721.196 503.998 696.761 504.99 676.584Z"/><path fill="#9EAF83" d="M713.559 647.314C731.92 642.609 740.275 640.308 755.702 629.139C757.551 638.77 765.505 676.93 765.243 683.803C763.974 717.103 748.12 782.418 735.22 812.475C727.584 805.762 716.346 791.887 707.012 801.539L700.986 795.375C719.483 776.135 728.991 769.271 728.17 740.166C727.719 724.206 725.92 703.306 730.307 688.076C732.095 681.871 737.061 673.585 739.412 666.758C731.177 673.942 730.704 675.133 726.32 685.208C722.178 671.868 718.619 660.321 713.559 647.314Z"/><path fill="#B6D4DA" d="M595.207 390.074C602.135 390.024 615.874 396.653 622.588 401.253C632.472 408.026 653.431 418.077 646.987 433.584C645.417 437.361 638.952 435.852 636.098 437.08C632.18 438.765 630.585 446.371 629.938 450.138C627.242 465.964 624.116 480.567 607.68 486.805C582.719 496.277 577.02 480.302 570.256 459.52L576.885 454.599C583.177 449.05 583.78 446.049 586.55 438.257C595.995 449.602 608.186 456.332 620.887 445.735C632.033 436.435 633.369 417.624 613.417 420.253C600.799 421.916 593.507 427.881 582.378 430.431C575.659 431.971 567.909 431.608 559.73 433.583C565.295 409.028 572.199 400.131 595.207 390.074Z"/><path fill="#B6D4DA" d="M637.097 439.162C638.528 439.427 639.639 440.09 640.948 440.735C646.848 451.805 624.741 492.673 650.865 513.649C634.017 534.974 612.069 544.149 585.199 541.055C583.737 540.688 582.288 540.268 580.856 539.797C576.622 538.375 568.76 535.438 566.764 531.504C569.552 517.481 589.556 533.443 584.36 492.099C611.639 496.497 631.836 479.552 633.673 451.671C634.073 445.604 634.155 444.54 637.097 439.162Z"/><path fill="#B6D4DA" d="M569.538 1258.02C574.426 1260.18 580.32 1263.55 584.498 1266.88C599.759 1279.08 617.205 1275.41 635.055 1279.98C616.355 1291.58 593.856 1291.88 572.515 1290.54C563.997 1290.27 552.931 1290.44 544.504 1290.99C516.235 1292.83 513.041 1285.91 521.792 1259.97C537.741 1275.12 554.852 1273.84 569.538 1258.02Z"/><path fill="#B6D4DA" d="M662.018 1230.8C673.201 1242.59 650.974 1258.26 642.024 1262.28C636.434 1264.8 628.328 1269.98 623.554 1273.88C612.361 1273.47 604.773 1272.82 594.255 1268.6L584.328 1262.33C595.647 1256.6 599.208 1254 603.437 1242.28C625.849 1242.61 642.029 1240.9 662.018 1230.8Z"/><path fill="#B6D4DA" d="M796.666 1218.29L798.179 1218.57C801.775 1224.01 809.016 1232.05 813.433 1237.33C817.324 1251.73 798.575 1254.55 788.449 1255.35C783.537 1255.74 777.988 1254.43 773.13 1253.45C756.576 1247.82 753.485 1246.04 752.096 1228.5C770.031 1227.7 780.578 1225.76 796.666 1218.29Z"/><path fill="#F7F6F4" d="M549.532 1224.8C550.345 1225.04 551.519 1226.11 551.712 1226.89C554.625 1238.7 558.666 1247.29 565.31 1257.42C555.012 1267.78 548.258 1267.65 534.429 1265.04C521.88 1259.99 520.276 1240.77 516.907 1228.89C529.851 1229.04 537.044 1227.85 549.532 1224.8Z"/><path fill="#B6D4DA" d="M637.381 1281.42C640.291 1283.76 641.201 1285.81 640.923 1289.5C631.834 1310.72 580.901 1301.31 562.354 1301.88C548.313 1302.3 534.821 1305.07 520.892 1302.8C518.661 1300.1 516.258 1295.7 517.992 1292.37C519.745 1291.87 559.711 1294.44 566.41 1294.15C591.354 1293.06 615.97 1299.21 637.381 1281.42Z"/><path fill="#9EAF83" d="M710.487 652.004C713.154 653.861 715.554 660.533 716.734 663.716C726.545 690.172 725.027 721.553 724.278 749.366C722.561 747.666 720.425 741.622 719.288 739.156C706.3 710.978 713.153 682.546 710.487 652.004Z"/><path fill="#B6D4DA" d="M547.149 687.467L548.788 688.859C558.931 713.859 552.631 750.475 545.794 775.62L544.597 777.929C543.292 775.558 544.166 765.333 543.883 761.814C541.797 735.891 542.339 713.345 547.149 687.467Z"/><path fill="#B6D4DA" d="M611.417 423.864C622.093 423.723 622.017 425.481 626.317 434.662C621.432 440 617.913 442.675 612.214 446.997C607.712 447.158 603.866 447.537 600.258 444.574C596.333 436.173 605.662 428.879 611.417 423.864Z"/><path fill="#9EAF83" d="M713.015 800.174C719.236 802.868 739.426 817.311 733.801 825.141C728.116 821.652 712.645 811.897 710.744 805.427C710.218 803.638 711.875 801.921 713.015 800.174Z"/><path fill="#B6D4DA" d="M700.986 795.375L707.012 801.539C703.88 806.15 699.746 813.735 694.432 815.085L692.973 814.126C691.761 807.492 697.219 800.43 700.986 795.375Z"/><path fill="#B6D4DA" d="M498.478 887.898C498.885 895.043 495.543 898.985 490.481 903.374C490.117 900.958 496.606 891.318 498.478 887.898Z"/><path fill="#B6D4DA" d="M374.112 226.927L569.699 196.169L628.481 186.775C654.967 182.534 684.461 175.014 708.333 191.792C739.889 213.972 738.587 252.408 743.616 286.358L738.639 293.261C716.154 236.135 677.713 242.58 627.355 250.025L573.118 258.032L416.803 280.701C391.191 284.489 356.763 290.707 331.759 293.365C343.919 271.353 361.328 249.019 374.112 226.927Z"/><path fill="#575A4E" d="M476.532 232.294C479.099 231.955 484.629 231.969 486.192 233.982C500.091 251.881 466.365 254.195 457.879 255.606C441.859 258.271 427.081 259.964 411.764 261.969C395.304 263.608 392.935 245.379 409.853 242.17C431.836 238.001 454.337 235.356 476.532 232.294Z"/><path fill="#575A4E" d="M516.774 224.446C522.497 223.945 527.597 228.043 528.338 233.738C529.078 239.433 525.196 244.699 519.535 245.677C515.657 246.347 511.724 244.838 509.289 241.746C506.855 238.654 506.312 234.477 507.874 230.866C509.437 227.255 512.854 224.79 516.774 224.446Z"/><path fill="#575A4E" d="M553.717 223.499C557.386 222.454 561.215 224.55 562.311 228.204C563.407 231.857 561.363 235.714 557.724 236.86C555.325 237.615 552.705 237.021 550.866 235.305C549.028 233.588 548.256 231.015 548.846 228.571C549.436 226.126 551.297 224.188 553.717 223.499Z"/><path fill="#B6D4DA" d="M314.303 569.521C328.918 584.891 351.137 610.242 373.551 613.033C385.033 614.462 385.981 600.206 385.38 592.122C385.31 591.15 385.206 590.18 385.07 589.215C404.716 595.145 425.152 597.716 429.798 620.362C432.447 633.276 435.78 647.001 439.976 659.435C434.356 652.759 432.73 650.432 428.434 643.142C425.677 638.462 418.975 623.846 416.264 621.111C410.567 629.613 438.629 664.466 443.964 672.663C440.402 684.16 433.179 703.362 434.473 715.763C435.229 723.006 439.462 731.857 439.337 739.504C440.274 748.077 434.736 754.723 425.991 751.237C419.805 749.54 413.5 748.317 407.128 747.578C379.188 744.276 345.243 748.283 322.5 766.227C301.759 733.302 295.325 712.439 308.206 674.355C311.22 666.649 321.534 642.583 314.721 636.304L313.548 636.697C311.822 640.281 313.409 646.998 312.215 651.215C310.161 658.471 307.527 665.547 304.993 672.651C290.249 661.46 275.671 656.642 259.617 648.644C262.457 633.276 265.572 619.924 270.4 605.044C277.676 582.623 294.832 578.597 314.303 569.521Z"/><path fill="#FEE5A7" d="M308.206 674.355C342.861 701.837 405.145 707.636 425.991 751.237C419.805 749.54 413.5 748.317 407.128 747.578C379.188 744.276 345.243 748.283 322.5 766.227C301.759 733.302 295.325 712.439 308.206 674.355Z"/><path fill="#B6D4DA" d="M437.646 1409.94C450.918 1405.69 468.296 1402.8 482.252 1400.15L540.645 1388.89C611.01 1374.92 681.461 1361.39 751.993 1348.29C789.866 1341.21 812.821 1338.56 835.804 1305.01C835.789 1335.81 826.426 1354.32 819.253 1382C800.598 1397.59 730.226 1407.11 703.562 1412.31L541.338 1443.99C537.233 1444.78 501.006 1452.94 499.426 1452.81C484.242 1440.07 454.78 1421.37 437.646 1409.94Z"/><path fill="#FEE5A7" d="M259.162 745.794C268.535 766.658 282.853 809.97 302.869 822.676L313.562 820.208C309.664 836.481 310.819 850.532 311.808 867.024C312.772 883.077 314.124 899.23 317.59 914.933C319.668 924.347 324.655 933.571 326.262 943.051C331.581 974.426 337.472 1005.84 341.817 1037.36C342.895 1045.19 341.659 1055.71 341.606 1063.83C341.488 1081.93 340.629 1100 341.924 1118.08C337.962 1132.84 335.371 1148.4 331.606 1163.4C326.876 1182.24 321.005 1198.43 314.2 1216.49C310.345 1198.96 308.528 1170.59 306.504 1151.81L293.534 1036.52L271.781 853.913C267.455 818.366 262.241 781.342 259.162 745.794Z"/><path fill="#FEE5A7" d="M193.722 604.018C196.117 602.19 197.086 601.129 200.158 601.017C207.982 604.116 207.955 614.216 208.767 621.577C209.933 632.149 209.962 642.912 211.586 653.448L217.001 651.59C231.314 766.445 244.873 881.393 257.676 996.426L277.26 1177.06C280.535 1208.15 284.318 1240.27 286.97 1271.36L274.281 1288.3L228.025 894.576L217.649 805.732C216.443 795.943 209.593 753.455 211.805 746.249C214.921 743.423 216.829 744.218 220.85 742.378C220.356 740.605 219.851 740.18 218.716 738.775C216.19 740.802 215.482 741.03 212.617 740.127C208.09 735.477 201.651 668.287 200.229 656.276L208.776 654.099C207.239 644.952 204.92 610.018 201.617 604.888C198.559 604.01 198.649 604.53 195.17 605.341L193.722 604.018Z"/><path fill="#FEE5A7" d="M208.776 654.099C210.412 674.512 213.42 694.815 215.907 715.159C216.387 719.086 218.081 736.644 218.716 738.775C216.19 740.802 215.482 741.03 212.617 740.127C208.09 735.477 201.651 668.287 200.229 656.276L208.776 654.099Z"/><path fill="#575A4E" d="M193.722 604.018C196.117 602.19 197.086 601.129 200.158 601.017C207.982 604.116 207.955 614.216 208.767 621.577C209.933 632.149 209.962 642.912 211.586 653.448C212.448 676.072 219.258 701.285 219.804 724.346C219.885 727.75 220.255 739.492 220.85 742.378C220.356 740.605 219.851 740.18 218.716 738.775C218.081 736.644 216.387 719.086 215.907 715.159C213.42 694.815 210.412 674.512 208.776 654.099C207.239 644.952 204.92 610.018 201.617 604.888C198.559 604.01 198.649 604.53 195.17 605.341L193.722 604.018Z"/><path fill="#FEE5A7" d="M259.617 648.644C275.671 656.642 290.249 661.46 304.993 672.651C301.344 682.089 292.843 716.431 290.131 720.754L288.032 720.617L287.322 722.235C291.904 729.943 298.665 736.388 303.382 743.519C310.432 754.177 317.138 765.326 324.088 776.12C303.387 788.4 304.026 798.561 303.829 820.599C302.132 819.008 300.503 817.347 298.946 815.619C288.972 804.371 281.257 786.159 274.345 772.675C254.741 734.435 257.329 690.288 259.617 648.644Z"/><path fill="#3B3A39" d="M285.582 739.228C287.348 739.935 286.61 739.378 287.717 741.127C285.77 744.975 280.704 746.62 277.761 750.587C281.368 750.172 282.703 749.303 285.145 750.909L284.862 752.954C281.461 754.441 277.863 756.085 274.268 754.831C270.194 749.065 281.494 741.835 285.582 739.228Z"/><path fill="#B6D4DA" d="M361.47 446.464C369.486 445.59 407.561 449.058 396.04 463.242C392.206 463.253 391.144 459.76 386.272 459.385C375.972 462.652 382.02 478.155 376.436 486.59C370.388 496.318 353.218 500.443 348.611 510.952C340.714 528.967 351.461 547.3 326.651 554.252C308.703 547.05 321.266 540.278 313.465 532.893C310.008 536.162 312.255 542.216 307.686 544.868C303.287 544.877 297.565 541.61 296.416 537.252C300.056 523.414 307.053 515.037 312.782 502.56C319.656 487.592 324.199 470.381 334.17 456.797C339.694 449.272 352.841 447.448 361.47 446.464Z"/><path fill="#9EAF83" d="M743.616 286.358C763.409 450.725 781.738 615.264 798.6 779.957L815.748 940.35C817.975 961.562 822.313 990.902 823.271 1011.56C821.18 1008.81 818.71 1004.86 815.728 1003.57C813.436 993.448 810.602 956.893 809.465 945.104L797.838 823.634C785.169 695.071 771.47 566.612 756.743 438.269L746.533 348.722C744.721 332.962 742.574 308.003 738.639 293.261L743.616 286.358Z"/><path fill="#FEE5A7" d="M234.399 649.8C236.1 656.806 237.256 669.514 238.139 676.958L243.855 725.414L262.941 884.767C272.997 967.031 282.584 1049.35 291.703 1131.72C293.752 1150.75 295.999 1169.76 298.442 1188.74C300.4 1203.96 303.431 1225.2 303.811 1240.46L298.132 1250.5C295.375 1244.69 289.985 1180.26 288.911 1169.86L272.901 1018.49L230.279 651.607L234.399 649.8Z"/><path fill="#B6D4DA" d="M384.993 462.987C404.348 468.478 409.792 492.071 405.321 509.309C402.377 520.663 400.756 540.131 390.063 547.355C387.046 549.393 380.214 546.341 377.268 545.21C343.44 526.254 340.658 516.496 373.179 495.308C383.163 488.803 383.769 474.117 384.993 462.987Z"/><path fill="#B6D4DA" d="M367.962 1307.74C390.691 1313.91 390.826 1328.79 417.97 1321.09C425.368 1328.14 439.926 1338.27 427.714 1347.36C411.898 1354.79 387.461 1361.87 374.023 1346.21C364.978 1335.68 366.721 1320.61 367.962 1307.74Z"/><path fill="#B6D4DA" d="M444.111 685.896C445.446 687.349 453.655 739.15 454.623 745.987C458.02 769.973 470.839 788.683 476.572 810.231C467.49 810.733 466.811 810.426 459.984 816.739C449.291 795.399 441.525 780.261 432.831 758.013C452.581 742.157 440.06 735.347 438.399 713.833C437.647 704.091 440.868 694.895 444.111 685.896Z"/><path fill="#B6D4DA" d="M349.723 528.329C359.39 535.667 357.26 538.243 373.163 547.12C364.609 567.007 369.063 570.329 376.313 588.554C375.286 591.88 373.987 595.399 372.834 598.708C369.436 596.976 366.059 595.202 362.705 593.388C349.477 584.833 336.165 576.089 323.73 566.416C337.749 547.543 343.663 559.915 349.723 528.329Z"/><path fill="#FEE5A7" d="M338.19 760.66C364.796 749.631 386.596 749.964 414.474 753.004C430.881 754.956 435.935 774.513 410.785 772.965C385.277 767.306 364.592 761.909 338.19 760.66Z"/><path fill="#B6D4DA" d="M414.474 753.004C430.881 754.956 435.935 774.513 410.785 772.965C412.48 767.99 414.128 758.22 414.474 753.004Z"/><path fill="#B6D4DA" d="M815.728 1003.57C818.71 1004.86 821.18 1008.81 823.271 1011.56C825.047 1025.09 836.823 1120.19 834.994 1127.85C834.566 1135.81 833.899 1155.52 832.662 1162.43C829.494 1157.41 817.078 1018.8 815.728 1003.57Z"/><path fill="#FEE5A7" d="M325.357 780.174C325.985 780.543 342.533 799.843 343.922 801.507C348.811 807.363 342.733 828.126 336.425 831.599L334.484 830.782C322.977 818.174 317.116 811.614 308.889 796.85C314.602 788.164 316.863 786.178 325.357 780.174Z"/><path fill="#B6D4DA" d="M403.107 1281.54C406.261 1285.7 410.401 1299.04 411.847 1304.46C418.526 1329.5 399.002 1319.66 387.691 1312.43C381.097 1307.87 374.117 1306.81 369.405 1303.02C366.411 1294.04 396.046 1284.23 403.107 1281.54Z"/><path fill="#B6D4DA" d="M383.969 209.506L555.97 182.818C584.722 178.347 627.376 170.203 654.974 169.108C637.423 175.297 599.686 179.098 580.175 182.501C514.472 193.962 448.01 202.159 382.312 213.83L383.969 209.506Z"/><path fill="#F7F6F4" d="M391.111 1245.33C394.104 1248.5 397.68 1273.03 399.124 1278.94C391.719 1281.53 384.13 1285.2 376.959 1288.5C375.348 1286.62 369.267 1252.04 368.221 1246.7C377.706 1247.29 382.044 1247.19 391.111 1245.33Z"/><path fill="#B6D4DA" d="M320.33 570.223C331.412 571.839 358.089 600.793 370.356 600.892C374.563 600.926 378.713 594.836 381.077 591.427C382.594 593.459 382.054 594.617 382.104 597.639C376.025 631.283 329.224 579.731 320.33 570.223Z"/><path fill="#575A4E" d="M185.71 439.689C190.368 469.867 193.466 501.151 196.755 531.552C197.653 539.853 200.586 563.82 199.701 570.796C197.75 573.305 196.53 573.709 193.011 574.164C192.268 574.257 191.523 574.338 190.777 574.406L191.954 571.374C194.03 571.155 194.145 571.06 196.049 570.136C200.3 559.812 183.725 467.659 183.976 443.668L185.71 439.689Z"/><path fill="#B6D4DA" d="M396.03 548.314C397.38 549.582 398.073 551.492 398.869 553.212C398.761 556.211 398.872 557.123 397.319 559.813C390.795 563.179 388.103 556.228 382.871 556.526C382.492 560.062 382.443 562.116 380.558 565.216C377.583 564.531 377.167 564.414 374.621 562.746C373.628 561.327 372.481 557.418 373.155 556.078C377.93 546.584 385.356 555.176 396.03 548.314Z"/><path fill="#FEE5A7" d="M247.277 647.96C250.956 648.255 252.033 648.293 255.603 649.416C254.999 658.292 254.154 667.923 254.145 676.757L252.984 683.389L251.796 683.973C250.639 672.299 248.793 659.666 247.277 647.96Z"/><path fill="#B6D4DA" d="M399.888 466.028C416.232 470.024 415.207 492.035 411.402 504.54L411.054 504.976L410.331 504.843C410.642 494.714 411.994 487.161 406.421 478.098C404.17 474.436 401.766 470.795 400.19 466.809L399.888 466.028Z"/><path fill="#9FA1A0" fill-opacity="0.92156863" d="M331.23 1363.91C338.577 1365.34 376.375 1378.4 379.99 1382.31C364.124 1377.37 346.93 1370.63 331.157 1364.95L331.23 1363.91Z"/><path fill="#B9A16F" d="M251.796 683.973L252.984 683.389L254.145 676.757C254.237 684.567 254.479 692.061 253.58 699.841C252.932 694.577 252.216 689.255 251.796 683.973Z"/><path fill="#FEE5A7" d="M327.276 829.58C331.564 831.988 332.9 834.291 333.437 838.999C328.926 837.373 328.573 833.819 327.276 829.58Z"/><path fill="#3B3A39" d="M299.056 1591.16C308.828 1591.33 324.032 1593.81 324.008 1606.77C323.996 1613.51 318.431 1617.76 313.885 1622.05C328.73 1630 332.748 1643.05 319.083 1654.82C307.279 1661.37 296.598 1659.92 283.601 1659.09C283.396 1646.78 281.884 1606.87 285.048 1593.46C285.55 1591.34 295.799 1591.28 299.056 1591.16ZM291.57 1653.49C301.137 1654.02 307.032 1654.42 315.625 1649.2C327.587 1627.85 307.509 1625.76 291.447 1626.17L291.57 1653.49ZM291.446 1620.82C298.993 1620.84 305.4 1621.37 312.189 1617.8C325.424 1599.86 306.323 1596.31 292.19 1597.12C290.666 1601.61 291.296 1615.5 291.446 1620.82Z"/><path fill="#3B3A39" d="M774.871 1591.1C798.448 1588.95 817.837 1604.61 794.045 1623.03C807.598 1632.98 813.071 1637.63 801.798 1652.83C791.102 1660.95 777.284 1659.91 764.67 1659.11C765.492 1644.99 764.966 1630.08 764.905 1615.92C764.874 1608.85 764.18 1599.57 765.046 1592.71C767.417 1591.31 771.93 1591.32 774.871 1591.1ZM795.712 1649.3C807.334 1629.19 787.734 1625.93 772.247 1626.21L772.381 1653.83C780.99 1653.84 788.268 1654.34 795.712 1649.3ZM792.046 1618.61C806.383 1601.14 787.992 1595.06 773.103 1596.22C770.753 1602.03 772.075 1614.16 772.454 1620.92C778.621 1620.84 786.385 1621.03 792.046 1618.61Z"/><path fill="#3B3A39" d="M647.331 1606.8C680.626 1603.41 689.771 1644.25 658.413 1659.69C653.988 1660.01 650.809 1660.06 646.453 1658.88C640.332 1657.24 635.162 1653.14 632.172 1647.56C623.209 1630.91 631.757 1614.99 647.331 1606.8ZM655.46 1654.66C676.02 1642.32 675.983 1615.34 650.713 1611.97C629.385 1624.03 633.488 1654.03 655.46 1654.66Z"/><path fill="#3B3A39" d="M433.943 1607.68C438.157 1607.4 442.023 1607.08 446.112 1608.32C452.29 1610.18 457.46 1614.45 460.457 1620.16C463.91 1626.93 464.544 1634.8 462.222 1642.04C459.169 1651.28 454.092 1654.83 445.991 1658.98C441.959 1659.57 437.66 1659.8 433.672 1658.77C427.684 1657.21 422.589 1653.28 419.558 1647.89C410.41 1631.57 418.594 1615.92 433.943 1607.68ZM442.477 1654.03C461.79 1642.74 460.115 1615.23 436.81 1612.79C417.739 1624.48 419.094 1652.47 442.477 1654.03Z"/><path fill="#3B3A39" d="M525.507 1607.7C536.933 1607.18 544.421 1608.07 549.182 1620.35C550.442 1623.6 551.166 1627.04 550.064 1630.44C543.79 1639.15 527.326 1631.36 517.466 1635.89C516.762 1636.81 515.67 1637.76 515.948 1638.78C519.409 1651.52 527.765 1653.01 537.373 1653.13C540.735 1652.64 544.695 1650.87 546.297 1654.44L545.036 1656.24C515.4 1672.47 491.343 1629.41 525.507 1607.7ZM515.859 1628.2L535.717 1628.11L544.438 1628.04C540.423 1616.73 539.761 1612.6 526.296 1612.93C519.435 1618.47 518.767 1619.82 515.859 1628.2Z"/><path fill="#3B3A39" d="M354 1607.67C366.965 1607.03 374.403 1609.15 377.789 1623.15C378.53 1626.22 379.326 1627.09 378.276 1630.54C372.749 1638.98 353.886 1630.69 346.215 1634.72C339.022 1638.5 348.824 1647.51 352.107 1650.3C355.295 1653.01 359.16 1653.1 363.131 1653.53C366.901 1652.9 371.952 1651.07 374.137 1654.82C369.14 1663.44 345.774 1659.91 341.153 1649.49C332.703 1630.43 336.111 1618.13 354 1607.67ZM343.837 1628.15L359.556 1628.13C362.868 1628.25 365.894 1628.75 368.685 1627.08C370.932 1624.31 370.482 1625.57 370.751 1622.34C367.887 1615.03 362.92 1613.7 355.682 1612.78C347.811 1617.51 347.071 1619.49 343.837 1628.15Z"/><path fill="#3B3A39" d="M689.076 1607.18C691.147 1607.29 692.503 1607.52 694.554 1607.86C701.164 1615.63 688.7 1654.33 708.3 1654.3C732.193 1654.27 717.907 1616.03 725.475 1607.67C728.093 1607.14 727.052 1606.99 729.436 1608.02C731.241 1611.5 731.038 1615.32 731.158 1619.24C730.405 1628.13 732.838 1653.9 729.67 1658.29C726.585 1659.18 727.717 1659.27 725.028 1658.49C724.488 1656.25 724.417 1655.07 724.223 1652.76C720.498 1652.41 711.397 1661.34 704.443 1660.38C684.536 1657.64 688.716 1621.85 689.076 1607.18Z"/><path fill="#3B3A39" d="M819.889 1606.27C826.386 1606.81 825.817 1608.62 826.907 1614.08C828.287 1620.99 824.991 1653.64 836.388 1653.99C865.606 1654.9 846.113 1614.9 856.452 1606.81C861.979 1606.94 860.579 1616.68 860.459 1620.94C860.541 1628.96 862.612 1653.38 858.515 1658.79L856.918 1658.95L853.795 1653.48C850.544 1653.14 844.808 1660.92 835.5 1659.63C813.881 1656.64 818.506 1622.49 819.889 1606.27Z"/><path fill="#3B3A39" d="M208.305 1607.6C209.218 1607.6 212.948 1607.55 213.36 1607.79C220.88 1612.33 228.651 1638.04 232.02 1646.88C234.178 1638.84 242.936 1610.23 250.782 1607.53L251.471 1609.16C250.975 1618.49 246.301 1627.98 242.647 1636.67C238.879 1647.17 229.146 1677.02 213.313 1669.61C211.314 1667.21 211.618 1668.3 211.793 1665.6C214.05 1664.17 219.013 1663.66 221.869 1663.19C224.941 1660.42 225.689 1658.96 227.877 1655.41C222.421 1639.99 214.703 1622.93 208.305 1607.6Z"/><path fill="#3B3A39" d="M580.222 1590.73C583.441 1590.95 586.168 1591.11 588.177 1593.98C594.899 1603.6 599.644 1615.22 604.626 1625.86C608.833 1617.41 617.172 1598.58 624.114 1591.73C625.165 1590.69 626.669 1591.17 627.961 1591.41L629.073 1593.29C628.904 1596.86 620.001 1611.58 617.674 1615.72C614.631 1621.34 611.328 1627.06 608.189 1632.65C608.35 1639.48 610.285 1654.88 604.662 1658.8C598.125 1657.22 601.636 1639.2 600.203 1633.12C597.905 1623.37 578.889 1599.5 580.222 1590.73Z"/><path fill="#3B3A39" d="M907.46 1606.47C909.759 1606.59 911.112 1606.85 913.386 1607.27C914.826 1616.06 891.985 1668.84 879.576 1670.96C876.886 1669.57 877.814 1670.4 876.302 1666.97C877.327 1664.06 884.817 1659.15 889.132 1652.53L885.734 1643.82C882.907 1637.52 870.915 1614.17 875.014 1608.11L876.738 1608.55C884.53 1615.89 889.642 1634.9 893.216 1645.56C897.434 1633.12 902.465 1618.49 907.46 1606.47Z"/><path fill="#3B3A39" d="M118.47 1590.21C126.678 1589.89 156.644 1588.76 162.091 1593.15L161.871 1594.53C158.188 1598.15 145.251 1597.03 139.622 1596.98L139.685 1642.81C139.853 1649.25 140.503 1654.21 136.073 1659.29L134.795 1658.79C130.292 1650.16 132.222 1608.39 132.392 1596.97C126.025 1597.08 115.466 1597.72 110.433 1593.26L110.372 1592.07C112.754 1590.11 115.393 1590.34 118.47 1590.21Z"/><path fill="#3B3A39" d="M405.099 1588.23C410.481 1587.55 412.773 1587.03 417.604 1589.61L418.031 1591.09C415.41 1593.59 406.001 1596.63 401.417 1599.1C399.805 1601.47 400.275 1600.43 399.961 1603.63C403.526 1610.15 410.357 1607.71 413.72 1611.19C410.04 1614.5 405.087 1613.76 399.993 1613.81L400.118 1646.93C400.552 1651.51 400.658 1656.39 396.364 1658.89C388.712 1654.85 396.517 1625.34 390.605 1614.37C388.757 1613.44 388.796 1613.45 387.298 1612.02L387.306 1609.99C393.115 1601.64 396.871 1593.53 405.099 1588.23Z"/><path fill="#3B3A39" d="M241.911 1697.69C242.238 1697.74 243.772 1698 244.137 1698.16C249.999 1700.59 261.156 1732.99 259.588 1736.94L257.983 1737.31C252.958 1732.63 255.334 1725.89 248.221 1724.72C244.555 1724.72 240.356 1724.45 236.651 1724.29C235.158 1729.01 233.6 1734.68 229.334 1737.62C227.161 1731.35 239.018 1704.88 241.911 1697.69ZM247.25 1721.08L249.302 1720.07C249.817 1715.86 246.593 1706.73 244.06 1703.75C242.488 1707.4 239.159 1713.87 239.399 1717.51C241.265 1721.63 242.937 1720.9 247.25 1721.08Z"/><path fill="#3B3A39" d="M194.139 1606.73C197.806 1606.77 203.136 1608.27 203.57 1612.43C198.037 1619.29 191.637 1610.39 180.538 1623.43C179.989 1633.42 181.952 1645.92 179.697 1655.5C179.141 1657.86 176.608 1658.33 174.526 1659.08C173.152 1653.47 172.149 1612.98 173.424 1607.82C176.533 1606.54 177.71 1607.83 179.628 1609.91C180.064 1612.38 180.028 1613.27 181.358 1615.32C183.856 1615.03 188.83 1609.57 194.139 1606.73Z"/><path fill="#3B3A39" d="M349.52 1704.1C353.8 1712.56 356.231 1722 359.04 1731.03C361.149 1720.5 363.634 1711.96 370.456 1703.36C369.591 1711.69 365.889 1730.41 359.807 1736.18L358.13 1736.13C352.863 1730.8 352.358 1722.32 349.29 1715.82L348.492 1716.37C345.66 1724.86 342.94 1733.43 338.642 1741.31C334.919 1732.36 328.633 1717.47 329.678 1707.81L330.724 1707.4C336.663 1712.49 338.066 1723.63 339.301 1731.06C342.487 1722 345.206 1712.69 349.52 1704.1Z"/><path fill="#3B3A39" d="M531.859 1697.89C538.801 1700.25 540.069 1708.43 542.432 1714.67C544.917 1721.23 548.444 1729.18 548.334 1736.28C544.1 1737.4 544.314 1727.63 537.874 1724.97L526.532 1724.84C525.225 1729.82 524.814 1734.46 519.807 1736.91C517.687 1731.65 529.332 1704.37 531.859 1697.89ZM536.919 1721.78L538.752 1720.47C539.543 1715.2 535.803 1708.44 533.744 1703.62C531.964 1707.94 528.98 1713.27 529.167 1717.99C529.791 1719.41 529.952 1720.58 531.515 1721.23C533.058 1721.86 535.261 1721.73 536.919 1721.78Z"/><path fill="#3B3A39" d="M678.337 1711.44C680.728 1710.25 683.163 1709.07 685.643 1708.09C687.997 1707.15 690.802 1706.93 693.121 1708.12C695.494 1709.34 696.641 1711.71 697.282 1714.19C699.077 1721.11 699.372 1731.5 695.648 1737.79L694.583 1737.71C690.676 1730.31 695.227 1719.03 689.963 1711.53C688.814 1709.9 688.336 1709.96 686.493 1709.64C685.168 1710.16 684.315 1710.79 683.317 1711.79C679.534 1715.58 679.759 1718.7 679.715 1723.8C679.931 1728.28 680.661 1732.33 677.909 1736.18L676.668 1736.36C674.135 1730.68 675.413 1723.33 673.974 1717.23C673.283 1714.3 672.21 1712.15 669.553 1710.55C667.189 1710.43 666.811 1710.46 664.762 1711.62C660.284 1717.72 662.272 1725.47 660.906 1732.45C660.576 1734.14 660.314 1735.26 658.84 1736.19C657.339 1733.77 657.171 1730.78 656.928 1728.01C656.531 1723.47 655.498 1712.12 658.305 1708.81C659.413 1709.57 660.386 1710.13 661.621 1710.65L666.468 1706.98C671.101 1706.94 674.449 1709.21 678.337 1711.44Z"/><path fill="#3B3A39" d="M493.599 1607.71C497.37 1607.56 500.837 1606.63 502.613 1610.34C499.784 1614.74 495.623 1614.52 490.805 1615.08C478.301 1627.02 486.039 1640.96 482.414 1655.14C481.695 1657.95 479.621 1658.39 477.275 1659.42C474.896 1656.32 474.902 1614.13 476.508 1609.53C479.235 1608.45 478.08 1608.55 480.885 1609.06C482.8 1611.34 482.682 1614.15 483.022 1617.26C486.798 1612.51 488.53 1611 493.599 1607.71Z"/><path fill="#3B3A39" d="M715.471 1707.16C716.758 1707.07 718.005 1707.07 719.293 1707.18C723.511 1707.54 725.987 1709.17 728.624 1712.38C730.252 1714.36 731.533 1716.25 731.253 1718.93C726.319 1724.79 717.897 1721.96 711.576 1725.15C710.826 1725.53 710.79 1726.43 710.524 1727.19C710.715 1727.63 710.79 1727.83 711.032 1728.29C712.732 1731.51 715.618 1733 718.95 1734.01C721.677 1733.79 724.643 1733.09 726.876 1734.73L726.299 1736.17C723.574 1737.57 721.055 1738.12 717.994 1737.83C714.269 1737.47 710.842 1735.89 708.568 1732.82C705.902 1729.22 704.823 1723.61 705.738 1719.26C706.928 1713.59 710.834 1710.19 715.471 1707.16ZM724.272 1719.51L725.966 1718.11C726.01 1715.98 725.908 1715.42 724.321 1713.77C721.791 1711.15 718.431 1710.47 714.926 1710.48C713.341 1712.61 711.43 1714.65 711.505 1717.46C712.828 1719.1 713.312 1719.53 715.568 1719.79C718.316 1720.12 721.504 1719.69 724.272 1719.51Z"/><path fill="#3B3A39" d="M470.105 1707.09C472.647 1707.01 475.469 1707.45 477.876 1708.29C481.788 1709.65 484.3 1712.25 486.135 1715.89C485.924 1725.69 469.664 1720.9 464.847 1727.1L465.408 1728.89C468.066 1731.38 470.5 1732.95 473.78 1734.53C476.106 1734.14 478.249 1733.66 480.582 1734.29C481.272 1734.48 481.325 1734.96 481.669 1735.55C478.935 1737.36 474.825 1737.75 471.585 1737.53C468.452 1737.31 465.331 1736.16 463.339 1733.61C460.624 1730.15 460.316 1725.56 460.915 1721.37C461.853 1714.8 464.94 1711 470.105 1707.09ZM478.286 1719.58C480.184 1718.68 480.476 1718.82 481.297 1716.79C480.452 1714.26 478.199 1712.27 475.775 1711.16C474.192 1710.44 472.272 1710.5 470.57 1710.52C468.65 1712.68 466.572 1714.47 466.295 1717.47C467.586 1719.13 468.121 1719.47 470.263 1719.76C472.812 1720.1 475.713 1719.73 478.286 1719.58Z"/><path fill="#3B3A39" d="M418.651 1707.14C419.079 1707.12 419.507 1707.12 419.935 1707.13C424.807 1707.31 428.074 1708.48 431.385 1712.16C433.104 1714.07 434.569 1715.98 434.417 1718.68C429.638 1724.57 420.42 1721.83 414.144 1725.4C413.626 1726.7 413.224 1727 413.788 1728.3C415.237 1731.63 418.264 1732.89 421.399 1734.16C424.714 1734.02 426.616 1733.46 429.51 1735.17L429.361 1736.43C426.509 1737.96 422.713 1737.98 419.571 1737.46C416.085 1736.87 413.031 1735.25 411.013 1732.25C408.63 1728.71 408.391 1724.12 409.185 1720.04C410.39 1713.85 413.577 1710.59 418.651 1707.14ZM426.566 1719.64L428.765 1718.18C429.005 1716.46 429.223 1715.96 428.075 1714.48C426.119 1711.97 422.948 1710.8 419.89 1710.55C419.664 1710.53 419.439 1710.5 419.213 1710.49C419.076 1710.48 418.94 1710.48 418.803 1710.48C416.975 1712.54 415.068 1714.25 414.675 1717.09C415.59 1718.66 415.683 1718.95 417.416 1719.51C419.934 1720.32 423.878 1719.75 426.566 1719.64Z"/><path fill="#3B3A39" d="M377.679 1694.5C379.28 1695.28 379.875 1695.92 381.185 1697.07C382.755 1700.99 381.445 1706.43 380.893 1710.83C383.535 1709.56 388.293 1707.24 391.186 1707.07C393.551 1706.94 395.854 1707.86 397.484 1709.58C402.203 1714.47 403.497 1730.38 398.668 1734.76L397.383 1733.66C395.787 1729.25 396.333 1722.07 396.402 1717.15C395.259 1713.67 392.287 1709.43 388.399 1709.31C381.055 1713.22 381.956 1728.39 378.835 1736.32L379.115 1735.27L377.912 1734.46C376.342 1722.95 377.31 1706.43 377.679 1694.5Z"/><path fill="#3B3A39" d="M600.697 1730.78C602.158 1726.71 603.665 1722.65 605.217 1718.6C606.557 1715.21 609.209 1708.95 612.692 1707.46C614.537 1712.35 609.079 1722.66 607.111 1727.26C605.097 1731.83 602.878 1736.45 599.872 1740.47C597.597 1743.51 594.074 1747.36 590.227 1747.86C589.161 1745.33 589.987 1744.04 592.116 1742.4C593.556 1741.28 595.957 1739.8 596.736 1738.14C599.834 1731.51 588.845 1718.16 588.544 1710.69C588.493 1709.42 588.785 1708.12 589.105 1706.9C595.389 1711.05 598.443 1723.96 600.697 1730.78Z"/><path fill="#3B3A39" d="M298.429 1706.88C299.045 1707.02 299.646 1707.18 300.229 1707.43C306.137 1710.02 309.394 1724.1 311.401 1730C313.329 1723.01 315.284 1714.01 320.775 1708.91L321.723 1709.67C321.94 1715.63 319.642 1720.55 317.546 1726.01C316.361 1729.37 314.909 1732.7 313.056 1735.75C310.799 1739.47 306.637 1743.8 302.318 1744.9L301.464 1743.83C302.563 1740.43 305.879 1738.09 308.488 1735.8C305.316 1726.41 300.281 1716.55 298.429 1706.88Z"/><path fill="#3B3A39" d="M279.761 1707.02C281.836 1707.07 284.235 1707 286.102 1708.02C289.348 1709.78 291.256 1713.39 292.232 1716.82C293.893 1722.66 293.985 1731.34 290.982 1736.77L289.749 1736.89C285.081 1729.92 290.681 1721.9 287.046 1715.22C285.519 1712.42 283.303 1711.58 280.432 1710.7L279.528 1710.43C266.554 1717.15 277.113 1728.55 272.243 1735.86C271.52 1736.94 271.136 1736.76 269.951 1737.06C266.669 1733.18 267.787 1720.42 268.022 1715.52C268.136 1713.15 268.192 1711.98 269.933 1710.34C273.679 1710.24 275.788 1709.74 278.92 1707.61L279.761 1707.02Z"/><path fill="#3B3A39" d="M567.683 1707.04C569.371 1707 571.25 1706.88 572.901 1707.28C575.887 1707.99 578.234 1710.55 579.583 1713.2C582.702 1719.32 582.749 1728.48 580.604 1734.9C580.281 1735.87 579.972 1735.75 579.101 1736.18C574.079 1730.61 578.048 1723.87 576.245 1717.54C575.242 1714.02 573.213 1712.27 570.217 1710.49L569.438 1710.04C556.532 1713.78 565.918 1729.95 559.702 1736.36L558.569 1736.03C556.591 1730.31 556.02 1716.99 557.248 1711.06C559.832 1708.78 562.853 1710.03 567.683 1707.04Z"/><path fill="#9FA1A0" fill-opacity="0.90588236" d="M962.211 1041.25C965.1 1053.95 922.364 1183.8 914.348 1207.1C913.974 1205.65 914.027 1204.62 914.515 1203.15C932.139 1150.1 949.053 1095.6 962.211 1041.25Z"/><path fill="#3B3A39" d="M622.083 1699.87C626.452 1702.58 624.043 1700.73 626.011 1705.38C627.042 1707.82 629.866 1706.23 633.911 1707.98L634.427 1709.63C631.709 1712.52 627.112 1708.83 625.704 1714.73C623.645 1723.36 624.724 1731.7 633.311 1735.16C633.605 1736.4 633.4 1735.96 632.557 1737.64C616.991 1742.08 622.347 1719.61 621.049 1712.45C619.757 1711.48 618.431 1710.56 617.075 1709.68L617.366 1708.02L620.95 1706.6L622.083 1699.87Z"/><path fill="#9FA1A0" fill-opacity="0.7647059" d="M986.034 850.152C983.85 800.251 974.464 756.186 951.659 712.2C950.757 710.46 949.421 707.865 949.95 706.084C952.952 710.528 958.837 723.378 960.999 728.435C976.083 763.516 984.886 800.973 987.007 839.099C987.029 842.707 987.351 846.872 986.034 850.152Z"/><path fill="#3B3A39" d="M452.719 1707.02C454.544 1707.26 455.257 1707 456.442 1708.48C455.091 1712.36 448.313 1713.44 446.9 1717.28C444.437 1723.97 448.159 1730.23 444.812 1737.53L442.763 1736.73C441.854 1734.33 441.717 1732.02 441.585 1729.49C441.304 1724.15 440.36 1712.55 443.945 1708.56L447.123 1710.08C449.777 1709.83 450.726 1708.62 452.719 1707.02Z"/><path fill="#3B3A39" d="M641.883 1706.78C643.226 1707.37 644.204 1708.07 645.34 1708.99C649.433 1717.06 646.868 1729.55 646.07 1738.26C644.363 1737.84 643.702 1737.32 642.502 1736.05C639.308 1727.2 641.25 1716.06 641.883 1706.78Z"/><path fill="#B9B7BF" fill-opacity="0.40784314" d="M987.007 839.099C989.805 847.166 986.689 899.706 985.402 910.041C985.041 908 985.653 851.619 986.034 850.152C987.351 846.872 987.029 842.707 987.007 839.099Z"/><path fill="#9FA1A0" fill-opacity="0.8392157" d="M794.219 1425.29C794.982 1425.86 794.638 1425.51 794.913 1426.77C780.129 1447.25 765.535 1461.67 746.671 1478.32L746.128 1477.6C748.822 1473.59 759.865 1464.68 764.055 1460.21C774.719 1448.84 784.638 1437.61 794.219 1425.29Z"/><path fill="#9FA1A0" fill-opacity="0.85882354" d="M899.023 1244.74C900.746 1251.09 874.882 1302.47 869.843 1311.93C869.337 1310.7 869.679 1308.89 870.28 1307.75C881.002 1287.4 890.9 1266.3 899.023 1244.74Z"/><path fill="#3B3A39" d="M495.364 1729.19C496.258 1729.8 497.126 1730.13 497.558 1731.17C499.055 1734.75 494.953 1741.61 493.374 1744.93L491.691 1743.83C489.887 1738.85 493.273 1733.69 495.364 1729.19Z"/><defs><linearGradient id="gradient_0" gradientUnits="userSpaceOnUse" x1="534.23859" y1="1659.8726" x2="534.13623" y2="1663.6868"><stop offset="0" stop-color="white" stop-opacity="0"/><stop offset="1" stop-color="#E2DFDF" stop-opacity="0.019607844"/></linearGradient></defs><path fill="url(#gradient_0)" d="M540.305 1660.69L540.542 1660.75L541.414 1662.33L540.972 1663.66C533.744 1662.75 538.537 1664.43 529.949 1664.66L531.91 1662.4L529.555 1661.59L529.295 1660.96C532.966 1660.89 536.635 1660.8 540.305 1660.69Z"/><path fill="#9FA1A0" fill-opacity="0.87450981" d="M919.287 655.853C927.928 667.898 936.205 679.452 943.191 692.6L942.868 693.43L943.556 693.34L943.501 694.279L944.033 695.08C940.581 692.689 922.469 662.438 918.318 656.719L919.287 655.853Z"/><path fill="#9FA1A0" fill-opacity="0.92156863" d="M263.716 1338.62C254.017 1335.57 242.992 1329.97 234.63 1324.13C245.189 1328.66 253.798 1332.63 264.051 1337.82L263.716 1338.62Z"/></svg>