<?xml version="1.0" encoding="utf-8" ?><svg xmlns="http://www.w3.org/2000/svg" xmlns:xlink="http://www.w3.org/1999/xlink" width="1024" height="1820" viewBox="0 0 1024 1820"><path fill="#594D4E" d="M387.833 208.927C390.339 187.205 395.492 133.585 404.073 114.879C408.169 106.039 414.285 98.2842 421.927 92.2393C447.779 71.5417 492.007 78.6854 523.811 79.8373L636.971 83.6121L773.094 87.6572C830.291 89.3428 933.724 81.5385 937.381 162.424C938.054 177.311 935.308 194.721 933.605 209.687L925.458 280.551L904.457 469.809C900.955 501.514 895.295 542.226 893.184 573.121C908.776 597.665 923.933 622.665 935.194 649.847C980.269 758.651 984.841 889.662 960.787 1003.84C949.162 1059.02 919.109 1123.47 869.944 1153.69C854.395 1163.24 842.804 1167.67 825.047 1171.59C821.675 1200.55 818.489 1229.53 815.488 1258.53C812.695 1284.61 812.173 1328.77 789.65 1345.56C760.84 1367.04 714.579 1360.15 681.003 1357.32C660.296 1355.44 639.571 1353.77 618.831 1352.28C593.693 1368.59 567.177 1380.57 537.677 1386.37C552.892 1420.03 483.129 1406.34 468.733 1400.91C455.644 1396.54 446.887 1393.72 433.04 1394.8C417.826 1395.99 395.119 1399.36 393.74 1379.12C362.66 1375.5 336.439 1367.72 307.613 1356.46C302.311 1359.37 295.433 1361.06 289.56 1362.73C289.619 1365.1 289.665 1367.49 289.645 1369.83C289.491 1388.23 268.852 1389.95 254.897 1389.76C246.316 1389.64 238.155 1388.63 231.388 1383.57C227.132 1376.83 242.624 1346.63 244.594 1335.83L244.737 1334.99C234.82 1331.64 224.74 1328.42 215.227 1324.4C147.53 1295.76 91.9057 1233.12 82.8955 1158.71C76.7942 1108.32 85.6174 1057.58 116.908 1017.2C117.99 1014.73 117.112 996.134 116.999 992.127L117.897 987.088C118.029 992.899 117.958 1010.49 118.646 1015.22C126.146 1007.74 134.221 999.6 142.497 993.05C151.741 985.733 162.724 979.23 171.352 971.253L172.651 969.384L173.08 969.401L176.744 968.184C192.861 958.222 208.059 946.845 222.158 934.189C223.433 929.233 223.515 921.967 224.46 916.73C228.174 896.141 228.904 870.649 219.457 851.042L219.905 850.143L218.713 848.455C219.625 845.796 217.52 837.941 216.85 834.684C213.21 837.427 201.642 845.242 201.039 848.997L201.737 849.964C195.977 850.034 164.426 850.978 161.086 849.533C158.788 848.334 156.608 848.042 154.083 847.631C139.943 845.329 127.76 841.746 114.657 836.136C114.945 817.252 113.3 795.231 112.953 775.908C112.759 765.079 112.653 736.159 111.082 726.463C108.672 730.607 112.812 821.928 112.844 834.507C84.1946 818.502 61.7868 790.842 47.857 764.39C-2.50873 668.747 26.4506 556.81 81.838 470.499C81.7939 470.568 81.1417 467.991 81.6633 466.324L84.9783 466.151C90.2252 457.345 95.5572 448.894 101.95 440.869C102.714 428.79 98.4275 371.336 101.086 364.896C102.901 389.036 102.361 413.516 104.219 438.016C109.562 432.334 114.599 426.302 119.512 420.242C176.794 349.582 243.104 287.75 322.783 243.005C343.655 231.284 365.419 217.215 387.833 208.927ZM421.722 214.701C414.284 267.83 408.631 321.102 401.479 374.25C398.61 394.974 395.918 415.722 393.404 436.492C392.846 440.862 390.147 457.619 390.211 461.137L390.184 462.043C389.574 465.829 388.957 470.456 388.123 474.13C393.825 487.805 398.412 497.833 392.278 512.559C392.1 512.984 391.913 513.407 391.717 513.825C397.433 524.461 398.61 540.786 402.03 552.737C402.336 553.805 400.631 559.574 400.236 560.895L399.83 562.233C406.543 574.858 404.52 579.389 407.755 590.867C410.853 601.854 427.894 608.65 438.148 619.942L440.504 623.294C446.635 635.186 447.473 645.081 451.432 657.189C456.738 670.705 462.132 685.212 466.31 699.124C458.658 705.331 454.081 707.397 445.285 711.844C446.252 721.612 445.953 731.006 446.32 740.756C447.522 772.716 454.145 804.776 458.147 836.52C461.063 859.648 463.83 882.659 467.922 905.628C469.2 915.981 469.411 918.286 477.833 924.969C481.03 927.506 481.453 928.287 480.866 932.088C479.531 933.709 478.216 935.347 476.923 937.003C477.343 940.97 477.68 945.093 478.572 948.966C480.487 972.681 465.655 997.05 442.585 1004.42C446.25 1045.11 449.686 1085.25 457.076 1125.47C461.6 1150.1 460.12 1176.19 462.881 1201.05C466.92 1235.62 474.144 1269.97 479.474 1304.39C521.739 1307.01 563.98 1310.01 606.19 1313.39C620.15 1314.45 648.275 1317.55 661.16 1317.6C685.214 1318.89 711.532 1324.83 732.847 1309.36C765.733 1285.48 761.312 1222.98 767.643 1183.41C777.207 1103.62 785.318 1021.99 794.077 941.994L840.772 515.33C843.162 502.867 844.492 480.054 845.908 466.307L855.87 373.762L869.443 246.234C871.867 222.783 875.359 197.729 874.799 174.2C874.532 162.983 862.95 149.595 854.722 142.556C846.48 135.505 837.328 133.427 826.775 132.937C797.426 130.736 767.971 130.814 738.57 129.506C729.656 129.109 719.939 128.61 711.084 129.427C708.566 134.138 705.495 141.161 699.573 141.636C678.889 143.256 658.154 140.641 637.323 141.174C629.74 141.367 617.418 140.879 610.959 136.662C607.168 134.186 607.122 129.61 606.73 125.457C580.5 123.971 554.305 123.441 528.019 122.563C508.289 122.077 489.199 119.207 469.494 121.897C427.662 127.608 427.269 163.714 423.995 196.562L421.722 214.701ZM250.113 830.738L248.069 807.909L247.238 807.782L243.776 810.44C236.516 816.48 226.607 825.086 219.984 831.688C222.349 842.615 231.154 883.852 235.712 893.901C241.643 882.36 246.825 846.151 250.113 830.738ZM286.859 1362.27C269.382 1362.28 253.444 1365.58 245.606 1346.87C243.561 1351.74 237.551 1363.84 239.007 1368.59C244.717 1377.16 268.619 1378.16 277.396 1375.22C281.946 1370.68 283.968 1368.06 286.859 1362.27ZM650.815 1328.18C645.723 1332.12 638.287 1337.55 633.719 1341.76C648.797 1341.88 683.906 1345.46 698.807 1347.29C768.475 1355.84 774.313 1325.87 779.236 1266.54C781.143 1243.56 785.01 1205.25 788.861 1180.53C785.259 1180.87 782.208 1181.15 778.59 1181.21C776.614 1198.57 774.867 1215.95 773.348 1233.35C770.35 1265.01 769.489 1295.28 742.768 1317.17C718.358 1337.17 680.825 1331.18 650.815 1328.18ZM860.747 532.078C860.841 531.562 860.96 530.956 861.017 530.436C869.764 450.413 878.138 370.26 886.907 290.249L896.025 206.066C897.635 190.809 900.347 172.851 899.846 157.757C898.889 128.967 877.925 104.82 848.766 101.797C825.671 99.4034 802.318 99.9516 779.006 99.3056L651.802 95.3741L530.064 91.5545C507.308 90.7894 485.423 88.9503 462.591 90.0042C408.045 92.5218 407.828 137.881 402.84 179.651L395.913 236.046C400.357 232.828 405.098 228.083 409.157 224.26C410.775 212.471 412.229 200.66 413.518 188.83C416.219 165.123 418.648 136.787 439.717 121.702C465.527 103.222 508.088 110.092 538.289 111.287L648.871 115.283L766.672 119.033C789.347 119.678 812.986 119.574 835.531 121.972C859.547 124.526 886.816 153.221 886.942 177.606C887.022 192.869 884.7 210.53 883.063 225.824L874.177 307.949L857.421 463.96C855.395 482.048 853.994 502.383 851.448 520.019C851.364 520.613 851.273 521.206 851.176 521.798C854.228 525.114 857.583 528.937 860.747 532.078ZM304.114 1353.86C292.936 1348.4 261.657 1338.81 249.318 1336.89C250.243 1359.83 266.68 1358.67 285.374 1358.4C290.893 1358.32 299.471 1356.65 304.114 1353.86ZM272.417 1383.64C275.119 1383.37 277.737 1382.55 280.112 1381.23C282.667 1379.81 283.544 1378.58 284.293 1375.86C281.918 1375.53 274.98 1379.87 271.923 1380.5C268.763 1381.15 265.259 1381.07 262.06 1381.07C251.373 1379.82 240.589 1374.88 236.634 1374.6C234.844 1377.81 235.127 1376.47 235.113 1379.84C239.198 1387.43 265 1385.88 272.417 1383.64ZM235.522 914.544C234.324 908.386 232.764 899.083 231.04 893.33C229.881 901.692 227.542 916.239 227.543 924.276C229.856 920.788 232.75 917.686 235.522 914.544Z"/><path fill="#D6CCC1" d="M104.219 438.016C109.562 432.334 114.599 426.302 119.512 420.242C176.794 349.582 243.104 287.75 322.783 243.005C343.655 231.284 365.419 217.215 387.833 208.927C387.17 216.177 383.91 248.342 381.697 254.041C341.323 303.307 332.029 374.2 332.473 436.296C317.796 438.51 308.683 440.151 298.76 452.995C296.84 455.48 292.739 462.463 291.938 465.165C288.716 476.041 274.496 512.722 273.589 521.374L274.264 522.133L277.467 518.929L278.207 519.389C279.772 548.915 259.595 537.912 258.015 557.598C257.191 567.865 266.986 566.981 251.81 579.078C253.272 586.477 251.126 595.981 249.137 603.3L248.175 604.024C245.99 605.085 235.426 610.386 233.741 610.92C203.683 631.503 204.36 689.321 201.361 723.017C203.15 725.214 204.587 726.915 206.542 728.993C210.415 761.159 210.404 805.039 216.85 834.684C213.21 837.427 201.642 845.242 201.039 848.997L201.737 849.964C195.977 850.034 164.426 850.978 161.086 849.533C158.788 848.334 156.608 848.042 154.083 847.631C139.943 845.329 127.76 841.746 114.657 836.136C114.945 817.252 113.3 795.231 112.953 775.908C112.759 765.079 112.653 736.159 111.082 726.463C108.672 730.607 112.812 821.928 112.844 834.507C84.1946 818.502 61.7868 790.842 47.857 764.39C-2.50873 668.747 26.4506 556.81 81.838 470.499C81.7939 470.568 81.1417 467.991 81.6633 466.324L84.9783 466.151C90.2252 457.345 95.5572 448.894 101.95 440.869C102.714 428.79 98.4275 371.336 101.086 364.896C102.901 389.036 102.361 413.516 104.219 438.016Z"/><path fill="#BCB6B6" d="M101.95 440.869C102.714 428.79 98.4275 371.336 101.086 364.896C102.901 389.036 102.361 413.516 104.219 438.016C103.556 446.748 103.118 459.087 106.613 466.871L106.348 467.618C102.782 477.929 108.194 564.571 107.751 580.202C107.596 585.674 108.946 601.209 107.396 606.587C106.453 596.146 106.082 585.077 105.902 574.572C105.29 539.046 102.697 503.007 103.037 467.505C98.1806 467.519 85.4803 467.969 81.6633 466.324L84.9783 466.151C90.2252 457.345 95.5572 448.894 101.95 440.869Z"/><path fill="#D6CCC1" d="M101.95 440.869C102.376 448.085 103.28 458.451 103.121 465.433C98.1391 465.72 89.6102 466.428 84.9783 466.151C90.2252 457.345 95.5572 448.894 101.95 440.869Z"/><defs><linearGradient id="gradient_0" gradientUnits="userSpaceOnUse" x1="232.93312" y1="604.07794" x2="233.75026" y2="610.87555"><stop offset="0" stop-color="#C2B9B7"/><stop offset="1" stop-color="#E5D8CB"/></linearGradient></defs><path fill="url(#gradient_0)" d="M233.741 610.92C230.025 612.209 229.172 611.547 226.376 609.311L226.665 609.999L226.298 608.448L227.465 606.835C234.63 603.188 240.073 604.003 248.175 604.024C245.99 605.085 235.426 610.386 233.741 610.92Z"/><path fill="#DC9EC7" d="M893.184 573.121C908.776 597.665 923.933 622.665 935.194 649.847C980.269 758.651 984.841 889.662 960.787 1003.84C949.162 1059.02 919.109 1123.47 869.944 1153.69C854.395 1163.24 842.804 1167.67 825.047 1171.59C831.071 1123.61 836.121 1074.42 841.581 1026.31L873.629 743.832L886.025 634.395C888.273 614.562 890.307 592.661 893.184 573.121Z"/><path fill="#DC9EC7" d="M222.158 934.189C223.966 944.548 223.389 955.513 225.421 967.09L226.426 970.434C229.319 992.795 234.367 1016.55 237.845 1039.18C240.411 1055.87 241.41 1077.83 244.269 1093.33L243.638 1094.93C247.234 1130.75 243.183 1171.56 240.38 1207.64C238.312 1234.25 218.428 1278.52 243.624 1299.48C243.553 1283.61 243.221 1266.72 244.139 1250.98C247.852 1268.26 246.09 1315.9 244.737 1334.99C234.82 1331.64 224.74 1328.42 215.227 1324.4C147.53 1295.76 91.9057 1233.12 82.8955 1158.71C76.7942 1108.32 85.6174 1057.58 116.908 1017.2C117.99 1014.73 117.112 996.134 116.999 992.127L117.897 987.088C118.029 992.899 117.958 1010.49 118.646 1015.22C126.146 1007.74 134.221 999.6 142.497 993.05C151.741 985.733 162.724 979.23 171.352 971.253L172.651 969.384L173.08 969.401L176.744 968.184C192.861 958.222 208.059 946.845 222.158 934.189Z"/><path fill="#DC9EC7" d="M222.158 934.189C223.966 944.548 223.389 955.513 225.421 967.09C222.383 969.336 180.22 969.925 176.744 968.184C192.861 958.222 208.059 946.845 222.158 934.189Z"/><path fill="#C594CC" d="M116.999 992.127L117.897 987.088C118.029 992.899 117.958 1010.49 118.646 1015.22C119.407 1024.23 122.37 1092 120.121 1096.86C118.568 1098.34 106.294 1096.25 103.644 1095.91C104.51 1095.03 113.25 1094.87 115.093 1094.86C116.408 1094.85 117.724 1094.85 119.039 1094.86C119.014 1077.7 118.974 1033.51 116.908 1017.2C117.99 1014.73 117.112 996.134 116.999 992.127Z"/><path fill="#C594CC" d="M225.421 967.09L226.426 970.434C217.83 970.562 178.855 972.172 173.08 969.401L176.744 968.184C180.22 969.925 222.383 969.336 225.421 967.09Z"/><path fill="#C594CC" d="M243.638 1094.93C240.161 1094.7 232.663 1096 230.187 1093.56C234.69 1092.17 239.534 1092.94 244.269 1093.33L243.638 1094.93Z"/><path fill="#F2AD73" d="M332.473 436.296C332.029 374.2 341.323 303.307 381.697 254.041C377.329 290.095 372.1 326.662 367.284 362.702C363.985 387.391 360.788 416.365 355.961 440.38C347.275 437.731 341.743 436.318 332.473 436.296Z"/><path fill="#DC9EC7" d="M486.395 1341.65C527.071 1343.92 578.654 1347.69 618.831 1352.28C593.693 1368.59 567.177 1380.57 537.677 1386.37C525.982 1373.66 507.116 1377.55 486.069 1356.35C486.65 1350.54 486.584 1347.4 486.395 1341.65Z"/><path fill="#DC9EC7" d="M315.532 1325.72C339.63 1328.24 363.787 1330.16 387.979 1331.5C388.62 1344.76 387.942 1356.22 397.28 1366.52C396.492 1369.39 394.709 1376.67 393.74 1379.12C362.66 1375.5 336.439 1367.72 307.613 1356.46C315.348 1345.15 315.748 1339.56 315.532 1325.72Z"/><path fill="#594D4E" d="M423.995 196.562C451.077 180.223 505.119 166.369 536.968 169.988C613.837 174.003 675.242 216.789 670.881 299.386C670.616 303.984 670.241 308.576 669.756 313.156C671.506 315.565 676.734 318.023 679.529 319.499C700.344 330.495 708.637 349.953 700.612 372.463C701.576 375.025 703.03 378.559 703.648 381.107C699.398 399.643 680.49 420.384 688.525 436.93C703.573 439.202 719.505 441.894 733.936 446.768C769.479 458.773 812.775 489.6 840.772 515.33L794.077 941.994C785.318 1021.99 777.207 1103.62 767.643 1183.41L751.211 1186.08C740.739 1202.58 737.994 1220.29 743.056 1238.93C747.242 1254.34 747.848 1262.85 748.896 1278.5C737.754 1295.2 721.228 1309.27 700.194 1309.92C688.979 1309.46 683.364 1306.45 676.955 1297.34C671.817 1304.22 666.233 1310.81 661.16 1317.6C648.275 1317.55 620.15 1314.45 606.19 1313.39C563.98 1310.01 521.739 1307.01 479.474 1304.39C474.144 1269.97 466.92 1235.62 462.881 1201.05C460.12 1176.19 461.6 1150.1 457.076 1125.47C449.686 1085.25 446.25 1045.11 442.585 1004.42C465.655 997.05 480.487 972.681 478.572 948.966C477.68 945.093 477.343 940.97 476.923 937.003C478.216 935.347 479.531 933.709 480.866 932.088C481.453 928.287 481.03 927.506 477.833 924.969C469.411 918.286 469.2 915.981 467.922 905.628C463.83 882.659 461.063 859.648 458.147 836.52C454.145 804.776 447.522 772.716 446.32 740.756C445.953 731.006 446.252 721.612 445.285 711.844C454.081 707.397 458.658 705.331 466.31 699.124C462.132 685.212 456.738 670.705 451.432 657.189C447.473 645.081 446.635 635.186 440.504 623.294L438.148 619.942C427.894 608.65 410.853 601.854 407.755 590.867C404.52 579.389 406.543 574.858 399.83 562.233L400.236 560.895C400.631 559.574 402.336 553.805 402.03 552.737C398.61 540.786 397.433 524.461 391.717 513.825C391.913 513.407 392.1 512.984 392.278 512.559C398.412 497.833 393.825 487.805 388.123 474.13C388.957 470.456 389.574 465.829 390.184 462.043L390.211 461.137C390.147 457.619 392.846 440.862 393.404 436.492C395.918 415.722 398.61 394.974 401.479 374.25C408.631 321.102 414.284 267.83 421.722 214.701L423.995 196.562ZM686.604 1286.48C694.45 1289.14 710.08 1288.53 706.799 1276.79C704.436 1275.25 697.915 1276.32 694.665 1276.58C690.342 1279.07 688.891 1282.05 686.604 1286.48ZM670.446 318.427C668.885 332.454 665.796 348.584 675.348 360.528C680.407 366.855 688.443 368.014 695.777 365.504C706.785 345.888 687.779 324.801 670.446 318.427ZM681.781 1290.28L678.153 1290.82C681.164 1303.73 699.884 1310.28 711.112 1302.88C723.663 1294.61 721.755 1277.92 718.428 1265.17C717.334 1260.98 716.205 1252.91 714.043 1249.52L712.95 1249.69L711.459 1253.11C711.64 1258.72 711.664 1260.76 713.264 1266.15C704.558 1284.96 716.301 1297.25 681.781 1290.28ZM689.95 1264.85C693.308 1271.62 703.22 1275.22 708.689 1269.45C709.862 1266.78 709.601 1266.21 708.904 1263.33C705.948 1265.25 700.082 1269.21 696.797 1268.77C693.858 1267.28 692.592 1264.75 690.774 1261.98L689.659 1260.64L689.95 1264.85Z"/><path fill="#F2AD73" d="M423.995 196.562C451.077 180.223 505.119 166.369 536.968 169.988C613.837 174.003 675.242 216.789 670.881 299.386C670.616 303.984 670.241 308.576 669.756 313.156L668.652 314.032C641.696 308.582 612.769 319.091 607.16 348.58C606.952 349.685 606.798 350.801 606.698 351.921C596.514 364.958 614.092 372.623 621.001 383.228C617.064 380.014 611.022 374.088 606.08 374.262C595.195 382.863 613.616 401.524 618.628 408.438C620.002 410.332 621.387 415.467 622.08 417.805C619.439 425.823 615.37 441.515 614.891 449.917L613.45 453.19L610.295 454.748C590.735 464.158 558.227 471.189 548.855 489.79L547.649 493.066C543.567 507.397 519.688 587.218 523.558 593.697C524.393 595.096 526.129 596.202 527.413 597.18L522.725 598.248C521.031 599.04 520.586 598.893 519.729 600.212C497.797 619.052 472.007 637.187 451.432 657.189C447.473 645.081 446.635 635.186 440.504 623.294L438.148 619.942C427.894 608.65 410.853 601.854 407.755 590.867C404.52 579.389 406.543 574.858 399.83 562.233L400.236 560.895C400.631 559.574 402.336 553.805 402.03 552.737C398.61 540.786 397.433 524.461 391.717 513.825C391.913 513.407 392.1 512.984 392.278 512.559C398.412 497.833 393.825 487.805 388.123 474.13C388.957 470.456 389.574 465.829 390.184 462.043L390.211 461.137C390.147 457.619 392.846 440.862 393.404 436.492C395.918 415.722 398.61 394.974 401.479 374.25C408.631 321.102 414.284 267.83 421.722 214.701L423.995 196.562Z"/><path fill="#F2AD73" d="M432.035 460.362C467.867 459.596 508.452 458.828 544.076 456.698C545.864 468.396 544.656 480.749 547.649 493.066C543.567 507.397 519.688 587.218 523.558 593.697C524.393 595.096 526.129 596.202 527.413 597.18L522.725 598.248C520.201 598.148 517.518 598.356 514.99 598.46C490.164 599.481 464.951 602.336 440.114 601.599C436.877 580.073 436.611 552.052 435.41 529.946C434.218 507.976 431.84 482.005 432.035 460.362Z"/><path fill="#F2AD73" d="M390.184 462.043C403.474 462.175 416.764 461.873 430.034 461.136C430.412 483.54 432.459 506.629 433.624 529.095C434.854 552.814 434.875 578.074 437.484 601.6C433.722 601.651 428.989 601.524 425.428 602.379L424.716 603.434L425.09 602.481L423.952 603.226C427.669 604.669 433.718 604.221 437.919 604.217L438.148 619.942C427.894 608.65 410.853 601.854 407.755 590.867C404.52 579.389 406.543 574.858 399.83 562.233L400.236 560.895C400.631 559.574 402.336 553.805 402.03 552.737C398.61 540.786 397.433 524.461 391.717 513.825C391.913 513.407 392.1 512.984 392.278 512.559C398.412 497.833 393.825 487.805 388.123 474.13C388.957 470.456 389.574 465.829 390.184 462.043Z"/><path fill="#DC9EC7" d="M429.69 459.301L426.049 393.201C425.145 378.377 423.157 357.805 424.758 343.4C429.079 376.824 429.655 423.581 432.123 458.492C462.038 459.315 513.202 456.109 544.003 454.611C543.995 430.952 541.401 405.798 540.862 382.036C540.643 372.374 539.5 361.173 540.091 351.626C544.326 366.137 545.716 435.536 545.914 453.978C561.194 454.508 601.91 450.188 613.45 453.19L610.295 454.748C590.735 464.158 558.227 471.189 548.855 489.79L547.649 493.066C544.656 480.749 545.864 468.396 544.076 456.698C508.452 458.828 467.867 459.596 432.035 460.362C431.84 482.005 434.218 507.976 435.41 529.946C436.611 552.052 436.877 580.073 440.114 601.599C464.951 602.336 490.164 599.481 514.99 598.46C517.518 598.356 520.201 598.148 522.725 598.248C521.031 599.04 520.586 598.893 519.729 600.212C497.797 619.052 472.007 637.187 451.432 657.189C447.473 645.081 446.635 635.186 440.504 623.294L438.148 619.942L437.919 604.217C433.718 604.221 427.669 604.669 423.952 603.226L425.09 602.481L424.716 603.434L425.428 602.379C428.989 601.524 433.722 601.651 437.484 601.6C434.875 578.074 434.854 552.814 433.624 529.095C432.459 506.629 430.412 483.54 430.034 461.136C416.764 461.873 403.474 462.175 390.184 462.043L390.211 461.137C393.375 459.81 424.44 459.437 429.69 459.301Z"/><path fill="#F2AD73" d="M439.938 603.497C464.553 603.922 494.932 601.712 519.729 600.212C497.797 619.052 472.007 637.187 451.432 657.189C447.473 645.081 446.635 635.186 440.504 623.294C441.256 618.733 440.299 608.621 439.938 603.497Z"/><path fill="#F2AD73" d="M546.571 455.993C563.039 455.996 597.945 452.973 610.295 454.748C590.735 464.158 558.227 471.189 548.855 489.79C547.145 482.308 546.78 464.441 546.571 455.993Z"/><path fill="#D6CCC1" d="M423.995 196.562C451.077 180.223 505.119 166.369 536.968 169.988C481.353 175.413 467.807 179.458 421.722 214.701L423.995 196.562Z"/><path fill="#DC9EC7" d="M533.175 833.989C533.386 836.001 534.168 842.314 534.052 843.969C536.752 862.904 538.485 881.705 541.545 900.632C550.003 952.949 557.421 1005.43 564.059 1058C566.59 1077.61 568.869 1097.26 570.897 1116.93C572.622 1134.63 573.869 1152.62 577.251 1170.09C578.797 1178.08 581.785 1183.18 586.944 1189.31C586.606 1197.98 586.283 1206.76 584.914 1215.34C578.132 1223.86 569.416 1235.91 560.407 1242.29C550.569 1249.26 499.957 1256.73 526.555 1275.77C537.004 1283.25 556.813 1280.6 569.005 1278.56C591.585 1272.54 613.192 1267.53 636.344 1263.91C645.708 1262.45 649.285 1250.08 646.238 1242.01C644.315 1237.33 643.161 1220.27 641.273 1217.25C634.026 1205.67 634.131 1208.78 631.935 1193.72C638.461 1180.57 636.528 1166.49 636.544 1152.05C636.628 1139.13 636.914 1126.21 637.402 1113.31C638.239 1088.3 639.894 1063.4 640.99 1038.42C643.164 988.903 640.484 939.152 642.927 889.652C653.989 933.515 652.567 982.338 654.889 1027.5C656.853 1065.69 659.489 1105.47 658.14 1143.68C657.761 1154.41 653.025 1173.76 650.6 1184.68C658.2 1190.27 667.205 1195.58 676.192 1198.57C680.104 1219.27 678.693 1232.28 672.505 1252.34C667.83 1267.49 671.605 1282.82 676.955 1297.34C671.817 1304.22 666.233 1310.81 661.16 1317.6C648.275 1317.55 620.15 1314.45 606.19 1313.39C563.98 1310.01 521.739 1307.01 479.474 1304.39C474.144 1269.97 466.92 1235.62 462.881 1201.05C460.12 1176.19 461.6 1150.1 457.076 1125.47C449.686 1085.25 446.25 1045.11 442.585 1004.42C465.655 997.05 480.487 972.681 478.572 948.966C477.68 945.093 477.343 940.97 476.923 937.003C478.216 935.347 479.531 933.709 480.866 932.088C481.453 928.287 481.03 927.506 477.833 924.969C469.411 918.286 469.2 915.981 467.922 905.628C478.105 890.068 478.704 854.729 479.18 836.197C495.549 835.903 517.164 835.536 533.175 833.989Z"/><path fill="#F2AD73" d="M533.175 833.989C533.386 836.001 534.168 842.314 534.052 843.969C530.179 850.478 528.984 860.947 526.497 867.912C517.138 894.117 501.969 932.623 478.572 948.966C477.68 945.093 477.343 940.97 476.923 937.003C478.216 935.347 479.531 933.709 480.866 932.088C481.453 928.287 481.03 927.506 477.833 924.969C469.411 918.286 469.2 915.981 467.922 905.628C478.105 890.068 478.704 854.729 479.18 836.197C495.549 835.903 517.164 835.536 533.175 833.989Z"/><path fill="#C594CC" d="M548.015 1084.76C550.937 1084.75 550.936 1084.24 552.739 1085.64C553.954 1102.81 553.931 1121.51 554.835 1138.9C555.235 1146.6 556.701 1170.71 555.592 1176.7L554.877 1176.63C553.648 1173.83 553.378 1163.3 553.228 1159.74C552.644 1145.46 552.246 1131.16 552.035 1116.86C551.879 1108.84 552.817 1090.76 548.015 1084.76Z"/><path fill="#DC9EC7" d="M688.525 436.93C703.573 439.202 719.505 441.894 733.936 446.768C769.479 458.773 812.775 489.6 840.772 515.33L794.077 941.994C785.318 1021.99 777.207 1103.62 767.643 1183.41L751.211 1186.08C740.739 1202.58 737.994 1220.29 743.056 1238.93C747.242 1254.34 747.848 1262.85 748.896 1278.5C737.754 1295.2 721.228 1309.27 700.194 1309.92C707.472 1306.61 710.157 1307.6 717.379 1301.04C735.554 1284.51 716.808 1254.76 714.21 1236.46C713.022 1228.09 714.603 1207.66 714.998 1197.7C716.76 1197.06 721.519 1195.38 722.889 1194.42C725.057 1192.92 726.477 1190.55 726.791 1187.93C727.207 1184.54 725.648 1177.22 725.388 1173.46C723.636 1148.1 727.865 1122.84 727.999 1097.55C728.222 1055.42 725.2 1013.38 726.393 971.224C727.56 930.021 733.795 889.467 738.811 848.62C740.939 831.306 740.951 809.791 744.424 793.103C747.725 782.218 754.904 769.499 759.676 759.56C780.93 715.306 804.343 671.952 792.869 621.273C792.125 617.987 790.431 602.416 791.046 599.593C793.209 598.149 793.987 597.942 794.838 595.65C793.881 564.588 787.751 514.605 775.029 486.713C764.579 463.803 719.33 453.821 695.343 446.386C692.08 442.765 691.08 441.137 688.525 436.93Z"/><path fill="#DC9EC7" d="M527.413 597.18L531.639 599.162L508.57 672.633C504.709 685.263 500.927 699.866 496.868 712.137L495.613 713.553L496.08 714.343C495.449 725.884 488.268 755.499 486.041 768.033C481.802 791.886 480.643 810.342 478.765 834.286L479.18 836.197C478.704 854.729 478.105 890.068 467.922 905.628C463.83 882.659 461.063 859.648 458.147 836.52C454.145 804.776 447.522 772.716 446.32 740.756C445.953 731.006 446.252 721.612 445.285 711.844C454.081 707.397 458.658 705.331 466.31 699.124C462.132 685.212 456.738 670.705 451.432 657.189C472.007 637.187 497.797 619.052 519.729 600.212C520.586 598.893 521.031 599.04 522.725 598.248L527.413 597.18Z"/><path fill="#F2AD73" d="M496.868 712.137C507.254 711.978 518.103 711.651 528.452 711.843L527.969 713.587C528.03 727.123 526.647 743.132 527.068 755.791C527.857 779.521 530.01 808.864 533.352 832.309L533.175 833.989C517.164 835.536 495.549 835.903 479.18 836.197L478.765 834.286C480.643 810.342 481.802 791.886 486.041 768.033C488.268 755.499 495.449 725.884 496.08 714.343L495.613 713.553L496.868 712.137Z"/><path fill="#DC9EC7" d="M478.765 834.286C492.915 834.596 521.557 831.214 533.352 832.309L533.175 833.989C517.164 835.536 495.549 835.903 479.18 836.197L478.765 834.286Z"/><path fill="#C594CC" d="M496.868 712.137C507.254 711.978 518.103 711.651 528.452 711.843L527.969 713.587C517.198 713.674 506.851 713.734 496.08 714.343L495.613 713.553L496.868 712.137Z"/><path fill="#383333" d="M606.698 351.921C606.798 350.801 606.952 349.685 607.16 348.58C612.769 319.091 641.696 308.582 668.652 314.032L669.756 313.156C671.506 315.565 676.734 318.023 679.529 319.499C700.344 330.495 708.637 349.953 700.612 372.463L699.895 369.684L698.658 369.124C695.091 370.038 690.084 371.533 686.535 371.652C673.052 363.769 669.911 361.469 665.044 347.118C663.499 346.617 662.623 346.799 661.021 346.904C655.873 357.981 640.661 375.035 627.151 368.11L627.502 364.038L626.37 362.864C624.678 364.432 623.841 365.478 621.632 366.212C611.128 374.009 604.887 365.228 608.212 354.059L606.698 351.921ZM695.777 365.504C706.785 345.888 687.779 324.801 670.446 318.427C668.885 332.454 665.796 348.584 675.348 360.528C680.407 366.855 688.443 368.014 695.777 365.504Z"/><path fill="#F2AD73" d="M626.37 362.864C626.264 360.874 626.613 357.319 626.75 355.201C623.8 353.265 619.196 355.876 613.724 354.371C606.984 348.605 613.818 338.77 617.962 333.637C626.484 323.08 636.124 319.322 648.724 316.308C663.94 322.706 665.219 331.545 661.021 346.904C655.873 357.981 640.661 375.035 627.151 368.11L627.502 364.038L626.37 362.864Z"/><path fill="#F2AD73" d="M608.212 354.059C615.664 360.167 618.788 357.508 621.929 359.791C619.44 361.537 614.168 362.777 611.026 363.673C612.499 366.959 618.355 366.233 621.632 366.212C611.128 374.009 604.887 365.228 608.212 354.059Z"/><path fill="#F2AD73" d="M657.321 315.442C660.198 315.763 662.928 315.752 665.127 317.616C667.014 320.195 666.648 322.494 666.592 325.667C665.126 324.904 661.063 318.662 657.321 315.442Z"/><path fill="#F2AD73" d="M531.639 599.162L541.136 603.25C529.851 648.923 524.717 663.73 528.452 711.843C518.103 711.651 507.254 711.978 496.868 712.137C500.927 699.866 504.709 685.263 508.57 672.633L531.639 599.162Z"/><path fill="#DC9EC7" d="M665.044 347.118C669.911 361.469 673.052 363.769 686.535 371.652L685.863 374.818C665.602 369.416 656.087 395.039 646.812 379.043C650.415 373.783 654.786 367.131 656.744 361.076C658.661 358.468 663.055 350.374 665.044 347.118Z"/><path fill="#DC9EC7" d="M622.08 417.805C624.683 422.774 626.621 426.466 629.748 431.176L627.3 444.662L614.891 449.917C615.37 441.515 619.439 425.823 622.08 417.805Z"/><path fill="#F2AD73" d="M656.744 361.076C654.786 367.131 650.415 373.783 646.812 379.043C645.032 378.047 638.378 375.713 636.14 374.873C646.308 370.383 648.804 368.927 656.744 361.076Z"/><path fill="#FEECE2" d="M686.535 371.652C690.084 371.533 695.091 370.038 698.658 369.124C696.804 372.216 696.047 374.04 692.874 375.728C689.682 376.434 688.829 375.926 685.863 374.818L686.535 371.652Z"/><path fill="#DC9EC7" d="M656.058 738.725C669.385 737.627 679.101 735.624 692.144 732.562C694.006 766.31 701.629 790.876 727.419 814.028C730.596 816.85 733.812 819.628 737.065 822.362C736.604 828.273 736.012 834.559 735.712 840.447C716.521 825.225 700.671 812.023 673.659 814.057C671.475 814.222 671.263 814.332 669.88 815.565C673.019 818.742 690.931 818.813 696.68 820.47C709.93 824.289 720.268 832.739 730.736 841.192C721.072 841.915 707.116 842.604 698.117 845.085L697.256 846.241L695.789 845.983L697.469 845.34C696.617 846.137 696.888 846.119 695.892 846.426C704.579 848.659 725.982 845.225 735.329 843.876C731.213 881.342 725.045 919.525 723.338 957.076C720.353 1022.74 728.174 1088.33 721.503 1154C720.452 1164.35 723.105 1178.21 723.597 1188.8C699.383 1202.92 676.595 1197.89 654.442 1183.3C669.018 1128.63 659.107 1070.42 657.653 1014.65C657.052 991.566 656.003 968.208 654.723 945.176C652.607 907.096 640.83 870.644 636.041 833.014C632.903 808.358 670.659 812.429 679.358 802.455L679.162 801.242L679.623 801.733C671.847 799.039 633.86 813.033 632.383 822.905C629.334 843.294 639.697 865.417 638.965 886.473C637.063 941.163 640.164 996.354 636.915 1050.97C634.22 1096.27 632.848 1140.87 632.969 1186.24C610.617 1190.49 584.017 1196.64 580.454 1166.92C578.04 1146.79 575.486 1126.61 573.153 1106.45C568.864 1069.13 564.254 1031.83 559.323 994.584C555.462 966.836 551.346 939.123 546.976 911.451C545.35 901.089 540.613 875.306 540.411 865.422C540.964 865.186 541.516 864.946 542.067 864.701C568.383 852.975 574.328 819.443 579.329 794.198C580.209 789.757 581.003 785.047 582.679 780.838L582.978 780.107C589.251 770.719 590.396 751.758 591.2 740.103C600.333 740.647 611.78 741 620.703 741.977C617.35 776.523 604.366 868.593 618.793 898.241C619.302 879.917 615.282 865.113 616.096 845.779C617.54 811.503 624.201 775.111 624.011 741.162C631.454 740.976 644.37 740.77 651.672 739.292C651.17 749.053 648.2 789.409 653.421 795.743L654.526 795.393C655.849 791.412 655.072 748.298 656.058 738.725Z"/><path fill="#DC9EC7" d="M718.518 457.591C732.397 462.141 742.212 465.459 755.415 472.037C743.117 508.583 732.192 539.183 737.765 578.463C738.748 585.388 735.441 600.843 736.054 608.833C738.438 639.882 738.668 657.124 715.688 680.575C706.529 689.922 681.166 707.359 680.805 720.202C681.301 728.137 696.738 722.341 701.259 719.716C719.66 709.263 733.014 691.772 738.247 671.27C739.641 665.583 740.622 659.804 741.184 653.976C746.139 671.907 748.766 688.617 741.469 706.463C736.319 709.063 719.483 713.82 717.781 715.078C700.519 727.844 693.75 728.962 672.494 732.602C638.554 738.413 606.816 737.24 572.64 734.81C566.196 734.087 559.741 733.463 553.278 732.938C556.053 709.67 562.993 670.025 568.751 647.418L569.875 640.956C571.999 627.757 570.723 611.367 570.301 597.921C569.056 558.191 565.232 521.611 556.743 482.828C565.051 478.813 605.452 459.197 611.343 459.448C613.032 462.191 612.391 462.365 612.256 466.213C619 474.031 625.096 480.515 635.233 483.997C664.267 493.969 697.092 476.069 718.518 457.591Z"/><path fill="#F2AD73" d="M556.743 482.828C565.051 478.813 605.452 459.197 611.343 459.448C613.032 462.191 612.391 462.365 612.256 466.213C605.116 495.411 598.138 524.648 591.322 553.923C588.776 564.915 574.07 634.675 569.875 640.956C571.999 627.757 570.723 611.367 570.301 597.921C569.056 558.191 565.232 521.611 556.743 482.828Z"/><path fill="#F2AD73" d="M553.278 732.938C556.053 709.67 562.993 670.025 568.751 647.418C569.917 676.913 572.065 705.197 572.64 734.81C566.196 734.087 559.741 733.463 553.278 732.938Z"/><path fill="#DC9EC7" d="M782.143 601.162C784.679 600.77 783.486 600.631 785.855 601.57C789.682 606.894 790.648 637.58 791.486 646.173C792.79 659.532 789.918 673.687 786.062 686.477C775.308 722.142 758.166 755.381 741.169 788.39L735.508 779.764C730.897 772.376 726.426 764.902 722.097 757.345C725.338 754.06 728.282 750.494 730.895 746.691C760.233 704.302 761.132 650.489 752.31 601.619C762.253 602.171 772.222 602.019 782.143 601.162Z"/><path fill="#F2AD73" d="M556.326 736.646C560.155 737.155 564.339 737.441 568.216 737.778C561.673 758.099 553.751 776.709 549.057 797.857C559.693 783.675 566.211 755.741 572.079 738.288C577.3 738.983 582.735 739.227 588.004 739.557C585.898 751.902 582.808 767.889 582.978 780.107L582.679 780.838C581.003 785.047 580.209 789.757 579.329 794.198C574.328 819.443 568.383 852.975 542.067 864.701C541.516 864.946 540.964 865.186 540.411 865.422C537.097 839.832 534.245 805.627 532.199 779.785C540.615 765.617 548.66 751.232 556.326 736.646Z"/><path fill="#DC9EC7" d="M768.854 484.678C782.269 495.358 789.092 569.726 790.751 588.848C782.268 590.368 773.662 591.089 765.044 591.002C760.245 590.829 754.755 590.288 749.908 589.931C747.593 583.281 745.187 576.663 742.693 570.078C752.818 543.449 761.096 512.234 768.854 484.678Z"/><path fill="#F2AD73" d="M532.109 710.911C532.263 700.994 530.382 689.506 530.933 679.08C532.266 653.851 538.772 628.658 544.496 604.137C548.595 604.947 552.201 605.112 556.342 605.386L557.831 605.81C560.501 606.091 563.539 605.85 565.067 608.102C570.036 615.424 567.06 632.509 565.547 640.412C564.733 644.828 563.781 649.217 562.691 653.573C562.204 656.433 561.673 659.284 561.099 662.128C558.445 676.238 554.027 697.08 552.813 710.839L552.296 711.638C545.906 712.148 538.94 712.745 532.536 712.827L532.109 710.911Z"/><path fill="#F2AD73" d="M557.831 605.81C560.501 606.091 563.539 605.85 565.067 608.102C570.036 615.424 567.06 632.509 565.547 640.412C564.733 644.828 563.781 649.217 562.691 653.573C559.342 641.824 558.553 618.514 557.831 605.81Z"/><path fill="#DC9EC7" d="M556.342 605.386L557.831 605.81C558.553 618.514 559.342 641.824 562.691 653.573C562.204 656.433 561.673 659.284 561.099 662.128C558.132 651.848 556.027 616.401 556.342 605.386Z"/><path fill="#DC9EC7" d="M532.109 710.911C536.84 710.207 548.4 709.162 552.813 710.839L552.296 711.638C545.906 712.148 538.94 712.745 532.536 712.827L532.109 710.911Z"/><path fill="#F2AD73" d="M553.994 488.194C562.231 514.87 565.226 566.922 565.543 594.904C562.073 594.462 556.947 593.952 553.725 593.099L552.431 593.168C541.276 589.474 537.915 588.325 528.305 581.432C533.214 563.528 537.84 545.548 542.182 527.499C545.216 515.397 548.899 499.399 553.994 488.194Z"/><path fill="#DC9EC7" d="M552.431 593.168C550.887 570.687 546.251 528.981 548.813 507.878C551.228 524.518 551.715 542.838 552.561 559.697C553.064 569.715 554.226 583.386 553.725 593.099L552.431 593.168Z"/><path fill="#DC9EC7" d="M586.922 1219.77C601.332 1221.59 605.794 1235.95 627.786 1240.46C625.688 1244.27 624.003 1248.38 622.268 1252.38C603.825 1257.96 588.103 1262.89 568.858 1265.28C560.207 1266.88 533.104 1269.88 528.069 1262.04L528.845 1260.02C537.914 1251.62 561.078 1248.94 573.792 1244.04C579.245 1235.75 580.224 1228.01 586.922 1219.77Z"/><path fill="#DC9EC7" d="M640.71 408.698C643.619 406.313 645.456 404.672 648.114 402.014C649.558 403.447 649.591 404.733 650.089 406.821C652.589 401.381 652.712 394.745 655.671 390.006L656.699 389.693C659.409 394.449 658.371 405.769 660.905 408.749C673.447 401.717 674.85 415.848 688.636 399.692C686.646 414.595 683.151 425.887 670.714 435.66C656.952 446.475 641.128 441.833 632.019 427.727L628.897 422.959C624.042 414.387 623.205 410.571 621.354 401.241C625.355 404.941 626.559 406.144 631.288 408.708L640.71 408.698Z"/><path fill="#F2AD73" d="M621.354 401.241C625.355 404.941 626.559 406.144 631.288 408.708L640.71 408.698C638.016 415.027 635.351 421.745 632.019 427.727L628.897 422.959C624.042 414.387 623.205 410.571 621.354 401.241Z"/><path fill="#F4D6E5" d="M621.354 401.241C625.355 404.941 626.559 406.144 631.288 408.708C630.815 412.965 630.423 419.136 628.897 422.959C624.042 414.387 623.205 410.571 621.354 401.241Z"/><path fill="#383333" d="M651.9 418.752C656.677 418.421 665.269 418.418 666.2 424.49C664.449 426.936 662.794 427.008 659.816 427.843C654.2 427.809 648.677 427.992 644.433 423.871L644.489 422.179C646.374 419.946 649.075 419.531 651.9 418.752Z"/><path fill="#DC9EC7" d="M681.44 429.823C686.28 433.74 681.292 441.061 698.848 452.426C681.321 467.314 662.972 475.982 639.636 468.325C624.68 459.288 630.126 449.212 632.347 434.723C651.831 450.04 665.332 449.252 681.44 429.823Z"/><path fill="#DC9EC7" d="M590.215 1191C603.863 1193.97 614.898 1192.8 628.497 1190.55C631.678 1209.41 633.757 1217.17 629.591 1236.12C619.866 1240.3 601.494 1220.65 588.077 1215.83C589.544 1207.81 589.849 1199.13 590.215 1191Z"/><path fill="#DC9EC7" d="M700.613 730.188C704.502 731.667 715.71 754.125 718.493 759.041C725.223 770.676 732.309 782.101 739.741 793.3C739.282 799.728 738.673 810.292 736.377 816.117C714.715 797.389 702.065 778.724 697.549 749.861C696.143 740.878 692.567 736.8 700.613 730.188Z"/><path fill="#DC9EC7" d="M678.153 1290.82C671.857 1272.84 673.367 1260.74 678.535 1243.07C682.924 1251.11 684.831 1258.75 687.379 1267.46L689.95 1264.85C693.308 1271.62 703.22 1275.22 708.689 1269.45C709.862 1266.78 709.601 1266.21 708.904 1263.33C705.948 1265.25 700.082 1269.21 696.797 1268.77C693.858 1267.28 692.592 1264.75 690.774 1261.98C691.284 1260.36 691.306 1260.47 692.515 1259.26C695.803 1261.41 696.171 1263.6 699.854 1264.52C703.264 1263.55 702.445 1263.6 705.19 1260.76L708.993 1260.91C710.983 1259.01 710.099 1257.68 710.251 1253.86L711.459 1253.11C711.64 1258.72 711.664 1260.76 713.264 1266.15C704.558 1284.96 716.301 1297.25 681.781 1290.28L678.153 1290.82ZM686.604 1286.48C694.45 1289.14 710.08 1288.53 706.799 1276.79C704.436 1275.25 697.915 1276.32 694.665 1276.58C690.342 1279.07 688.891 1282.05 686.604 1286.48Z"/><path fill="#383333" d="M705.19 1260.76L708.993 1260.91C710.983 1259.01 710.099 1257.68 710.251 1253.86L711.459 1253.11C711.64 1258.72 711.664 1260.76 713.264 1266.15C704.558 1284.96 716.301 1297.25 681.781 1290.28C682.555 1287.5 684.19 1287.41 686.604 1286.48C694.45 1289.14 710.08 1288.53 706.799 1276.79C704.436 1275.25 697.915 1276.32 694.665 1276.58C690.579 1273.09 689.956 1272.2 687.379 1267.46L689.95 1264.85C693.308 1271.62 703.22 1275.22 708.689 1269.45C709.862 1266.78 709.601 1266.21 708.904 1263.33C705.948 1265.25 700.082 1269.21 696.797 1268.77C693.858 1267.28 692.592 1264.75 690.774 1261.98C691.284 1260.36 691.306 1260.47 692.515 1259.26C695.803 1261.41 696.171 1263.6 699.854 1264.52C703.264 1263.55 702.445 1263.6 705.19 1260.76Z"/><path fill="#DC9EC7" d="M706.731 1199.19C708.01 1198.85 708.761 1198.94 710.086 1198.92C714.416 1203.29 710.735 1229.43 710.092 1236.32C702.677 1233.84 698.233 1233 690.45 1232.86C687.508 1233.25 685.855 1233.65 682.918 1232.93C680.599 1228.12 680.777 1206.2 680.64 1199.68C690.901 1201.37 696.595 1200.52 706.731 1199.19Z"/><path fill="#DC9EC7" d="M625.356 449.527L626.728 449.763C627.73 452.354 625.608 454.623 624.701 458.991C625.249 460.984 626.043 462.157 627.451 463.658C646.406 483.866 676.643 474.983 695.805 460.097C698.352 458.119 701.009 455.547 703.425 453.274C706.482 454.061 709.724 454.528 712.051 456.483C711.366 459.227 710.239 459.313 707.563 461.439C692.035 472.984 664.878 485.342 645.265 482.403C630.931 480.255 623.594 474.006 615.313 463.146C617.76 454.665 616.982 453.362 625.356 449.527Z"/><path fill="#F2AD73" d="M532.536 712.827C538.94 712.745 545.906 712.148 552.296 711.638C547.802 745.676 548.635 744.534 531.687 773.899C529.79 752.545 531.928 734.006 532.536 712.827Z"/><path fill="#DC9EC7" d="M742.532 585.371C745.275 587.61 748.164 600.19 748.916 604.055C754.143 630.889 756.288 658.624 750.68 685.57L749.85 685.748C748.531 680.163 748.14 671.071 747.072 664.693C742.28 636.086 737.224 614.391 742.532 585.371Z"/><path fill="#DC9EC7" d="M735.455 659.888C738.537 667.198 730.407 683.2 725.995 689.758C715.949 704.69 703.976 717.244 685.771 721.156C685.44 720.287 684.034 716.085 684.597 715.349C693.789 703.325 707.602 696.352 717.646 684.905C724.8 676.751 729.71 669.119 735.455 659.888Z"/><path fill="#DC9EC7" d="M644.118 1246.68C650.175 1264.02 611.899 1263.87 602.799 1265.89C575.991 1271.85 551.685 1285.11 525.18 1270.71C524.629 1269.37 524.208 1267.65 523.809 1266.23C525.405 1265.2 533.46 1270.09 537.976 1270.24C567.396 1271.23 619.4 1261.8 644.118 1246.68Z"/><path fill="#DC9EC7" d="M758.748 474.806C760.587 475.536 763.714 478.111 765.427 479.408C761.163 502.149 749.923 535.334 742.791 557.883C742.315 559.273 741.816 559.673 740.856 560.753L739.902 559.962C737.077 540.551 751.511 494.514 758.748 474.806Z"/><path fill="#DC9EC7" d="M740.111 714.622L741.003 716.247C739.695 725.818 726.36 745.43 720.689 754.188L716.355 747.11L707.181 729.757C716.538 722.421 729.027 718.367 740.111 714.622Z"/><path fill="#DC9EC7" d="M689.659 1260.64C688.461 1257.86 687.404 1251.65 686.113 1249.08C684.493 1245.86 681.01 1244.26 680.442 1240.02C685.66 1235.61 706.072 1233.37 708.858 1242.37C710.989 1249.26 707.804 1254.85 705.19 1260.76C702.445 1263.6 703.264 1263.55 699.854 1264.52C696.171 1263.6 695.803 1261.41 692.515 1259.26C691.306 1260.47 691.284 1260.36 690.774 1261.98L689.659 1260.64Z"/><path fill="#F2AD73" d="M526.316 586.169C540.124 591.744 548.728 597.598 564.396 598.541C565.631 598.615 566.526 601.435 567.058 602.639C555.929 602.598 537.896 600.707 529.016 593.32C526.068 590.868 526.461 589.349 526.316 586.169Z"/><path fill="#F2AD73" d="M619.394 403.274C614.638 398.078 606.084 387.937 607.166 380.683C609.021 378.41 608.027 378.941 610.851 378.649C613.165 380.258 612.544 379.352 613.22 382.02L611.612 383.879L614.094 385.511C614.587 384.166 614.217 384.781 615.508 383.869C621.407 388.102 619.784 396.886 619.394 403.274Z"/><path fill="#383333" d="M611.612 383.879L614.094 385.511C615.01 388.197 615.313 388.529 614.709 391.167L613.221 390.88C611.222 388.617 610.824 388.268 610.138 385.359L611.612 383.879Z"/><path fill="#DC9EC7" d="M639.586 1228.28C644.584 1242.83 640.315 1247.03 626.347 1251.5L625.887 1251.64C629.296 1244.93 632.115 1240.15 636.105 1233.75L639.586 1228.28Z"/><path fill="#DC9EC7" d="M787.241 593.21C789.653 592.619 788.83 592.454 790.793 593.332L790.003 594.726C782.931 598.647 763.908 598.014 755.333 598.025C753.767 598.056 753.191 597.552 751.831 596.784L751.563 595.366C755.373 593.078 780.389 593.688 787.241 593.21Z"/><path fill="#DC9EC7" d="M695.049 379.699C696.415 379.788 697.264 380.181 698.538 380.638C700.981 386.127 695.444 394.577 692.713 399.52L692.223 400.131L691.106 399.978C690.985 399.259 690.905 398.535 690.864 397.808C690.585 393.237 691.807 383.436 695.049 379.699Z"/><path fill="#FEECE2" fill-opacity="0.031372551" d="M689.659 1260.64L690.774 1261.98C692.592 1264.75 693.858 1267.28 696.797 1268.77C700.082 1269.21 705.948 1265.25 708.904 1263.33C709.601 1266.21 709.862 1266.78 708.689 1269.45C703.22 1275.22 693.308 1271.62 689.95 1264.85L689.659 1260.64Z"/><path fill="#71646A" d="M636.105 1233.75C634.124 1231.01 633.311 1226.5 635.618 1223.88L637.189 1224.12L639.586 1228.28L636.105 1233.75Z"/><path fill="#F4D6E5" d="M678.699 379.814C679.574 379.683 680.45 379.568 681.329 379.467C685.692 378.978 686.177 379.53 689.155 381.936C684.34 382.441 682.932 381.724 678.699 379.814Z"/><path fill="#DC9EC7" d="M334.678 967.791C368.347 968.006 401.969 966.524 435.617 965.279C440.064 1001.28 441.391 1037.76 445.553 1073.86C447.819 1096.82 453.137 1119.46 455.656 1142.34C458.156 1165.05 457.357 1188.4 460.45 1211.06C466.654 1256.15 476.46 1300.77 482.746 1345.82C483.155 1348.75 482.918 1354.98 480.878 1357.15C465.899 1373.11 414.174 1370.91 397.985 1360.34C391.148 1355.88 390.231 1311.81 389.64 1302.03L384.474 1213.23C381.847 1166.94 381.854 1134.77 369.88 1089.7C360.232 1053.38 338.057 1003.09 334.678 967.791Z"/><path fill="#594D4E" d="M395.222 1135.17C398.214 1136.73 405.9 1147.89 407.713 1151.19C415.413 1165.21 442.141 1189.45 437.182 1206.14C433.93 1202.83 431.004 1197.35 428.558 1193.23C418.685 1176.59 404.458 1162.73 395.87 1145.34C393.888 1141.32 393.667 1139.25 395.222 1135.17Z"/><path fill="#DC9EC7" d="M388.158 593.817C394.899 596.517 398.818 598.216 405.174 601.692L409.135 603.745C413.693 606.09 418.27 608.392 422.713 610.948C419.072 634.688 417.088 658.654 416.776 682.67C416.894 692.3 416.735 699.303 419.831 708.578C413.223 733.671 411.252 748.147 408.083 773.626L407.76 772.776C402.619 758.941 397.775 716.82 392.467 710.154L391.656 710.474C389.545 727.045 408.939 792.239 414.22 812.504L403.166 818.279C385.486 790.423 375.908 763.516 367.037 732.024C366.563 730.34 365.466 729.271 363.844 728.83C360.783 742.241 389.165 803.407 398.216 817.802C398.654 818.498 399.1 819.19 399.554 819.877C389.673 823.404 381.732 825.569 371.554 828.212C369.065 817.124 350.781 733.447 346.781 730.197C343.932 735.259 347.039 743.325 348.654 749.019C356.095 775.238 361.922 802.301 368.25 828.894C331.939 833.248 326.684 829.33 292.602 817.359C277.369 811.774 271.568 809.679 258.927 799.354C263.101 778.203 286.036 736.635 286.978 724.43L285.88 723.719C281.733 726.276 260.614 779.424 257.628 787.941C256.156 792.141 255.369 807.362 252.859 814.778L252.69 815.266C250.885 780.619 261.228 745.167 261.4 710.757C261.539 682.815 248.11 639.452 227.983 619.305C239.752 611.529 252.134 607.119 265.389 602.618C282.931 620.846 306.291 627.811 330.724 630.4C333.477 630.237 336.229 630.046 338.978 629.825C359.657 628.084 370.003 620.599 382.858 605.388L383.563 603.464C384.662 601.737 387.168 595.964 388.158 593.817Z"/><path fill="#D6CCC1" d="M265.389 602.618C282.931 620.846 306.291 627.811 330.724 630.4C334.641 631.374 334.175 630.622 336.381 633.235C336.358 635.753 336.221 636.263 335.538 638.695C331.301 653.079 330.122 667.234 326.557 681.207C315.686 723.8 309.487 777.157 292.602 817.359C277.369 811.774 271.568 809.679 258.927 799.354C263.101 778.203 286.036 736.635 286.978 724.43L285.88 723.719C281.733 726.276 260.614 779.424 257.628 787.941C256.156 792.141 255.369 807.362 252.859 814.778L252.69 815.266C250.885 780.619 261.228 745.167 261.4 710.757C261.539 682.815 248.11 639.452 227.983 619.305C239.752 611.529 252.134 607.119 265.389 602.618Z"/><path fill="#383333" d="M309.894 735.275C311.467 735.829 311.482 736.039 312.58 737.252C310.967 744.293 301.81 754.245 298.853 760.523C292.604 773.795 287.798 787.226 281.104 800.409C280.544 800.164 279.383 799.335 278.814 798.956C276.587 788.853 303.415 745.858 309.894 735.275Z"/><path fill="#F2AD73" d="M388.158 593.817C394.899 596.517 398.818 598.216 405.174 601.692L409.135 603.745C413.693 606.09 418.27 608.392 422.713 610.948C419.072 634.688 417.088 658.654 416.776 682.67C411.381 684.774 405.517 687.237 399.823 688.15C384.795 690.561 369.43 686.809 357.205 677.744C344.08 667.945 337.732 654.575 335.538 638.695C336.221 636.263 336.358 635.753 336.381 633.235C334.175 630.622 334.641 631.374 330.724 630.4C333.477 630.237 336.229 630.046 338.978 629.825C359.657 628.084 370.003 620.599 382.858 605.388L383.563 603.464C384.662 601.737 387.168 595.964 388.158 593.817Z"/><path fill="#F2AD73" d="M388.158 593.817C394.899 596.517 398.818 598.216 405.174 601.692C397.998 602.581 390.788 603.172 383.563 603.464C384.662 601.737 387.168 595.964 388.158 593.817Z"/><path fill="#DC9EC7" d="M405.174 601.692L409.135 603.745C402.605 605.585 389.542 606.502 382.858 605.388L383.563 603.464C390.788 603.172 397.998 602.581 405.174 601.692Z"/><path fill="#DC9EC7" d="M247.578 1095.52C251.846 1093.5 303.285 1094.04 311.291 1094.14C307.73 1109.89 303.141 1130.01 303.026 1146.01C302.902 1163.28 304.49 1182.29 305.553 1199.68L310.402 1283.4C311.144 1297.66 316.409 1345.93 304.114 1353.86C292.936 1348.4 261.657 1338.81 249.318 1336.89C247.479 1331.41 251.383 1300.31 251.322 1291.07C251.12 1260 246.079 1229.52 245.625 1198.69C245.413 1184.33 246.943 1166.37 247.595 1151.66C248.318 1132.96 248.312 1114.23 247.578 1095.52Z"/><path fill="#594D4E" d="M287.457 1148.28C289.107 1149.01 291.096 1149.62 291.688 1151.55C296.831 1168.22 291.099 1203.81 285.572 1218.98L284.398 1219.56L282.399 1218.46C280.094 1212.91 285.588 1158.09 287.457 1148.28Z"/><path fill="#DC9EC7" d="M366.146 1089.48L366.734 1093.02C377.539 1124.39 378.786 1178.39 380.657 1212.03C382.214 1240.05 383.483 1268.85 385.902 1296.82C362.185 1295.88 338.476 1292.97 314.705 1292.01C312.697 1264.67 311.744 1236.88 309.806 1209.38C308.297 1187.96 306.057 1161.34 307.055 1140.21C307.638 1127.88 312.528 1105.9 314.991 1093.4L315.037 1091.35C326.554 1091.36 356.682 1092.14 366.146 1089.48Z"/><path fill="#C594CC" d="M366.146 1089.48L366.734 1093.02C349.486 1093.04 332.238 1093.17 314.991 1093.4L315.037 1091.35C326.554 1091.36 356.682 1092.14 366.146 1089.48Z"/><path fill="#DC9EC7" d="M235.522 914.544C236.466 917.776 238.123 927.193 238.091 930.546C239.867 942.293 241.177 955.434 243.302 966.891C246.474 983.952 249.427 1000.21 268.456 1004.55C274.014 1005.82 278.727 1007.82 283.91 1010.12C279.963 1002.05 273.572 986.944 267.014 981.449L265.096 981.083C261.624 985.345 265.463 998.592 266.711 1003.75C262.97 997.498 257.696 986.55 254.139 981.613C254.765 984.488 256.316 990.099 255.776 992.664C251.945 989.444 248.467 974.545 247.579 969.632C258.782 969.558 273.673 969.068 284.574 969.622C285.103 979.165 282.807 977.028 280.36 985.265C278.876 990.265 282.006 1004.64 284.305 1009.51C288.654 1012.94 295.491 1010.2 296.844 1006.99C300.203 999.002 295.715 977.338 294.836 969.703C306.786 968.989 316.436 968.702 328.405 968.795C324.277 1005.42 317.747 1042.43 313.963 1078.57C312.058 1070.3 305.249 1037.25 301.782 1032.95L300.56 1032.48C296.656 1041.61 309.595 1077.86 311.692 1089.71C311.909 1091.93 311.971 1092.06 311.291 1094.14C303.285 1094.04 251.846 1093.5 247.578 1095.52L247.182 1092.05C245.294 1061.22 240.283 1029.46 235.228 998.966C230.668 971.453 224.076 953.512 227.543 924.276C229.856 920.788 232.75 917.686 235.522 914.544Z"/><path fill="#C594CC" d="M243.302 966.891C241.384 967.963 240.37 968.001 238.177 968.413L236.987 967.494C236.049 961.276 233.394 933.625 238.091 930.546C239.867 942.293 241.177 955.434 243.302 966.891Z"/><path fill="#C594CC" d="M311.692 1089.71C311.909 1091.93 311.971 1092.06 311.291 1094.14C303.285 1094.04 251.846 1093.5 247.578 1095.52L247.182 1092.05C266.351 1093.2 287.191 1092.51 306.467 1091.79C309.373 1091.68 310.239 1091.51 311.692 1089.71Z"/><path fill="#DC9EC7" d="M352.014 855.965C371.667 855.494 375.38 853.55 392.8 849.465C394.906 850.313 395.27 850.59 397.065 852.023L397.528 852.398C403.437 846.171 400.288 846.467 409.274 842.386C423.414 862.33 415.001 869.355 418.17 889.508C421.992 913.819 429.204 939.298 435.461 963.191L435.617 965.279C401.969 966.524 368.347 968.006 334.678 967.791L334.037 966.174C334.467 960.974 333.547 949.016 333.249 943.315C349.797 939.438 364.747 935.384 378.748 925.693C366.942 928.015 351.087 934.235 339.553 938.584C343.434 926.717 350.076 886.497 363.986 884.543C367.095 886.032 366.196 885.109 367.649 887.871C366.556 895.199 354.406 900.238 352.688 905.232C362.03 909.913 371.763 891.013 368.816 882.198C362.863 877.195 354.707 887.633 350.922 891.982C351.255 879.805 351.884 868.274 352.014 855.965Z"/><path fill="#C594CC" d="M435.461 963.191L435.617 965.279C401.969 966.524 368.347 968.006 334.678 967.791L334.037 966.174C367.042 964.394 401.051 965.911 435.461 963.191Z"/><path fill="#383333" d="M366.489 904.633C368.286 904.613 368.173 904.652 369.823 905.409L369.28 906.952C365.41 909.921 356.996 913.59 352.235 915.84L350.58 916.642L349.712 915.517C351.679 909.539 361.093 906.498 366.489 904.633Z"/><path fill="#DC9EC7" d="M262.179 874.193C260.58 867.888 250.924 833.096 258.463 829.749C262.673 830.508 274.803 837.06 279.837 839.359L299.019 845.828C297.609 849.44 295.83 853.026 296.212 856.849L297.201 857.644C300.232 855.625 301.602 850.478 302.786 847.008C316.742 851.221 334.24 857.073 348.468 858.79C348.287 878.056 346.35 906.056 340.627 924.362C333.202 948.114 327.653 937.387 329.139 967.082L328.405 968.795C316.436 968.702 306.786 968.989 294.836 969.703L294.453 967.697C289.759 949.349 282.239 942.052 276.229 926.292C270.662 911.698 266.528 889.979 262.179 874.193Z"/><path fill="#FEECE2" d="M262.179 874.193C260.58 867.888 250.924 833.096 258.463 829.749C262.673 830.508 274.803 837.06 279.837 839.359C280.43 843.887 280.953 847.535 280.994 852.151C276.126 858.793 268.087 868.156 262.179 874.193Z"/><path fill="#C594CC" d="M294.453 967.697C306.306 967.58 317.209 966.55 329.139 967.082L328.405 968.795C316.436 968.702 306.786 968.989 294.836 969.703L294.453 967.697Z"/><path fill="#383333" d="M340.228 861.551C348.278 868.163 336.596 921.844 333.665 933.478L332.454 932.478C331.737 930.77 331.447 927.983 331.836 926.189C336.424 905.016 336.963 882.57 340.228 861.551Z"/><path fill="#DC9EC7" d="M778.59 1181.21C782.473 1155.15 784.777 1128.32 787.67 1102.05L802.809 964.548L851.176 521.798C854.228 525.114 857.583 528.937 860.747 532.078L812.434 967.779L796.593 1110.82C794.256 1131.92 792.077 1160.44 788.861 1180.53C785.259 1180.87 782.208 1181.15 778.59 1181.21Z"/><path fill="#D6CCC1" d="M329.996 440.212C344.634 438.977 361.236 444.864 372.164 454.541C363.756 455.743 358.801 456.363 350.931 460.108L348.111 461.979C337.86 472.843 336.518 479.898 332.304 493.972C331.469 502.86 326.057 515.243 316.953 518.241L315.21 517.719L314.601 512.925L313.64 512.549C309.078 516.661 306.215 525.074 302.153 530.709C308.908 557.36 300.408 550.883 287.096 569.716C287.493 574.276 288.387 580.859 285.661 584.684C279.575 585.985 277.203 577.954 272.113 580.36L274.641 581.007C274.535 582.026 274.548 582.812 274.176 583.744C276.743 585.223 275.959 584.299 276.984 587.354C275.793 596.092 261.316 604.199 254.841 599.75C253.668 596.991 256.864 584.153 257.604 579.926C267.154 569.893 263.268 566.079 262.04 553.158C266.449 548.19 273.84 545.398 277.197 540.525C282.851 532.317 279.689 520.273 286.012 511.589C292.941 502.074 305.669 496.637 310.475 485.876C311.946 482.582 313.691 477.241 312.271 473.811C306.573 476.49 306.612 485.517 301.827 491.023C293.429 500.688 287.007 502.831 279.294 513.643C285.859 497.185 290.003 479.289 297.063 463.041L298.028 460.91C306.843 446.864 313.731 442.492 329.996 440.212Z"/><path fill="#F2AD73" d="M329.996 440.212C344.634 438.977 361.236 444.864 372.164 454.541C363.756 455.743 358.801 456.363 350.931 460.108C345.453 459.848 335.256 461.571 331.891 458.716C332.295 453.426 333.926 443.998 329.996 440.212Z"/><path fill="#D6CCC1" d="M329.996 440.212C333.926 443.998 332.295 453.426 331.891 458.716L331.044 460.005C322.564 460.927 306.445 461.641 298.028 460.91C306.843 446.864 313.731 442.492 329.996 440.212Z"/><path fill="#F2AD73" d="M331.838 462.174C336.001 461.854 343.698 462.014 348.111 461.979C337.86 472.843 336.518 479.898 332.304 493.972C330.963 487.858 331.686 469.261 331.838 462.174Z"/><path fill="#DC9EC7" d="M298.028 460.91C306.445 461.641 322.564 460.927 331.044 460.005L331.891 458.716C335.256 461.571 345.453 459.848 350.931 460.108L348.111 461.979C343.698 462.014 336.001 461.854 331.838 462.174C321.865 461.91 307.756 462.965 297.063 463.041L298.028 460.91Z"/><path fill="#383333" d="M272.113 580.36L274.641 581.007C274.535 582.026 274.548 582.812 274.176 583.744C273.084 589.732 269.083 599.307 261.459 595.182L260.915 592.748C262.726 589.581 265.967 591.79 267.43 590.773C270.391 588.715 268.949 583.763 272.113 580.36Z"/><path fill="#F2AD73" d="M364.502 460.105C380.384 470.913 382.509 481.873 382.243 500.345C375.58 498.308 372.787 496.893 365.945 498.465L364.657 499.567C367.492 502.885 376.523 503.669 381.209 505.461C378.634 521.437 374.118 547.545 359.982 557.525C354.979 561.06 348.757 562.417 342.736 561.288C340.927 560.936 338.818 560.299 337.042 559.751C318.197 551.778 316.35 543.149 314.343 524.43C325.656 518.15 328.059 516.414 333.883 504.833C334.029 504.494 335.529 501.033 335.53 501.033C340.128 497.995 343.721 498.869 337.595 493.457C338.458 475.908 347.688 464.515 364.502 460.105Z"/><path fill="#FEECE2" d="M333.883 504.833C336.142 509.599 336.123 532.111 334.448 538.139L335.653 540.976C336.305 546.895 337.328 553.884 337.042 559.751C318.197 551.778 316.35 543.149 314.343 524.43C325.656 518.15 328.059 516.414 333.883 504.833Z"/><path fill="#383333" d="M334.448 538.139C339.678 537.001 356.984 539.047 360.59 543.244L360.534 544.702C355.608 547.827 341.029 543.255 335.653 540.976L334.448 538.139Z"/><path fill="#DC9EC7" d="M361.384 509.788C368.907 514.933 366.952 523.141 363.882 530.293L363.572 530.111C361.892 527.198 364.923 524.901 364.369 522.259C363.247 516.904 361.939 515.69 361.384 509.788Z"/><path fill="#D6CCC1" d="M225.545 623.309C230.346 625.529 235.959 634.187 238.407 639.049C251.487 665.023 258.321 694.432 258.432 723.472L239.507 723.328L205.273 722.483C206.97 698.325 210.389 640.19 225.545 623.309Z"/><path fill="#DC9EC7" d="M421.404 716.77C428.756 715.538 434.612 714.041 441.846 712.167C441.851 723.683 441.572 742.668 442.77 753.761C445.671 780.624 450.07 808.585 453.943 835.376L454.099 837.355C448.917 837.504 431.726 837.658 427.743 839.002L426.723 836.124C423.612 825.412 418.718 814.658 415.809 803.918C408.306 776.225 414.903 744.058 421.404 716.77Z"/><path fill="#C594CC" d="M453.943 835.376L454.099 837.355C448.917 837.504 431.726 837.658 427.743 839.002L426.723 836.124C434.368 836.341 445.663 835.48 453.943 835.376Z"/><path fill="#D6CCC1" d="M209.908 725.999C224.958 726.327 240.005 726.753 255.048 727.276C255.139 731.977 254.953 734.196 254.359 738.883C253.619 759.38 250.196 779.671 248.829 800.12C248.691 802.182 248.651 806.038 248.069 807.909L247.238 807.782L243.776 810.44C236.516 816.48 226.607 825.086 219.984 831.688C214.882 798.451 214.013 760.267 209.908 725.999Z"/><path fill="#FEECE2" d="M238.877 728.82C242.932 728.648 248.383 727.662 251.493 729.626C253.788 732.063 253.846 735.466 254.359 738.883C253.619 759.38 250.196 779.671 248.829 800.12C248.691 802.182 248.651 806.038 248.069 807.909L247.238 807.782L243.776 810.44C243.62 797.973 242.452 768.558 240.105 756.968L239.087 741.765C239.392 739.588 238.963 731.448 238.877 728.82Z"/><path fill="#BCB6B6" d="M240.105 756.968L240.031 770.53C237.631 766.952 236.016 745.574 239.087 741.765L240.105 756.968Z"/><path fill="#D6CCC1" d="M305.478 564.593C308.994 551.347 306.572 536.036 309.129 529.249L310.294 528.735C311.944 530.955 311.762 533.152 311.963 535.865C313.186 552.358 324.964 558.182 338.65 564.825C346.014 565.869 349.704 566.402 357.28 565.296C356.2 571.22 353.536 581.954 355.73 587.377L356.941 588.184C358.15 586.478 359.024 585.157 360.089 583.357C362.722 583.511 365.992 586.032 368.413 587.578C366.663 591.897 362.862 602.118 359.585 605.025L358.674 606.072C352.417 611.383 348.035 613.49 339.713 614.253C323.843 614.195 316.019 614.129 300.805 609.888C293.069 606.912 290.364 605.099 284.177 600.046C299.675 592.611 303.264 586.151 309.227 570.919L305.478 564.593Z"/><path fill="#F2AD73" d="M338.65 564.825C346.014 565.869 349.704 566.402 357.28 565.296C356.2 571.22 353.536 581.954 355.73 587.377L356.941 588.184C358.15 586.478 359.024 585.157 360.089 583.357C362.722 583.511 365.992 586.032 368.413 587.578C366.663 591.897 362.862 602.118 359.585 605.025C353.177 603.443 347.183 605.506 339.669 604.844C338.88 590.621 338.295 579.03 338.65 564.825Z"/><path fill="#FEECE2" d="M300.805 609.888C304.763 606.917 332.982 608.221 339.55 608.594L339.713 614.253C323.843 614.195 316.019 614.129 300.805 609.888Z"/><path fill="#F2AD73" d="M339.744 607.733C342.662 606.556 355.057 606.141 358.674 606.072C352.417 611.383 348.035 613.49 339.713 614.253L339.55 608.594L339.744 607.733Z"/><path fill="#DC9EC7" d="M339.669 604.844C347.183 605.506 353.177 603.443 359.585 605.025L358.674 606.072C355.057 606.141 342.662 606.556 339.744 607.733C337.303 606.257 328.248 606.289 324.477 606.033C327.829 605.125 336.246 604.715 339.669 604.844Z"/><path fill="#DC9EC7" d="M315.037 1091.35C317.921 1079.4 319.819 1062.03 321.732 1049.7C325.612 1024.68 328.887 999.742 331.16 974.523C341.011 1014.72 353.136 1050.15 366.146 1089.48C356.682 1092.14 326.554 1091.36 315.037 1091.35Z"/><path fill="#F2AD73" d="M409.157 224.26C400.7 301.424 387.553 380.058 379.14 457.202C374.75 452.028 372.523 449.519 366.96 445.269L388.155 295.104C390.363 279.534 392.891 249.821 395.913 236.046C400.357 232.828 405.098 228.083 409.157 224.26Z"/><path fill="#DC9EC7" d="M481.274 1315.94C536.522 1319.79 596.164 1323.17 650.815 1328.18C645.723 1332.12 638.287 1337.55 633.719 1341.76C624.59 1342.16 596.046 1339.03 586.014 1338.23L484.015 1330.2L481.274 1315.94Z"/><path fill="#DC9EC7" d="M250.113 830.738C255.225 862.594 262.464 894.072 271.781 924.962C259.272 927.39 253.934 928.447 242.537 933.976C241.813 928.316 235.439 895.533 235.712 893.901C241.643 882.36 246.825 846.151 250.113 830.738Z"/><path fill="#DC9EC7" d="M454.099 837.355C457.39 862.078 461.771 903.021 469.339 925.562C461.868 922.948 454.807 920.507 447.51 917.444C442.416 888.658 437.773 866.688 427.743 839.002C431.726 837.658 448.917 837.504 454.099 837.355Z"/><path fill="#F2AD73" d="M386.9 485.653C395.417 489.277 388.738 508.985 386.593 515.314C388.556 517.807 390.622 520.748 392.528 523.331C390.08 535.329 393.656 539.753 398.908 550.817C397.222 555.576 396.28 557.383 393.794 561.823C398.219 567.718 407.07 588.244 401.362 594.239L398.725 593.619C393.152 590.966 382.618 587.227 376.469 584.751C362.306 556.47 372.34 553.768 380.484 529.563C384.769 516.824 386.257 499.091 386.9 485.653Z"/><path fill="#DC9EC7" d="M243.042 937.109C265.286 928.741 273.435 923.541 283.486 947.616C292.347 968.839 293.443 984.577 295.58 1007.05C291.439 997.577 289.523 990.412 288.717 980.242C288.469 977.114 288.394 968.676 287.32 966.367L285.062 966.118L284.574 969.622C273.673 969.068 258.782 969.558 247.579 969.632L247.438 967.805C245.574 957.295 244.344 947.678 243.042 937.109Z"/><path fill="#C594CC" d="M247.438 967.805C260.105 967.847 272.633 968.418 285.062 966.118L284.574 969.622C273.673 969.068 258.782 969.558 247.579 969.632L247.438 967.805Z"/><path fill="#F4D6E5" d="M417.117 1371.03C439.925 1372.26 465.388 1375.55 483.666 1359.45C496.873 1373.4 513.325 1377.84 530.922 1384.39L532.039 1386.33C529.423 1395.96 508.221 1394.93 500.402 1394.15C483.81 1394.05 466.67 1381.87 451.265 1377.81C438.591 1374.46 430.716 1376.1 417.117 1371.03Z"/><path fill="#FEECE2" d="M530.922 1384.39L532.039 1386.33C529.423 1395.96 508.221 1394.93 500.402 1394.15C502.584 1391.57 521.891 1388.46 530.922 1384.39Z"/><path fill="#DC9EC7" d="M423.511 838.161C430.038 857.628 441.802 894.685 443.165 914.521C441.341 916.327 438.78 918.146 438.856 920.747C439.258 934.352 439.589 947.128 439.096 960.734C432.538 943.899 425.366 906.867 421.952 888.261C420.74 881.653 422.859 866.417 420.427 858.054C417.785 848.97 416.354 846.661 410.913 838.925C414.453 837.55 419.581 838.057 423.511 838.161Z"/><path fill="#DC9EC7" d="M442.06 665.367L448.449 660.583L462.426 697.66C456.804 702.112 452.924 704.565 446.046 707.227L443.816 707.967C437.847 710.377 428.453 711.562 422.084 712.274C426.431 697.407 432.951 681.56 437.676 665.904L440.851 665.741L442.06 665.367Z"/><path fill="#DC9EC7" d="M442.06 665.367L448.449 660.583L462.426 697.66C456.804 702.112 452.924 704.565 446.046 707.227C442.397 700.593 444.357 674.297 442.06 665.367Z"/><path fill="#C594CC" d="M442.06 665.367C444.357 674.297 442.397 700.593 446.046 707.227L443.816 707.967C442.062 696.893 440.964 677.15 440.851 665.741L442.06 665.367Z"/><path fill="#DC9EC7" d="M315.181 1303.05C338.812 1305.09 362.461 1306.9 386.126 1308.5C386.453 1312.37 386.594 1316.71 386.812 1320.63C366.747 1319.84 335.304 1317.52 315.447 1315.08L315.181 1303.05Z"/><path fill="#F4D6E5" d="M399.082 1385.86C396.758 1381.13 396.747 1375.44 400.374 1371.35C403.487 1370.44 415.733 1374.55 419.899 1375.63C434.607 1379.45 449.638 1380.61 463.722 1386.5C462.195 1388.28 458.232 1391.98 457.636 1393.06C447.858 1390.8 444.875 1390.56 435.208 1390.73C424.349 1392.41 407.625 1393.71 399.082 1385.86Z"/><defs><linearGradient id="gradient_1" gradientUnits="userSpaceOnUse" x1="418.44205" y1="1384.9746" x2="416.95529" y2="1390.9875"><stop offset="0" stop-color="#FDEBF2"/><stop offset="1" stop-color="white"/></linearGradient></defs><path fill="url(#gradient_1)" d="M399.082 1385.86L399.848 1383.48C405.544 1381.96 430.073 1385.97 435.208 1390.73C424.349 1392.41 407.625 1393.71 399.082 1385.86Z"/><path fill="#DC9EC7" d="M444.985 931.533C456.298 937.666 459.312 938.592 472.286 938.494C478.732 964.06 471.376 978.929 453.179 996.865C460.894 982.976 469.185 970.314 464.75 953.672C463.386 955.262 463.362 954.731 460.449 954.986C457.577 953.351 458.408 954.277 456.991 951.602C457.375 948.17 457.369 949.122 460.53 946.188L462.556 943.72L462.287 942.394C451.176 940.159 449.77 963.789 442.668 967.257L441.792 966.411C441.886 955.714 442.755 942.491 444.871 932.068L444.985 931.533Z"/><path fill="#383333" d="M460.53 946.188C462.275 948.823 463.667 950.684 464.75 953.672C463.386 955.262 463.362 954.731 460.449 954.986C457.577 953.351 458.408 954.277 456.991 951.602C457.375 948.17 457.369 949.122 460.53 946.188Z"/><path fill="#F2AD73" d="M426.124 613.472C432.174 619.038 435.329 622.99 439.5 629.842C437.976 644.758 434.995 658.055 431.715 672.588C427.248 674.959 424.945 676.37 420.829 679.305C419.712 665.049 424.306 629.433 426.124 613.472Z"/><path fill="#DC9EC7" d="M391.495 826.592L392.298 826.873C395.47 830.465 394.624 840.348 394.574 845.319C385.918 847.733 379.293 849.239 370.462 850.952L369.086 849.964C367.573 845.546 367.438 837.171 367.145 832.227C375.238 831.254 383.706 828.91 391.495 826.592Z"/><path fill="#FEECE2" d="M463.722 1386.5C486.004 1396.24 511.803 1405.91 534.304 1391.14C536.025 1392.62 535.517 1391.88 535.791 1394.73C528.321 1416.77 471.98 1396.76 457.636 1393.06C458.232 1391.98 462.195 1388.28 463.722 1386.5Z"/><path fill="#FEECE2" d="M262.836 808.031C272.052 813.424 278.77 816.618 288.798 820.204C287.136 824.715 284.642 832.157 282.638 836.245C274.509 832.937 266.834 829.087 258.963 825.234C259.749 820.12 261.602 813.217 262.836 808.031Z"/><path fill="#D6CCC1" d="M269.088 601.524L278.36 599.749L278.758 600.145C295.485 616.438 315.847 618.53 337.967 618.294L337.914 626.565C309.725 626.74 291.296 617.675 269.088 601.524Z"/><path fill="#DC9EC7" d="M312.082 828.279C317.658 830.359 334.187 833.387 336.747 834.719C336.915 837.283 333.633 844.225 332.855 850.518C323.938 848.794 313.628 845.821 304.729 843.479C307.677 838.023 309.614 833.966 312.082 828.279Z"/><path fill="#DC9EC7" d="M288.798 820.204L308.14 827.386C306.428 832.865 304.046 837.344 301.214 842.318C296.516 840.664 287.092 837.105 282.638 836.245C284.642 832.157 287.136 824.715 288.798 820.204Z"/><path fill="#F2AD73" d="M364.133 606.442L377.459 605.996C364.099 619.624 357.178 623.76 337.914 626.565L337.967 618.294C351.666 616.067 353.857 615.677 364.133 606.442Z"/><path fill="#DC9EC7" d="M441.561 989.314C441.186 987.589 439.484 974.714 440.715 972.656C440.809 972.498 447.991 969.999 448.617 968.618C451.076 963.195 451.82 957.842 454.568 952.643L455.144 953.456C454.914 961.503 453.538 967.264 450.977 974.82C453.545 977.158 453.073 976.138 453.895 978.944C452.647 984.199 450.127 991.069 444.734 993.247C443.437 991.92 442.695 990.439 441.561 989.314Z"/><path fill="#71646A" d="M450.977 974.82C453.545 977.158 453.073 976.138 453.895 978.944C452.647 984.199 450.127 991.069 444.734 993.247C443.437 991.92 442.695 990.439 441.561 989.314C444.668 986.859 448.988 978.517 450.977 974.82Z"/><path fill="#FEECE2" d="M299.309 561.488C301.465 563.657 303.494 568.962 304.849 571.999C302.451 578.457 286.243 604.128 279.193 593.238C279.733 590.699 279.799 590.328 281.342 588.258L284.37 590.483C289.168 589.954 299.06 579.423 298.972 574.568L298.015 574.182C295.19 576.004 294.397 576.645 291.923 578.935C288.058 573.112 294.759 564.983 299.309 561.488Z"/><path fill="#DC9EC7" d="M341.6 837.816C355.239 837.763 355.616 846.547 348.3 855.733C335.055 854.983 333.335 847.25 341.6 837.816Z"/><path fill="#F2AD73" d="M372.294 588.096L384.358 592.507L379.371 604.025L377.459 605.996L364.133 606.442L364.915 604.439C367.824 599.772 370.554 593.342 372.294 588.096Z"/><path fill="#C594CC" d="M364.915 604.439C369.084 604.192 375.387 603.615 379.371 604.025L377.459 605.996L364.133 606.442L364.915 604.439Z"/><path fill="#DC9EC7" d="M410.076 836.074C409.72 829.735 408.553 823.245 412.176 817.986L413.997 817.694C419.199 821.435 420.934 829.298 422.973 835.426L423.511 838.161C419.581 838.057 414.453 837.55 410.913 838.925L410.076 836.074Z"/><path fill="#C594CC" d="M422.973 835.426L423.511 838.161C419.581 838.057 414.453 837.55 410.913 838.925L410.076 836.074C413.139 836.792 419.876 836.402 422.973 835.426Z"/><path fill="#DC9EC7" d="M404.599 821.153L405.709 822.107C409.217 831.021 408.712 837.186 400.667 843.179L400.14 843.11C396.902 840.11 397.309 829.496 397.115 824.7L404.599 821.153Z"/><path fill="#F4D6E5" d="M359.211 833.689C361.193 833.564 361.225 833.727 362.974 834.54C367.012 840.284 365.754 848.825 360.139 853.129C357.899 852.644 357.645 852.716 356.235 851.063C355.728 848.406 352.873 836.38 353.76 834.756L359.211 833.689Z"/><path fill="#F2AD73" d="M437.676 665.904C439.363 657.087 440.895 648.146 442.479 639.302C444.055 646.199 446.433 653.728 448.449 660.583L442.06 665.367L440.851 665.741L437.676 665.904Z"/><path fill="#DC9EC7" d="M431.715 672.588C428.863 682.196 425.719 691.257 421.474 700.361L420.829 679.305C424.945 676.37 427.248 674.959 431.715 672.588Z"/><path fill="#DC9EC7" d="M441.484 920.259C443.129 920.548 443.534 920.941 444.762 922.114C451.29 928.35 460.328 930.216 468.45 934.696C458.774 935.134 443.949 931.136 441.484 920.259Z"/><path fill="#DC9EC7" d="M283.654 983.491C287.017 986.462 289.707 1001.29 290.87 1006.47C283.587 1003.01 283.399 990.258 283.654 983.491Z"/><defs><linearGradient id="gradient_2" gradientUnits="userSpaceOnUse" x1="271.67557" y1="1382.7515" x2="271.44894" y2="1376.9194"><stop offset="0" stop-color="#FFEDE5" stop-opacity="0"/><stop offset="1" stop-color="#FCF1E8" stop-opacity="0.031372551"/></linearGradient></defs><path fill="url(#gradient_2)" d="M262.06 1381.07C265.259 1381.07 268.763 1381.15 271.923 1380.5C274.98 1379.87 281.918 1375.53 284.293 1375.86C283.544 1378.58 282.667 1379.81 280.112 1381.23C277.737 1382.55 275.119 1383.37 272.417 1383.64C268.191 1383.02 265.093 1384.71 261.69 1383.05L262.06 1381.07Z"/><path fill="#DC9EC7" d="M266.514 986.175C270.656 988.883 272.942 996.519 274.714 1001.24C267.844 998.124 267.477 992.88 266.514 986.175Z"/><path fill="#F2AD73" d="M371.184 457.323C372.039 457.489 373.273 457.959 374.137 458.249C377.908 462.007 379.609 465.381 380.641 470.616C376.668 466.635 371.435 462.554 371.184 457.323Z"/><path fill="#93808D" d="M461.806 959.382C464.669 965.016 460.77 974.422 458.811 979.907C458.377 979.928 457.972 979.689 457.5 979.505C459.07 972.827 460.505 966.118 461.806 959.382Z"/><path fill="#F2AD73" d="M363.427 573.859C366.323 575.709 368.324 579.461 370.128 582.385C367.743 582.05 367.296 581.647 365.13 580.468C363.29 578.144 363.508 576.765 363.427 573.859Z"/><path fill="#383333" d="M572.486 1433.39L575.729 1434.71C579.79 1439.26 578.115 1448.66 577.877 1454.34C579.829 1452.25 582.062 1449.99 584.666 1448.73C587.322 1447.45 590.4 1446.81 593.223 1447.99C596.765 1449.47 598.984 1453.22 600.31 1456.64C604.167 1466.6 602.621 1476.06 598.493 1485.56C596.631 1487.2 594.621 1489.2 592.311 1490.18C588.157 1491.94 585.371 1489.18 581.546 1487.98C579.126 1487.23 577.241 1488.3 575.162 1489.44L574.391 1489.86L573.308 1488.9C568.726 1476.34 571.92 1447.13 572.486 1433.39ZM589.301 1486.51C594.596 1480.81 597.558 1474.48 597.247 1466.55C597.084 1462.37 595.614 1458.32 592.426 1455.51C590.487 1453.8 587.913 1452.89 585.371 1452.62C580.021 1457.27 577.504 1462.55 577.04 1469.69C576.752 1474.14 577.789 1479.29 580.899 1482.66C583.337 1485.31 585.926 1485.94 589.301 1486.51Z"/><path fill="#383333" d="M247.254 1432.77C248.554 1433.19 249.839 1433.78 251.108 1434.29C256.924 1442.21 247.662 1449.94 253.8 1452.7C263.119 1445.16 270.483 1443.52 275.079 1457.04C278.098 1465.89 277.503 1475.58 273.422 1484C264.049 1496.23 261.006 1489.34 248.963 1489.39C244.765 1484.94 247.005 1441.51 247.254 1432.77ZM263.172 1486.23C268.455 1481.44 271.374 1476.27 271.65 1468.99C271.824 1464.38 270.406 1459.64 267.136 1456.29C265.177 1454.29 262.522 1453.45 259.864 1452.82C254.525 1457.07 252.678 1461.51 251.935 1468.33C251.412 1473.12 252.128 1479.05 255.45 1482.8C257.739 1485.39 259.836 1485.86 263.172 1486.23Z"/><path fill="#383333" d="M349.581 1447.57C351.779 1447.44 354.096 1447.45 356.266 1447.88C360.364 1448.7 364.085 1451.83 366.262 1455.3C369.789 1460.92 370.314 1468.56 368.848 1474.91C367.08 1482.57 363.581 1487.02 357.06 1491.2C354.871 1491.36 352.59 1491.34 350.427 1490.92C346.268 1490.1 342.559 1487.1 340.34 1483.57C336.772 1477.9 336.209 1470.02 337.665 1463.6C339.444 1455.75 342.865 1451.7 349.581 1447.57ZM355.487 1486.26C360.641 1481.58 363.228 1476.57 363.504 1469.49C363.693 1464.63 362.22 1459.26 358.766 1455.7C356.491 1453.36 354.156 1452.65 351.103 1451.91C345.684 1456.62 343.31 1461.04 342.765 1468.27C342.391 1473.22 343.335 1478.27 346.665 1482.11C349.168 1485 351.816 1485.9 355.487 1486.26Z"/><path fill="#383333" d="M491.446 1447.64C493.625 1447.44 496.075 1447.42 498.242 1447.72C501.825 1448.21 505.378 1450.87 507.517 1453.69C511.533 1458.99 512.377 1466.48 511.408 1472.9C510.179 1481.03 506.88 1485.92 500.355 1490.72C498.012 1491.17 495.699 1491.23 493.341 1490.87C489.484 1490.28 485.865 1487.96 483.62 1484.78C479.788 1479.36 479.107 1471.44 480.242 1465.07C481.644 1457.21 484.97 1452.18 491.446 1447.64ZM498.374 1486.7C503.681 1480.64 506.361 1474.55 505.881 1466.34C505.629 1462.02 503.863 1457.16 500.364 1454.4C498.396 1452.85 496.285 1452.23 493.865 1451.75C488.362 1457.1 485.7 1462.54 485.642 1470.39C485.607 1474.98 487.035 1480.07 490.474 1483.3C492.831 1485.52 495.325 1486.09 498.374 1486.7Z"/><path fill="#383333" d="M294.69 1447.52C298.933 1447.38 303.075 1448.14 306.201 1451.19C311.319 1456.19 311.211 1464.2 311.194 1470.83C304.986 1470.57 296.884 1469.34 291.096 1471.84C288.91 1472.79 288.374 1473.71 287.487 1475.75C287.932 1478 288.871 1479.25 290.608 1480.73C295.031 1484.48 298.084 1485.91 303.91 1485.47C305.24 1485.04 306.452 1485.12 307.827 1485.16L308.63 1486.26L307.466 1488.34C304.111 1490.8 300.314 1491.9 296.157 1491.23C292.085 1490.57 288.348 1488.59 285.951 1485.18C282.237 1479.89 281.975 1472.05 283.014 1465.9C284.458 1457.35 287.66 1452.4 294.69 1447.52ZM301.553 1465.71C303.94 1464.91 304.262 1464.77 305.795 1462.79C306.04 1459.89 305.058 1457.91 303.232 1455.73C301.219 1453.32 298.831 1452.22 295.714 1451.85C293.084 1454.34 289.191 1457.33 289.117 1461.27C289.091 1462.7 289.939 1463.35 290.768 1464.45C293.901 1466.3 298.027 1465.8 301.553 1465.71Z"/><path fill="#383333" d="M408.77 1447.55C411.511 1447.51 414.196 1447.43 416.82 1448.36C420.397 1449.63 422.404 1451.95 424.009 1455.27C425.834 1459.04 427.004 1462.47 425.589 1466.62C420.767 1473.36 411.925 1469.46 405.612 1472.51C403.767 1473.4 403.834 1473.81 403.25 1475.65C403.772 1477.51 404.434 1478.96 405.609 1480.49C408.391 1484.1 410.813 1485.25 415.277 1485.79C415.987 1485.66 416.699 1485.54 417.414 1485.43C419.965 1485.07 420.802 1485.04 422.777 1486.55L422.352 1488.3C419.729 1490.42 417.109 1491.14 413.799 1491.08C409.506 1491.01 405.374 1489.68 402.422 1486.44C398.259 1481.86 397.423 1474.59 397.857 1468.68C398.541 1459.35 401.823 1453.54 408.77 1447.55ZM402.511 1465.68L416.223 1465.59C418.692 1465.09 419.028 1465.28 420.484 1463.28C420.643 1460.46 419.902 1458.65 418.037 1456.53C416.301 1454.56 414.657 1452.92 411.907 1452.75C410.954 1452.69 410.002 1452.71 409.048 1452.73C406.486 1456.99 404.393 1461.06 402.511 1465.68Z"/><path fill="#383333" d="M445.716 1447.68C447.75 1447.89 449.242 1448.28 451.082 1449.18C457.438 1456.98 459.56 1471.47 462.244 1481.11C463.919 1472.87 465.439 1464.37 468.721 1456.59C469.828 1453.96 471.605 1449.59 474.325 1448.48C474.44 1448.71 474.565 1448.92 474.67 1449.15C477.527 1455.37 470.612 1471.67 468.382 1478.26C467.48 1481.3 466.556 1484.33 465.611 1487.36C463.646 1493.61 460.811 1502.8 454.322 1505.79C452.365 1506.7 449.697 1506.83 447.727 1505.9C446.161 1505.16 446.116 1504.84 445.545 1503.23C448.031 1499.06 454.164 1499.46 456.736 1495.13C462.043 1486.18 448.296 1458.16 445.716 1447.68Z"/><path fill="#383333" d="M519.989 1447.74L524.847 1448.97C527.992 1456.71 524.173 1471.42 527.103 1480.94C527.806 1483.23 528.716 1484.56 530.848 1485.69C532.524 1485.87 533.92 1485.89 535.504 1485.22C547.178 1480.26 537.971 1459.85 541.909 1450.43C542.611 1448.74 542.605 1448.44 544.263 1447.74C544.579 1448.01 544.776 1448.17 545.08 1448.49C548.369 1451.88 547.699 1456.19 547.487 1460.53C547.836 1469.59 549.904 1480.67 546.271 1489.15C543.636 1491.35 543.098 1486.18 539.837 1487.12C536.144 1488.18 534.28 1492.04 529.7 1491.84C527.818 1491.76 526.27 1491.03 525.045 1489.61C516.991 1480.25 519.377 1459.37 519.989 1447.74Z"/><path fill="#383333" d="M194.711 1447.42C195.982 1447.65 197.389 1447.89 198.534 1448.51C205.895 1452.52 209.278 1473.8 211.494 1481.61C212.675 1472.09 214.846 1455.72 222.033 1448.88L223.432 1449.05C225.441 1456.17 220.704 1467.15 218.534 1474.14C216.563 1481.96 214.774 1490.68 210.663 1497.7C208.82 1500.85 206.773 1503.05 203.127 1504.01C201.075 1503.69 200.55 1503.92 199.179 1502.28C199.27 1500.49 206.226 1491.48 207.482 1488.48C204.961 1474.27 197.002 1461.33 194.711 1447.42Z"/><path fill="#383333" d="M610.783 1447.26C612.694 1447.82 614.693 1448.19 615.767 1450.05C620.839 1458.84 612.567 1477.65 620.431 1485.24C621.357 1486.13 622.51 1486.43 623.807 1486.23C638.283 1484.01 629.009 1456.94 634.783 1448.22L636.282 1448.03C638.534 1450.83 638.213 1452.33 638.485 1455.84C638.889 1465.38 641.425 1481.28 636.836 1489.59L635.516 1489.88L632.456 1486.49C629.235 1488.45 625.514 1490.76 621.603 1490.68C619.262 1490.64 617.312 1489.75 615.706 1488.05C607.858 1479.75 610.607 1458.04 610.783 1447.26Z"/><path fill="#383333" d="M645.052 1447.91C646.474 1448.13 648.293 1448.34 649.533 1449.14C656.656 1453.74 659.311 1472.98 661.213 1481.04C663.164 1472.86 666.091 1454.92 672.643 1449.87L673.649 1450.78C673.901 1458.89 671.141 1465.52 668.382 1473.01C665.964 1481.61 662.838 1496.61 655.345 1502.29C653.396 1503.77 652.642 1503.89 650.351 1503.69C648.651 1502.28 648.032 1502.01 647.357 1499.85C649.384 1497.06 653.351 1495.85 655.387 1492.89C661.727 1483.69 647.214 1458.45 645.052 1447.91Z"/><path fill="#BCB6B6" fill-opacity="0.98039216" d="M112.844 834.507C112.812 821.928 108.672 730.607 111.082 726.463C112.653 736.159 112.759 765.079 112.953 775.908C113.3 795.231 114.945 817.252 114.657 836.136L114.866 849.823C129.826 849.495 146.147 849.172 161.086 849.533C164.426 850.978 195.977 850.034 201.737 849.964L201.039 848.997C207.806 849.205 211.957 849.004 218.713 848.455L219.905 850.143L219.457 851.042C196.029 851.387 172.599 851.575 149.169 851.607C140.142 851.7 123.587 851.497 115.376 852.547C114.527 855.449 114.754 856.857 114.918 859.803L114.123 860.827C114.054 857.699 113.858 855.801 113.471 852.732C110.135 851.333 97.4903 853.064 92.5412 851.674C95.1453 849.989 95.7651 850.516 99.2313 850.349C103.508 850.584 109.409 850.389 113.812 850.379C113.877 845.329 114.193 840.331 113.018 835.425L112.844 834.507Z"/><path fill="#383333" d="M135.778 1439.17C143.583 1438.92 152.502 1437.91 160.171 1439.27C162.727 1439.72 165.503 1440.06 167.042 1442.2C163.06 1445.27 156.79 1444.78 152.047 1444.54C152.017 1456.75 152.149 1468.96 152.443 1481.16C152.495 1482.14 152.495 1483.11 152.443 1484.09C152.3 1486.65 152.496 1488.9 150.545 1490.62L148.832 1490.5C143.84 1485.29 145.869 1453.44 145.963 1444.67C141.42 1444.98 136.674 1445.54 132.588 1443.08C131.48 1442.41 131.601 1442.07 131.276 1440.82C132.804 1439.39 133.747 1439.5 135.778 1439.17Z"/><path fill="#383333" d="M629.675 1539.39C631.359 1539.18 631.781 1539.45 633.305 1540.09C634.405 1541.69 635.313 1543.02 636.884 1544.19C639.096 1542.26 641.172 1540.23 643.936 1539.12C646.388 1539.26 647.596 1539.16 649.362 1541.13C653.878 1546.18 653.246 1558.49 652.898 1565.01C652.747 1567.82 652.895 1570.42 650.707 1572.38C645.413 1569.18 651.242 1551.09 646.17 1544.64C643.788 1543.75 643.496 1543.99 641.028 1544.74C637.975 1548.14 638.188 1553.59 638.108 1557.89C638.444 1562.96 638.873 1566.74 636.794 1571.48L635.714 1571.7C631.748 1564.63 636.263 1553.15 631.947 1545.85C631.009 1544.26 630.702 1544.27 628.93 1543.9C620.021 1548.6 626.591 1563.79 622.91 1571.85L621.578 1571.96C619 1564.98 619.377 1554.02 620.102 1546.65C620.34 1544.23 620.188 1543.43 622.157 1541.82C625.032 1541.72 626.668 1541.45 629.084 1539.81C629.284 1539.67 629.478 1539.53 629.675 1539.39Z"/><path fill="#383333" d="M370.246 1565C373.268 1555.55 374.866 1545.74 378.126 1536.31C382.089 1545.73 384.064 1554.95 385.652 1565.02C387.684 1554.65 389.686 1544.87 393.993 1535.18C394.267 1542.07 393.868 1548.12 391.791 1554.73C390.188 1562.5 387.719 1570.21 385.608 1577.86C382.221 1568.26 380.405 1557.93 378.173 1548C374.617 1557.39 372.764 1567.38 370.764 1577.19C366.152 1567.33 360.062 1549.76 362.3 1538.75C368.008 1542.48 368.833 1558.47 370.246 1565Z"/><path fill="#383333" d="M329.13 1432.49C332.987 1432.51 335.718 1431.89 337.398 1435.68C334.187 1440.74 326.984 1437.27 326.275 1446.84C328.712 1449.65 329.743 1447.3 333.99 1449.97L334.344 1452.14C332.434 1454.76 332.019 1453.22 327.651 1454.7C324.841 1460.8 326.172 1478.55 326.386 1486.08C325.613 1489.76 326.359 1488.57 323.815 1490.82C315.982 1487.55 323.094 1464.81 320.647 1457.69C318.773 1452.24 318.088 1456.09 315.479 1451.15C316.923 1446.37 318.881 1449.59 320.724 1446.32C325.172 1438.42 320.491 1438.8 329.13 1432.49Z"/><path fill="#383333" d="M282.416 1539.06C284.426 1538.88 287.385 1538.67 289.292 1539.42C291.555 1540.32 293.156 1542.91 294.124 1545.04C296.927 1551.21 298.774 1562.29 296.222 1568.75C295.533 1570.5 295.186 1571.29 293.508 1572.06L291.809 1570.46C288.166 1571.9 285.093 1573 281.154 1573.13C279.029 1570.66 276.501 1566.15 276.53 1562.82C276.582 1556.68 286.86 1554.54 290.406 1550.49C291.964 1548.71 292.116 1547.69 291.983 1545.51C289.85 1543.72 284.168 1543.97 281.231 1543.19L280.599 1541.96L282.416 1539.06ZM285.992 1569.82C289.641 1566.75 292.348 1564.13 292.98 1559.16C292.234 1556.87 292.15 1556.57 290.244 1555.13L287.594 1554.8C285.031 1556.87 281.757 1559.23 281.259 1562.74C281.02 1564.43 281.432 1565.87 282.538 1567.21C283.412 1568.26 284.795 1569.18 285.992 1569.82Z"/><path fill="#383333" d="M433.409 1539.01C433.768 1539.01 434.126 1539 434.484 1539.01C437.19 1539.09 440.347 1539.67 442.213 1541.79C444.361 1544.23 446.544 1549.12 446.346 1552.4C445.915 1559.56 432.713 1555.44 428.579 1558.91C428.6 1559.75 428.601 1560.51 428.931 1561.3C430.568 1565.23 433.755 1567.92 437.704 1569.22C440.103 1568.9 441.771 1568.19 443.92 1569.43L443.599 1570.83C441.926 1572.05 440.506 1572.58 438.435 1572.8C435.233 1573.13 431.368 1572.13 429.016 1569.92C426.078 1567.16 425.211 1562.89 425.209 1559.02C425.207 1550.92 427.777 1544.71 433.409 1539.01Z"/><path fill="#383333" d="M474.85 1538.89C476.654 1539.06 478.695 1539.18 480.385 1539.87C483.443 1541.13 486.765 1546.06 487.573 1549.21C488.226 1551.76 487.749 1552.46 486.478 1554.56C483.299 1556.48 479.392 1556.46 475.796 1557.04C473.012 1557.49 471.296 1557.8 469.622 1560.1C469.869 1562.22 470.785 1563.61 472.124 1565.2C474.932 1568.53 477.864 1568.64 481.938 1568.97C483.148 1568.63 483.449 1568.72 484.686 1569.02L484.324 1570.39C482.17 1572.03 479.935 1573.19 477.137 1573.03C474.342 1572.86 471.107 1571.05 469.276 1568.97C466.475 1565.78 465.709 1561.35 465.965 1557.24C466.451 1549.41 468.999 1543.99 474.85 1538.89Z"/><path fill="#383333" d="M522.075 1538.98C522.251 1538.98 522.428 1538.99 522.603 1538.99C522.896 1539.01 523.189 1539.03 523.482 1539.04C525.013 1539.12 526.914 1539.07 528.323 1539.74C531.675 1541.33 533.607 1546.63 534.573 1549.93C536.531 1556.62 537.299 1564.91 533.816 1571.19C531.2 1572.93 532.686 1570.83 530.902 1570.49C530.735 1570.46 523.638 1573.05 521.273 1573.05C519.183 1571.09 517.401 1567.95 516.563 1565.21C514.015 1556.87 527.378 1555.68 530.245 1550.22C530.828 1541.68 523.46 1546.45 520.574 1541.67L522.075 1538.98ZM527.119 1569.84C529.442 1566.56 532.181 1563.14 531.388 1558.87C531.221 1557.98 530.196 1557.18 529.583 1556.51C527.957 1556.08 526.529 1555.75 524.843 1555.71C522.887 1558.21 520.361 1561.1 520.834 1564.52C521.097 1566.41 521.914 1567.6 523.535 1568.67C524.463 1569.27 526.069 1569.57 527.119 1569.84Z"/><path fill="#383333" d="M665.887 1538.79C668.119 1539.05 670.664 1539.64 672.509 1540.97C676.985 1544.2 677.081 1551.59 677.786 1556.63C674.465 1556.42 670.551 1555.87 667.306 1556.79C664.557 1557.57 662.985 1559.15 661.749 1561.64C661.863 1562.5 661.827 1563.67 662.323 1564.38C664.848 1567.99 668.925 1568.71 672.978 1569.42L674.516 1568.96L674.874 1570.2C674.612 1570.55 674.489 1570.73 674.181 1571.08C672.937 1572.49 671.168 1573.24 669.282 1573.26C666.538 1573.28 663.279 1571.35 661.394 1569.43C658.378 1566.35 657.283 1562 657.364 1557.79C657.512 1550.08 660.358 1544 665.887 1538.79Z"/><path fill="#383333" d="M400.795 1525.4C408.239 1529.72 400.87 1537.29 404.613 1542.45C406.284 1541.48 408.357 1540.02 410.302 1539.79C412.26 1539.57 414.344 1539.83 415.914 1541.11C419.171 1543.75 420.088 1549.87 420.471 1553.78C420.955 1558.71 421.153 1567.77 417.871 1571.8C414.369 1567.98 415.784 1554.62 415.639 1549.07C415.145 1547.9 414.592 1546.33 413.779 1545.35C412.391 1543.67 410.592 1543.19 408.512 1543.05C399.333 1549.3 407.409 1565.25 402.463 1572.94C402.303 1572.74 402.135 1572.54 401.985 1572.33C397.724 1566.32 399.75 1533.1 400.795 1525.4Z"/><path fill="#383333" d="M184.648 1446.58L187.396 1448.81C187.764 1453.16 179.736 1458.66 178.076 1463.45C175.527 1470.8 180.385 1479.82 177.651 1487.25C176.574 1490.18 175.14 1490.53 172.586 1491.86C171.931 1481.45 169.716 1459.5 173.076 1450.09C173.38 1449.24 174.381 1449.03 175.172 1448.65L178.536 1450.86C181.435 1450.35 182.551 1448.59 184.648 1446.58Z"/><path fill="#383333" d="M379.506 1447.45C382.406 1449.68 381.343 1452.74 383.882 1454.58C384.566 1453.57 385.27 1452.56 385.991 1451.57C387.731 1449.22 388.934 1448.11 391.813 1447.68C393.518 1448.77 393.657 1449.06 394.505 1450.79C393.216 1453.06 391.983 1453.61 389.722 1454.83C388.724 1455.36 387.63 1455.85 386.784 1456.63C382.519 1460.54 383.587 1469.56 383.555 1474.88C383.595 1479.77 384.184 1485.79 381.227 1489.97L380.002 1489.32C377.429 1484.14 377.129 1478.41 376.98 1472.73C376.828 1466.86 375.475 1451.7 379.506 1447.45Z"/><path fill="#383333" d="M312.709 1538.83C314.709 1538.94 317 1539.09 318.651 1540.33C322.374 1543.13 323.75 1548.55 324.229 1552.95C324.788 1558.06 324.941 1565.98 321.499 1570.19C318.21 1568.47 320.139 1551.84 318.306 1547.63C316.931 1544.47 314.826 1543.92 311.923 1542.82C306.42 1551.41 309.696 1561.66 305.31 1570.09L304.309 1569.18C302.356 1561.73 302.364 1548.9 304.546 1541.52C304.806 1540.63 305.024 1540.74 305.782 1540.32C306.351 1541.53 306.479 1542.55 307.738 1543.09L312.709 1538.83Z"/><path fill="#383333" d="M327.95 1538.92C328.507 1539.13 329.046 1539.35 329.563 1539.66C334.458 1542.56 337.178 1558.1 338.671 1563.79C340.205 1557.76 341.94 1545.89 346.55 1541.48C348.871 1546.53 343.776 1559.28 342.145 1564.76C340.113 1571.9 338.373 1578.82 331.654 1583.01L330.739 1582.07C331.34 1577.92 334.963 1574.14 337.433 1570.86C333.649 1560.42 329.704 1549.92 327.95 1538.92Z"/><path fill="#383333" d="M550.852 1538.96C552.545 1538.98 554.242 1539 555.694 1539.99C558.773 1542.08 559.927 1547.41 560.533 1550.86C561.481 1556.26 562.705 1566.64 559.358 1571.4L557.945 1571.4C555.325 1565.65 558.637 1556.18 557.013 1549.6C556.177 1546.21 554.574 1544.23 551.616 1542.56C551.404 1542.44 551.188 1542.33 550.975 1542.22C541.034 1550.19 547.992 1561.36 544.124 1571.75L542.812 1572.11C542.404 1571.04 542.068 1569.96 541.896 1568.83C540.961 1562.68 539.671 1545.61 543.172 1540.84C544.302 1541.23 545.412 1541.51 546.573 1541.79L550.852 1538.96Z"/><path fill="#383333" d="M565.001 1538.83C571.204 1542.45 573.85 1557.37 575.815 1564.22C578.351 1554.89 581.078 1545.88 585.308 1537.16C584.645 1545.05 582.46 1552.54 580.335 1560.13C579.952 1561.66 579.561 1563.19 579.162 1564.72C577.457 1571.21 575.245 1578.53 569.01 1582.16L567.934 1581.39C568.243 1577.61 571.745 1574.05 574.002 1571.11C570.541 1560.84 565.997 1549.64 565.001 1538.83Z"/><path fill="#383333" d="M594.619 1531.64L596.088 1533.2C596.259 1535.16 596.592 1536.88 597.182 1538.76C598.796 1539.56 600.401 1540.37 601.997 1541.2C601.451 1541.93 600.93 1542.69 600.435 1543.46C596.524 1549.52 594.625 1555.51 596.228 1562.7C596.92 1565.8 597.484 1566.67 600.169 1568.34C601.913 1569.43 602.82 1570.1 603.674 1572.08C603.747 1572.25 603.808 1572.43 603.875 1572.6C600.955 1572.93 598.495 1573.28 595.995 1571.34C589.369 1566.21 594.016 1551.9 592.913 1544.66L589.834 1543.12C589.057 1540.57 593.722 1536.2 594.452 1532.53C594.512 1532.23 594.564 1531.94 594.619 1531.64Z"/><path fill="#383333" d="M459.972 1539.16C461.185 1539.4 461.301 1539.75 462.172 1540.57C461.936 1544.17 457.292 1548.82 455.164 1551.75C455.012 1559.12 457.903 1567.88 452.605 1573.94C450.14 1568.85 450.745 1558.73 450.708 1552.94C450.686 1549.43 450.271 1543.55 452.836 1540.94C454.268 1541.11 455.556 1541.52 456.923 1541.95L459.972 1539.16Z"/><path fill="#BCB6B6" d="M116.239 963.431L117.27 963.245C117.346 965.911 116.945 967.79 118.158 969.803C127.74 970.376 168.061 968.147 172.651 969.384L171.352 971.253C153.386 971.786 135.413 972.08 117.439 972.135C117.424 976.621 117.198 982.799 117.897 987.088L116.999 992.127C116.383 984.91 116.505 979.232 116.634 971.973L115.738 970.337C116.747 968.307 116.34 965.81 116.239 963.431Z"/><path fill="#383333" d="M609.099 1539.38L610.876 1540.29C615.752 1547.82 612.802 1564.19 612.073 1573.11L609.87 1572.01C605.588 1563.9 608.375 1548.54 609.099 1539.38Z"/><path fill="#BCB6B6" fill-opacity="0.43921569" d="M114.918 859.803C116.851 867.041 116.706 912.716 116.666 922.796L115.065 925.307C114.453 921.954 114.585 905.552 114.57 901.576L114.123 860.827L114.918 859.803Z"/><path fill="#BCB6B6" fill-opacity="0.57254905" d="M115.065 925.307L116.666 922.796C116.931 935.907 117.641 950.333 117.27 963.245L116.239 963.431C115.378 960.796 115.405 931.044 115.065 925.307Z"/><path fill="#383333" d="M495.208 1562.78C495.89 1563.38 497.016 1564.09 497.356 1564.92C499.261 1569.61 495.761 1575.4 493.843 1579.66C492.846 1579.03 492.523 1578.38 491.969 1577.36C491.962 1572.4 493.809 1567.5 495.208 1562.78Z"/><path fill="#BCB6B6" fill-opacity="0.85490197" d="M95.8376 970.622C102.562 970.317 109.012 969.896 115.738 970.337L116.634 971.973L104.464 972.146L95.8376 970.622Z"/><path fill="#D6CCC1" fill-opacity="0.42352942" d="M113.018 835.425C114.193 840.331 113.877 845.329 113.812 850.379C109.409 850.389 103.508 850.584 99.2313 850.349C103.048 849.445 109.025 849.551 113.105 849.468C112.896 844.61 112.942 840.263 113.018 835.425Z"/><path fill="#D6CCC1" fill-opacity="0.52549022" d="M104.464 972.146C101.85 972.287 95.8947 972.499 93.8591 971.266L95.8376 970.622L104.464 972.146Z"/></svg>